<svg width="429" height="429" viewBox="0 0 429 429" fill="none" xmlns="http://www.w3.org/2000/svg">
<path d="M247.713 264.95C247.456 264.95 247.199 264.95 246.933 264.95C247.192 264.916 247.454 264.916 247.713 264.95Z" fill="#EBEBEB"/>
<path d="M211.617 76.688V381.244H209.266L185.465 381.201H185.319L139.373 381.124H138.361L123.689 381.106L120.926 381.098H120.772L80.9007 381.029L74.8346 381.003L73.8136 380.995L53.8994 380.9V76.688H211.617Z" fill="#EBEBEB"/>
<path d="M120.849 97.5289L109.215 97.4087H97.5889L74.3199 97.3315H73.4619V98.1895L73.5992 135.281V135.976H74.2856L97.7176 135.684L120.815 135.281L97.3915 134.878L74.972 134.594V135.281L74.2856 134.586H74.972L75.1179 99.0046H74.2599L75.1179 98.1466V99.0046L97.5545 98.9274L109.18 98.8759L120.231 98.7644V98.1809L120.824 98.7558H120.24L120.343 107.336L120.48 116.551L120.824 135.247L121.158 116.834L121.295 107.516L121.407 98.1552V97.5718L120.849 97.5289Z" fill="#DBDBDB"/>
<path d="M185.877 107.482L185.989 98.1209V97.5374H185.388L173.762 97.4173H162.119L138.859 97.3401H138.001V98.1981L138.147 135.289V135.984H138.825L162.257 135.693L185.354 135.289L161.922 134.886L139.52 134.603V135.289L138.825 134.594H139.52L139.657 99.0132H138.799L139.657 98.1552V99.0132L162.085 98.936L173.728 98.8845L184.779 98.773V98.1895L185.363 98.7644H184.788L184.882 107.344L185.028 116.559L185.363 135.255L185.697 116.842L185.843 107.525" fill="#DBDBDB"/>
<path d="M120.849 155.229L74.3199 155.135H73.4619V155.993L73.5563 209.266C73.5563 218.144 73.5935 227.024 73.6678 235.907L73.8566 262.548V263.011H74.3113L97.6747 262.797L120.841 262.557L97.4773 262.308L74.7747 262.102V262.548L74.3113 262.085H74.7747L74.9291 235.89C74.9863 227.007 75.0235 218.126 75.0406 209.249L75.1436 156.808H74.2856L75.1436 155.95V156.808L120.103 156.722V155.976L120.841 156.722H120.12C120.12 165.302 120.12 173.882 120.206 182.462L120.395 209.06L120.858 262.539L121.313 209.455L121.51 182.737C121.587 173.831 121.57 164.899 121.596 155.976V155.238L120.849 155.229Z" fill="#DBDBDB"/>
<path d="M185.397 155.229L138.868 155.135H138.01V155.993L138.121 209.266C138.121 218.146 138.173 227.027 138.224 235.907L138.387 262.557V263.02H138.842L162.205 262.805L185.371 262.565L162.008 262.316L139.305 262.11V262.548L138.842 262.085H139.305L139.46 235.89C139.528 227.007 139.566 218.126 139.571 209.249L139.674 156.808H138.816L139.674 155.95V156.808L184.625 156.722V155.976L185.371 156.722H184.625C184.625 165.302 184.625 173.882 184.719 182.462L184.908 209.06L185.371 262.539L185.835 209.455L186.015 182.737C186.101 173.831 186.084 164.899 186.109 155.976V155.238L185.397 155.229Z" fill="#DBDBDB"/>
<path d="M120.849 282.539L74.3199 282.454H73.4619V283.312L73.5563 336.593C73.5563 345.477 73.5935 354.357 73.6678 363.234L73.788 380.66V380.995H74.809V380.643L74.9034 363.2C74.9606 354.323 74.9977 345.442 75.0149 336.559L75.1179 284.11H74.2599L75.1179 283.252V284.11L120.12 283.998V283.26L120.858 283.998H120.12C120.12 292.578 120.12 301.158 120.206 309.738L120.395 336.336L120.772 380.514V381.055H120.926V380.514L121.295 336.714L121.493 310.004C121.57 301.089 121.553 292.166 121.579 283.243V282.497L120.849 282.539Z" fill="#DBDBDB"/>
<path d="M185.397 282.539L138.868 282.454H138.01V283.312L138.121 336.593C138.121 345.474 138.173 354.354 138.224 363.234L138.327 380.557V381.149H139.34V380.557L139.443 363.234C139.511 354.357 139.548 345.477 139.554 336.593L139.657 284.144H138.799L139.657 283.286V284.144L184.608 284.049V283.312L185.354 284.049H184.608C184.608 292.629 184.608 301.209 184.702 309.789L184.891 336.387L185.268 380.463V381.209H185.414V380.463L185.8 336.765L185.981 310.055C186.066 301.141 186.049 292.218 186.075 283.294V282.548L185.397 282.539Z" fill="#DBDBDB"/>
<path d="M225.723 62.1793V381.218L211.617 381.244V76.688H53.8997V380.901L39.8027 380.84V62.1793H225.723Z" fill="#DBDBDB"/>
<path d="M205.997 262.531H191.694V301.699H205.997V262.531Z" fill="#DBDBDB"/>
<path d="M204.616 269.352C204.586 270.487 204.221 271.588 203.569 272.517C202.916 273.446 202.004 274.162 200.946 274.575C199.889 274.989 198.733 275.081 197.623 274.841C196.514 274.601 195.499 274.04 194.707 273.226C193.915 272.413 193.38 271.384 193.17 270.268C192.959 269.153 193.082 268 193.523 266.954C193.964 265.907 194.704 265.015 195.65 264.387C196.596 263.759 197.706 263.424 198.842 263.423C199.61 263.433 200.369 263.595 201.075 263.898C201.781 264.201 202.421 264.641 202.957 265.191C203.493 265.742 203.916 266.393 204.2 267.107C204.485 267.821 204.626 268.583 204.616 269.352Z" fill="#C7C7C7"/>
<path d="M368.185 38.6958H338.772V51.1282H368.185V38.6958Z" fill="#EBEBEB"/>
<path d="M351.772 54.3715H322.359V66.8039H351.772V54.3715Z" fill="#EBEBEB"/>
<path d="M384.59 54.3715H355.178V66.8039H384.59V54.3715Z" fill="#EBEBEB"/>
<path d="M276.345 166.915H246.933V179.348H276.345V166.915Z" fill="#EBEBEB"/>
<path d="M62.84 38.713H33.4277V51.1455H62.84V38.713Z" fill="#EBEBEB"/>
<path d="M338.765 322.196H368.177V309.764H338.765V322.196Z" fill="#EBEBEB"/>
<path d="M355.178 306.521H384.59V294.088H355.178V306.521Z" fill="#EBEBEB"/>
<path d="M289.175 86.9912L287.574 132.154L358.786 134.678L360.387 89.5153L289.175 86.9912Z" fill="#EBEBEB"/>
<path d="M360.36 89.5151C357.391 92.1664 354.354 94.6631 351.376 97.2972C348.399 99.9313 345.37 102.394 342.299 104.908C339.13 107.533 335.958 110.136 332.784 112.715L332.5 112.964L324.041 119.828L323.629 120.146L323.243 119.794C320.594 117.329 317.949 114.855 315.306 112.372C315.205 112.294 315.111 112.208 315.023 112.115C312.029 109.318 309.017 106.504 306.074 103.638C303.234 100.935 300.394 98.1809 297.571 95.4268C294.748 92.6726 291.934 89.8841 289.154 87.0269C292.132 89.498 295.049 92.072 297.983 94.5945C300.917 97.117 303.843 99.7425 306.752 102.316C309.984 105.177 313.215 108.097 316.447 111.077L323.697 117.7C326.271 115.667 328.845 113.616 331.419 111.609C334.851 108.897 338.283 106.209 341.715 103.543C344.793 101.164 347.884 98.8016 350.99 96.4564C354.148 94.1312 357.237 91.806 360.36 89.5151Z" fill="white"/>
<path d="M316.542 112.106L316.447 112.175C316.061 112.484 315.675 112.793 315.289 113.084C313.453 114.534 311.574 115.907 309.66 117.246C307.335 118.902 304.959 120.472 302.565 122.033C300.171 123.595 297.76 125.088 295.298 126.546C292.835 128.005 290.355 129.421 287.79 130.708C290.021 128.897 292.329 127.207 294.654 125.56C296.979 123.912 299.373 122.334 301.758 120.772C304.144 119.211 306.572 117.709 309.034 116.25C310.99 115.092 312.981 113.951 315.04 112.887C315.503 112.638 315.975 112.398 316.456 112.158L316.542 112.106Z" fill="white"/>
<path d="M358.644 133.222C356.182 131.754 353.796 130.159 351.454 128.537C349.112 126.915 346.804 125.225 344.513 123.526C342.222 121.827 339.974 120.051 337.769 118.241C335.967 116.774 334.191 115.281 332.475 113.711L331.368 112.707C331.345 112.679 331.319 112.653 331.291 112.63L331.394 112.681L332.758 113.539C334.706 114.749 336.602 116.019 338.481 117.323C340.832 118.945 343.123 120.635 345.414 122.342C347.705 124.05 349.944 125.774 352.149 127.628C354.354 129.481 356.568 131.274 358.644 133.222Z" fill="white"/>
<path d="M349.799 152.102L339.607 183.469L389.066 199.539L399.257 168.172L349.799 152.102Z" fill="#EBEBEB"/>
<path d="M399.227 168.168C396.61 169.429 393.985 170.596 391.359 171.823C388.734 173.05 386.1 174.183 383.466 175.341C380.832 176.499 377.966 177.735 375.22 178.91L374.972 179.03L367.67 182.119L367.31 182.256L367.112 181.939C365.745 179.651 364.384 177.383 363.028 175.135L362.891 174.903C361.347 172.329 359.819 169.755 358.309 167.181C356.799 164.607 355.426 162.213 354.019 159.708C352.612 157.203 351.179 154.689 349.798 152.132C351.394 154.457 352.921 156.851 354.474 159.21C356.027 161.57 357.554 163.99 359.073 166.401C360.789 169.077 362.471 171.777 364.118 174.5C365.379 176.525 366.623 178.567 367.876 180.6C370.081 179.682 372.295 178.764 374.5 177.872C377.451 176.659 380.4 175.464 383.346 174.286C385.98 173.23 388.631 172.192 391.274 171.171C393.916 170.15 396.576 169.095 399.227 168.168Z" fill="white"/>
<path d="M363.938 175.195H363.861L362.866 175.607C361.287 176.25 359.691 176.834 358.078 177.391C356.113 178.086 354.131 178.713 352.141 179.331C350.15 179.948 348.151 180.506 346.135 181.047C344.118 181.587 342.085 182.076 340.034 182.462C341.956 181.604 343.912 180.918 345.877 180.231C347.842 179.545 349.841 178.919 351.823 178.301C353.805 177.683 355.821 177.117 357.829 176.585C359.434 176.156 361.055 175.727 362.694 175.418L363.835 175.195H363.938Z" fill="white"/>
<path d="M389.249 198.473C387.816 196.945 386.461 195.349 385.148 193.736C383.835 192.123 382.574 190.485 381.278 188.829C379.983 187.173 378.799 185.482 377.615 183.766C376.645 182.376 375.693 180.969 374.801 179.528C374.612 179.21 374.423 178.91 374.234 178.601C374.222 178.577 374.208 178.554 374.191 178.533L374.251 178.593L375.041 179.451C376.165 180.686 377.237 181.965 378.301 183.252C379.623 184.865 380.875 186.512 382.154 188.168C383.432 189.824 384.642 191.514 385.826 193.23C387.01 194.946 388.177 196.671 389.249 198.473Z" fill="white"/>
<path d="M38.0605 380.815L82.1703 380.609L126.28 380.532L214.5 380.386L302.719 380.532L346.829 380.609L390.939 380.815L346.829 381.021L302.719 381.098L214.5 381.244L126.28 381.098L82.1703 381.021L38.0605 380.815Z" fill="#263238"/>
<path d="M146.169 296.654C146.169 296.654 166.126 369.987 170.939 380.815H248.348C234.989 345.834 220.849 300.06 220.446 296.877C220.446 296.731 220.446 296.654 220.446 296.654H146.169Z" fill="#37474F"/>
<path d="M157.014 306.409C157.503 312.363 179.159 375.692 180.978 380.815H182.093C182.093 380.815 158.575 310.75 157.314 306.409C157.28 306.229 157.014 306.229 157.014 306.409Z" fill="#263238"/>
<path d="M209.695 296.645L199.7 362.488L199.348 364.719L198.49 370.673L198.421 371.094L198.181 372.681L196.954 380.789H170.939C166.135 369.961 146.169 296.619 146.169 296.619L209.695 296.645Z" fill="#263238"/>
<path d="M107.353 380.815H180.601C180.601 380.506 180.652 380.257 180.661 380.051C180.669 379.845 180.704 379.553 180.704 379.553L181.931 378.893C186.221 376.542 190.022 374.714 193.136 373.324C193.668 373.093 194.174 372.87 194.672 372.638C196.079 372.029 197.34 371.514 198.387 371.102C201.09 370.038 202.583 369.558 202.583 369.558C202.677 369.335 202.754 369.12 202.832 368.897C213.445 341.879 219.846 300.712 220.446 296.877C220.446 296.671 220.446 296.585 220.446 296.585H115.83C109.619 316.061 97.1346 351.874 107.353 380.815Z" fill="#37474F"/>
<path d="M206.323 367.627C197.451 370.682 188.889 375.015 180.703 379.562C180.646 379.601 180.604 379.658 180.585 379.725C180.566 379.792 180.572 379.863 180.601 379.926C180.63 379.989 180.68 380.039 180.743 380.069C180.806 380.098 180.877 380.104 180.944 380.085C189.575 376.379 198.369 372.835 206.786 368.657C206.911 368.588 207.006 368.475 207.051 368.34C207.096 368.205 207.089 368.058 207.031 367.928C206.972 367.798 206.867 367.695 206.736 367.639C206.605 367.583 206.457 367.579 206.323 367.627Z" fill="#263238"/>
<path d="M209.069 308.4C209.069 308.099 208.519 308.031 208.519 308.357C208.588 318.601 207.936 327.619 207.078 337.194C206.675 341.638 203.097 366.212 195.383 364.418C194.096 364.118 193.436 362.848 193.238 360.909C192.99 358.567 193.873 355.692 194.26 353.367C195.118 348.219 195.804 343.071 196.241 337.872C197.138 328.197 197.035 318.456 195.933 308.803C195.933 308.737 195.906 308.673 195.86 308.627C195.813 308.58 195.75 308.554 195.684 308.554C195.618 308.554 195.555 308.58 195.508 308.627C195.461 308.673 195.435 308.737 195.435 308.803C195.435 322.23 195.092 335.632 193.084 348.931C192.123 355.324 188.906 364.942 195.589 365.928C202.273 366.915 206.778 350.836 207.636 346.426C209.944 334.131 210.038 320.892 209.069 308.4Z" fill="#263238"/>
<path d="M195.624 365.079C194.945 366.74 194.372 368.442 193.908 370.176C193.41 371.515 193.166 372.934 193.187 374.363C193.2 374.418 193.229 374.469 193.269 374.508C193.31 374.548 193.362 374.576 193.417 374.587C193.473 374.599 193.531 374.594 193.584 374.574C193.638 374.554 193.684 374.52 193.719 374.474C194.628 373.333 195.006 371.763 195.512 370.399C196.104 368.828 196.722 367.267 197.228 365.671C197.286 365.464 197.263 365.242 197.165 365.05C197.067 364.859 196.9 364.711 196.698 364.636C196.496 364.562 196.274 364.566 196.075 364.648C195.875 364.73 195.714 364.884 195.624 365.079Z" fill="#263238"/>
<path d="M160.704 316.439C160.725 315.366 160.615 314.294 160.378 313.247C160.367 313.215 160.346 313.187 160.318 313.167C160.29 313.147 160.257 313.136 160.223 313.136C160.189 313.136 160.156 313.147 160.128 313.167C160.1 313.187 160.08 313.215 160.069 313.247C159.85 314.15 159.729 315.073 159.708 316.001C159.597 317.057 159.459 318.112 159.348 319.176C159.121 321.339 158.742 323.484 158.215 325.594C157.241 329.585 155.207 333.24 152.329 336.173C149.471 338.986 146.09 341.213 142.377 342.728C138.233 344.444 133.874 345.131 129.601 346.392C129.565 346.404 129.534 346.429 129.514 346.462C129.494 346.495 129.486 346.534 129.492 346.572C129.499 346.61 129.518 346.645 129.547 346.67C129.577 346.695 129.614 346.709 129.653 346.709C134.395 346.697 139.091 345.771 143.484 343.981C147.37 342.525 150.907 340.268 153.865 337.357C156.84 334.351 158.934 330.589 159.923 326.478C160.419 324.366 160.706 322.211 160.781 320.043C160.828 318.841 160.802 317.638 160.704 316.439Z" fill="#263238"/>
<path d="M117.623 380.815C115.444 374.474 114.089 367.879 113.591 361.192C113.025 354.505 112.99 347.782 113.488 341.089C113.831 337.76 114.088 334.414 114.655 331.111C114.929 329.455 115.127 327.79 115.513 326.152L116.542 321.235C116.723 320.377 116.877 319.596 117.074 318.781L117.726 316.353L119.039 311.514C119.502 309.91 120.086 308.339 120.601 306.752C121.115 305.165 121.673 303.586 122.231 302.016C121.493 305.276 120.584 308.477 119.854 311.729L118.773 316.602L118.25 319.039C118.078 319.854 117.958 320.669 117.812 321.493L116.954 326.4C116.654 328.031 116.499 329.686 116.268 331.325C115.753 334.603 115.513 337.915 115.195 341.218C114.701 347.83 114.609 354.466 114.921 361.089C115.015 362.745 115.092 364.401 115.272 366.049L115.496 368.528L115.804 370.999C116.2 374.307 116.807 377.585 117.623 380.815Z" fill="#263238"/>
<path d="M183.371 197.477C197.408 220.532 225.199 256.851 238.609 264.933C253.513 273.917 296.095 243.423 323.671 225.165C329.146 221.536 303.611 177.271 297.931 181.407C283.182 192.312 252.681 217.64 248.631 216.782C245.319 216.079 217.159 196.465 201.381 185.225C176.31 167.361 173.487 181.253 183.371 197.477Z" fill="#D3766A"/>
<path d="M287.164 187.902L310.844 238.773C310.844 238.773 259.287 272.484 243.251 268.382C227.215 264.281 193.135 217.074 183.14 198.541C173.144 180.008 177.794 169.601 197.168 182.033C216.542 194.466 246.366 214.346 249.506 214.449C252.646 214.551 287.164 187.902 287.164 187.902Z" fill="#EC287C"/>
<path d="M296.242 244.847C289.472 223.114 279.082 201.295 277.503 197.366C277.434 197.186 277.143 197.323 277.22 197.503C278.936 201.278 288.142 227.533 295.933 245.002C296.01 245.199 296.31 245.053 296.242 244.847Z" fill="#263238"/>
<path opacity="0.1" d="M258.781 266.263C252.587 268.357 247.07 269.343 243.252 268.365C227.216 264.264 193.127 217.074 183.132 198.55C178.842 190.622 177.263 184.187 178.361 180.369C197.572 201.012 242.522 248.949 258.781 266.263Z" fill="black"/>
<path d="M308.348 235.401L287.336 189.618C288.074 188.666 291.231 186.778 294.346 183.844C294.346 183.844 302.514 172.604 305.809 160.412C308.589 150.167 311.549 134.672 317.117 135.933C325.234 137.795 323.844 157.872 322.351 169.395C328.185 167.044 333.436 165.568 336.8 165.826C347.954 166.684 350.528 217.16 341.09 223.595C331.978 229.712 314.535 236.293 308.348 235.401Z" fill="#D3766A"/>
<path d="M338.652 240.137L264.513 234.603L271.806 136.911L345.945 142.454L338.652 240.137Z" fill="#455A64"/>
<path d="M338.447 148.185L278.365 143.699L272.008 228.85L332.089 233.336L338.447 148.185Z" fill="white"/>
<path d="M300.878 145.379L278.366 143.698L272.008 228.849L294.52 230.53L300.878 145.379Z" fill="#EBEBEB"/>
<path d="M291.849 162.042C291.004 162.489 290.064 162.728 289.108 162.739C288.151 162.75 287.206 162.533 286.351 162.105C285.496 161.677 284.755 161.05 284.191 160.278C283.626 159.506 283.254 158.611 283.106 157.666C282.935 156.576 283.067 155.46 283.488 154.44C283.91 153.421 284.604 152.537 285.494 151.885C286.385 151.234 287.438 150.841 288.537 150.749C289.637 150.657 290.741 150.869 291.727 151.363C292.714 151.857 293.546 152.613 294.131 153.548C294.716 154.483 295.032 155.562 295.045 156.665C295.057 157.768 294.766 158.854 294.202 159.802C293.638 160.751 292.824 161.526 291.849 162.042Z" fill="#A6A6A6"/>
<path d="M290.948 156.156C290.923 156.52 290.791 156.869 290.569 157.158C290.346 157.447 290.043 157.663 289.697 157.78C289.351 157.896 288.979 157.908 288.626 157.813C288.274 157.717 287.958 157.52 287.718 157.245C287.478 156.97 287.325 156.631 287.278 156.269C287.231 155.907 287.293 155.539 287.455 155.212C287.617 154.885 287.872 154.614 288.188 154.432C288.505 154.25 288.868 154.167 289.232 154.191C289.72 154.224 290.175 154.45 290.497 154.818C290.819 155.187 290.981 155.668 290.948 156.156Z" fill="white"/>
<path d="M291.9 161.304L291.848 162.068C290.85 162.581 289.729 162.808 288.61 162.723C287.491 162.638 286.417 162.245 285.508 161.587L285.568 160.832C285.599 160.416 285.711 160.011 285.899 159.638C286.087 159.266 286.346 158.935 286.662 158.662C286.978 158.39 287.344 158.183 287.74 158.053C288.136 157.922 288.554 157.871 288.97 157.902C289.386 157.933 289.791 158.046 290.163 158.233C290.536 158.421 290.867 158.68 291.139 158.996C291.412 159.312 291.619 159.678 291.749 160.074C291.88 160.47 291.931 160.888 291.9 161.304Z" fill="white"/>
<path d="M320.526 154.085L304.312 152.875L304.229 153.996L320.443 155.206L320.526 154.085Z" fill="#EBEBEB"/>
<path d="M332.105 158.062L304.084 155.97L304 157.09L332.022 159.183L332.105 158.062Z" fill="#EBEBEB"/>
<path d="M325.63 160.694L303.854 159.068L303.771 160.189L325.546 161.815L325.63 160.694Z" fill="#EBEBEB"/>
<path d="M315.963 166.212L303.394 165.273L303.31 166.394L315.879 167.333L315.963 166.212Z" fill="#EBEBEB"/>
<path d="M324.939 169.995L303.163 168.369L303.079 169.49L324.855 171.116L324.939 169.995Z" fill="#EBEBEB"/>
<path d="M330.955 173.557L302.934 171.465L302.85 172.586L330.871 174.678L330.955 173.557Z" fill="#EBEBEB"/>
<path d="M318.907 175.775L302.693 174.564L302.61 175.685L318.824 176.896L318.907 175.775Z" fill="#EBEBEB"/>
<path d="M331.991 181.891L303.892 179.924L303.813 181.048L331.912 183.015L331.991 181.891Z" fill="#EBEBEB"/>
<path d="M322.337 185.382L302.008 183.864L301.924 184.985L322.254 186.503L322.337 185.382Z" fill="#EBEBEB"/>
<path d="M316.868 188.09L301.775 186.963L301.692 188.084L316.785 189.21L316.868 188.09Z" fill="#EBEBEB"/>
<path d="M326.784 191.942L301.543 190.058L301.459 191.178L326.7 193.063L326.784 191.942Z" fill="#EBEBEB"/>
<path d="M321.41 197.771L301.08 196.253L300.996 197.374L321.326 198.892L321.41 197.771Z" fill="#EBEBEB"/>
<path d="M328.875 201.45L300.854 199.358L300.77 200.479L328.791 202.571L328.875 201.45Z" fill="#EBEBEB"/>
<path d="M325.626 207.437L300.385 205.553L300.301 206.673L325.542 208.558L325.626 207.437Z" fill="#EBEBEB"/>
<path d="M315.104 209.777L300.156 208.661L300.073 209.782L315.02 210.898L315.104 209.777Z" fill="#EBEBEB"/>
<path d="M329.805 212.977L301.705 211.01L301.626 212.134L329.726 214.101L329.805 212.977Z" fill="#EBEBEB"/>
<path d="M319.789 219.478L299.46 217.96L299.376 219.081L319.706 220.599L319.789 219.478Z" fill="#EBEBEB"/>
<path d="M329.145 222.297L301.046 220.331L300.967 221.455L329.067 223.421L329.145 222.297Z" fill="#EBEBEB"/>
<path d="M326.138 225.218L300.827 223.446L300.748 224.57L326.059 226.342L326.138 225.218Z" fill="#EBEBEB"/>
<path d="M291.247 166.531L283.782 166.008L283.704 167.132L291.168 167.655L291.247 166.531Z" fill="#A6A6A6"/>
<path d="M294.408 170.832L282.019 169.907L281.935 171.028L294.324 171.953L294.408 170.832Z" fill="#A6A6A6"/>
<path d="M292.139 173.777L281.786 173.004L281.702 174.125L292.055 174.898L292.139 173.777Z" fill="#A6A6A6"/>
<path d="M293.717 180.132L281.328 179.207L281.244 180.328L293.634 181.253L293.717 180.132Z" fill="#A6A6A6"/>
<path d="M294.255 183.278L281.096 182.296L281.012 183.417L294.171 184.399L294.255 183.278Z" fill="#A6A6A6"/>
<path d="M290.092 186.092L280.859 185.402L280.776 186.523L290.008 187.212L290.092 186.092Z" fill="#A6A6A6"/>
<path d="M293.185 188.539L282.245 187.773L282.166 188.897L293.106 189.663L293.185 188.539Z" fill="#A6A6A6"/>
<path d="M328.092 135.409L290.514 132.603L289.52 145.917L327.098 148.722L328.092 135.409Z" fill="#A6A6A6"/>
<path d="M322.282 140.18L295.547 138.181L296.319 127.851L323.054 129.841L322.282 140.18Z" fill="#A6A6A6"/>
<path d="M319.296 167.859C316.868 173.17 324.513 173.007 324.513 173.007C324.513 173.007 313.573 175.89 313.17 182.334C312.818 188.545 322.042 188.005 322.703 187.971C322.128 188.134 312.141 191.068 312.407 197.572C312.698 204.341 321.845 202.213 322.454 202.068C321.956 202.394 315.444 206.744 316.774 211.643C319.073 220.06 336.045 209.378 342.857 211.24C342.857 211.24 341.038 223.149 341.055 223.5C341.055 223.5 357.4 213.668 359.391 204.341C359.699 202.989 359.537 201.572 358.931 200.325C358.326 199.077 357.314 198.073 356.062 197.477C356.062 197.477 361.682 194.903 361.63 189.755C361.587 187.121 357.34 184.83 357.34 184.83C357.34 184.83 361.759 182.574 361.424 178.009C361.167 174.371 356.945 172.638 356.945 172.638C356.945 172.638 360.18 168.503 358.713 164.873C355.787 157.529 324.504 156.508 319.296 167.859Z" fill="#D3766A"/>
<path d="M356.353 172.269C356.371 172.264 356.386 172.253 356.396 172.238C356.407 172.223 356.412 172.206 356.412 172.188C356.412 172.17 356.407 172.152 356.396 172.137C356.386 172.123 356.371 172.112 356.353 172.106C346.143 169.258 334.045 169.258 324.067 172.964C323.732 173.084 323.792 173.676 324.178 173.608C335.247 171.754 345.182 170.999 356.353 172.269Z" fill="#263238"/>
<path d="M357.528 184.77C357.648 184.77 357.674 184.59 357.528 184.556C347 181.673 333.384 182.05 322.35 187.67C321.973 187.868 321.827 188.417 322.273 188.228C329.918 185.045 347.49 183.612 357.528 184.77Z" fill="#263238"/>
<path d="M321.844 202.728C332.621 197.743 343.912 196.722 355.658 197.323C355.812 197.323 355.804 197.117 355.658 197.074C349.987 195.212 342.462 195.598 336.628 196.405C331.2 197.042 326.034 199.092 321.647 202.351C321.501 202.488 321.621 202.831 321.844 202.728Z" fill="#263238"/>
<path d="M220.412 296.654L217.383 263.535C217.383 263.535 226.229 250.013 224.933 234.037C223.998 222.402 190.785 181.699 188.649 179.742C180.069 171.737 165.577 174.929 159.631 179.425C126.701 204.307 126.984 244.092 115.873 296.585L220.412 296.654Z" fill="#EC287C"/>
<path d="M220.412 296.653L217.383 263.535C217.383 263.535 228.777 248.348 224.933 234.037C221.09 219.725 209.764 206.666 209.764 206.666H160.789C160.789 206.666 156.353 249.515 145.139 256.808C138.331 261.348 130.022 263.059 121.973 261.578L115.83 296.585L220.412 296.653Z" fill="#37474F"/>
<path d="M186.134 259.202C190.878 258.924 195.636 258.999 200.369 259.425C202.719 259.665 205.036 260.017 207.361 260.412C208.528 260.617 209.686 260.772 210.845 260.926C212.061 261.125 213.297 261.174 214.526 261.072C214.548 261.072 214.57 261.081 214.586 261.097C214.602 261.113 214.611 261.135 214.611 261.158C214.611 261.181 214.602 261.203 214.586 261.219C214.57 261.235 214.548 261.244 214.526 261.244C212.271 261.732 209.951 261.839 207.662 261.561C205.276 261.338 202.908 261.004 200.523 260.755C195.718 260.249 190.913 259.751 186.083 259.596C185.911 259.588 185.911 259.219 186.134 259.202Z" fill="#263238"/>
<path d="M175.186 265.07C178.981 264.092 182.828 263.33 186.709 262.788C188.657 262.522 190.596 262.368 192.561 262.265C193.487 262.222 194.431 262.188 195.366 262.17C196.301 262.153 197.425 262.265 198.455 262.231C198.567 262.231 198.584 262.394 198.455 262.394C197.485 262.462 196.516 262.685 195.555 262.805L192.646 263.157C190.707 263.397 188.777 263.663 186.829 263.886C182.942 264.333 179.107 264.813 175.203 265.388C175.032 265.422 175.032 265.122 175.186 265.07Z" fill="#263238"/>
<path d="M166.632 193.505C160.575 202.128 114.723 256.619 101.776 264.856C91.9349 271.128 66.0662 274.955 67.3961 250.536C68.2541 234.234 133.462 188.245 159.768 177.1C171.858 171.943 179.322 175.418 166.632 193.505Z" fill="#EC287C"/>
<path d="M77.7773 268.648C81.6399 269.695 85.6865 269.874 89.6263 269.172C93.5409 268.532 97.2992 267.158 100.703 265.122C102.398 264.098 104.016 262.951 105.542 261.69C107.069 260.437 108.528 259.073 109.97 257.7C112.844 254.929 115.624 252.046 118.361 249.12C123.886 243.337 129.223 237.349 134.568 231.385L150.544 213.367C148.099 216.542 145.559 219.639 143.037 222.805C140.514 225.971 137.889 228.974 135.315 232.038C130.115 238.135 124.764 244.118 119.262 249.987C116.482 252.895 113.667 255.761 110.742 258.524C109.275 259.897 107.79 261.261 106.211 262.539C104.632 263.831 102.941 264.979 101.158 265.971C97.6112 267.974 93.7148 269.282 89.6778 269.824C87.685 270.068 85.6723 270.105 83.6718 269.935C81.6569 269.781 79.6731 269.348 77.7773 268.648Z" fill="#263238"/>
<path d="M144.41 220.686C145.462 219.827 146.559 219.025 147.696 218.284L151.068 216.027C150.242 217.132 149.221 218.077 148.057 218.816C146.926 219.592 145.7 220.221 144.41 220.686Z" fill="#263238"/>
<path d="M160.789 206.666H168.271C168.568 195.904 167.036 185.17 163.74 174.92L158.901 176.147C158.901 176.147 163.663 195.984 160.789 206.666Z" fill="#37474F"/>
<path d="M191.18 177.889C191.18 177.889 201.27 192.424 209.764 206.666H205.011L185.972 175.89L191.18 177.889Z" fill="#37474F"/>
<path d="M166.452 180.523C167.044 182.6 176.507 194.809 186.117 193.891C189.249 193.591 189.609 177.426 189.609 177.426L189.832 176.139L192.947 158.198L171.454 145.86L168.356 144.23C168.356 144.23 167.833 149.198 167.232 155.384C167.232 155.667 167.181 155.959 167.155 156.242C167.129 156.525 167.061 156.92 167.035 157.246C166.941 158.164 166.838 159.108 166.76 160.051C166.7 160.772 166.632 161.467 166.597 162.222C166.563 162.977 166.495 163.706 166.434 164.47C166.023 171.935 166.22 179.631 166.452 180.523Z" fill="#D3766A"/>
<path d="M167.232 155.358C169.267 160.255 172.343 164.651 176.247 168.239C180.151 171.828 184.79 174.523 189.841 176.139L192.955 158.198L171.454 145.86L168.356 144.23C168.356 144.23 167.833 149.172 167.232 155.358Z" fill="#263238"/>
<path d="M173.719 142.497C167.996 138.661 151.917 133.016 143.423 145.508C131.291 163.329 157.563 194.586 158.91 211.017C161.355 240.781 176.816 257.494 190.536 249.18C205.92 239.862 204.959 214.5 176.095 185.903C158.077 168.014 155.298 154.946 159.45 151.943C163.603 148.94 170.064 151.591 170.064 151.591L173.719 142.497Z" fill="#263238"/>
<path d="M171.446 141.175C168.502 139.66 165.384 138.507 162.162 137.743C158.883 136.928 155.47 136.805 152.141 137.383C148.725 138 145.591 139.678 143.183 142.179C140.783 144.659 139.017 147.682 138.035 150.991C137.157 154.299 136.996 157.757 137.563 161.132C138.132 164.432 139.077 167.656 140.378 170.742C143.022 176.815 146.34 182.571 150.27 187.902C146.975 182.241 144.107 176.341 141.69 170.253C140.575 167.225 139.773 164.092 139.296 160.901C138.811 157.77 138.989 154.572 139.82 151.514C140.688 148.483 142.268 145.703 144.427 143.406C146.557 141.098 149.341 139.496 152.407 138.816C155.549 138.139 158.793 138.084 161.956 138.653C163.568 138.892 165.165 139.23 166.735 139.665C168.325 140.106 169.896 140.609 171.446 141.175Z" fill="#263238"/>
<path d="M166.392 175.804C169.051 178.842 172.037 181.57 174.912 184.384C177.786 187.198 180.712 189.961 183.492 192.827C186.271 195.693 189.017 198.644 191.497 201.759C194.024 204.822 196.243 208.127 198.12 211.626C200.022 215.059 201.26 218.819 201.767 222.711C202.124 226.628 201.793 230.577 200.789 234.38C199.805 238.208 197.932 241.75 195.323 244.719C194.013 246.214 192.513 247.532 190.862 248.64C190.039 249.19 189.179 249.683 188.288 250.116C187.397 250.583 186.443 250.918 185.456 251.111C187.474 250.822 189.41 250.121 191.145 249.052C192.922 248.034 194.557 246.788 196.01 245.345C197.458 243.877 198.718 242.234 199.759 240.454C200.791 238.664 201.614 236.761 202.213 234.783C202.812 232.825 203.22 230.814 203.431 228.777L203.569 227.233L203.629 225.697C203.673 224.655 203.644 223.612 203.543 222.574C203.059 218.446 201.786 214.449 199.794 210.802C195.89 203.535 190.356 197.434 184.538 191.84C181.621 189.035 178.584 186.375 175.521 183.758C172.458 181.141 169.352 178.541 166.392 175.804Z" fill="#263238"/>
<path d="M174.664 141.733C173.522 140.223 170.931 139.159 169.764 139.691C168.597 140.223 163.99 148.94 164.848 151.24C165.706 153.539 170.133 152.604 170.133 152.604L174.664 141.733Z" fill="#EC287C"/>
<path d="M216.439 126.538C223.174 157.778 205.233 165.337 198.49 166.787C192.372 168.091 171.385 171.789 161.458 141.416C151.531 111.042 163.921 98.0351 177.76 94.2942C191.6 90.5533 209.704 95.2981 216.439 126.538Z" fill="#D3766A"/>
<path d="M206.212 121.93C205.477 121.921 204.744 121.872 204.015 121.785C203.231 121.846 202.449 121.644 201.793 121.21C201.614 121.034 201.497 120.805 201.462 120.557C201.426 120.309 201.473 120.056 201.596 119.837C201.906 119.442 202.316 119.137 202.784 118.953C203.251 118.769 203.759 118.713 204.255 118.79C205.284 118.794 206.275 119.179 207.035 119.871C207.201 120.039 207.314 120.251 207.36 120.482C207.407 120.712 207.385 120.952 207.298 121.17C207.21 121.389 207.061 121.577 206.868 121.712C206.675 121.847 206.447 121.923 206.212 121.93Z" fill="#263238"/>
<path d="M184.316 130.047C185.021 129.834 185.715 129.582 186.392 129.292C187.158 129.126 187.849 128.713 188.357 128.117C188.481 127.898 188.529 127.645 188.493 127.396C188.457 127.148 188.34 126.918 188.16 126.744C187.753 126.451 187.274 126.273 186.775 126.227C186.275 126.182 185.773 126.272 185.32 126.486C184.329 126.773 183.484 127.422 182.952 128.305C182.841 128.512 182.794 128.746 182.814 128.98C182.835 129.213 182.922 129.436 183.067 129.62C183.211 129.805 183.406 129.943 183.628 130.019C183.85 130.095 184.089 130.104 184.316 130.047Z" fill="#263238"/>
<path d="M189.678 133.942C189.678 133.865 189.524 134.071 189.541 134.157C189.97 136.293 190.099 138.816 188.28 139.845C188.22 139.845 188.28 139.991 188.28 139.966C190.631 139.236 190.425 135.899 189.678 133.942Z" fill="#263238"/>
<path d="M187.387 132.02C183.895 132.338 184.813 139.305 188.022 139.013C191.231 138.721 190.313 131.763 187.387 132.02Z" fill="#263238"/>
<path d="M186.066 132.57C185.508 133.041 185.002 133.814 184.272 133.977C183.543 134.14 182.702 133.522 182.059 132.887C181.99 132.827 181.939 132.887 181.947 132.981C182.102 134.32 182.805 135.624 184.247 135.641C185.577 135.641 186.357 134.354 186.52 132.973C186.555 132.715 186.289 132.372 186.066 132.57Z" fill="#263238"/>
<path d="M202.608 131.162C202.608 131.077 202.788 131.248 202.788 131.343C202.866 133.513 203.329 135.993 205.362 136.576C205.422 136.576 205.422 136.705 205.362 136.697C202.917 136.525 202.334 133.23 202.608 131.162Z" fill="#263238"/>
<path d="M204.393 128.76C207.868 128.254 208.623 135.238 205.406 135.701C202.188 136.165 201.476 129.18 204.393 128.76Z" fill="#263238"/>
<path d="M205.8 128.975C206.452 129.309 207.13 129.936 207.868 129.936C208.606 129.936 209.292 129.12 209.773 128.357C209.824 128.28 209.893 128.357 209.901 128.425C210.064 129.764 209.704 131.188 208.288 131.549C207.001 131.875 205.929 130.785 205.448 129.481C205.363 129.241 205.543 128.846 205.8 128.975Z" fill="#263238"/>
<path d="M193.642 150.639C194.199 151.102 194.774 151.763 195.572 151.763C196.376 151.68 197.154 151.429 197.854 151.025C197.923 151.025 198 151.025 197.957 151.128C197.683 151.582 197.291 151.952 196.822 152.2C196.354 152.448 195.827 152.564 195.298 152.535C194.847 152.454 194.431 152.243 194.1 151.927C193.769 151.611 193.538 151.205 193.436 150.759C193.393 150.63 193.556 150.57 193.642 150.639Z" fill="#263238"/>
<path d="M201.561 141.57C201.561 141.57 202.419 144.727 202.668 146.246C202.668 146.383 202.333 146.503 201.81 146.606C201.81 146.606 201.81 146.606 201.75 146.606C200.479 147.023 199.119 147.084 197.816 146.781C196.514 146.479 195.319 145.825 194.362 144.89C194.331 144.864 194.31 144.827 194.306 144.786C194.302 144.744 194.315 144.704 194.341 144.672C194.367 144.64 194.405 144.62 194.446 144.616C194.487 144.612 194.528 144.624 194.56 144.65C196.684 145.703 199.091 146.043 201.424 145.62C201.475 145.182 199.708 140.266 199.948 140.214C201.143 140.153 202.34 140.251 203.509 140.506C201.836 133.882 199.116 127.576 197.554 120.952C197.503 120.712 197.837 120.592 197.932 120.798C201.252 127.207 203.346 134.792 205.242 141.587C205.491 142.471 202.205 141.767 201.561 141.57Z" fill="#263238"/>
<path d="M159.665 140.618C165.096 141.038 166.34 129.652 166.34 129.652C166.34 129.652 177.374 129.652 181.021 113.814C181.021 113.814 180.781 121.201 176.13 126.933C176.13 126.933 195.59 124.873 203.784 108.588C203.784 108.588 200.515 116.885 197.452 119.837C197.452 119.837 205.611 117.555 209.592 110.931C209.592 110.931 213.024 120.369 215.598 122.943C215.598 122.943 214.8 88.8974 183.26 92.5181C183.26 92.5181 163.526 93.8309 156.422 109.464C149.318 125.096 159.665 140.618 159.665 140.618Z" fill="#263238"/>
<path d="M166.933 142.745C166.933 142.745 158.765 133.719 154.586 136.739C150.408 139.76 157.426 153.462 162.952 154.757C163.648 154.972 164.38 155.044 165.105 154.968C165.829 154.892 166.531 154.67 167.168 154.316C167.804 153.962 168.362 153.482 168.809 152.906C169.255 152.33 169.58 151.67 169.764 150.965L166.933 142.745Z" fill="#D3766A"/>
<path d="M156.696 140.635C156.61 140.635 156.61 140.755 156.696 140.772C160.583 141.802 162.96 144.985 164.77 148.365C163.5 147.138 161.913 146.581 160.24 148.117C160.154 148.202 160.24 148.34 160.368 148.305C160.992 148.016 161.689 147.927 162.365 148.05C163.041 148.173 163.662 148.502 164.144 148.992C164.942 149.821 165.649 150.733 166.254 151.712C166.469 152.02 167.044 151.763 166.863 151.403C166.862 151.374 166.862 151.345 166.863 151.317C166.314 146.598 161.818 140.463 156.696 140.635Z" fill="#263238"/>
<path d="M163.74 154.989C163.74 155.329 163.841 155.66 164.029 155.942C164.218 156.225 164.486 156.445 164.8 156.575C165.113 156.704 165.458 156.738 165.791 156.672C166.124 156.606 166.43 156.443 166.67 156.203C166.91 155.963 167.073 155.657 167.139 155.324C167.205 154.991 167.171 154.646 167.042 154.332C166.912 154.019 166.692 153.751 166.41 153.562C166.127 153.374 165.796 153.273 165.456 153.273C165.001 153.273 164.565 153.454 164.243 153.776C163.921 154.098 163.74 154.534 163.74 154.989Z" fill="white"/>
<path d="M206.64 97.1599C202.925 97.4516 183.878 104.298 176.456 110.828C169.034 117.357 157.743 134.792 157.168 135.71C156.593 136.628 142.299 106.212 166.117 92.0462C192.054 76.6108 206.64 97.1599 206.64 97.1599Z" fill="#EC287C"/>
<path d="M158.224 133.925C158.224 133.925 167.902 105.972 175.675 97.7777C183.449 89.5838 203.646 79.7597 218.575 81.2783C230.236 82.4452 209.626 103.681 209.626 103.681C209.626 103.681 207.747 100.249 204.049 100.043C196.859 99.5966 185.405 105.483 179.27 110.047C171.6 115.83 158.224 133.925 158.224 133.925Z" fill="#EC287C"/>
<path opacity="0.2" d="M158.224 133.925C158.224 133.925 167.902 105.972 175.675 97.7777C183.449 89.5838 203.646 79.7597 218.575 81.2783C230.236 82.4452 209.626 103.681 209.626 103.681C209.626 103.681 207.747 100.249 204.049 100.043C196.859 99.5966 185.405 105.483 179.27 110.047C171.6 115.83 158.224 133.925 158.224 133.925Z" fill="black"/>
<path d="M228.949 240.128H113.942V311.48H228.949V240.128Z" fill="#EC287C"/>
<path opacity="0.2" d="M228.949 240.128H113.942V311.48H228.949V240.128Z" fill="black"/>
<path opacity="0.2" d="M113.951 311.48H157.503V240.128H113.951V311.48Z" fill="black"/>
<path d="M116.945 306.563C120.171 301.49 123.369 296.399 126.538 291.291L135.976 275.95L145.302 260.506C148.397 255.358 151.46 250.21 154.491 245.062C151.265 250.13 148.071 255.218 144.908 260.326L135.47 275.675L126.143 291.119C123.049 296.233 119.983 301.381 116.945 306.563Z" fill="#EC287C"/>
<path d="M116.945 245.045C119.983 250.193 123.046 255.341 126.134 260.489L135.461 275.933L144.899 291.274C148.056 296.388 151.251 301.478 154.483 306.546C151.451 301.364 148.388 296.202 145.294 291.059L135.967 275.615L126.529 260.266C123.372 255.192 120.177 250.118 116.945 245.045Z" fill="#EC287C"/>
<path d="M142.257 240.128H129.026V253.359H142.257V240.128Z" fill="#EBEBEB"/>
<path d="M204.787 292.484H203.86V305.551H204.787V292.484Z" fill="#263238"/>
<path d="M207.01 292.484H206.083V305.551H207.01V292.484Z" fill="#263238"/>
<path d="M209.232 292.484H208.306V305.551H209.232V292.484Z" fill="#263238"/>
<path d="M211.454 292.484H210.527V305.551H211.454V292.484Z" fill="#263238"/>
<path d="M213.677 292.484H212.75V305.551H213.677V292.484Z" fill="#263238"/>
<path d="M215.898 292.484H214.972V305.551H215.898V292.484Z" fill="#263238"/>
<path d="M218.121 292.484H217.194V305.551H218.121V292.484Z" fill="#263238"/>
<path d="M220.343 292.484H219.416V305.551H220.343V292.484Z" fill="#263238"/>
<path d="M222.574 292.484H221.647V305.551H222.574V292.484Z" fill="#263238"/>
<path d="M194.766 304.59L198.326 305.577H189.961L193.53 304.573V299.777C190.956 299.442 189.961 296.919 189.961 292.518H198.326C198.326 296.911 197.314 299.442 194.766 299.777V304.59Z" fill="#263238"/>
<path d="M188.014 299.15H185.826V305.542H180.232V299.15H178.044L183.029 292.484L188.014 299.15Z" fill="#263238"/>
<path opacity="0.1" d="M228.949 311.48V305.225L157.503 293.642V311.471L228.949 311.48Z" fill="black"/>
<path d="M222.574 237.829H125.328V240.128H222.574V237.829Z" fill="#EBEBEB"/>
<path d="M220.051 235.538H122.806V237.838H220.051V235.538Z" fill="#C7C7C7"/>
<path d="M226.6 256.785L156.209 268.872L163.874 313.509L234.265 301.422L226.6 256.785Z" fill="white"/>
<path d="M224.555 256.817C222.179 260 219.725 263.08 217.322 266.255C214.92 269.429 212.432 272.441 209.969 275.504C207.395 278.704 204.821 281.879 202.247 285.045L202.016 285.345C199.725 288.134 197.417 290.922 195.152 293.711L194.808 294.105L194.362 293.839C191.273 291.957 188.19 290.07 185.113 288.176L184.787 287.979C181.303 285.834 177.82 283.689 174.345 281.475C171.025 279.399 167.704 277.271 164.392 275.152C161.08 273.033 157.769 270.862 154.482 268.623C157.914 270.433 161.252 272.372 164.633 274.251C168.013 276.13 171.385 278.104 174.748 280.068C178.489 282.242 182.233 284.453 185.98 286.701C188.788 288.371 191.591 290.047 194.388 291.729C196.482 289.232 198.584 286.709 200.694 284.238C203.5 280.909 206.306 277.589 209.146 274.303C211.685 271.363 214.236 268.434 216.799 265.517C219.382 262.548 221.93 259.639 224.555 256.817Z" fill="#DBDBDB"/>
<path d="M186.186 287.662L186.117 287.747C185.8 288.125 185.491 288.502 185.173 288.871C183.663 290.656 182.102 292.381 180.497 294.062C178.549 296.147 176.542 298.164 174.491 300.171C172.441 302.179 170.399 304.11 168.288 306.023C166.177 307.936 163.998 309.824 161.784 311.6C163.595 309.378 165.516 307.267 167.464 305.199C169.412 303.131 171.428 301.106 173.47 299.099C175.512 297.091 177.571 295.143 179.682 293.221C181.398 291.703 183.114 290.184 184.83 288.743C185.242 288.4 185.645 288.073 186.066 287.747L186.186 287.662Z" fill="#DBDBDB"/>
<path d="M231.608 299.888C228.906 298.944 226.254 297.863 223.646 296.739C221.038 295.615 218.438 294.431 215.855 293.23C213.273 292.029 210.707 290.75 208.211 289.412C206.16 288.339 204.118 287.233 202.119 286.04L200.849 285.285C200.817 285.262 200.782 285.242 200.746 285.225H200.866C201.372 285.405 201.87 285.585 202.359 285.774C204.513 286.563 206.649 287.43 208.717 288.348C211.334 289.463 213.916 290.656 216.49 291.874C219.064 293.093 221.638 294.354 224.144 295.684C226.649 297.014 229.172 298.378 231.608 299.888Z" fill="#DBDBDB"/>
<path d="M172.871 269.967L171.423 315.031L242.489 317.314L243.936 272.25L172.871 269.967Z" fill="#EBEBEB"/>
<path d="M243.938 272.243C240.978 274.903 237.975 277.434 234.989 280.043C232.003 282.651 228.983 285.139 225.963 287.662C222.817 290.299 219.671 292.907 216.525 295.487L216.233 295.735L207.825 302.599L207.404 302.925L207.018 302.574C204.37 300.12 201.722 297.66 199.073 295.195C198.976 295.116 198.884 295.03 198.799 294.938C195.796 292.158 192.807 289.349 189.833 286.512C186.993 283.818 184.153 281.081 181.33 278.344C178.507 275.607 175.684 272.827 172.904 269.987C175.873 272.441 178.799 275.006 181.742 277.512C184.685 280.017 187.602 282.617 190.51 285.234C193.745 288.099 196.988 291.016 200.214 293.951L207.465 300.532C210.039 298.498 212.57 296.439 215.118 294.431C218.55 291.72 221.965 289.029 225.362 286.358C228.434 283.972 231.514 281.604 234.603 279.253C237.735 276.877 240.815 274.5 243.938 272.243Z" fill="#C7C7C7"/>
<path d="M200.266 294.929C200.234 294.95 200.205 294.976 200.18 295.006L199.056 295.916C197.22 297.366 195.35 298.747 193.445 300.085C191.128 301.741 188.76 303.32 186.384 304.89C184.007 306.46 181.596 307.953 179.142 309.412C176.688 310.871 174.226 312.295 171.669 313.59C173.883 311.771 176.182 310.081 178.533 308.442C180.884 306.804 183.235 305.199 185.603 303.638C187.971 302.076 190.399 300.557 192.853 299.099C194.801 297.932 196.783 296.791 198.807 295.727C199.271 295.469 199.743 295.229 200.215 294.989L200.266 294.929Z" fill="#C7C7C7"/>
<path d="M242.367 315.864C239.905 314.406 237.52 312.827 235.177 311.214C232.835 309.601 230.527 307.919 228.236 306.237C225.945 304.556 223.697 302.805 221.492 300.986C219.691 299.528 217.906 298.035 216.19 296.473C215.812 296.147 215.452 295.813 215.083 295.478L215.006 295.401C215.035 295.429 215.07 295.449 215.109 295.461L216.473 296.319C218.421 297.511 220.308 298.781 222.196 300.068C224.547 301.69 226.838 303.363 229.129 305.062C231.419 306.761 233.659 308.494 235.872 310.304C238.086 312.115 240.24 313.908 242.367 315.864Z" fill="#C7C7C7"/>
<path d="M168.323 286.092C158.542 277.4 102.334 245.971 90.9484 242.042C79.5628 238.112 63.4924 243.277 68.6404 260.394C73.7884 277.512 131.523 328.056 153.316 331.608C160.978 332.904 171.866 289.232 168.323 286.092Z" fill="#D3766A"/>
<path d="M184.89 301.295C182.651 299.579 183.543 298.378 188.579 298.335C193.616 298.292 213.556 302.385 214.397 295.306C215.238 288.228 187.044 282.857 178.635 283.569C170.227 284.281 157.014 288.374 157.014 288.374C162.265 290.519 174.586 296.954 184.89 301.295Z" fill="#D3766A"/>
<path d="M145.534 328.777C160.635 334.277 179.099 342.05 196.937 338.756C198.915 338.435 200.728 337.459 202.085 335.984C210.107 334.654 211.883 330.467 211.883 330.467C218.979 326.932 220.206 322.402 220.206 322.402C220.206 322.402 229.644 320.738 229.541 314.886C229.489 308.331 216.293 311.952 207.825 309.515C188.408 303.921 162.351 290.545 156.946 288.374L145.534 328.777Z" fill="#D3766A"/>
<path d="M183.398 317.949C189.146 319.485 194.749 321.141 200.669 321.879C207.173 322.737 213.539 322.402 220.077 322.256C220.118 322.256 220.157 322.272 220.186 322.301C220.215 322.33 220.232 322.37 220.232 322.411C220.232 322.452 220.215 322.491 220.186 322.52C220.157 322.549 220.118 322.565 220.077 322.565C208.331 324.693 194.286 322.822 183.295 318.206C183.055 318.095 183.106 317.872 183.398 317.949Z" fill="#263238"/>
<path d="M178.319 329.18C183.99 330.356 193.977 332.363 211.901 330.27C211.961 330.27 211.986 330.364 211.901 330.381C200.822 333.203 189.177 332.888 178.267 329.472C177.915 329.343 177.941 329.094 178.319 329.18Z" fill="#263238"/>
<path d="M175.701 335.264C185.422 336.902 191.763 336.705 202.076 335.95C202.136 335.95 202.162 336.044 202.076 336.053C190.45 338.146 185.988 337.58 175.581 335.59C175.238 335.521 175.324 335.195 175.701 335.264Z" fill="#263238"/>
<path d="M171.257 283.517L143.947 337.194C143.947 337.194 96.1561 309.421 70.5362 265.56C61.9991 250.974 70.5791 231.343 96.4649 241.827C122.351 252.312 171.257 283.517 171.257 283.517Z" fill="#EC287C"/>
<path d="M160.24 279.605C155.95 287.456 139.399 320.197 136.31 327.516C136.096 328.022 136.362 328.288 136.654 327.782C150.176 304.616 156.696 287.696 160.54 279.785C160.643 279.588 160.351 279.408 160.24 279.605Z" fill="#263238"/>
<path d="M291.789 92.561C291.223 97.9891 289.16 103.153 285.83 107.477C282.5 111.801 278.034 115.114 272.93 117.047C267.826 118.98 262.286 119.456 256.927 118.423C251.568 117.39 246.602 114.888 242.582 111.197L227.842 113.359L235.212 100.618C233.524 96.4713 232.802 91.9947 233.104 87.5279C233.405 83.0611 234.72 78.7217 236.95 74.8394C239.179 70.9572 242.264 67.6343 245.971 65.1232C249.677 62.6121 253.907 60.9789 258.339 60.3477C262.772 59.7166 267.289 60.104 271.549 61.4807C275.809 62.8574 279.7 65.187 282.924 68.2925C286.149 71.3981 288.623 75.1978 290.159 79.403C291.695 83.6082 292.252 88.1082 291.789 92.561Z" fill="white"/>
<path d="M291.788 92.561C291.222 97.9933 289.164 103.163 285.843 107.499C285.016 108.576 284.125 109.602 283.174 110.57C282.195 111.513 281.158 112.392 280.068 113.205C277.897 114.849 275.505 116.18 272.964 117.16C270.421 118.151 267.753 118.786 265.036 119.048C263.675 119.172 262.308 119.198 260.943 119.125C259.576 119.097 258.213 118.956 256.868 118.704C251.431 117.709 246.379 115.216 242.282 111.506L242.634 111.617L227.91 113.874L226.838 114.037L227.378 113.093L234.714 100.335V100.832C232.985 96.611 232.249 92.049 232.563 87.4982C232.877 82.9475 234.232 78.5297 236.525 74.5859C238.819 70.6573 241.972 67.2987 245.748 64.7618C249.52 62.2617 253.81 60.6493 258.295 60.0459C262.78 59.4426 267.344 59.864 271.643 61.2784C275.901 62.7223 279.782 65.0997 283.003 68.2367C286.211 71.3628 288.669 75.176 290.191 79.3893C291.713 83.6025 292.259 88.1061 291.788 92.561ZM291.788 92.561C292.252 88.1268 291.694 83.6453 290.155 79.4607C288.617 75.2761 286.14 71.4998 282.914 68.4218C279.689 65.3439 275.801 63.0462 271.549 61.7052C267.297 60.3642 262.794 60.0157 258.387 60.6863C254.027 61.3454 249.875 62.9886 246.246 65.4911C242.638 68.0186 239.622 71.3005 237.408 75.1093C235.236 78.9262 233.957 83.1855 233.668 87.5675C233.389 91.9588 234.098 96.3567 235.744 100.437L235.855 100.695L235.71 100.944L228.296 113.651L227.765 112.878L242.514 110.811H242.719L242.865 110.948C246.8 114.633 251.685 117.146 256.971 118.207C258.288 118.477 259.625 118.641 260.969 118.696C265.01 118.984 269.066 118.399 272.861 116.98C275.405 116.063 277.799 114.773 279.965 113.153C281.057 112.361 282.097 111.502 283.08 110.579C284.033 109.622 284.927 108.608 285.757 107.542C289.117 103.204 291.205 98.017 291.788 92.561Z" fill="#263238"/>
<path d="M259.047 106.298L246.469 93.5649L250.69 89.3864L258.043 96.8253L273.307 72.8871L278.318 76.0874L259.047 106.298Z" fill="#EC287C"/>
<path d="M379.545 282.514H252.707V380.815H379.545V282.514Z" fill="#EC287C"/>
<path opacity="0.2" d="M379.545 282.514H252.707V380.815H379.545V282.514Z" fill="black"/>
<path opacity="0.2" d="M252.707 380.823H300.746V282.522H252.707V380.823Z" fill="black"/>
<path d="M256.019 374.088C259.582 367.098 263.108 360.085 266.598 353.05L277.014 331.909L287.31 310.673C290.742 303.586 294.119 296.47 297.443 289.326C293.891 296.316 290.367 303.329 286.872 310.364L276.448 331.514L266.152 352.75C262.737 359.808 259.359 366.921 256.019 374.088Z" fill="#EC287C"/>
<path d="M256.019 289.283C259.365 296.422 262.742 303.538 266.152 310.63L276.448 331.866L286.872 353.007C290.356 360.043 293.879 367.055 297.443 374.045C294.102 366.907 290.725 359.794 287.31 352.707L277.014 331.471L266.598 310.321C263.103 303.286 259.576 296.273 256.019 289.283Z" fill="#EC287C"/>
<path d="M283.921 282.514H269.335V294.508H283.921V282.514Z" fill="#EBEBEB"/>
<path d="M352.896 359.862H351.875V374.277H352.896V359.862Z" fill="#263238"/>
<path d="M355.341 359.862H354.32V374.277H355.341V359.862Z" fill="#263238"/>
<path d="M357.794 359.862H356.773V374.277H357.794V359.862Z" fill="#263238"/>
<path d="M360.249 359.862H359.228V374.277H360.249V359.862Z" fill="#263238"/>
<path d="M362.703 359.862H361.682V374.277H362.703V359.862Z" fill="#263238"/>
<path d="M365.157 359.862H364.136V374.277H365.157V359.862Z" fill="#263238"/>
<path d="M367.602 359.862H366.581V374.277H367.602V359.862Z" fill="#263238"/>
<path d="M370.055 359.862H369.034V374.277H370.055V359.862Z" fill="#263238"/>
<path d="M372.509 359.862H371.488V374.277H372.509V359.862Z" fill="#263238"/>
<path d="M341.845 373.179L345.774 374.268H336.551L340.48 373.17V367.868C337.666 367.499 336.551 364.727 336.551 359.871H345.774C345.774 364.71 344.659 367.499 341.845 367.868V373.179Z" fill="#263238"/>
<path d="M334.397 367.215H331.986V374.268H325.817V367.215H323.397L328.906 359.871L334.397 367.215Z" fill="#263238"/>
<path opacity="0.1" d="M379.545 380.815V373.916L300.746 361.141V380.815H379.545Z" fill="black"/>
<path d="M374.972 247.85H276.979V282.514H374.972V247.85Z" fill="#EC287C"/>
<path opacity="0.2" d="M374.972 247.85H276.979V282.514H374.972V247.85Z" fill="black"/>
<path opacity="0.2" d="M276.988 282.514H306.933V247.85H276.988V282.514Z" fill="black"/>
<path d="M279.048 280.128C281.261 277.657 283.467 275.186 285.637 272.707L292.132 265.251L298.55 257.76C300.678 255.261 302.783 252.752 304.865 250.236C302.646 252.701 300.449 255.175 298.276 257.657L291.772 265.122L285.363 272.612C283.235 275.101 281.13 277.606 279.048 280.128Z" fill="#EC287C"/>
<path d="M279.048 250.236C281.13 252.747 283.235 255.255 285.363 257.76L291.772 265.251L298.276 272.707C300.449 275.189 302.646 277.663 304.865 280.128C302.777 277.606 300.672 275.098 298.55 272.604L292.132 265.122L285.637 257.666C283.467 255.169 281.261 252.698 279.048 250.236Z" fill="#EC287C"/>
<path d="M296.44 247.85H287.345V255.967H296.44V247.85Z" fill="#EBEBEB"/>
<path d="M358.362 269.455H357.727V278.438H358.362V269.455Z" fill="#263238"/>
<path d="M359.889 269.455H359.254V278.438H359.889V269.455Z" fill="#263238"/>
<path d="M361.415 269.455H360.78V278.438H361.415V269.455Z" fill="#263238"/>
<path d="M362.943 269.455H362.308V278.438H362.943V269.455Z" fill="#263238"/>
<path d="M364.47 269.455H363.835V278.438H364.47V269.455Z" fill="#263238"/>
<path d="M365.997 269.455H365.362V278.438H365.997V269.455Z" fill="#263238"/>
<path d="M367.533 269.455H366.898V278.438H367.533V269.455Z" fill="#263238"/>
<path d="M369.061 269.455H368.426V278.438H369.061V269.455Z" fill="#263238"/>
<path d="M370.588 269.455H369.953V278.438H370.588V269.455Z" fill="#263238"/>
<path d="M351.471 277.752L353.925 278.438H348.168L350.622 277.743V274.44C348.906 274.217 348.168 272.484 348.168 269.455H353.925C353.925 272.475 353.23 274.217 351.471 274.44V277.752Z" fill="#263238"/>
<path d="M346.83 274.037H345.329V278.438H341.485V274.037H339.975L343.407 269.455L346.83 274.037Z" fill="#263238"/>
<path opacity="0.1" d="M374.972 282.514V278.215L306.924 270.253V282.514H374.972Z" fill="black"/>
</svg>
