<svg width="21" height="20" viewBox="0 0 21 20" fill="none" xmlns="http://www.w3.org/2000/svg">
<g clip-path="url(#clip0_45_1355)">
<path d="M0.5 2.66808C0.5 2.02456 0.725232 1.49367 1.17568 1.07541C1.62612 0.657129 2.21172 0.447998 2.93243 0.447998C3.64029 0.447998 4.21299 0.653905 4.65058 1.06576C5.10102 1.49047 5.32626 2.04387 5.32626 2.72599C5.32626 3.34375 5.10747 3.85854 4.66988 4.27039C4.21944 4.6951 3.62741 4.90746 2.89382 4.90746H2.87452C2.16666 4.90746 1.59396 4.6951 1.15637 4.27039C0.718784 3.84568 0.5 3.31157 0.5 2.66808ZM0.750965 19.56V6.66421H5.03668V19.56H0.750965ZM7.4112 19.56H11.6969V12.3592C11.6969 11.9087 11.7484 11.5612 11.8514 11.3167C12.0315 10.8791 12.305 10.5091 12.6718 10.2067C13.0386 9.90423 13.4987 9.75302 14.0521 9.75302C15.4936 9.75302 16.2143 10.7247 16.2143 12.6681V19.56H20.5V12.1661C20.5 10.2614 20.0496 8.81672 19.1486 7.83217C18.2477 6.84761 17.0573 6.35533 15.5772 6.35533C13.917 6.35533 12.6236 7.06962 11.6969 8.49819V8.5368H11.6776L11.6969 8.49819V6.66421H7.4112C7.43693 7.07605 7.44981 8.35661 7.44981 10.5059C7.44981 12.6552 7.43693 15.6732 7.4112 19.56Z" fill="black"/>
</g>
<defs>
<clipPath id="clip0_45_1355">
<rect width="20" height="20" fill="white" transform="translate(0.5)"/>
</clipPath>
</defs>
</svg>
