<svg width="21" height="20" viewBox="0 0 21 20" fill="none" xmlns="http://www.w3.org/2000/svg">
<path d="M20.4442 5.8767C20.3962 4.81185 20.2241 4.08327 19.9801 3.44676C19.724 2.79023 19.384 2.22978 18.8279 1.67734C18.2718 1.1249 17.7156 0.776621 17.0595 0.52442C16.4234 0.276221 15.6952 0.108086 14.631 0.060048C13.5628 0.0120096 13.2227 0 10.5102 0C7.79366 0 7.4536 0.0120096 6.38938 0.060048C5.32517 0.108086 4.59702 0.280224 3.9609 0.52442C3.30076 0.780625 2.74065 1.1209 2.18854 1.67734C1.63643 2.23379 1.28836 2.79023 1.03631 3.44676C0.792263 4.08327 0.620229 4.81185 0.572219 5.8767C0.524209 6.94556 0.512207 7.28583 0.512207 10C0.512207 12.7182 0.524209 13.0584 0.572219 14.1233C0.620229 15.1882 0.792263 15.9167 1.03631 16.5532C1.29236 17.2098 1.63243 17.7702 2.18854 18.3227C2.74065 18.8791 3.30076 19.2234 3.9569 19.4756C4.59302 19.7238 5.32117 19.8919 6.38538 19.94C7.4536 19.988 7.79366 20 10.5062 20C13.2227 20 13.5628 19.988 14.627 19.94C15.6912 19.8919 16.4194 19.7198 17.0555 19.4756C17.7116 19.2194 18.2718 18.8791 18.8239 18.3227C19.376 17.7662 19.724 17.2098 19.9761 16.5532C20.2241 15.9167 20.3922 15.1882 20.4402 14.1233C20.4882 13.0544 20.5002 12.7142 20.5002 10C20.5002 7.28583 20.4922 6.94155 20.4442 5.8767ZM18.6478 14.0432C18.6038 15.02 18.4398 15.5524 18.3038 15.9007C18.1237 16.3651 17.9037 16.7014 17.5516 17.0536C17.1995 17.4059 16.8675 17.6181 16.3994 17.8062C16.0473 17.9424 15.5152 18.1065 14.543 18.1505C13.4908 18.1986 13.1747 18.2106 10.5022 18.2106C7.82967 18.2106 7.51361 18.1986 6.4614 18.1505C5.4852 18.1065 4.95309 17.9424 4.60503 17.8062C4.14093 17.6261 3.80487 17.4059 3.4528 17.0536C3.10072 16.7014 2.88868 16.3691 2.70064 15.9007C2.56462 15.5484 2.40058 15.016 2.35658 14.0432C2.30857 12.9904 2.29656 12.6741 2.29656 10C2.29656 7.32586 2.30857 7.00961 2.35658 5.95677C2.40058 4.97998 2.56462 4.44756 2.70064 4.09928C2.88068 3.63491 3.10072 3.29864 3.4528 2.94636C3.80487 2.59408 4.13693 2.38191 4.60503 2.19376C4.9571 2.05765 5.4892 1.89351 6.4614 1.84948C7.51361 1.80144 7.82967 1.78943 10.5022 1.78943C13.1747 1.78943 13.4908 1.80144 14.543 1.84948C15.5192 1.89351 16.0513 2.05765 16.3994 2.19376C16.8635 2.3739 17.1995 2.59408 17.5516 2.94636C17.9037 3.29864 18.1157 3.63091 18.3038 4.09928C18.4398 4.45156 18.6038 4.98399 18.6478 5.95677C18.6958 7.00961 18.7078 7.32586 18.7078 10C18.7078 12.6741 18.6918 12.9904 18.6478 14.0432Z" fill="black"/>
<path d="M10.5023 4.85986C7.66169 4.85986 5.36523 7.1617 5.36523 9.99998C5.36523 12.8422 7.66569 15.1401 10.5023 15.1401C13.3388 15.1401 15.6393 12.8342 15.6393 9.99998C15.6393 7.1577 13.3428 4.85986 10.5023 4.85986ZM10.5023 13.3346C8.66189 13.3346 7.1696 11.8414 7.1696 9.99998C7.1696 8.1585 8.66189 6.66531 10.5023 6.66531C12.3426 6.66531 13.8349 8.1585 13.8349 9.99998C13.8349 11.8414 12.3426 13.3346 10.5023 13.3346Z" fill="black"/>
<path d="M15.8394 5.86066C16.5023 5.86066 17.0396 5.32297 17.0396 4.6597C17.0396 3.99643 16.5023 3.45874 15.8394 3.45874C15.1765 3.45874 14.6392 3.99643 14.6392 4.6597C14.6392 5.32297 15.1765 5.86066 15.8394 5.86066Z" fill="black"/>
<path d="M0.5 10C0.5 12.7182 0.512002 13.0584 0.560012 14.1233C0.608022 15.1882 0.780056 15.9167 1.0241 16.5532C1.28016 17.2098 1.62022 17.7702 2.17634 18.3227C2.72845 18.8751 3.28856 19.2234 3.94469 19.4756C4.58082 19.7238 5.30896 19.8919 6.37318 19.94C7.44139 19.988 7.78146 20 10.494 20C13.2105 20 13.5506 19.988 14.6148 19.94C15.679 19.8919 16.4072 19.7198 17.0433 19.4756C17.6994 19.2194 18.2596 18.8791 18.8117 18.3227C19.3638 17.7702 19.7118 17.2098 19.9639 16.5532C20.2119 15.9167 20.38 15.1882 20.428 14.1233C20.476 13.0544 20.488 12.7142 20.488 10C20.488 7.28183 20.476 6.94155 20.428 5.8767C20.38 4.81185 20.2079 4.08327 19.9639 3.44676C19.7078 2.79023 19.3678 2.22978 18.8117 1.67734C18.2636 1.1209 17.7034 0.776621 17.0473 0.52442C16.4112 0.276221 15.683 0.108086 14.6188 0.060048C13.5506 0.0120096 13.2105 0 10.498 0C7.78146 0 7.44139 0.0120096 6.37718 0.060048C5.31296 0.108086 4.58482 0.280224 3.94869 0.52442C3.29256 0.780625 2.73245 1.1209 2.18034 1.67734C1.62823 2.23379 1.28016 2.79023 1.02811 3.44676C0.780056 4.08327 0.608022 4.81185 0.560012 5.8767C0.512002 6.94155 0.5 7.28183 0.5 10ZM2.30436 10C2.30436 7.32986 2.31636 7.00961 2.36437 5.95677C2.40838 4.97998 2.57241 4.44756 2.70844 4.09928C2.88848 3.63491 3.10852 3.29864 3.46059 2.94636C3.81266 2.59408 4.14473 2.38191 4.61282 2.19376C4.96489 2.05765 5.497 1.89351 6.46919 1.84948C7.5214 1.80144 7.83747 1.78943 10.51 1.78943C13.1825 1.78943 13.4986 1.80144 14.5508 1.84948C15.527 1.89351 16.0591 2.05765 16.4072 2.19376C16.8713 2.3739 17.2073 2.59408 17.5594 2.94636C17.9115 3.29864 18.1235 3.63091 18.3116 4.09928C18.4476 4.45156 18.6116 4.98399 18.6556 5.95677C18.7036 7.00961 18.7156 7.32586 18.7156 10C18.7156 12.6741 18.7036 12.9904 18.6556 14.0432C18.6116 15.02 18.4476 15.5524 18.3116 15.9007C18.1315 16.3651 17.9115 16.7014 17.5594 17.0536C17.2073 17.4059 16.8753 17.6181 16.4072 17.8062C16.0551 17.9424 15.523 18.1065 14.5508 18.1505C13.4986 18.1986 13.1825 18.2106 10.51 18.2106C7.83747 18.2106 7.5214 18.1986 6.46919 18.1505C5.493 18.1065 4.96089 17.9424 4.61282 17.8062C4.14873 17.6261 3.81266 17.4059 3.46059 17.0536C3.10852 16.7014 2.89648 16.3691 2.70844 15.9007C2.57241 15.5484 2.40838 15.016 2.36437 14.0432C2.31236 12.9904 2.30436 12.6701 2.30436 10Z" fill="black"/>
</svg>
