<svg xmlns="http://www.w3.org/2000/svg" width="163.257" height="62.866" viewBox="0 0 163.257 62.866">
    <defs>
        <style>
            .prefix__cls-1{fill:#231f20}.prefix__cls-4{fill:#ec297b}
        </style>
    </defs>
    <g id="prefix__LogoBLK" transform="translate(-37.434 -280.364)">
        <path id="prefix__Path_495" d="M129.3 315.648l3.166.973a7.186 7.186 0 0 1-2.428 3.974 6.885 6.885 0 0 1-4.3 1.3 6.977 6.977 0 0 1-5.309-2.206 8.45 8.45 0 0 1-2.077-6.032 8.876 8.876 0 0 1 2.088-6.285 7.16 7.16 0 0 1 5.494-2.239 6.728 6.728 0 0 1 4.829 1.76 6.377 6.377 0 0 1 1.659 2.99l-3.234.769a3.349 3.349 0 0 0-3.417-2.715 3.682 3.682 0 0 0-2.925 1.294 6.31 6.31 0 0 0-1.123 4.185q0 3.064 1.1 4.369a3.593 3.593 0 0 0 2.876 1.3 3.277 3.277 0 0 0 2.248-.83 4.815 4.815 0 0 0 1.35-2.609zm4.1-.041a6.344 6.344 0 0 1 .762-3 5.231 5.231 0 0 1 2.16-2.213 6.376 6.376 0 0 1 3.118-.766 5.85 5.85 0 0 1 4.362 1.731 5.987 5.987 0 0 1 1.7 4.377 6.069 6.069 0 0 1-1.716 4.422 5.8 5.8 0 0 1-4.324 1.753 6.8 6.8 0 0 1-3.076-.731 5.006 5.006 0 0 1-2.225-2.142 7.119 7.119 0 0 1-.762-3.434zm3.19.166a3.9 3.9 0 0 0 .825 2.676 2.629 2.629 0 0 0 2.044.932 2.6 2.6 0 0 0 2.032-.932 3.955 3.955 0 0 0 .822-2.7 3.881 3.881 0 0 0-.822-2.654 2.6 2.6 0 0 0-2.032-.931 2.628 2.628 0 0 0-2.044.931 3.9 3.9 0 0 0-.825 2.677zm20.9 5.847h-3.1v-5.983a9.243 9.243 0 0 0-.2-2.455 1.733 1.733 0 0 0-.652-.866 1.866 1.866 0 0 0-1.086-.31 2.531 2.531 0 0 0-1.459.441 2.213 2.213 0 0 0-.886 1.169 9.887 9.887 0 0 0-.241 2.7v5.308h-3.1V309.88h2.872v1.72a4.866 4.866 0 0 1 5.773-1.6 3.151 3.151 0 0 1 1.292.942 3.358 3.358 0 0 1 .611 1.3 9.394 9.394 0 0 1 .174 2.084v7.288zm12.234-8.257l-3.054.543a2.2 2.2 0 0 0-.7-1.372 2.139 2.139 0 0 0-1.418-.46 2.319 2.319 0 0 0-1.851.8 4.121 4.121 0 0 0-.69 2.685 4.768 4.768 0 0 0 .7 2.955 2.29 2.29 0 0 0 1.878.864 2.081 2.081 0 0 0 1.444-.506 3.019 3.019 0 0 0 .8-1.733l3.053.52a5.433 5.433 0 0 1-1.821 3.178 5.625 5.625 0 0 1-3.612 1.074 5.365 5.365 0 0 1-4.1-1.625 7.428 7.428 0 0 1 0-9.036 5.43 5.43 0 0 1 4.151-1.622 5.668 5.668 0 0 1 3.4.924 5.124 5.124 0 0 1 1.813 2.808zm8.011 4.547l3.1.521a5.078 5.078 0 0 1-1.881 2.593 5.54 5.54 0 0 1-3.22.89 5.243 5.243 0 0 1-4.528-2 6.749 6.749 0 0 1-1.161-4.054 6.5 6.5 0 0 1 1.523-4.573 5.008 5.008 0 0 1 3.853-1.655 5.205 5.205 0 0 1 4.129 1.731q1.509 1.73 1.444 5.3h-7.764a3.145 3.145 0 0 0 .75 2.15 2.329 2.329 0 0 0 1.779.768 1.885 1.885 0 0 0 1.222-.4 2.437 2.437 0 0 0 .75-1.279zm.181-3.144a3.008 3.008 0 0 0-.693-2.055 2.12 2.12 0 0 0-1.61-.7 2.149 2.149 0 0 0-1.674.743 2.88 2.88 0 0 0-.649 2.017zm4.392-4.886h2.9v1.72a4.3 4.3 0 0 1 3.657-1.972 4.467 4.467 0 0 1 3.468 1.606 6.5 6.5 0 0 1 1.426 4.468 6.7 6.7 0 0 1-1.437 4.577 4.473 4.473 0 0 1-3.483 1.632 3.939 3.939 0 0 1-1.765-.388 5.918 5.918 0 0 1-1.674-1.323v5.874h-3.1v-16.2zm3.054 5.689a4.543 4.543 0 0 0 .784 2.933 2.389 2.389 0 0 0 1.9.947 2.241 2.241 0 0 0 1.8-.871 4.5 4.5 0 0 0 .716-2.854 4.267 4.267 0 0 0-.739-2.752 2.271 2.271 0 0 0-1.829-.9 2.366 2.366 0 0 0-1.885.883 3.932 3.932 0 0 0-.75 2.612zm15.084-5.689v2.466h-2.126v4.754a11.869 11.869 0 0 0 .06 1.685.693.693 0 0 0 .279.4.878.878 0 0 0 .524.154 4.007 4.007 0 0 0 1.252-.3l.26 2.413a6.143 6.143 0 0 1-2.447.463 3.864 3.864 0 0 1-1.508-.282 2.2 2.2 0 0 1-.984-.732 2.919 2.919 0 0 1-.437-1.218 15.587 15.587 0 0 1-.1-2.2v-5.139h-1.425v-2.464h1.425v-2.33l3.1-1.833v4.163z" class="prefix__cls-1" data-name="Path 495"/>
        <path id="prefix__Path_496" d="M118.7 341.895v-15.121h2.9v8.026l3.39-3.861h3.569l-3.739 4.005 4.013 6.955h-3.125l-2.767-4.945-1.341 1.436v3.509zm10.8-12.438v-2.683h2.893v2.683zm0 12.438v-10.96h2.893v10.96zm9.817-10.96v2.3h-1.985v4.438a11.142 11.142 0 0 0 .056 1.574.652.652 0 0 0 .261.369.821.821 0 0 0 .489.145 3.711 3.711 0 0 0 1.168-.279l.244 2.253a5.733 5.733 0 0 1-2.285.433 3.6 3.6 0 0 1-1.408-.264 2.042 2.042 0 0 1-.918-.683 2.722 2.722 0 0 1-.409-1.136 14.729 14.729 0 0 1-.091-2.053v-4.8h-1.331v-2.3h1.331v-2.172l2.893-1.711v3.886zm10.517 3.252l-2.85.507a2.052 2.052 0 0 0-.655-1.281 1.993 1.993 0 0 0-1.323-.43 2.164 2.164 0 0 0-1.729.75 3.849 3.849 0 0 0-.644 2.506 4.452 4.452 0 0 0 .655 2.759 2.137 2.137 0 0 0 1.753.807 1.945 1.945 0 0 0 1.348-.472 2.816 2.816 0 0 0 .742-1.619l2.851.486a5.072 5.072 0 0 1-1.7 2.967 5.25 5.25 0 0 1-3.372 1 5.008 5.008 0 0 1-3.826-1.517 6.935 6.935 0 0 1 0-8.437 5.073 5.073 0 0 1 3.875-1.513 5.294 5.294 0 0 1 3.179.862 4.775 4.775 0 0 1 1.692 2.622zm4-7.413v5.6a4.278 4.278 0 0 1 3.366-1.674 4.324 4.324 0 0 1 1.816.369 2.989 2.989 0 0 1 1.218.95 3.381 3.381 0 0 1 .56 1.278 11.3 11.3 0 0 1 .151 2.175v6.42h-2.894v-5.779a8.622 8.622 0 0 0-.165-2.186 1.433 1.433 0 0 0-.591-.736 1.905 1.905 0 0 0-1.059-.274 2.433 2.433 0 0 0-1.3.352 2 2 0 0 0-.838 1.056 6.165 6.165 0 0 0-.267 2.083v5.484h-2.894v-15.118zm15.329 11.658l2.893.486a4.759 4.759 0 0 1-1.756 2.421 5.181 5.181 0 0 1-3.007.831 4.891 4.891 0 0 1-4.226-1.869 6.3 6.3 0 0 1-1.085-3.784 6.064 6.064 0 0 1 1.422-4.269A4.669 4.669 0 0 1 167 330.7a4.859 4.859 0 0 1 3.854 1.615 7.165 7.165 0 0 1 1.349 4.953h-7.244a2.943 2.943 0 0 0 .7 2.006 2.178 2.178 0 0 0 1.661.718 1.763 1.763 0 0 0 1.141-.37 2.282 2.282 0 0 0 .7-1.193zm.168-2.935a2.8 2.8 0 0 0-.647-1.919 1.979 1.979 0 0 0-1.5-.658 2 2 0 0 0-1.563.694 2.687 2.687 0 0 0-.605 1.883zm14.153 6.4h-2.893v-5.587a8.629 8.629 0 0 0-.186-2.292 1.615 1.615 0 0 0-.609-.809 1.742 1.742 0 0 0-1.014-.289 2.353 2.353 0 0 0-1.362.412 2.062 2.062 0 0 0-.827 1.091 9.267 9.267 0 0 0-.225 2.516v4.956h-2.894v-10.96h2.683v1.608a4.546 4.546 0 0 1 5.388-1.5 2.956 2.956 0 0 1 1.208.881 3.157 3.157 0 0 1 .57 1.217 8.867 8.867 0 0 1 .161 1.947v6.8zm1.856 0V339h2.893v2.893z" class="prefix__cls-1" data-name="Path 496"/>
        <path id="prefix__Path_497" fill="#cb1f51" d="M68.821 310.383v-30.018a31.434 31.434 0 0 0-31.372 30.018z" data-name="Path 497"/>
        <path id="prefix__Path_498" fill="#cb1e4e" d="M37.434 312.622a31.427 31.427 0 0 0 31.387 30.608v-30.608z" data-name="Path 498"/>
        <path id="prefix__Path_499" d="M71.052 280.364v28.993l33.093-28.993z" class="prefix__cls-4" data-name="Path 499"/>
        <path id="prefix__Path_500" d="M71.052 343.142h32.668l-32.668-29.424v29.424z" class="prefix__cls-4" data-name="Path 500"/>
        <path id="prefix__Path_501" d="M105.128 341.4l-.044-58.88-33.115 29.011 33.159 29.869z" class="prefix__cls-4" data-name="Path 501"/>
    </g>
</svg>
