<svg width="444" height="321" viewBox="0 0 444 321" fill="none" xmlns="http://www.w3.org/2000/svg">
<path d="M339.37 160.189C280.521 126.209 185.408 126.209 126.916 160.189C68.4239 194.169 68.7684 249.26 127.624 283.272C186.479 317.284 281.592 317.258 340.078 283.272C398.563 249.286 398.232 194.169 339.37 160.189Z" fill="#F5F5F5"/>
<path d="M314.877 253.369C303.221 246.644 284.393 246.644 272.814 253.369C261.234 260.093 261.298 271.01 272.948 277.734C284.598 284.459 303.438 284.465 315.011 277.734C326.584 271.003 326.527 260.1 314.877 253.369Z" fill="#E0E0E0"/>
<path d="M268.048 157.86L259.403 152.878C258.075 152.111 256.569 151.707 255.036 151.707C253.503 151.707 251.996 152.111 250.669 152.878L202.71 180.675L198.48 178.238L163.767 198.552L167.773 200.855L111.004 233.636C110.56 233.89 110.191 234.258 109.935 234.701C109.678 235.144 109.543 235.647 109.543 236.159C109.543 236.671 109.678 237.174 109.935 237.617C110.191 238.06 110.56 238.427 111.004 238.682L119.738 243.716C121.068 244.484 122.576 244.888 124.112 244.888C125.647 244.888 127.156 244.484 128.485 243.716L185.216 210.904L191.852 214.732C194.507 216.263 197.518 217.069 200.583 217.069C203.648 217.069 206.659 216.263 209.314 214.732L229.73 202.954C230.32 202.613 230.811 202.123 231.152 201.532C231.494 200.941 231.673 200.271 231.673 199.589C231.673 198.906 231.494 198.236 231.152 197.646C230.811 197.055 230.32 196.564 229.73 196.223L220.16 190.724L228.218 186.047L231.006 184.427L268.073 162.92C268.518 162.662 268.886 162.292 269.141 161.846C269.396 161.401 269.529 160.896 269.527 160.383C269.524 159.869 269.386 159.366 269.126 158.923C268.867 158.48 268.495 158.113 268.048 157.86Z" fill="#E0E0E0"/>
<path d="M316.593 71.2327L318.501 70.1226L338.643 81.7087V83.9098L316.593 71.2327Z" fill="#F5F5F5"/>
<path d="M316.593 71.2327L338.643 83.9098V86.4299L316.593 73.7592V71.2327Z" fill="#E0E0E0"/>
<path d="M340.729 85.1028L342.636 83.9927L362.778 95.5788V97.7799L340.729 85.1028Z" fill="#F5F5F5"/>
<path d="M340.729 85.1028L362.778 97.7799V100.3L340.729 87.6293V85.1028Z" fill="#E0E0E0"/>
<path d="M257.738 37.3358L259.645 36.2256L279.787 47.8117V50.0128L257.738 37.3358Z" fill="#F5F5F5"/>
<path d="M257.738 37.3358L279.787 50.0128V52.5329L257.738 39.8622V37.3358Z" fill="#E0E0E0"/>
<path d="M281.873 51.2059L283.781 50.1021L303.922 61.6818V63.8893L281.873 51.2059Z" fill="#F5F5F5"/>
<path d="M281.873 51.2059L303.922 63.8893V66.403L281.873 53.7324V51.2059Z" fill="#E0E0E0"/>
<path d="M316.702 50.0639L318.609 48.9538L318.495 116.92L316.593 118.03L316.702 50.0639Z" fill="#F0F0F0"/>
<path d="M316.593 118.03L318.495 116.92L340.435 129.514L338.528 130.624L316.593 118.03Z" fill="#F5F5F5"/>
<path d="M314.526 46.2805L340.844 61.4011L340.722 134.407L314.392 119.306L314.526 46.2805ZM338.534 130.618L338.649 62.658L316.702 50.0639L316.593 118.03L338.528 130.618" fill="#E0E0E0"/>
<path d="M314.52 46.2805L316.421 45.1704L342.745 60.2974L340.837 61.4011L314.52 46.2805Z" fill="#F5F5F5"/>
<path d="M340.837 61.4011L342.745 60.2974L342.617 133.297L340.716 134.407L340.837 61.4011Z" fill="#F0F0F0"/>
<path d="M340.837 63.934L342.745 62.8303L342.636 130.79L340.729 131.9L340.837 63.934Z" fill="#F0F0F0"/>
<path d="M340.729 131.9L342.636 130.79L364.571 143.384L362.663 144.494L340.729 131.9Z" fill="#F5F5F5"/>
<path d="M338.655 60.1506L364.979 75.284L364.852 148.284L338.528 133.151L338.655 60.1506ZM362.663 144.494L362.778 76.56L340.837 63.9659L340.729 131.932L362.663 144.526" fill="#E0E0E0"/>
<path d="M338.655 60.1507L340.563 59.0405L366.88 74.1675L364.979 75.2713L338.655 60.1507Z" fill="#F5F5F5"/>
<path d="M364.979 75.2713L366.88 74.1675L366.759 147.167L364.852 148.278L364.979 75.2713Z" fill="#F0F0F0"/>
<path d="M257.846 16.1669L259.754 15.0632L259.639 83.0229L257.738 84.133L257.846 16.1669Z" fill="#F0F0F0"/>
<path d="M257.738 84.1331L259.639 83.0229L281.58 95.6171L279.672 96.7208L257.738 84.1331Z" fill="#F5F5F5"/>
<path d="M255.664 12.3836L281.988 27.5106L281.867 100.51L255.543 85.3835L255.664 12.3836ZM279.672 96.7272L279.787 28.761L257.846 16.1669L257.744 84.133L279.679 96.7272" fill="#E0E0E0"/>
<path d="M255.664 12.3836L257.565 11.2735L283.889 26.4004L281.982 27.5106L255.664 12.3836Z" fill="#F5F5F5"/>
<path d="M281.982 27.5106L283.889 26.4004L283.762 99.4004L281.86 100.511L281.982 27.5106Z" fill="#F0F0F0"/>
<path d="M281.981 30.037L283.889 28.9333L283.781 96.8931L281.873 98.0032L281.981 30.037Z" fill="#F0F0F0"/>
<path d="M281.873 98.0032L283.781 96.8931L305.715 109.487L303.807 110.597L281.873 98.0032Z" fill="#F5F5F5"/>
<path d="M279.8 26.2537L306.124 41.3807L305.996 114.381L279.672 99.2537L279.8 26.2537ZM303.808 110.597L303.923 42.6312L281.988 30.037L281.88 98.0032L303.814 110.597" fill="#E0E0E0"/>
<path d="M279.8 26.2537L281.707 25.1436L308.025 40.2706L306.124 41.3807L279.8 26.2537Z" fill="#F5F5F5"/>
<path d="M306.124 41.3807L308.025 40.2706L307.904 113.271L305.996 114.381L306.124 41.3807Z" fill="#F0F0F0"/>
<path d="M106.259 204.367L106.259 204.368L106.268 204.367L116.222 204.078C116.627 210.835 115.307 217.684 113.5 221.021L113.5 221.021L113.498 221.026C113.08 221.869 112.406 222.558 111.572 222.995L111.572 222.995L111.567 222.998C110.105 223.843 108.183 224.27 106.256 224.27C104.329 224.27 102.412 223.843 100.96 222.998L100.961 222.998L100.954 222.995C100.105 222.553 99.4245 221.844 99.0175 220.978L99.0177 220.978L99.0138 220.97C97.207 217.614 95.8995 210.803 96.3045 204.078L106.259 204.367Z" fill="white" stroke="black" stroke-width="0.3"/>
<path d="M99.1746 207.948C97.2338 206.812 96.3033 205.353 96.3117 203.926C96.32 202.499 97.2679 201.043 99.2185 199.913C101.168 198.787 103.73 198.214 106.296 198.211C108.862 198.208 111.416 198.775 113.352 199.913C115.29 201.051 116.222 202.511 116.216 203.937C116.209 205.363 115.262 206.818 113.309 207.947C111.356 209.077 108.796 209.648 106.232 209.65C103.667 209.652 101.114 209.083 99.1746 207.948Z" fill="#EBEBEB" stroke="black" stroke-width="0.3"/>
<path d="M100.706 200.696C97.6185 202.476 97.6058 205.366 100.706 207.152C103.807 208.939 108.764 208.932 111.846 207.152C114.927 205.372 114.953 202.476 111.884 200.696C108.815 198.916 103.794 198.916 100.706 200.696Z" fill="#E0E0E0"/>
<g opacity="0.15">
<path d="M100.706 200.696C97.6185 202.476 97.6058 205.366 100.706 207.152C103.807 208.939 108.764 208.932 111.846 207.152C114.927 205.372 114.953 202.476 111.884 200.696C108.815 198.916 103.794 198.916 100.706 200.696Z" fill="black"/>
</g>
<path d="M89.6562 160.821C112.42 168.273 112.624 183.502 107.52 194.348C106.244 196.542 102.308 197.723 98.9009 184.235L104.879 185.001L97.912 181.466L96.0745 176.088L101.88 176.522L94.5114 173.421C93.1557 169.124 91.5342 164.916 89.6562 160.821Z" fill="#EC287C"/>
<path opacity="0.2" d="M89.6562 160.821C112.42 168.273 112.624 183.502 107.52 194.348C106.244 196.542 102.308 197.723 98.9009 184.235L104.879 185.001L97.912 181.466L96.0745 176.088L101.88 176.522L94.5114 173.421C93.1557 169.124 91.5342 164.916 89.6562 160.821Z" fill="black"/>
<path opacity="0.2" d="M89.6562 160.821C112.42 168.273 112.624 183.502 107.52 194.348C106.244 196.542 102.308 197.723 98.9009 184.235L104.879 185.001L97.912 181.466L96.0745 176.088L101.88 176.522L94.5114 173.421C93.1557 169.124 91.5342 164.916 89.6562 160.821Z" fill="white"/>
<path d="M96.0938 164.604C108.095 173.715 109.179 184.159 105.791 195.062C106.991 185.486 108.286 175.775 96.0938 164.604Z" fill="white"/>
<path d="M128.23 176.286C105.791 179.476 103.067 193.595 106.047 204.549C106.889 206.808 110.34 208.556 115.757 196.561L110.06 196.281L117.135 194.15L119.687 189.416L114.194 188.848L121.575 187.189C123.568 183.422 125.791 179.781 128.23 176.286Z" fill="#EC287C"/>
<path opacity="0.2" d="M128.23 176.286C105.791 179.476 103.067 193.595 106.047 204.549C106.889 206.808 110.34 208.556 115.757 196.561L110.06 196.281L117.135 194.15L119.687 189.416L114.194 188.848L121.575 187.189C123.568 183.422 125.791 179.781 128.23 176.286Z" fill="white"/>
<path opacity="0.1" d="M128.23 176.286C105.791 179.476 103.067 193.595 106.047 204.549C106.889 206.808 110.34 208.556 115.757 196.561L110.06 196.281L117.135 194.15L119.687 189.416L114.194 188.848L121.575 187.189C123.568 183.422 125.791 179.781 128.23 176.286Z" fill="black"/>
<path d="M121.582 178.768C108.886 185.256 106.143 194.807 107.489 205.525C107.967 196.383 108.375 187.125 121.582 178.768Z" fill="white"/>
<path d="M83.085 181.588C103.667 181.926 107.705 194.348 106.244 204.556C105.74 206.686 102.825 208.645 96.5978 198.444L101.702 197.55L95.0857 196.421L92.2275 192.44L97.1018 191.323L90.2625 190.647C88.0598 187.482 85.6627 184.456 83.085 181.588Z" fill="#EC287C"/>
<path d="M89.312 183.106C101.479 187.534 105.026 195.866 105.013 205.647C103.584 197.435 102.18 189.135 89.312 183.106Z" fill="white"/>
<path opacity="0.2" d="M83.085 181.588C103.667 181.926 107.705 194.348 106.244 204.556C105.74 206.686 102.825 208.645 96.5978 198.444L101.702 197.55L95.0857 196.421L92.2275 192.44L97.1018 191.323L90.2625 190.647C88.0598 187.482 85.6627 184.456 83.085 181.588Z" fill="white"/>
<path d="M357.223 188.258L357.223 188.258L357.231 188.258L367.677 187.95C368.108 195.044 366.717 202.225 364.821 205.735L364.821 205.735L364.819 205.739C364.378 206.628 363.666 207.353 362.785 207.81L362.785 207.81L362.779 207.813C361.244 208.7 359.227 209.147 357.205 209.147C355.182 209.147 353.172 208.7 351.65 207.814L351.65 207.814L351.643 207.81C350.751 207.347 350.036 206.603 349.611 205.692L349.611 205.691L349.608 205.684C347.724 202.155 346.346 195.006 346.771 187.95L357.223 188.258Z" fill="white" stroke="black" stroke-width="0.3"/>
<path d="M346.784 187.799C346.775 189.296 347.754 190.824 349.787 192.004C351.819 193.184 354.503 193.78 357.197 193.78C359.891 193.781 362.578 193.187 364.616 192.004C366.656 190.82 367.652 189.292 367.663 187.794C367.674 186.297 366.7 184.77 364.667 183.587C362.635 182.404 359.954 181.809 357.262 181.81C354.57 181.811 351.883 182.407 349.837 183.587L346.784 187.799ZM346.784 187.799C346.792 186.3 347.788 184.771 349.837 183.587L346.784 187.799Z" fill="#EBEBEB" stroke="black" stroke-width="0.3"/>
<path d="M351.402 184.414C348.161 186.283 348.149 189.314 351.364 191.183C354.58 193.052 359.811 193.052 363.052 191.183C366.293 189.314 366.306 186.283 363.09 184.414C359.875 182.545 354.637 182.545 351.402 184.414Z" fill="#E0E0E0"/>
<g opacity="0.15">
<path d="M351.402 184.414C348.161 186.283 348.149 189.314 351.364 191.183C354.58 193.052 359.811 193.052 363.052 191.183C366.293 189.314 366.306 186.283 363.09 184.414C359.875 182.545 354.637 182.545 351.402 184.414Z" fill="black"/>
</g>
<path d="M362.631 166.116C364.353 163.979 366.35 162.058 367.933 159.806C369.011 158.275 369.91 156.393 369.457 154.575C369.205 153.739 368.724 152.991 368.069 152.414C367.414 151.836 366.611 151.454 365.751 151.308C364.011 151.05 362.237 151.448 360.774 152.425C359.325 153.395 358.052 154.605 357.01 156.004C351.048 163.557 348.228 173.118 349.137 182.698C349.156 183.795 349.498 184.862 350.12 185.766C350.502 186.217 351.007 186.548 351.572 186.719C352.138 186.89 352.742 186.894 353.31 186.73C356.2 185.875 355.817 181.977 356.289 179.712C357.307 174.746 359.494 170.094 362.669 166.142L362.631 166.116Z" fill="#EC287C"/>
<path opacity="0.2" d="M362.631 166.116C364.353 163.979 366.35 162.058 367.933 159.806C369.011 158.275 369.91 156.393 369.457 154.575C369.205 153.739 368.724 152.991 368.069 152.414C367.414 151.836 366.611 151.454 365.751 151.308C364.011 151.05 362.237 151.448 360.774 152.425C359.325 153.395 358.052 154.605 357.01 156.004C351.048 163.557 348.228 173.118 349.137 182.698C349.156 183.795 349.498 184.862 350.12 185.766C350.502 186.217 351.007 186.548 351.572 186.719C352.138 186.89 352.742 186.894 353.31 186.73C356.2 185.875 355.817 181.977 356.289 179.712C357.307 174.746 359.494 170.094 362.669 166.142L362.631 166.116Z" fill="white"/>
<path d="M353.106 183.827C353.161 183.817 353.212 183.788 353.249 183.745C353.286 183.702 353.308 183.648 353.31 183.591C353.514 178.959 355.02 163.175 365.917 154.173C365.943 154.152 365.964 154.127 365.98 154.098C365.996 154.069 366.005 154.037 366.008 154.004C366.011 153.971 366.007 153.938 365.997 153.907C365.987 153.875 365.97 153.847 365.949 153.822C365.93 153.79 365.904 153.763 365.873 153.742C365.843 153.722 365.808 153.708 365.772 153.702C365.735 153.696 365.698 153.698 365.663 153.707C365.627 153.717 365.594 153.734 365.566 153.758C354.509 162.862 352.984 178.857 352.806 183.546C352.804 183.613 352.828 183.678 352.874 183.726C352.919 183.775 352.982 183.804 353.048 183.808L353.106 183.827Z" fill="#F0F0F0"/>
<path d="M351.53 184.331C351.759 185.344 352.19 186.301 352.797 187.144C353.405 187.987 354.176 188.699 355.064 189.237C356.731 190.026 358.584 190.335 360.417 190.13C362.274 189.926 364.099 189.497 365.853 188.854C366.727 188.561 367.697 188.165 367.767 187.081C367.781 186.795 367.731 186.51 367.621 186.246C367.51 185.982 367.342 185.746 367.129 185.556C366.95 185.384 366.763 185.223 366.567 185.071C366.475 185.003 366.406 184.909 366.37 184.8C366.333 184.691 366.331 184.574 366.364 184.465C366.397 184.355 366.463 184.258 366.553 184.187C366.643 184.116 366.753 184.075 366.867 184.069C367.385 184.034 367.9 183.97 368.411 183.878C369.608 183.687 370.732 183.178 371.665 182.404C372.368 181.807 372.904 181.037 373.222 180.171C373.393 179.823 373.464 179.434 373.427 179.047C373.39 178.661 373.246 178.292 373.011 177.983C372.664 177.702 372.247 177.521 371.805 177.46C371.414 177.379 371.025 177.309 370.638 177.249C370.526 177.232 370.424 177.178 370.346 177.097C370.267 177.015 370.218 176.91 370.205 176.798C370.192 176.686 370.216 176.573 370.273 176.476C370.331 176.379 370.418 176.303 370.523 176.26L372.163 175.571C372.646 175.425 373.085 175.159 373.439 174.799C373.653 174.467 373.791 174.093 373.845 173.701C373.899 173.31 373.867 172.912 373.751 172.534C373.553 171.507 373.196 170.512 372.954 169.497C372.667 168.484 372.629 167.415 372.845 166.384C369.763 166.049 366.646 166.265 363.639 167.022C362.733 167.21 361.877 167.586 361.125 168.126C360.104 168.942 359.849 170.174 359.945 171.507C359.95 171.562 359.936 171.617 359.905 171.663C359.874 171.709 359.828 171.742 359.775 171.757C359.722 171.772 359.665 171.768 359.614 171.746C359.564 171.724 359.523 171.684 359.498 171.635L358.446 169.721C358.287 169.446 358.032 169.241 357.73 169.144C357.428 169.047 357.101 169.066 356.812 169.198C355.891 169.666 355.074 170.317 354.413 171.112C354.046 171.53 353.766 172.018 353.59 172.546C353.414 173.074 353.344 173.632 353.386 174.187C353.49 175.688 353.723 177.178 354.082 178.64C354.1 178.721 354.094 178.806 354.063 178.884C354.033 178.962 353.981 179.029 353.912 179.077C353.844 179.125 353.763 179.151 353.679 179.153C353.596 179.155 353.514 179.132 353.444 179.087L353.399 179.048C353.116 178.83 352.76 178.727 352.404 178.761C351.479 178.876 351.243 179.814 351.179 180.618C351.144 181.865 351.262 183.112 351.53 184.331Z" fill="#EC287C"/>
<path opacity="0.2" d="M351.53 184.331C351.759 185.344 352.19 186.301 352.797 187.144C353.405 187.987 354.176 188.699 355.064 189.237C356.731 190.026 358.584 190.335 360.417 190.13C362.274 189.926 364.099 189.497 365.853 188.854C366.727 188.561 367.697 188.165 367.767 187.081C367.781 186.795 367.731 186.51 367.621 186.246C367.51 185.982 367.342 185.746 367.129 185.556C366.95 185.384 366.763 185.223 366.567 185.071C366.475 185.003 366.406 184.909 366.37 184.8C366.333 184.691 366.331 184.574 366.364 184.465C366.397 184.355 366.463 184.258 366.553 184.187C366.643 184.116 366.753 184.075 366.867 184.069C367.385 184.034 367.9 183.97 368.411 183.878C369.608 183.687 370.732 183.178 371.665 182.404C372.368 181.807 372.904 181.037 373.222 180.171C373.393 179.823 373.464 179.434 373.427 179.047C373.39 178.661 373.246 178.292 373.011 177.983C372.664 177.702 372.247 177.521 371.805 177.46C371.414 177.379 371.025 177.309 370.638 177.249C370.526 177.232 370.424 177.178 370.346 177.097C370.267 177.015 370.218 176.91 370.205 176.798C370.192 176.686 370.216 176.573 370.273 176.476C370.331 176.379 370.418 176.303 370.523 176.26L372.163 175.571C372.646 175.425 373.085 175.159 373.439 174.799C373.653 174.467 373.791 174.093 373.845 173.701C373.899 173.31 373.867 172.912 373.751 172.534C373.553 171.507 373.196 170.512 372.954 169.497C372.667 168.484 372.629 167.415 372.845 166.384C369.763 166.049 366.646 166.265 363.639 167.022C362.733 167.21 361.877 167.586 361.125 168.126C360.104 168.942 359.849 170.174 359.945 171.507C359.95 171.562 359.936 171.617 359.905 171.663C359.874 171.709 359.828 171.742 359.775 171.757C359.722 171.772 359.665 171.768 359.614 171.746C359.564 171.724 359.523 171.684 359.498 171.635L358.446 169.721C358.287 169.446 358.032 169.241 357.73 169.144C357.428 169.047 357.101 169.066 356.812 169.198C355.891 169.666 355.074 170.317 354.413 171.112C354.046 171.53 353.766 172.018 353.59 172.546C353.414 173.074 353.344 173.632 353.386 174.187C353.49 175.688 353.723 177.178 354.082 178.64C354.1 178.721 354.094 178.806 354.063 178.884C354.033 178.962 353.981 179.029 353.912 179.077C353.844 179.125 353.763 179.151 353.679 179.153C353.596 179.155 353.514 179.132 353.444 179.087L353.399 179.048C353.116 178.83 352.76 178.727 352.404 178.761C351.479 178.876 351.243 179.814 351.179 180.618C351.144 181.865 351.262 183.112 351.53 184.331Z" fill="black"/>
<path opacity="0.2" d="M351.53 184.331C351.759 185.344 352.19 186.301 352.797 187.144C353.405 187.987 354.176 188.699 355.064 189.237C356.731 190.026 358.584 190.335 360.417 190.13C362.274 189.926 364.099 189.497 365.853 188.854C366.727 188.561 367.697 188.165 367.767 187.081C367.781 186.795 367.731 186.51 367.621 186.246C367.51 185.982 367.342 185.746 367.129 185.556C366.95 185.384 366.763 185.223 366.567 185.071C366.475 185.003 366.406 184.909 366.37 184.8C366.333 184.691 366.331 184.574 366.364 184.465C366.397 184.355 366.463 184.258 366.553 184.187C366.643 184.116 366.753 184.075 366.867 184.069C367.385 184.034 367.9 183.97 368.411 183.878C369.608 183.687 370.732 183.178 371.665 182.404C372.368 181.807 372.904 181.037 373.222 180.171C373.393 179.823 373.464 179.434 373.427 179.047C373.39 178.661 373.246 178.292 373.011 177.983C372.664 177.702 372.247 177.521 371.805 177.46C371.414 177.379 371.025 177.309 370.638 177.249C370.526 177.232 370.424 177.178 370.346 177.097C370.267 177.015 370.218 176.91 370.205 176.798C370.192 176.686 370.216 176.573 370.273 176.476C370.331 176.379 370.418 176.303 370.523 176.26L372.163 175.571C372.646 175.425 373.085 175.159 373.439 174.799C373.653 174.467 373.791 174.093 373.845 173.701C373.899 173.31 373.867 172.912 373.751 172.534C373.553 171.507 373.196 170.512 372.954 169.497C372.667 168.484 372.629 167.415 372.845 166.384C369.763 166.049 366.646 166.265 363.639 167.022C362.733 167.21 361.877 167.586 361.125 168.126C360.104 168.942 359.849 170.174 359.945 171.507C359.95 171.562 359.936 171.617 359.905 171.663C359.874 171.709 359.828 171.742 359.775 171.757C359.722 171.772 359.665 171.768 359.614 171.746C359.564 171.724 359.523 171.684 359.498 171.635L358.446 169.721C358.287 169.446 358.032 169.241 357.73 169.144C357.428 169.047 357.101 169.066 356.812 169.198C355.891 169.666 355.074 170.317 354.413 171.112C354.046 171.53 353.766 172.018 353.59 172.546C353.414 173.074 353.344 173.632 353.386 174.187C353.49 175.688 353.723 177.178 354.082 178.64C354.1 178.721 354.094 178.806 354.063 178.884C354.033 178.962 353.981 179.029 353.912 179.077C353.844 179.125 353.763 179.151 353.679 179.153C353.596 179.155 353.514 179.132 353.444 179.087L353.399 179.048C353.116 178.83 352.76 178.727 352.404 178.761C351.479 178.876 351.243 179.814 351.179 180.618C351.144 181.865 351.262 183.112 351.53 184.331Z" fill="white"/>
<path d="M356.398 188.982C356.976 186.52 357.806 184.123 358.873 181.83C358.873 181.794 358.881 181.759 358.897 181.727C358.912 181.695 358.935 181.667 358.962 181.645C359.02 181.517 359.071 181.396 359.135 181.269C358.83 178.401 357.998 175.615 356.678 173.051C356.646 172.993 356.638 172.924 356.656 172.859C356.674 172.795 356.716 172.74 356.774 172.707C356.833 172.674 356.902 172.666 356.966 172.684C357.03 172.702 357.085 172.744 357.119 172.802C358.357 175.197 359.174 177.787 359.537 180.458C361.629 176.254 364.972 171.341 370.134 167.749C370.161 167.73 370.191 167.716 370.223 167.708C370.255 167.7 370.289 167.699 370.321 167.704C370.354 167.71 370.385 167.721 370.413 167.739C370.441 167.757 370.466 167.78 370.485 167.807C370.523 167.862 370.538 167.93 370.528 167.997C370.517 168.064 370.481 168.123 370.427 168.164C365.1 171.864 361.744 177 359.703 181.262C362.449 180.02 365.498 179.607 368.475 180.076C368.507 180.082 368.538 180.094 368.566 180.112C368.593 180.13 368.617 180.154 368.635 180.181C368.654 180.208 368.666 180.239 368.673 180.271C368.679 180.303 368.679 180.337 368.673 180.369C368.667 180.402 368.656 180.433 368.638 180.462C368.62 180.49 368.597 180.514 368.569 180.533C368.542 180.552 368.511 180.566 368.478 180.572C368.446 180.579 368.412 180.58 368.379 180.573C368.335 180.573 363.511 179.686 359.352 182.015C358.29 184.294 357.465 186.675 356.889 189.122C356.881 189.172 356.857 189.219 356.822 189.255C356.787 189.292 356.741 189.317 356.691 189.327H356.595C356.558 189.321 356.522 189.306 356.491 189.285C356.459 189.263 356.433 189.235 356.414 189.202C356.395 189.168 356.384 189.132 356.381 189.094C356.378 189.056 356.384 189.017 356.398 188.982Z" fill="#F0F0F0"/>
<path d="M222.654 197.652L206.028 207.165C203.639 208.538 200.932 209.261 198.177 209.261C195.422 209.261 192.715 208.538 190.327 207.165L177.994 200.032C177.276 199.618 176.679 199.022 176.263 198.304C175.848 197.586 175.628 196.772 175.627 195.943V187.521L173.075 189.014V196.325C173.075 197.294 173.33 198.246 173.815 199.085C174.3 199.924 174.998 200.621 175.838 201.104L190.512 209.551C192.864 210.901 195.529 211.611 198.241 211.611C200.953 211.611 203.618 210.901 205.97 209.551L222.718 199.981C223.858 199.331 224.765 198.34 225.313 197.148C225.861 195.955 226.022 194.622 225.774 193.333C225.606 194.239 225.239 195.096 224.699 195.843C224.16 196.59 223.461 197.208 222.654 197.652Z" fill="#EC287C"/>
<path opacity="0.1" d="M222.654 197.652L206.028 207.165C203.639 208.538 200.932 209.261 198.177 209.261C195.422 209.261 192.715 208.538 190.327 207.165L177.994 200.032C177.276 199.618 176.679 199.022 176.263 198.304C175.848 197.586 175.628 196.772 175.627 195.943V187.521L173.075 189.014V196.325C173.075 197.294 173.33 198.246 173.815 199.085C174.3 199.924 174.998 200.621 175.838 201.104L190.512 209.551C192.864 210.901 195.529 211.611 198.241 211.611C200.953 211.611 203.618 210.901 205.97 209.551L222.718 199.981C223.858 199.331 224.765 198.34 225.313 197.148C225.861 195.955 226.022 194.622 225.774 193.333C225.606 194.239 225.239 195.096 224.699 195.843C224.16 196.59 223.461 197.208 222.654 197.652Z" fill="black"/>
<path d="M177.994 200.032L190.333 207.139C192.722 208.513 195.428 209.235 198.184 209.235C200.939 209.235 203.646 208.513 206.034 207.139L222.654 197.652C223.448 197.202 224.133 196.583 224.661 195.839C225.189 195.095 225.547 194.244 225.71 193.346C225.551 192.47 225.206 191.638 224.697 190.907C224.189 190.176 223.529 189.563 222.762 189.11L209.122 180.93C208.305 180.439 207.63 179.745 207.16 178.916C206.691 178.086 206.443 177.15 206.442 176.196V169.708L175.608 187.534V195.955C175.613 196.784 175.836 197.598 176.255 198.313C176.674 199.029 177.274 199.622 177.994 200.032Z" fill="#EC287C"/>
<path opacity="0.4" d="M177.994 200.032C177.276 199.618 176.679 199.022 176.263 198.304C175.848 197.586 175.628 196.772 175.627 195.943V187.521L173.075 189.014V196.325C173.075 197.294 173.33 198.246 173.815 199.085C174.3 199.924 174.998 200.621 175.838 201.104L181.031 204.103V201.761L177.994 200.032Z" fill="black"/>
<path opacity="0.3" d="M177.994 200.032L180.999 201.761L213.192 183.368L209.128 180.93C208.312 180.439 207.636 179.745 207.166 178.916C206.697 178.086 206.45 177.15 206.449 176.196V169.708L175.614 187.534V195.955C175.619 196.784 175.841 197.597 176.259 198.312C176.677 199.028 177.275 199.621 177.994 200.032Z" fill="black"/>
<path d="M122.01 217.909L121.774 112.454C121.861 110.821 122.332 109.231 123.149 107.815C123.966 106.398 125.106 105.194 126.476 104.3L257.565 28.8121C258.841 28.0656 260.035 27.9891 260.889 28.4676L255.951 25.6093C255.09 25.0606 253.871 25.1053 252.525 25.8837L121.442 101.378C120.073 102.27 118.934 103.473 118.118 104.889C117.302 106.305 116.832 107.894 116.746 109.525L116.969 215.006C116.969 216.416 117.454 217.424 118.245 217.947L118.507 218.094L123.375 220.933C122.533 220.423 122.016 219.383 122.01 217.909Z" fill="#EC287C"/>
<path opacity="0.3" d="M255.951 25.6093C255.09 25.0606 253.871 25.1053 252.525 25.8837L121.442 101.378C119.889 102.356 118.641 103.748 117.837 105.398L122.877 108.313C123.683 106.669 124.928 105.28 126.475 104.3L257.565 28.8121C258.841 28.0656 260.034 27.9891 260.889 28.4676L255.951 25.6093Z" fill="white"/>
<path opacity="0.2" d="M116.746 109.525L116.969 215.006C116.969 216.416 117.454 217.424 118.245 217.947L118.507 218.094L123.375 220.933C122.546 220.435 122.029 219.395 122.022 217.922L121.786 112.467C121.826 111.019 122.204 109.601 122.89 108.326L117.85 105.41C117.169 106.678 116.791 108.087 116.746 109.525Z" fill="black"/>
<path d="M262.299 31.5108C262.299 30.037 261.776 29.0035 260.947 28.5058H260.915C260.06 28.0273 258.886 28.1039 257.591 28.8504L126.475 104.3C125.106 105.194 123.966 106.398 123.149 107.815C122.332 109.231 121.861 110.821 121.773 112.454L122.009 217.909C122.009 219.383 122.533 220.423 123.362 220.92L123.439 220.958H123.471C124.325 221.405 125.474 221.322 126.743 220.588L257.833 145.119C259.203 144.227 260.342 143.024 261.16 141.609C261.977 140.193 262.448 138.604 262.535 136.972L262.299 31.5108ZM255.505 141.087L126.661 215.28L126.431 112.441C126.518 111.63 126.775 110.845 127.184 110.139C127.592 109.432 128.144 108.819 128.804 108.339L257.68 34.1458L257.91 136.985C257.817 137.799 257.555 138.584 257.141 139.29C256.727 139.997 256.169 140.609 255.505 141.087Z" fill="#EC287C"/>
<path d="M257.648 34.1458L254.312 36.0598L254.554 135.358C254.465 136.169 254.208 136.953 253.799 137.659C253.391 138.365 252.84 138.979 252.181 139.46L126.654 211.727V215.28L255.53 141.087C256.189 140.606 256.74 139.992 257.149 139.286C257.558 138.58 257.815 137.796 257.904 136.985L257.648 34.1458Z" fill="#EC287C"/>
<path opacity="0.3" d="M257.648 34.1458L254.312 36.0598L254.554 135.358C254.465 136.169 254.208 136.953 253.799 137.659C253.391 138.365 252.84 138.979 252.181 139.46L126.654 211.727V215.28L255.53 141.087C256.189 140.606 256.74 139.992 257.149 139.286C257.558 138.58 257.815 137.796 257.904 136.985L257.648 34.1458Z" fill="black"/>
<path d="M254.554 135.358L254.331 36.0661L128.805 108.339C128.145 108.819 127.593 109.432 127.184 110.139C126.775 110.845 126.519 111.63 126.431 112.441L126.654 211.727L252.162 139.46C252.824 138.981 253.379 138.368 253.791 137.662C254.203 136.955 254.463 136.171 254.554 135.358Z" fill="white"/>
<path d="M141.621 223.237L141.621 223.237L141.378 123.562L141.378 123.555L141.379 123.548C141.465 121.964 141.925 120.423 142.721 119.05C143.517 117.678 144.626 116.513 145.958 115.651L145.969 115.644L145.969 115.644L269.869 44.2968L141.621 223.237ZM141.621 223.237C141.624 223.971 141.757 224.609 141.998 225.128M141.621 223.237L141.998 225.128M141.998 225.128L138.653 223.18L138.642 223.173L138.63 223.168C138.557 223.135 138.487 223.095 138.421 223.05L138.418 223.048C137.776 222.618 137.342 221.761 137.342 220.474L137.342 220.473L137.119 120.805C137.201 119.302 137.637 117.84 138.392 116.537C139.148 115.235 140.201 114.129 141.465 113.312L265.359 41.9483L141.998 225.128ZM271.741 43.6625L268.349 41.686L268.342 41.6814L268.342 41.6813C267.631 41.2316 266.587 41.2419 265.359 41.9482L271.741 43.6625ZM271.741 43.6625C271.154 43.7098 270.52 43.9204 269.869 44.2966L271.741 43.6625Z" fill="white" stroke="black" stroke-width="0.5"/>
<path opacity="0.1" d="M136.888 120.799L137.111 220.474C137.111 221.813 137.564 222.764 138.298 223.255C138.376 223.31 138.459 223.357 138.546 223.396L143.146 226.075C142.362 225.603 141.87 224.627 141.87 223.23L141.628 123.561C141.667 122.194 142.025 120.855 142.674 119.651L137.908 116.894C137.268 118.098 136.918 119.435 136.888 120.799Z" fill="white"/>
<path d="M274.255 53.1184L274.465 146.734C274.382 148.236 273.944 149.698 273.189 151.001C272.434 152.303 271.382 153.408 270.119 154.227L146.186 225.559L146.184 225.56C145.057 226.224 144.045 226.273 143.342 225.91L143.281 225.871L143.276 225.868C142.596 225.456 142.121 224.578 142.121 223.236L142.121 223.236L141.91 129.486L274.255 53.1184Z" fill="white" stroke="black" stroke-width="0.5"/>
<path d="M148.053 133.023L268.131 63.7171L268.316 146.74C268.146 147.584 267.696 148.346 267.04 148.903L148.238 217.341L148.053 133.023Z" fill="white"/>
<path d="M269.343 58.9321C270.491 58.2941 271.429 58.7981 271.429 60.1251C271.392 60.8451 271.185 61.546 270.824 62.1704C270.464 62.7947 269.961 63.3248 269.356 63.7171L163.148 125.112C162.006 125.75 161.068 125.246 161.062 123.925C161.098 123.204 161.305 122.502 161.666 121.877C162.026 121.251 162.53 120.72 163.135 120.327L269.343 58.9321Z" fill="#455A64"/>
<g opacity="0.8">
<path d="M269.343 58.9321C270.491 58.2941 271.429 58.7981 271.429 60.1251C271.392 60.8451 271.185 61.546 270.824 62.1704C270.464 62.7947 269.961 63.3248 269.356 63.7171L163.148 125.112C162.006 125.75 161.068 125.246 161.062 123.925C161.098 123.204 161.305 122.502 161.666 121.877C162.026 121.251 162.53 120.72 163.135 120.327L269.343 58.9321Z" fill="white"/>
</g>
<path d="M147.536 130.414C147.558 130.403 147.582 130.398 147.606 130.398C147.63 130.398 147.654 130.403 147.676 130.414C147.766 130.458 147.772 130.605 147.676 130.745L147.038 131.983L149.303 130.675C149.418 130.605 149.514 130.675 149.514 130.796C149.509 130.868 149.488 130.938 149.451 131C149.415 131.062 149.364 131.115 149.303 131.154L147.038 132.462L147.715 132.921C147.798 132.972 147.791 133.125 147.715 133.265C147.68 133.325 147.632 133.375 147.574 133.412C147.552 133.428 147.525 133.436 147.498 133.436C147.47 133.436 147.444 133.428 147.421 133.412L146.394 132.704C146.376 132.69 146.361 132.673 146.349 132.653C146.346 132.625 146.346 132.598 146.349 132.57C146.346 132.542 146.346 132.515 146.349 132.487C146.357 132.451 146.37 132.417 146.388 132.385L147.383 130.554C147.42 130.494 147.473 130.446 147.536 130.414Z" fill="#455A64"/>
<path d="M153.252 127.115C153.276 127.098 153.304 127.089 153.332 127.089C153.361 127.089 153.389 127.098 153.412 127.115L154.407 127.785L154.452 127.836C154.455 127.864 154.455 127.891 154.452 127.919C154.455 127.949 154.455 127.979 154.452 128.008L154.414 128.104L153.418 129.935C153.383 130.003 153.33 130.06 153.265 130.101C153.243 130.113 153.218 130.12 153.192 130.12C153.166 130.12 153.141 130.113 153.118 130.101C153.036 130.063 153.029 129.91 153.118 129.769L153.795 128.531L151.53 129.839C151.415 129.91 151.319 129.839 151.319 129.725C151.322 129.651 151.342 129.58 151.379 129.516C151.416 129.453 151.468 129.4 151.53 129.361L153.795 128.053L153.112 127.6C153.036 127.543 153.042 127.389 153.112 127.249C153.146 127.193 153.195 127.146 153.252 127.115Z" fill="#455A64"/>
<path d="M157.438 124.697C157.643 124.563 157.889 124.505 158.133 124.531C158.142 124.465 158.165 124.401 158.2 124.344C158.235 124.287 158.282 124.238 158.337 124.199C158.452 124.136 158.541 124.199 158.535 124.333V124.869C158.528 124.938 158.506 125.005 158.471 125.064C158.435 125.123 158.388 125.175 158.331 125.214L157.878 125.501C157.769 125.565 157.674 125.501 157.674 125.393C157.673 125.329 157.686 125.267 157.713 125.209C157.739 125.152 157.778 125.101 157.827 125.061C157.693 125.066 157.564 125.105 157.45 125.176C157.194 125.341 156.981 125.565 156.829 125.829C156.677 126.093 156.591 126.39 156.576 126.694C156.576 127.249 156.972 127.472 157.457 127.192C157.814 126.963 158.086 126.622 158.229 126.222C158.261 126.126 158.327 126.044 158.414 125.992C158.445 125.982 158.478 125.982 158.509 125.992C158.611 125.992 158.65 126.12 158.599 126.273C158.386 126.864 157.984 127.368 157.457 127.708C156.742 128.117 156.181 127.785 156.181 126.962C156.195 126.512 156.317 126.072 156.536 125.678C156.754 125.284 157.063 124.948 157.438 124.697Z" fill="#455A64"/>
<g opacity="0.7">
<path d="M147.536 130.414C147.558 130.403 147.582 130.398 147.606 130.398C147.63 130.398 147.654 130.403 147.676 130.414C147.766 130.458 147.772 130.605 147.676 130.745L147.038 131.983L149.303 130.675C149.418 130.605 149.514 130.675 149.514 130.796C149.509 130.868 149.488 130.938 149.451 131C149.415 131.062 149.364 131.115 149.303 131.154L147.038 132.462L147.715 132.921C147.798 132.972 147.791 133.125 147.715 133.265C147.68 133.324 147.632 133.375 147.574 133.412C147.552 133.428 147.525 133.436 147.498 133.436C147.47 133.436 147.444 133.428 147.421 133.412L146.394 132.704C146.376 132.69 146.361 132.673 146.349 132.653C146.346 132.625 146.346 132.598 146.349 132.57C146.346 132.542 146.346 132.515 146.349 132.487C146.357 132.451 146.37 132.417 146.388 132.385L147.383 130.554C147.42 130.494 147.473 130.446 147.536 130.414Z" fill="white"/>
<path d="M153.252 127.115C153.276 127.098 153.304 127.089 153.332 127.089C153.361 127.089 153.389 127.098 153.412 127.115L154.407 127.785L154.452 127.836C154.455 127.864 154.455 127.891 154.452 127.919C154.455 127.949 154.455 127.979 154.452 128.008L154.414 128.104L153.418 129.935C153.383 130.003 153.33 130.06 153.265 130.101C153.243 130.113 153.218 130.12 153.192 130.12C153.166 130.12 153.141 130.113 153.118 130.101C153.036 130.063 153.029 129.91 153.118 129.769L153.795 128.531L151.53 129.839C151.415 129.91 151.319 129.839 151.319 129.725C151.322 129.651 151.342 129.58 151.379 129.516C151.416 129.453 151.468 129.4 151.53 129.361L153.795 128.053L153.112 127.6C153.036 127.543 153.042 127.389 153.112 127.249C153.146 127.193 153.195 127.147 153.252 127.115Z" fill="white"/>
<path d="M157.438 124.697C157.643 124.563 157.889 124.505 158.133 124.531C158.142 124.465 158.165 124.401 158.2 124.344C158.235 124.287 158.282 124.238 158.337 124.199C158.452 124.136 158.541 124.199 158.535 124.333V124.869C158.528 124.938 158.506 125.005 158.471 125.064C158.435 125.123 158.388 125.175 158.331 125.214L157.878 125.501C157.769 125.565 157.674 125.501 157.674 125.393C157.673 125.329 157.686 125.267 157.713 125.209C157.739 125.152 157.778 125.101 157.827 125.061C157.693 125.066 157.564 125.105 157.45 125.176C157.194 125.341 156.981 125.565 156.829 125.829C156.677 126.093 156.591 126.39 156.576 126.694C156.576 127.249 156.972 127.472 157.457 127.192C157.814 126.963 158.086 126.622 158.229 126.222C158.261 126.126 158.327 126.044 158.414 125.992C158.445 125.982 158.478 125.982 158.509 125.992C158.611 125.992 158.65 126.12 158.599 126.273C158.386 126.864 157.984 127.368 157.457 127.708C156.742 128.117 156.181 127.785 156.181 126.962C156.195 126.512 156.317 126.072 156.536 125.678C156.754 125.284 157.063 124.948 157.438 124.697Z" fill="white"/>
</g>
<path d="M274.472 47.0589C274.472 45.668 273.975 44.6855 273.196 44.2198H273.164C272.354 43.7668 271.25 43.837 270.019 44.5452L146.094 115.861C144.795 116.701 143.714 117.837 142.937 119.176C142.161 120.514 141.713 122.017 141.628 123.561V129.342L274.485 52.686L274.472 47.0589Z" fill="#EC287C"/>
<g opacity="0.5">
<path d="M147.549 119.899C148.187 119.51 148.767 119.823 148.767 120.595C148.746 121.016 148.626 121.426 148.415 121.791C148.204 122.156 147.909 122.465 147.555 122.694C146.885 123.083 146.336 122.77 146.336 121.998C146.358 121.578 146.48 121.168 146.69 120.803C146.901 120.438 147.195 120.129 147.549 119.899Z" fill="white"/>
<path d="M150.873 117.979C151.543 117.596 152.091 117.902 152.091 118.674C152.069 119.096 151.947 119.506 151.736 119.872C151.526 120.237 151.232 120.548 150.879 120.78C150.241 121.163 149.661 120.856 149.661 120.084C149.681 119.662 149.802 119.251 150.012 118.885C150.223 118.519 150.518 118.208 150.873 117.979Z" fill="white"/>
<path d="M154.197 116.065C154.835 115.676 155.409 115.988 155.415 116.76C155.392 117.181 155.27 117.59 155.059 117.954C154.849 118.319 154.555 118.629 154.203 118.859C153.527 119.249 152.984 118.936 152.978 118.164C153.001 117.743 153.124 117.333 153.335 116.968C153.547 116.603 153.842 116.294 154.197 116.065Z" fill="white"/>
</g>
<path d="M147.549 119.899C148.187 119.51 148.767 119.823 148.767 120.595C148.746 121.016 148.626 121.426 148.415 121.791C148.204 122.156 147.909 122.465 147.555 122.694C146.885 123.083 146.336 122.77 146.336 121.998C146.358 121.578 146.48 121.168 146.69 120.803C146.901 120.438 147.195 120.129 147.549 119.899Z" fill="white"/>
<path d="M150.873 117.979C151.543 117.596 152.091 117.902 152.091 118.674C152.069 119.096 151.947 119.506 151.736 119.872C151.526 120.237 151.232 120.548 150.879 120.78C150.241 121.163 149.661 120.856 149.661 120.084C149.681 119.662 149.802 119.251 150.012 118.885C150.223 118.519 150.518 118.208 150.873 117.979Z" fill="white"/>
<path d="M154.197 116.065C154.835 115.676 155.409 115.988 155.415 116.76C155.392 117.181 155.27 117.59 155.059 117.954C154.849 118.319 154.555 118.629 154.203 118.859C153.527 119.249 152.984 118.936 152.978 118.164C153.001 117.743 153.124 117.333 153.335 116.968C153.547 116.603 153.842 116.294 154.197 116.065Z" fill="white"/>
<path d="M268.22 104.996L268.143 71.0222C268.143 70.7983 268.084 70.5784 267.972 70.3846C267.86 70.1908 267.699 70.0299 267.505 69.9181C267.311 69.8063 267.091 69.7474 266.867 69.7475C266.643 69.7475 266.423 69.8065 266.229 69.9184L214.417 99.7577C213.932 100.038 213.53 100.44 213.25 100.925C212.97 101.41 212.822 101.96 212.822 102.52V136.532C212.822 136.756 212.882 136.976 212.994 137.17C213.106 137.363 213.267 137.524 213.461 137.636C213.655 137.748 213.875 137.807 214.099 137.807C214.322 137.807 214.542 137.748 214.736 137.636L266.625 107.752C267.109 107.472 267.511 107.071 267.791 106.587C268.071 106.103 268.219 105.555 268.22 104.996Z" fill="#FFD9E9"/>
<path d="M207.374 103.815L149.66 137.049C149.174 137.33 148.77 137.735 148.49 138.222C148.21 138.709 148.063 139.262 148.065 139.824L148.142 173.791C148.142 174.015 148.201 174.235 148.313 174.429C148.426 174.623 148.587 174.783 148.781 174.895C148.975 175.007 149.194 175.066 149.418 175.066C149.642 175.066 149.862 175.007 150.056 174.895L207.687 141.719C208.173 141.44 208.577 141.037 208.858 140.552C209.139 140.067 209.287 139.517 209.288 138.956V104.919C209.288 104.695 209.229 104.475 209.116 104.282C209.004 104.088 208.843 103.927 208.649 103.815C208.455 103.703 208.235 103.644 208.012 103.644C207.788 103.644 207.568 103.703 207.374 103.815Z" fill="#FFD9E9"/>
<path opacity="0.1" d="M207.305 103.772L149.556 137.066C149.069 137.347 148.665 137.753 148.385 138.241C148.105 138.729 147.958 139.283 147.96 139.846L148.037 173.875C148.037 174.099 148.096 174.319 148.209 174.514C148.321 174.708 148.482 174.869 148.676 174.981C148.87 175.093 149.09 175.152 149.314 175.152C149.538 175.152 149.758 175.093 149.952 174.981L207.618 141.744C208.104 141.465 208.509 141.062 208.79 140.576C209.071 140.09 209.22 139.538 209.22 138.977V104.877C209.22 104.653 209.161 104.433 209.049 104.239C208.937 104.045 208.775 103.883 208.581 103.771C208.387 103.659 208.167 103.6 207.943 103.6C207.719 103.601 207.499 103.66 207.305 103.772Z" fill="white"/>
<path d="M212.822 142.963V177.938C212.821 178.163 212.88 178.383 212.991 178.578C213.103 178.773 213.264 178.934 213.458 179.047C213.652 179.16 213.873 179.219 214.097 179.219C214.321 179.219 214.542 179.161 214.736 179.048L267.052 148.916C267.709 148.359 268.158 147.597 268.328 146.753L268.252 113.251C268.251 113.027 268.192 112.808 268.08 112.614C267.968 112.42 267.807 112.259 267.613 112.147C267.419 112.035 267.199 111.977 266.975 111.977C266.752 111.977 266.532 112.036 266.338 112.148L212.822 142.963Z" fill="#FFD9E9"/>
<path opacity="0.1" d="M212.956 143.054V178.332C212.955 178.558 213.013 178.781 213.124 178.977C213.235 179.173 213.395 179.337 213.589 179.45C213.782 179.564 214.002 179.624 214.225 179.624C214.449 179.624 214.668 179.565 214.862 179.451L266.968 149.058C267.622 148.496 268.07 147.727 268.239 146.876L268.163 113.085C268.162 112.859 268.104 112.637 267.992 112.442C267.88 112.246 267.72 112.084 267.527 111.971C267.334 111.858 267.114 111.799 266.891 111.799C266.668 111.799 266.449 111.859 266.256 111.971L212.956 143.054Z" fill="#FFD9E9"/>
<path d="M148.161 182.047L148.231 215.14C148.233 215.363 148.293 215.582 148.405 215.775C148.518 215.968 148.679 216.128 148.873 216.239C149.066 216.35 149.286 216.409 149.509 216.408C149.733 216.408 149.952 216.349 150.145 216.237L207.687 183.106C208.174 182.826 208.578 182.423 208.859 181.937C209.141 181.451 209.288 180.899 209.288 180.337V147.206C209.289 146.981 209.231 146.761 209.119 146.566C209.007 146.371 208.846 146.209 208.652 146.097C208.458 145.984 208.238 145.925 208.013 145.925C207.789 145.924 207.568 145.983 207.374 146.096L149.756 179.272C149.269 179.553 148.865 179.957 148.585 180.445C148.305 180.932 148.159 181.485 148.161 182.047Z" fill="#FFD9E9"/>
<path d="M193.089 146.311L193.089 146.311L194.873 148.953L161.175 168.36L161.729 160.892L161.629 160.884L161.729 160.892C161.889 158.731 162.509 156.629 163.548 154.727C164.586 152.825 166.019 151.166 167.75 149.863L167.69 149.783L167.75 149.863L173.902 145.232L181.014 143.692L181.015 143.692L184.485 142.901C186.096 142.536 187.779 142.667 189.315 143.275C190.85 143.884 192.166 144.942 193.089 146.311Z" fill="#EC287C" stroke="black" stroke-width="0.2"/>
<path d="M173.831 140.604C173.841 140.97 173.866 142.005 173.892 143.199C173.899 143.633 173.912 144.088 173.924 144.539C173.943 145.234 173.962 145.92 173.962 146.504C173.962 148.788 176.214 151.11 179.704 152.137C183.194 153.165 182.824 149.719 181.503 147.92L173.831 140.604ZM173.831 140.604C173.856 140.579 173.879 140.555 173.902 140.529L173.828 140.462M173.831 140.604L173.828 140.462M173.828 140.462L173.728 140.465L173.728 140.465L173.728 140.465L173.728 140.466L173.728 140.468L173.728 140.479L173.729 140.521L173.73 140.563L173.828 140.462ZM173.828 140.462L173.928 140.46L173.921 140.209L173.754 140.395C173.441 140.742 173.008 140.959 172.543 141L172.543 141L172.532 141.002C172.326 141.044 172.113 141.044 171.907 141.003M173.828 140.462L173.928 140.46L173.928 140.46L173.928 140.46L173.928 140.46L173.928 140.463L173.928 140.474L173.929 140.516L173.933 140.677C173.937 140.817 173.942 141.019 173.948 141.268C173.96 141.766 173.976 142.45 173.992 143.197L173.992 143.197C173.999 143.629 174.012 144.083 174.024 144.534C174.043 145.23 174.062 145.919 174.062 146.504C174.062 147.612 174.609 148.74 175.595 149.721C176.58 150.702 178.001 151.532 179.732 152.042C180.593 152.295 181.196 152.266 181.6 152.075C181.999 151.885 182.224 151.526 182.309 151.07C182.395 150.612 182.337 150.061 182.174 149.511C182.011 148.962 181.745 148.419 181.422 147.979L181.403 147.953V147.92V146.19M171.907 141.003C171.601 140.905 171.318 140.747 171.074 140.537C170.829 140.327 170.629 140.069 170.485 139.78M171.907 141.003C171.909 141.004 171.911 141.004 171.912 141.005L171.882 141.1M171.907 141.003C171.905 141.003 171.904 141.002 171.902 141.002L171.882 141.1M170.485 139.78C170.196 139.196 170.036 138.558 170.017 137.907L170.017 137.907L170.016 137.899C169.947 137.302 170.019 136.698 170.227 136.135C170.407 135.701 170.741 135.35 171.166 135.149L171.166 135.149L171.169 135.147C171.255 135.102 171.347 135.069 171.441 135.048M170.485 139.78L170.395 139.824M170.485 139.78C170.485 139.78 170.485 139.78 170.485 139.78L170.395 139.824M171.441 135.048C171.724 135.001 172.014 135.024 172.285 135.114C172.558 135.204 172.804 135.36 173.002 135.567M171.441 135.048C171.441 135.048 171.44 135.048 171.439 135.048L171.423 134.95L171.444 135.047C171.443 135.048 171.442 135.048 171.441 135.048ZM173.002 135.567C173.402 136.001 173.672 136.538 173.781 137.118M173.002 135.567C173.002 135.567 173.002 135.566 173.002 135.566L173.075 135.498L173.003 135.568C173.003 135.567 173.002 135.567 173.002 135.567ZM173.781 137.118C173.887 137.71 173.953 138.308 173.977 138.909L173.977 138.909L173.977 138.914C174.066 139.992 174.233 141.063 174.477 142.118M173.781 137.118C173.781 137.118 173.781 137.118 173.78 137.118L173.879 137.1L173.781 137.118C173.781 137.118 173.781 137.118 173.781 137.118ZM174.477 142.118C174.608 142.701 174.863 143.25 175.227 143.725C175.59 144.2 176.052 144.59 176.581 144.869L176.581 144.869L176.629 144.781L176.582 144.87L176.651 144.907L176.651 144.907L176.654 144.909C178.138 145.645 179.751 146.08 181.403 146.19M174.477 142.118C174.477 142.117 174.477 142.117 174.477 142.117L174.574 142.095L174.477 142.118C174.477 142.118 174.477 142.118 174.477 142.118ZM181.403 146.19V146.096H181.503L181.497 146.195C181.466 146.194 181.434 146.192 181.403 146.19ZM170.395 139.824C170.545 140.126 170.754 140.394 171.009 140.613C171.264 140.832 171.561 140.998 171.882 141.1M170.395 139.824C170.1 139.228 169.937 138.575 169.917 137.91L171.882 141.1" fill="white" stroke="black" stroke-width="0.2"/>
<path d="M171.263 129.795C171.968 128.986 172.948 128.467 174.013 128.34L188.342 129.667C189.995 133.176 188.681 135.486 188.681 135.486C188.904 140.832 189.089 144.226 186.735 145.349C185.076 146.013 183.28 146.263 181.503 146.076C179.832 145.979 178.198 145.545 176.699 144.8L176.622 144.762C176.106 144.487 175.655 144.103 175.301 143.637C174.946 143.171 174.696 142.635 174.568 142.063C174.328 141.024 174.164 139.969 174.077 138.905C174.053 138.3 173.987 137.696 173.879 137.1C173.767 136.501 173.488 135.946 173.075 135.498C172.865 135.279 172.605 135.115 172.317 135.019C172.029 134.924 171.722 134.9 171.423 134.95C171.318 134.972 171.218 135.009 171.123 135.058C170.715 132.704 170.6 130.63 171.263 129.795Z" fill="#231F20"/>
<path d="M176.514 130.203C176.762 131.2 176.697 132.249 176.329 133.208C175.953 134.156 175.648 135.131 175.416 136.124C175.228 137.121 175.367 138.153 175.812 139.065C176.035 139.518 176.356 139.917 176.751 140.232C177.145 140.547 177.605 140.772 178.096 140.89C179.634 141.215 181.139 140.322 182.683 140.022C184.165 139.758 185.693 140.027 186.996 140.781C187.106 140.847 187.231 140.884 187.359 140.887C187.487 140.891 187.614 140.862 187.728 140.802C187.841 140.742 187.937 140.654 188.007 140.547C188.077 140.439 188.117 140.316 188.125 140.188C188.31 137.113 188.304 132.296 187.851 130.031L176.514 130.203Z" fill="white"/>
<path d="M187.609 127.421L189.389 126.184C189.575 126.779 189.61 127.412 189.491 128.024C189.372 128.637 189.102 129.21 188.706 129.693C187.893 130.639 186.789 131.289 185.567 131.543C184.352 131.789 183.106 131.845 181.873 131.709C180.067 131.563 178.28 131.236 176.54 130.733C175.753 130.57 175.028 130.19 174.447 129.635C174.085 129.173 173.878 128.608 173.858 128.021C173.837 127.434 174.003 126.855 174.332 126.369C174.675 125.892 175.115 125.493 175.623 125.199C176.131 124.904 176.696 124.72 177.28 124.659C178.47 124.564 179.667 124.659 180.827 124.94C181.987 125.221 183.186 125.307 184.374 125.195C184.971 125.133 185.543 124.926 186.041 124.592C186.539 124.259 186.948 123.808 187.233 123.281C188.241 124.933 187.609 127.421 187.609 127.421Z" fill="#231F20"/>
<path d="M259.003 153.437L228.122 171.22L228.63 161.151C228.703 159.764 229.08 158.41 229.734 157.184C230.389 155.959 231.305 154.893 232.418 154.061L232.418 154.061L238.781 149.251L245.892 147.731L245.893 147.731L248.145 147.22L248.145 147.22C249.276 146.963 250.453 146.994 251.568 147.311C252.684 147.627 253.702 148.219 254.528 149.031L259.003 153.437ZM259.003 153.437L254.529 149.032L259.003 153.437Z" fill="#EC287C" stroke="black" stroke-width="0.2"/>
<path d="M252.002 141.323C253.088 140.542 253.843 139.384 254.12 138.075C254.396 136.766 254.173 135.401 253.495 134.248C254.105 133.977 254.605 133.507 254.911 132.915C255.041 132.629 255.081 132.311 255.026 132.002C254.971 131.693 254.825 131.408 254.606 131.184C254.386 130.96 254.105 130.808 253.797 130.746C253.49 130.685 253.171 130.718 252.883 130.841C253.043 130.379 253.044 129.877 252.886 129.414C252.727 128.952 252.418 128.556 252.009 128.289C251.593 128.066 251.114 127.991 250.65 128.076C250.186 128.162 249.765 128.404 249.457 128.761C249.468 128.46 249.381 128.164 249.21 127.917C249.038 127.67 248.791 127.484 248.506 127.389C247.916 127.234 247.292 127.272 246.726 127.498C246.152 127.696 245.609 127.983 245.035 128.136C244.042 128.387 243.023 128.518 241.998 128.525C240.97 128.536 239.96 128.806 239.063 129.31C238.209 129.865 237.449 131.16 237.915 132.283C237.767 132.098 237.583 131.945 237.373 131.835C237.163 131.726 236.933 131.661 236.697 131.645C236.458 131.636 236.22 131.679 235.999 131.772C235.779 131.864 235.581 132.004 235.421 132.181C236.059 132.576 236.697 132.997 237.335 133.393C236.969 133.291 236.58 133.312 236.227 133.453C235.875 133.594 235.578 133.846 235.382 134.171C235.084 134.815 234.967 135.527 235.044 136.232C235.126 138.911 235.601 141.564 236.454 144.105C236.888 145.419 237.52 146.81 238.764 147.416L252.002 141.323Z" fill="#231F20"/>
<path d="M237.958 150.928L238.157 143.145L245.135 147.697L244.859 150.776L244.859 150.776L244.859 150.779C244.843 151.041 244.91 151.302 245.051 151.524C245.213 151.834 245.275 152.186 245.228 152.533C245.181 152.878 245.028 153.199 244.79 153.453C244.404 153.738 243.938 153.894 243.458 153.9L243.458 153.9L243.454 153.901C242.511 153.951 241.567 153.802 240.686 153.463C239.804 153.124 239.004 152.603 238.338 151.934C238.211 151.8 238.112 151.642 238.047 151.47C237.982 151.297 237.951 151.113 237.958 150.929L237.958 150.928Z" fill="white" stroke="black" stroke-width="0.2"/>
<path d="M242.308 134.469C245.509 135.64 248.986 135.817 252.287 134.979C252.746 138.571 252.504 142.219 251.574 145.719L251.574 145.719L251.573 145.722C251.39 146.493 251.101 147.236 250.715 147.929C250.331 148.612 249.731 149.148 249.009 149.452C248.071 149.705 247.083 149.704 246.146 149.451L246.146 149.45L246.137 149.449C244.354 149.136 242.555 148.812 241.029 147.886C239.505 146.96 238.312 145.307 238.455 143.558L238.471 143.361L238.303 143.465C237.878 143.728 237.395 143.88 236.897 143.908C236.4 143.936 235.903 143.839 235.453 143.627C235.014 143.384 234.642 143.036 234.369 142.615C234.097 142.192 233.933 141.708 233.893 141.207L233.893 141.207L233.893 141.203C233.835 140.724 233.946 140.24 234.207 139.834C234.467 139.431 234.859 139.13 235.315 138.984C235.604 138.944 235.898 138.965 236.178 139.047C236.46 139.13 236.721 139.273 236.944 139.466L236.944 139.466C237.402 139.864 237.8 140.327 238.123 140.84C238.284 141.104 238.498 141.331 238.751 141.508L238.751 141.508C238.889 141.603 239.052 141.654 239.22 141.654C239.387 141.654 239.551 141.603 239.688 141.508L239.7 141.5L239.708 141.489C239.82 141.354 239.901 141.197 239.945 141.027C239.989 140.86 239.997 140.685 239.967 140.515L239.865 138.244C239.865 138.244 239.865 138.244 239.865 138.244C239.858 138.088 239.897 137.934 239.976 137.8C240.056 137.666 240.173 137.558 240.313 137.49L240.313 137.49L240.317 137.487C240.808 137.22 241.187 136.784 241.384 136.261L241.384 136.26C241.55 135.811 241.648 135.339 241.677 134.861C241.683 134.789 241.705 134.72 241.742 134.659C241.78 134.597 241.831 134.545 241.892 134.507C241.953 134.468 242.023 134.445 242.095 134.438C242.167 134.432 242.239 134.442 242.306 134.469L242.306 134.469L242.308 134.469Z" fill="white" stroke="black" stroke-width="0.2"/>
<path d="M192.253 174.467C191.979 175.105 191.226 175.412 190.863 176.005C190.721 176.235 190.645 176.499 190.642 176.768C190.639 177.038 190.709 177.303 190.846 177.536C190.982 177.769 191.179 177.96 191.416 178.089C191.653 178.219 191.92 178.281 192.19 178.27C192.457 178.256 192.716 178.171 192.94 178.024C193.164 177.877 193.346 177.674 193.466 177.434C193.58 177.996 193.58 178.576 193.466 179.138C193.415 179.425 193.29 179.694 193.103 179.917C192.916 180.141 192.674 180.312 192.4 180.414C192.797 180.824 193.069 181.338 193.185 181.897C193.301 182.456 193.256 183.036 193.056 183.57C192.855 184.105 192.508 184.571 192.053 184.916C191.598 185.261 191.055 185.469 190.486 185.518C190.703 187.068 189.695 188.746 188.413 189.652C187.093 190.514 185.512 190.885 183.947 190.698C182.386 190.504 180.867 190.058 179.449 189.378C177.271 190.206 174.94 190.555 172.616 190.398C171.142 190.258 169.604 189.862 168.584 188.791C167.563 187.719 167.308 185.811 168.411 184.809C168.062 185.02 167.661 185.131 167.253 185.131C166.845 185.131 166.445 185.02 166.095 184.809C165.752 184.627 165.47 184.346 165.285 184.003C165.101 183.66 165.022 183.27 165.059 182.883C165.096 182.495 165.247 182.127 165.493 181.825C165.738 181.523 166.068 181.301 166.44 181.186C166.181 181.02 165.972 180.789 165.832 180.515C165.693 180.241 165.63 179.935 165.649 179.629C165.697 179.336 165.825 179.062 166.019 178.837C166.212 178.612 166.464 178.445 166.746 178.353C166.669 178.605 166.664 178.874 166.731 179.129C166.799 179.383 166.937 179.614 167.129 179.795C167.334 179.948 167.581 180.037 167.837 180.048C168.093 180.059 168.346 179.993 168.564 179.859C168.767 179.715 168.937 179.531 169.065 179.318C169.192 179.105 169.274 178.867 169.305 178.621C169.365 178.127 169.365 177.628 169.305 177.134C169.069 175.431 169.237 173.695 169.796 172.069C170.081 171.257 170.567 170.531 171.209 169.958C171.85 169.384 172.626 168.982 173.464 168.789C174.111 166.793 175.479 165.11 177.301 164.068C179.122 163.026 181.266 162.701 183.315 163.156C185.018 163.532 186.671 164.547 187.354 166.148C188.088 165.995 188.837 165.931 189.587 165.957C190.326 165.946 191.043 166.212 191.596 166.703C191.865 166.954 192.051 167.28 192.129 167.639C192.208 167.998 192.176 168.373 192.036 168.713C191.813 169.172 191.341 169.587 191.45 170.084C191.558 170.582 192.036 170.722 192.273 171.092C192.37 171.276 192.421 171.481 192.421 171.689C192.421 171.897 192.37 172.102 192.273 172.286C192.085 172.654 191.844 172.994 191.558 173.294C191.309 173.581 191.041 173.932 191.182 174.308C191.322 174.684 192.03 174.812 192.253 174.467Z" fill="#231F20"/>
<path d="M178.683 191.105C177.195 190.364 175.891 189.301 174.867 187.994L176.675 187.838L176.767 187.83V187.738V181.491L183.496 184.087V187.719V187.819H183.596H185.321C185.666 188.251 185.937 188.737 186.124 189.258L186.123 189.258L186.124 189.261C186.29 189.686 186.327 190.151 186.23 190.597C186.134 191.04 185.91 191.445 185.586 191.763C185.021 192.151 184.339 192.333 183.655 192.276L183.655 192.276L183.647 192.276C181.924 192.274 180.225 191.873 178.683 191.105Z" fill="white" stroke="black" stroke-width="0.2"/>
<path d="M189.634 172.234L189.634 172.234L189.635 172.241C190.233 175.267 190.27 178.378 189.743 181.417C189.539 182.559 189.211 183.743 188.337 184.444L188.337 184.444C187.8 184.877 187.142 185.065 186.436 185.12C185.73 185.176 184.983 185.099 184.272 185.01L184.272 185.01L184.267 185.01C182.715 184.885 181.189 184.541 179.733 183.989C179.018 183.709 178.37 183.283 177.831 182.737C177.291 182.19 176.872 181.537 176.601 180.819L176.561 180.711L176.46 180.766C176.087 180.967 175.659 181.04 175.241 180.972C174.823 180.904 174.44 180.7 174.151 180.391C173.574 179.736 173.265 178.889 173.283 178.017L173.284 178.017L173.283 178.003C173.236 177.619 173.29 177.23 173.437 176.872C173.584 176.518 173.818 176.206 174.119 175.968C174.346 175.848 174.598 175.78 174.855 175.77C175.115 175.759 175.374 175.808 175.613 175.912L175.613 175.912C176.105 176.126 176.546 176.443 176.904 176.843C177.093 177.063 177.317 177.251 177.566 177.399C177.701 177.48 177.856 177.523 178.013 177.523C178.171 177.523 178.325 177.48 178.46 177.399L178.47 177.393L178.478 177.385C178.613 177.256 178.717 177.097 178.781 176.921C178.844 176.746 178.867 176.56 178.847 176.375C178.824 174.986 179.139 173.612 179.766 172.372C180.465 171.194 181.862 170.36 183.153 170.702C183.742 170.97 184.359 171.17 184.992 171.299L185.004 171.301L185.017 171.301C185.549 171.273 186.063 171.104 186.509 170.812L186.509 170.812L186.51 170.812C186.795 170.619 187.125 170.502 187.469 170.473C187.812 170.444 188.157 170.504 188.471 170.647C188.784 170.79 189.056 171.011 189.259 171.289C189.463 171.566 189.592 171.892 189.634 172.234Z" fill="white" stroke="black" stroke-width="0.2"/>
<path d="M187.753 194.469L187.22 187.82C188.504 187.842 189.517 188.256 190.326 188.959C191.142 189.669 191.757 190.676 192.231 191.886L187.753 194.469Z" fill="white" stroke="black" stroke-width="0.2"/>
<path d="M187.111 187.719H185.388C185.755 188.169 186.042 188.678 186.237 189.224C186.41 189.668 186.448 190.153 186.347 190.618C186.246 191.083 186.01 191.508 185.669 191.84C185.084 192.245 184.376 192.435 183.666 192.376C181.928 192.374 180.213 191.969 178.657 191.195C177.101 190.42 175.745 189.296 174.696 187.91L168.775 188.421C168.775 188.421 168.909 200.9 168.877 202.699C168.847 203.578 168.913 204.457 169.075 205.321L190.99 192.702C189.999 190.826 188.686 189.14 187.111 187.719Z" fill="#EC287C"/>
<path d="M167.408 200.328C165.96 197.738 164.916 195.253 164.932 193.184C164.94 192.153 165.211 191.229 165.824 190.445C166.431 189.668 167.382 189.021 168.767 188.548C169.219 188.793 169.746 189.362 170.319 190.18C170.905 191.015 171.53 192.096 172.163 193.316C173.418 195.732 174.705 198.687 175.795 201.354L169.848 204.781C169.762 204.623 169.676 204.466 169.591 204.309C168.802 202.852 168.047 201.46 167.408 200.328Z" fill="white" stroke="black" stroke-width="0.2"/>
<path d="M250.079 112.39L250.079 112.39L250.078 112.39C249.346 111.174 248.425 110.083 247.348 109.16L247.87 109.049L247.87 109.049C248.671 108.878 249.506 108.976 250.247 109.328C250.987 109.679 251.59 110.265 251.964 110.994C251.964 110.994 251.964 110.994 251.964 110.994L253.994 114.953L251.907 116.126C251.396 114.835 250.785 113.586 250.079 112.39Z" fill="#EC287C" stroke="black" stroke-width="0.2"/>
<path d="M230.269 117.826L230.269 117.826L230.272 117.824C230.618 117.579 231.015 117.414 231.433 117.343C231.849 117.272 232.276 117.295 232.683 117.41C233.056 117.56 233.394 117.786 233.676 118.072C233.96 118.36 234.181 118.703 234.325 119.08C234.611 119.851 234.792 120.658 234.861 121.477L234.861 121.477L234.862 121.481L235.389 125.633L228.113 129.82L228.113 123.408C228.113 123.408 228.113 123.408 228.113 123.408C228.114 121.655 228.601 119.936 229.522 118.443C229.748 118.211 229.999 118.005 230.269 117.826Z" fill="#EC287C" stroke="black" stroke-width="0.2"/>
<path d="M249.992 112.441C249.234 111.167 248.265 110.03 247.128 109.079L242.151 110.151L237.047 112.262L232.269 115.452C231.117 116.214 230.146 117.218 229.423 118.394C229.657 118.154 229.916 117.94 230.195 117.756C230.553 117.501 230.964 117.331 231.397 117.257C231.83 117.183 232.274 117.207 232.696 117.328C233.084 117.483 233.436 117.717 233.729 118.015C234.022 118.312 234.25 118.667 234.4 119.057C234.69 119.839 234.872 120.657 234.942 121.488L235.478 125.705L251.836 116.282C251.326 114.954 250.709 113.67 249.992 112.441Z" fill="#EC287C"/>
<path d="M249.75 101.276C250.771 100.243 251.404 98.8888 251.542 97.4429C251.68 95.9969 251.316 94.5476 250.509 93.3394C250.938 93.1619 251.3 92.8535 251.543 92.4582C251.785 92.0629 251.897 91.6009 251.862 91.1383C251.815 90.6757 251.621 90.2403 251.309 89.8958C250.997 89.5514 250.582 89.316 250.127 89.2243C249.347 89.1844 248.567 89.2948 247.83 89.5497C246.52 89.7857 245.178 89.7857 243.868 89.5497C242.553 89.3647 241.252 89.0776 239.931 88.9819C238.606 88.8403 237.266 89.0311 236.033 89.5369C235.419 89.7944 234.873 90.1895 234.436 90.6917C233.999 91.1939 233.683 91.7898 233.513 92.4334C232.492 92.1591 231.28 92.8099 230.623 93.6393C230.005 94.5049 229.672 95.5422 229.672 96.606C229.634 97.6587 229.781 98.7114 229.832 99.796C229.93 100.852 229.795 101.917 229.436 102.916C228.958 104.051 228.013 104.983 227.714 106.182C227.575 106.736 227.584 107.315 227.738 107.865C227.891 108.414 228.186 108.914 228.591 109.315C228.997 109.716 229.5 110.004 230.05 110.152C230.601 110.3 231.181 110.301 231.733 110.157C231.508 109.326 231.405 108.466 231.427 107.605C231.529 108.766 232.703 109.672 233.787 110.061C234.91 110.384 236.084 110.488 237.245 110.368L241.341 110.208L246.12 110.017C246.971 110.04 247.819 109.895 248.614 109.589C249.276 109.228 249.83 108.699 250.221 108.055C250.613 107.41 250.826 106.674 250.841 105.921C250.815 104.312 250.443 102.728 249.75 101.276Z" fill="#231F20"/>
<path d="M237.166 112.219V105.16L243.799 107.996V112.288V112.343L243.846 112.372L243.899 112.288L243.846 112.372L243.846 112.372L243.846 112.373L243.848 112.374L243.855 112.378L243.884 112.397C243.909 112.414 243.946 112.439 243.993 112.471C244.087 112.535 244.219 112.628 244.373 112.743C244.682 112.974 245.076 113.292 245.423 113.647C245.772 114.005 246.063 114.389 246.178 114.749C246.235 114.927 246.248 115.095 246.207 115.25C246.167 115.404 246.072 115.554 245.898 115.693L245.897 115.694C245.224 116.235 244.351 116.303 243.401 116.084C242.45 115.865 241.437 115.362 240.506 114.784C239.576 114.206 238.733 113.558 238.122 113.053C237.817 112.801 237.57 112.585 237.399 112.432C237.314 112.356 237.248 112.295 237.203 112.253C237.189 112.24 237.176 112.229 237.166 112.219Z" fill="white" stroke="black" stroke-width="0.2"/>
<path d="M236.617 105.061C238.714 107.66 242.328 109.593 245.667 109.315C246.6 109.26 247.498 108.942 248.257 108.396C249.469 107.451 249.622 106.051 249.776 104.64C249.784 104.565 249.792 104.49 249.801 104.415C250.041 102.535 250.026 100.632 249.756 98.756C249.416 96.1732 248.181 93.7925 246.269 92.0269L236.617 105.061ZM236.617 105.061C236.624 105.049 236.63 105.037 236.637 105.025L236.55 104.977L236.471 105.038C236.479 105.049 236.487 105.059 236.495 105.069C236.29 105.395 235.985 105.649 235.625 105.791C235.231 105.946 234.795 105.958 234.393 105.825C233.688 105.472 233.075 104.962 232.6 104.332L236.617 105.061ZM246.244 92.1403C248.115 93.8859 249.322 96.2288 249.657 98.7691L249.657 98.7703C249.926 100.637 249.941 102.532 249.702 104.402L249.701 104.404C249.693 104.476 249.686 104.547 249.678 104.618C249.522 106.04 249.373 107.398 248.197 108.316C247.454 108.85 246.574 109.162 245.661 109.215L245.661 109.215L245.658 109.215C242.324 109.493 238.698 107.536 236.628 104.915L236.534 104.796L236.462 104.928C236.269 105.279 235.96 105.551 235.588 105.698C235.218 105.843 234.809 105.855 234.431 105.732C233.743 105.387 233.144 104.887 232.68 104.272C232.457 103.968 232.302 103.619 232.228 103.249C232.154 102.879 232.162 102.498 232.25 102.132C232.401 101.631 232.737 101.207 233.191 100.947C233.646 100.686 234.183 100.61 234.692 100.735C235.2 100.859 235.642 101.173 235.926 101.614C236.209 102.054 236.313 102.587 236.215 103.101L236.197 103.198L236.293 103.218C236.506 103.262 236.726 103.252 236.934 103.191C237.142 103.129 237.332 103.018 237.487 102.866L237.488 102.865C237.799 102.553 238 102.147 238.059 101.711L238.059 101.711L238.059 101.705C238.102 101.181 238.081 100.654 237.997 100.135C240.051 99.6778 245.016 97.6045 246.244 92.1403Z" fill="white" stroke="black" stroke-width="0.2"/>
<path d="M242.151 97.1291L240.767 98.1882C240.694 98.0142 240.678 97.8221 240.719 97.6381C240.76 97.4542 240.857 97.2875 240.997 97.161C241.167 97.0481 241.365 96.9853 241.569 96.9797C241.774 96.974 241.975 97.0258 242.151 97.1291Z" fill="#263238"/>
<path d="M288.317 101.282C288.571 100.827 288.944 100.45 289.396 100.192L312.893 86.8637C314.169 86.1236 317.251 87.1253 317.251 89.2115V106.106C317.251 106.615 317.117 107.115 316.861 107.555C316.606 107.996 316.238 108.361 315.796 108.613L304.854 114.84L306.366 113.979L305.416 116.658C305.41 116.678 305.4 116.695 305.388 116.711C305.375 116.726 305.359 116.739 305.341 116.748C305.323 116.757 305.303 116.762 305.283 116.763C305.263 116.764 305.243 116.761 305.224 116.754C305.059 116.665 304.318 116.269 303.891 115.988L303.853 115.95L303.623 115.574L292.33 121.89C291.904 122.155 291.416 122.303 290.914 122.319C290.413 122.335 289.916 122.218 289.474 121.981C289.032 121.743 288.66 121.393 288.397 120.966C288.133 120.539 287.987 120.05 287.973 119.548V102.718C287.962 102.218 288.08 101.723 288.317 101.282Z" fill="#EC287C"/>
<path opacity="0.2" d="M303.82 115.963L303.858 116.001C304.286 116.282 305.026 116.677 305.192 116.767C305.172 116.763 305.154 116.756 305.137 116.745C305.121 116.734 305.107 116.72 305.096 116.703L304.184 115.216L304.362 115.114L303.559 115.574L303.82 115.963Z" fill="white"/>
<path opacity="0.4" d="M291.188 102.909C291.375 102.536 291.638 102.205 291.96 101.94C292.07 101.852 292.188 101.773 292.311 101.704L315.802 88.3758C315.948 88.2919 316.114 88.2481 316.283 88.2485C316.452 88.249 316.618 88.2938 316.764 88.3784C316.91 88.4631 317.031 88.5846 317.115 88.7308C317.199 88.877 317.244 89.0428 317.244 89.2115C317.244 87.1253 314.181 86.1236 312.886 86.8637L289.395 100.166C288.943 100.425 288.57 100.802 288.317 101.257L291.188 102.909Z" fill="white"/>
<path opacity="0.2" d="M290.863 121.067V104.205C290.856 104.09 290.856 103.975 290.863 103.86C290.91 103.528 291.014 103.207 291.169 102.909L288.298 101.283C288.054 101.713 287.924 102.198 287.921 102.692V119.561C287.935 120.063 288.082 120.552 288.345 120.979C288.609 121.406 288.98 121.756 289.422 121.994C289.864 122.231 290.361 122.348 290.863 122.332C291.364 122.316 291.853 122.168 292.279 121.903C292.133 121.982 291.97 122.023 291.804 122.02C291.638 122.017 291.476 121.972 291.333 121.887C291.19 121.803 291.072 121.683 290.989 121.539C290.907 121.395 290.863 121.233 290.863 121.067Z" fill="white"/>
<path d="M304.484 101.436L304.509 109.251L302.583 110.361L302.576 107.312L299.948 108.83L299.961 111.88L298.04 112.983L298.021 105.168L299.935 104.064L299.948 106.993L302.57 105.481L302.564 102.546L304.484 101.436Z" fill="white"/>
<path d="M306.691 101.263C306.015 101.653 305.562 101.423 305.556 100.785C305.583 100.417 305.701 100.062 305.898 99.751C306.095 99.4395 306.365 99.1811 306.685 98.9985C307.361 98.6093 307.814 98.8071 307.814 99.4451C307.795 99.818 307.681 100.18 307.485 100.498C307.289 100.815 307.016 101.079 306.691 101.263Z" fill="white"/>
<path d="M305.785 108.517L305.766 102.469L307.616 101.397L307.635 107.446L305.785 108.517Z" fill="white"/>
<path d="M310.424 102.98L308.956 103.835L308.58 99.0686L310.775 97.8054L310.424 102.98Z" fill="white"/>
<path d="M309.69 104.039C310.328 103.656 310.794 103.886 310.794 104.549C310.774 104.917 310.663 105.274 310.472 105.589C310.28 105.904 310.014 106.167 309.697 106.355C309.059 106.731 308.599 106.463 308.593 105.819C308.614 105.454 308.726 105.101 308.917 104.79C309.109 104.48 309.374 104.222 309.69 104.039Z" fill="white"/>
<path d="M314.612 180.937L314.64 180.889L314.615 180.84L310.415 172.68L317.844 168.167C319.52 171.831 320.91 175.619 322.003 179.497L322.003 179.497L322.003 179.498C322.23 180.258 322.291 181.058 322.183 181.844C322.075 182.63 321.8 183.383 321.377 184.054C321.377 184.054 321.376 184.054 321.376 184.054L314.986 193.97L310.815 187.372L314.612 180.937Z" fill="white" stroke="black" stroke-width="0.2"/>
<path d="M306.87 156.712C311.782 155.8 314.589 157.439 318.743 168.547C317.046 172.375 309.855 173.753 309.855 173.753L306.87 156.712Z" fill="#EC287C"/>
<path d="M284.068 270.64C285.242 270.64 284.808 268.904 285.925 267.743C285.472 267.743 285.012 267.743 284.559 267.743C283.558 269.236 283.264 270.64 284.068 270.64Z" fill="white"/>
<path d="M286.505 270.55C287.685 270.55 287.372 268.483 288.534 267.277C288.266 267.367 287.998 267.443 287.73 267.507C287.5 267.558 287.264 267.596 287.034 267.628C286.001 269.096 285.701 270.55 286.505 270.55Z" fill="white"/>
<path d="M298.11 266.582C298.022 266.197 297.795 265.858 297.472 265.631L291.137 265.472C290.458 266.319 289.543 266.948 288.508 267.277C287.347 268.483 287.66 270.55 286.479 270.55C285.676 270.55 285.975 269.096 287.009 267.628C286.639 267.686 286.269 267.718 285.899 267.743C284.782 268.904 285.216 270.64 284.042 270.64C283.251 270.64 283.532 269.217 284.533 267.775H283.647C283.379 267.775 283.104 267.775 282.836 267.73C280.508 269.568 280.284 271.558 280.61 274.71C281.01 274.779 281.416 274.82 281.822 274.831C283.13 274.819 284.436 274.728 285.733 274.557C287.827 274.371 289.935 274.424 292.017 274.716C293.4 275.015 294.819 275.105 296.228 274.984C297.619 274.755 298.895 273.976 299.297 273.134L298.11 266.582Z" fill="#231F20"/>
<path d="M282.862 267.724C281.806 267.55 280.728 267.55 279.672 267.724C279.021 267.851 278.416 268.146 277.915 268.58C277.415 269.015 277.037 269.573 276.82 270.199C276.729 270.565 276.714 270.945 276.775 271.316C276.923 272.244 277.415 273.083 278.154 273.664C278.875 274.21 279.722 274.567 280.616 274.704C280.329 271.565 280.533 269.561 282.862 267.724Z" fill="white"/>
<path d="M290.983 263.666V266.716C290.983 267.054 291.118 267.379 291.357 267.618C291.596 267.857 291.921 267.992 292.259 267.992H295.449C295.983 267.992 296.496 267.784 296.88 267.413C297.263 267.041 297.487 266.535 297.504 266.001L297.58 263.685L290.983 263.666Z" fill="white"/>
<path d="M304.899 255.608C304.787 255.759 304.733 255.944 304.745 256.131C304.765 256.22 304.806 256.303 304.867 256.371C304.927 256.439 305.004 256.491 305.09 256.521C305.215 256.553 305.346 256.552 305.471 256.52C305.596 256.488 305.711 256.424 305.804 256.336C305.987 256.156 306.151 255.96 306.296 255.749C306.721 255.211 307.286 254.8 307.929 254.562C308.243 254.445 308.571 254.372 308.905 254.345L308.108 253.624C307.609 253.651 307.12 253.77 306.666 253.975C305.922 254.324 305.305 254.895 304.899 255.608Z" fill="white"/>
<path d="M305.064 253.088C304.324 253.437 303.709 254.005 303.303 254.715C303.188 254.864 303.131 255.05 303.144 255.238C303.165 255.328 303.209 255.411 303.27 255.48C303.331 255.549 303.408 255.602 303.495 255.634C303.619 255.666 303.749 255.666 303.873 255.633C303.997 255.601 304.11 255.537 304.203 255.449C304.387 255.27 304.554 255.073 304.701 254.862C305.123 254.322 305.686 253.91 306.327 253.669C306.84 253.486 307.386 253.414 307.929 253.458L307.144 252.744C306.432 252.672 305.715 252.791 305.064 253.088Z" fill="white"/>
<path d="M306.647 252.297C305.927 251.594 305.083 251.029 304.158 250.632C303.6 250.387 302.986 250.302 302.382 250.385C301.778 250.468 301.21 250.717 300.739 251.104C300.424 251.442 300.192 251.848 300.061 252.291C299.93 252.734 299.905 253.201 299.986 253.656C300.031 254.029 300.132 254.392 300.286 254.734C300.489 255.183 300.753 255.602 301.071 255.978C301.37 253.286 303.744 252.01 306.647 252.297Z" fill="white"/>
<path d="M312.159 259.628C312.166 258.7 311.947 257.785 311.521 256.961L309.983 255.347L308.886 254.345C308.552 254.372 308.223 254.445 307.91 254.562C307.267 254.8 306.702 255.211 306.276 255.749C306.132 255.96 305.967 256.156 305.785 256.336C305.691 256.424 305.577 256.488 305.452 256.52C305.327 256.552 305.196 256.553 305.071 256.521C304.984 256.491 304.908 256.439 304.847 256.371C304.787 256.303 304.745 256.221 304.726 256.131C304.713 255.944 304.768 255.759 304.879 255.608C305.286 254.895 305.903 254.324 306.646 253.975C307.101 253.77 307.59 253.651 308.088 253.624L307.91 253.458C307.367 253.414 306.821 253.486 306.308 253.669C305.667 253.91 305.104 254.322 304.681 254.862C304.535 255.073 304.368 255.27 304.184 255.449C304.091 255.537 303.978 255.601 303.854 255.633C303.73 255.666 303.6 255.666 303.476 255.634C303.389 255.602 303.312 255.549 303.251 255.48C303.189 255.411 303.146 255.328 303.125 255.238C303.112 255.05 303.169 254.864 303.284 254.715C303.69 254.005 304.305 253.437 305.045 253.088C305.695 252.791 306.413 252.672 307.125 252.744L306.653 252.323C303.75 252.01 301.377 253.286 301.077 256.017C301.604 256.632 302.187 257.198 302.818 257.707C303.796 258.47 304.684 259.341 305.466 260.304C306.213 261.293 306.64 262.39 307.744 263.086C308.471 263.536 309.321 263.746 310.175 263.685C310.584 263.649 310.976 263.505 311.312 263.269C311.648 263.032 311.916 262.712 312.089 262.339C312.17 262.11 312.211 261.868 312.21 261.625C312.23 260.959 312.213 260.292 312.159 259.628Z" fill="#231F20"/>
<path d="M306.602 254.804L306.781 258.084C308.848 259.27 311.023 258.626 311.751 257.867L311.885 254.804H306.602Z" fill="white"/>
<path d="M310.119 180.15L310.286 182.863L310.286 182.865C310.313 183.238 310.408 183.603 310.566 183.943C304.076 187.312 296.57 188.169 289.487 186.349C289.746 184.445 290.005 182.781 290.258 181.414L310.119 180.15Z" fill="white" stroke="black" stroke-width="0.2"/>
<path d="M297.696 158.02L292.33 159.073C291.15 161.242 289.937 163.277 288.751 165.453C287.864 167.086 286.945 168.821 287.009 170.684C287.05 171.462 287.261 172.222 287.625 172.911C287.99 173.599 288.5 174.2 289.121 174.672C289.447 174.905 289.707 175.219 289.878 175.582C290.049 175.944 290.124 176.345 290.097 176.745L289.606 182.627C298.021 185.179 308.312 182.94 310.577 180.988C311.215 177.919 311.853 174.659 312.491 171.59C313.199 168.317 313.913 165.012 312.893 161.593C312.709 160.977 312.438 160.39 312.089 159.851C311.391 158.741 310.382 157.86 309.187 157.319C307.993 156.778 306.665 156.6 305.371 156.808L297.696 158.02Z" fill="#EC287C"/>
<path d="M310.985 184.497C310.865 184.337 310.761 184.166 310.673 183.986C304.113 187.414 296.512 188.278 289.351 186.411C287.845 197.652 286.543 216.684 287.341 229.24C287.979 243.863 290.697 264.559 290.697 264.559C294.206 265.612 296.834 264.968 297.83 264.209C298.997 249.707 301.568 239.767 299.584 230.178C300.905 223.472 301.766 215.051 301.766 215.051L302.78 229.865L306.232 255.908C307.196 256.402 308.274 256.633 309.356 256.578C310.437 256.523 311.486 256.184 312.395 255.596C314.89 240.705 315.828 230.611 313.639 223.223C316.944 198.788 317.116 192.536 310.985 184.497Z" fill="#231F20"/>
<path d="M291.162 143.607C290.365 142.089 290.001 140.381 290.11 138.669C290.177 137.817 290.447 136.994 290.897 136.268C291.348 135.542 291.966 134.935 292.7 134.497C293.451 134.087 294.318 133.944 295.161 134.091C296.003 134.238 296.771 134.667 297.338 135.307C298.701 134.559 300.241 134.193 301.794 134.25C303.348 134.306 304.857 134.782 306.162 135.628C307.467 136.473 308.518 137.656 309.204 139.051C309.891 140.446 310.186 142.001 310.06 143.55C309.945 145.324 309.294 147.072 309.499 148.839C309.613 149.879 310.022 150.932 309.754 151.94C309.619 152.358 309.399 152.744 309.108 153.073C308.817 153.403 308.461 153.668 308.063 153.854C307.291 154.262 305.479 154.154 304.624 154.332C302.008 156.706 298.729 155.819 296.636 153.694C294.544 151.57 291.162 143.607 291.162 143.607Z" fill="#231F20"/>
<path d="M290.535 144.715C290.785 142.327 291.461 140.111 292.913 138.905C292.539 141.954 293.213 145.042 294.829 147.66L294.963 147.877L295.012 147.627C295.17 146.827 295.582 146.099 296.187 145.551L296.187 145.551L296.189 145.549C296.477 145.27 296.836 145.078 297.227 144.994C297.617 144.911 298.022 144.937 298.397 145.072C298.914 145.315 299.314 145.753 299.509 146.289L299.509 146.289L299.51 146.292C299.72 146.812 299.775 147.38 299.671 147.93C299.567 148.479 299.307 148.988 298.923 149.395C298.538 149.801 298.045 150.089 297.502 150.224C296.959 150.358 296.388 150.334 295.858 150.154L295.693 150.098L295.728 150.269C295.958 151.394 296.509 152.428 297.316 153.245C298.122 154.062 299.149 154.626 300.271 154.87L300.272 154.87C301.703 155.16 303.187 155.029 304.544 154.495L305.186 157.682C303.854 159.072 302.059 159.306 300.578 159.183C299.832 159.122 299.169 158.97 298.693 158.834C298.455 158.766 298.264 158.702 298.133 158.655C298.067 158.631 298.017 158.612 297.983 158.599C297.982 158.598 297.982 158.598 297.981 158.598L297.354 155.347L297.337 155.261L297.249 155.266C295.906 155.346 294.871 155.4 294.063 155.39C293.254 155.38 292.684 155.306 292.267 155.137C291.856 154.971 291.587 154.71 291.384 154.31C291.177 153.904 291.037 153.356 290.891 152.616C290.409 150.011 290.29 147.352 290.535 144.715Z" fill="white" stroke="black" stroke-width="0.2"/>
<path d="M303.82 139.224C304.24 137.831 305.093 136.608 306.256 135.733C307.419 134.858 308.83 134.376 310.285 134.358C311.74 134.341 313.163 134.787 314.347 135.634C315.531 136.48 316.414 137.682 316.867 139.065C318.488 143.965 314.315 149.184 315.247 154.268C315.572 156.099 316.523 157.765 316.874 159.596C317.067 160.654 317.041 161.741 316.799 162.79C316.557 163.838 316.102 164.826 315.464 165.692C314.826 166.559 314.017 167.286 313.088 167.828C312.159 168.371 311.128 168.717 310.06 168.847C311.227 167.571 311.247 165.574 310.583 163.972C309.92 162.371 308.733 161.05 307.712 159.647C303.591 153.988 301.766 145.923 303.82 139.224Z" fill="#231F20"/>
<path d="M280.707 174.922L280.797 175.173L280.894 174.925L280.805 174.89C280.868 174.915 280.886 174.922 280.892 174.924C280.894 174.925 280.894 174.925 280.894 174.925L280.894 174.925L280.895 174.923L280.898 174.915L280.911 174.884C280.922 174.856 280.938 174.815 280.96 174.761C281.004 174.654 281.069 174.496 281.153 174.295C281.322 173.893 281.57 173.317 281.886 172.622C282.518 171.232 283.419 169.366 284.499 167.465C285.58 165.564 286.838 163.63 288.181 162.1C289.527 160.567 290.947 159.455 292.349 159.171C293.384 158.986 294.209 158.957 294.845 159.066C295.48 159.176 295.922 159.424 296.203 159.789C296.484 160.156 296.615 160.656 296.598 161.291C296.582 161.926 296.42 162.689 296.124 163.571C294.942 167.103 291.665 172.46 287.435 179.007L287.435 179.007C286.657 180.218 285.541 181.173 284.226 181.756C282.91 182.339 281.452 182.523 280.033 182.286C278.513 182.031 277.111 181.305 276.026 180.211C274.941 179.117 274.226 177.709 273.984 176.187L271.394 159.912L271.388 159.878L271.364 159.855L271.364 159.855L271.364 159.855L271.363 159.855L271.363 159.854L271.362 159.853L271.353 159.844C271.345 159.835 271.333 159.822 271.317 159.802C271.286 159.762 271.242 159.7 271.192 159.61C271.093 159.431 270.973 159.144 270.899 158.72C270.751 157.872 270.787 156.472 271.549 154.289L271.563 154.247L271.543 154.209L270.19 151.657L270.19 151.656C270.077 151.446 270.052 151.199 270.12 150.97C270.187 150.741 270.343 150.548 270.552 150.432L271.802 149.756L271.802 149.756L271.803 149.756C271.909 149.697 272.027 149.659 272.148 149.646C272.269 149.633 272.392 149.644 272.509 149.679C272.625 149.714 272.734 149.771 272.828 149.849C272.922 149.926 273 150.022 273.057 150.13L273.057 150.13L274.607 153.071L274.791 152.996L273.815 149.724C273.815 149.724 273.815 149.723 273.815 149.723C273.791 149.637 273.784 149.547 273.795 149.458C273.806 149.369 273.836 149.283 273.881 149.206C273.927 149.129 273.988 149.061 274.06 149.009C274.133 148.956 274.215 148.918 274.303 148.898C274.458 148.863 274.621 148.886 274.76 148.962C274.9 149.039 275.007 149.163 275.061 149.313C275.061 149.313 275.061 149.313 275.061 149.313L276.337 152.879L276.337 152.88C276.445 153.179 276.47 153.502 276.409 153.815C276.409 153.815 276.409 153.815 276.409 153.815L275.236 159.557L275.23 159.584L275.239 159.61L280.707 174.922Z" fill="white" stroke="black" stroke-width="0.2"/>
<path d="M292.33 159.073C289.778 159.774 287.009 161.108 283.066 168.847C283.506 174.429 291.743 173.026 291.743 173.026C293.918 168.879 296.26 164.553 296.719 162.524C297.491 159.136 295.947 158.352 292.33 159.073Z" fill="#EC287C"/>
<ellipse cx="87.0738" cy="290.925" rx="7.84426" ry="7.82593" fill="#E4E4E4"/>
<circle cx="434.5" cy="311.5" r="9.5" fill="#EC287C"/>
<circle cx="15.5" cy="85.5" r="15.5" fill="#BD2063"/>
</svg>
