<svg width="382" height="382" viewBox="0 0 382 382" fill="none" xmlns="http://www.w3.org/2000/svg">
<path d="M69.3407 335.205C137.849 374.986 248.881 374.986 317.412 335.205C385.942 295.424 385.912 230.934 317.412 191.16C248.911 151.387 137.872 151.379 69.3407 191.16C0.809946 230.942 0.8405 295.431 69.3407 335.205Z" fill="#F5F5F5"/>
<path d="M321.927 290.396C339.003 290.396 352.846 282.406 352.846 272.549C352.846 262.693 339.003 254.702 321.927 254.702C304.851 254.702 291.008 262.693 291.008 272.549C291.008 282.406 304.851 290.396 321.927 290.396Z" fill="#E0E0E0"/>
<path d="M52.8993 279.777C52.8993 279.777 51.6005 268.317 45.9087 259.462C40.2169 250.607 32.4012 245.045 25.105 244.48C17.8088 243.915 11.9184 250.592 19.757 255.229C27.5957 259.867 41.4317 264.535 47.8111 281.778L52.8993 279.777Z" fill="#EC287C"/>
<path opacity="0.1" d="M52.8993 279.777C52.8993 279.777 51.6005 268.317 45.9087 259.462C40.2169 250.607 32.4012 245.045 25.105 244.48C17.8088 243.915 11.9184 250.592 19.757 255.229C27.5957 259.867 41.4317 264.535 47.8111 281.778L52.8993 279.777Z" fill="black"/>
<path d="M50.76 276.805C50.7849 276.813 50.8116 276.813 50.8364 276.805C50.8841 276.786 50.9275 276.759 50.9641 276.723C51.0008 276.687 51.03 276.645 51.0499 276.598C51.0699 276.551 51.0802 276.5 51.0803 276.449C51.0803 276.398 51.0702 276.348 51.0504 276.301C43.3569 257.346 28.7034 249.423 22.0184 247.887C21.9682 247.876 21.9163 247.875 21.8656 247.884C21.815 247.893 21.7666 247.912 21.7233 247.939C21.68 247.967 21.6426 248.003 21.6132 248.045C21.5839 248.088 21.5632 248.135 21.5523 248.185C21.5314 248.286 21.5499 248.39 21.604 248.477C21.6581 248.563 21.7436 248.626 21.8427 248.651C28.3825 250.179 42.7457 257.934 50.3246 276.591C50.3611 276.672 50.4246 276.737 50.504 276.776C50.5834 276.815 50.6739 276.825 50.76 276.805Z" fill="white"/>
<path d="M11.7962 277.034C12.4532 278.524 14.0882 279.326 15.6162 279.907C17.1442 280.487 18.7715 281.167 19.589 282.573C21.2316 285.423 18.5346 289.449 20.2995 292.184C20.7122 292.738 21.2332 293.203 21.8307 293.549C22.4282 293.896 23.0899 294.118 23.7757 294.201C24.9078 294.364 26.0478 294.466 27.1908 294.507C27.7353 294.501 28.2788 294.46 28.8181 294.384C30.3988 294.029 32.0526 294.203 33.5243 294.881C35.8163 296.157 36.481 299.007 37.8486 301.207C38.7 302.509 39.8242 303.61 41.1433 304.435C42.4625 305.259 43.9452 305.787 45.4886 305.982C46.5047 306.12 48.3918 306.303 49.4232 305.722C49.4975 305.684 49.569 305.641 49.6371 305.592C49.7822 305.432 49.958 305.226 50.0344 305.119C50.0499 305.097 50.0628 305.074 50.0726 305.05C50.4775 303.575 49.8204 302.04 49.7975 300.519C49.7899 300.428 49.7899 300.336 49.7975 300.244C49.8586 298.472 49.9121 296.715 49.9503 294.942C50.0318 291.698 50.0649 288.446 50.0496 285.186C50.0496 283.07 50.2788 280.762 49.385 278.768C48.3994 276.583 45.9317 276.53 45.0072 274.383C44.6329 273.527 44.4342 272.61 44.0752 271.747C43.5148 270.479 42.6172 269.389 41.4803 268.596C40.3434 267.802 39.0106 267.336 37.627 267.247C33.3333 267.026 29.4751 270.509 25.1814 270.189C24.0757 270.04 22.979 269.831 21.8962 269.562C18.4124 268.913 14.3938 269.906 12.4379 272.847C11.9973 273.44 11.7085 274.131 11.5967 274.861C11.4848 275.591 11.5533 276.337 11.7962 277.034Z" fill="#EC287C"/>
<path d="M50.4242 298.258C50.4707 298.246 50.5143 298.226 50.5527 298.197C50.591 298.168 50.6232 298.132 50.6474 298.091C50.6716 298.05 50.6873 298.004 50.6936 297.957C50.6999 297.909 50.6966 297.861 50.684 297.815C44.7553 275.529 21.2853 272.313 15.7921 272.748C15.7442 272.751 15.6974 272.763 15.6544 272.785C15.6114 272.806 15.5731 272.836 15.5418 272.872C15.5105 272.908 15.4867 272.95 15.472 272.996C15.4572 273.042 15.4518 273.09 15.4559 273.138C15.4638 273.234 15.509 273.323 15.5819 273.386C15.6548 273.448 15.7495 273.48 15.8456 273.474C21.1936 273.092 44.1747 276.239 49.9811 298.029C50.0124 298.116 50.0755 298.188 50.1577 298.23C50.2399 298.273 50.3351 298.283 50.4242 298.258Z" fill="white"/>
<path d="M24.3259 286.974C24.3995 286.96 24.4666 286.922 24.5169 286.867C26.6869 284.991 29.2428 283.616 32.0035 282.838C34.7643 282.061 37.6622 281.9 40.4921 282.367C40.5425 282.382 40.5955 282.386 40.6475 282.379C40.6995 282.371 40.7494 282.353 40.7937 282.325C40.838 282.297 40.8758 282.259 40.9044 282.215C40.933 282.171 40.9518 282.121 40.9596 282.069C40.9673 282.017 40.9638 281.964 40.9493 281.914C40.9347 281.863 40.9095 281.817 40.8753 281.777C40.8412 281.737 40.7988 281.705 40.7511 281.683C40.7035 281.661 40.6516 281.649 40.5991 281.649C37.656 281.162 34.6417 281.331 31.7717 282.144C28.9017 282.958 26.247 284.396 23.9974 286.355C23.9301 286.425 23.8926 286.518 23.8926 286.615C23.8926 286.711 23.9301 286.805 23.9974 286.874C24.0395 286.917 24.0916 286.948 24.149 286.966C24.2064 286.983 24.2672 286.986 24.3259 286.974Z" fill="white"/>
<path d="M49.7669 309.091C49.2649 308.75 48.8499 308.296 48.5554 307.765C48.2608 307.234 48.0948 306.642 48.0708 306.035V138.819C48.1055 138.191 48.2875 137.581 48.6021 137.036C48.9167 136.492 49.355 136.03 49.8815 135.686L246.581 22.156C247.119 21.8689 247.717 21.713 248.326 21.701C248.936 21.6891 249.539 21.8214 250.088 22.0872C250.59 22.4285 251.005 22.8828 251.299 23.4135C251.594 23.9443 251.76 24.5367 251.784 25.1432V192.329C251.751 192.957 251.57 193.569 251.257 194.114C250.944 194.66 250.506 195.124 249.981 195.469L53.2736 309.023C52.7359 309.31 52.138 309.466 51.5285 309.478C50.9191 309.49 50.3154 309.357 49.7669 309.091Z" fill="#EC287C"/>
<path opacity="0.3" d="M251.769 24.8376C251.639 23.9056 250.882 23.5618 249.973 24.0736L53.2738 137.65C52.742 137.987 52.3033 138.452 51.9979 139.002L48.5981 137.039C48.9042 136.488 49.3461 136.025 49.8817 135.694L246.581 22.156C247.119 21.8689 247.717 21.713 248.326 21.701C248.936 21.6891 249.539 21.8214 250.088 22.0872C250.547 22.4007 250.934 22.8079 251.223 23.282C251.513 23.7562 251.699 24.2864 251.769 24.8376Z" fill="white"/>
<path d="M52.93 309.183C52.9047 309.188 52.8789 309.188 52.8536 309.183C52.7984 309.214 52.7393 309.237 52.6779 309.252L52.548 309.29C52.4675 309.323 52.3825 309.344 52.2959 309.351C52.2402 309.36 52.1835 309.36 52.1278 309.351C52.0377 309.375 51.9456 309.39 51.8528 309.397C51.1397 309.492 50.4145 309.367 49.7747 309.038C49.2692 308.7 48.8516 308.247 48.5566 307.715C48.2617 307.184 48.0978 306.59 48.0786 305.982V160.218L51.4861 162.182V307.976C51.4861 308.794 51.891 309.275 52.4869 309.275C52.57 309.277 52.6529 309.264 52.7314 309.237C52.8 309.229 52.867 309.211 52.93 309.183Z" fill="#37474F"/>
<path opacity="0.1" d="M51.9979 139.002C51.6708 139.54 51.4891 140.153 51.4707 140.782V162.22L48.0633 160.257V138.865C48.0557 138.791 48.0557 138.717 48.0633 138.643C48.0633 138.498 48.0633 138.345 48.132 138.192C48.2317 137.802 48.3833 137.427 48.5828 137.077L51.9979 139.002Z" fill="black"/>
<path d="M251.784 25.1356V34.8002L107.602 118.076C106.601 118.649 105.791 118.183 105.791 117.03V113.37C105.791 112.216 104.981 111.75 103.98 112.323L60.0733 137.65C59.5437 137.991 59.1026 138.452 58.7864 138.997C58.4703 139.541 58.2882 140.153 58.255 140.782V144.442C58.2212 145.069 58.0403 145.679 57.7271 146.223C57.4139 146.767 56.9771 147.23 56.452 147.574L51.4707 150.455V140.782C51.5046 140.155 51.6854 139.545 51.9986 139.001C52.3118 138.457 52.7486 137.994 53.2737 137.65L249.973 24.0889C250.974 23.5083 251.784 23.982 251.784 25.1356Z" fill="#EC287C"/>
<path d="M251.792 192.329C251.758 192.958 251.576 193.57 251.26 194.115C250.944 194.659 250.503 195.121 249.973 195.462L53.2737 309.023C52.2805 309.596 51.4707 309.13 51.4707 307.976V150.455L56.452 147.574C57.4452 147.001 59.0649 138.223 60.0733 137.642L103.247 112.713C104.248 112.132 106.601 118.611 107.602 118.061L251.784 34.7849V192.329H251.792Z" fill="#455A64"/>
<path d="M251.784 34.8002V46.604L51.4707 162.22V150.455L55.1914 148.3C56.1846 147.719 56.5207 146.841 56.9944 145.16L58.255 140.782C58.6523 139.254 59.0649 138.223 60.0733 137.65L103.247 112.721C104.248 112.14 105.027 112.079 105.791 113.339L107.319 116.151C107.884 117.129 108.167 117.679 109.16 117.129L251.784 34.8002Z" fill="#F0F0F0"/>
<path d="M243.296 31.1941C244.557 30.4683 245.588 31.0566 245.588 32.5158C245.544 33.3072 245.314 34.0771 244.915 34.7623C244.517 35.4475 243.962 36.0286 243.296 36.4581C242.043 37.2221 241.004 36.5956 241.004 35.144C241.05 34.3521 241.281 33.5822 241.68 32.8961C242.078 32.21 242.631 31.6271 243.296 31.1941Z" fill="white"/>
<path d="M235.098 35.908C236.359 35.144 237.39 35.7705 237.39 37.2221C237.346 38.0145 237.116 38.7854 236.718 39.4718C236.319 40.1583 235.764 40.7408 235.098 41.172C233.838 41.936 232.806 41.3095 232.806 39.8502C232.85 39.0588 233.08 38.289 233.479 37.6038C233.877 36.9186 234.432 36.3375 235.098 35.908Z" fill="white"/>
<path d="M226.908 40.6524C228.169 39.8884 229.2 40.5149 229.2 41.9665C229.157 42.7579 228.926 43.5277 228.528 44.2129C228.129 44.8982 227.574 45.4793 226.908 45.9088C225.648 46.6346 224.616 46.0463 224.616 44.5947C224.66 43.8033 224.89 43.0335 225.289 42.3483C225.687 41.6631 226.242 41.0819 226.908 40.6524Z" fill="white"/>
<path opacity="0.5" d="M59.7679 151.272L56.9258 152.907L58.0107 150.829C58.0556 150.751 58.0792 150.663 58.0792 150.573C58.0792 150.483 58.0556 150.395 58.0107 150.317C57.9266 150.218 57.7815 150.317 57.6898 150.47L56.1618 153.434C56.1419 153.468 56.1265 153.504 56.1159 153.541C56.1159 153.541 56.1159 153.541 56.1159 153.579C56.1118 153.63 56.1118 153.681 56.1159 153.732C56.1117 153.775 56.1117 153.819 56.1159 153.862C56.1268 153.885 56.1424 153.906 56.1618 153.923L57.6898 155.107C57.7124 155.122 57.739 155.13 57.7662 155.13C57.7934 155.13 57.82 155.122 57.8426 155.107C57.9192 155.052 57.9777 154.975 58.0107 154.886C58.0947 154.687 58.0871 154.473 58.0107 154.404L56.9258 153.572L59.7679 152.036C59.8408 151.979 59.8995 151.906 59.9393 151.822C59.9791 151.739 59.9988 151.647 59.9971 151.555C59.9971 151.325 59.8977 151.226 59.7679 151.272Z" fill="#455A64"/>
<path opacity="0.5" d="M62.1437 149.927L64.9858 148.292L63.9009 147.452C63.8557 147.378 63.8317 147.294 63.8317 147.208C63.8317 147.121 63.8557 147.037 63.9009 146.963C63.985 146.772 64.1301 146.673 64.2218 146.749L65.7498 147.933C65.7568 147.953 65.7568 147.975 65.7498 147.994C65.7544 148.04 65.7544 148.086 65.7498 148.132C65.7532 148.183 65.7532 148.234 65.7498 148.285C65.7531 148.323 65.7531 148.361 65.7498 148.399L64.2218 151.364C64.1925 151.436 64.1418 151.497 64.0767 151.539C64.0527 151.561 64.0213 151.574 63.9888 151.574C63.9563 151.574 63.9249 151.561 63.9009 151.539C63.8581 151.462 63.8357 151.375 63.8357 151.287C63.8357 151.199 63.8581 151.112 63.9009 151.035L64.9858 148.98L62.1437 150.623C62.0139 150.691 61.9146 150.623 61.9146 150.401C61.9145 150.31 61.9351 150.22 61.9748 150.138C62.0145 150.056 62.0723 149.984 62.1437 149.927Z" fill="#455A64"/>
<path opacity="0.5" d="M71.4645 141.753C71.4645 141.577 71.2965 141.6 71.2201 141.753L70.8304 142.708C70.1657 142.631 69.3635 143.281 68.8211 144.434C68.1182 145.924 68.1182 147.681 68.8211 148.361C68.9922 148.519 69.2128 148.613 69.4454 148.627C69.678 148.641 69.9082 148.574 70.097 148.438C70.6615 148.063 71.1049 147.532 71.3729 146.91C71.4188 146.835 71.4432 146.749 71.4432 146.661C71.4432 146.574 71.4188 146.488 71.3729 146.413C71.2812 146.329 71.136 146.413 71.052 146.596C70.5248 147.712 69.6691 148.208 69.142 147.696C68.6148 147.185 68.6225 145.878 69.142 144.763C69.5163 143.999 70.0588 143.51 70.5248 143.479L70.2345 144.197C70.1581 144.381 70.2345 144.556 70.3415 144.48L71.5027 143.716C71.5491 143.677 71.5853 143.628 71.6079 143.572C71.6306 143.516 71.6391 143.455 71.6326 143.395L71.4645 141.753Z" fill="#455A64"/>
<path opacity="0.5" d="M102.002 118.091L103.033 115.899C103.094 115.796 103.127 115.678 103.127 115.559C103.127 115.439 103.094 115.322 103.033 115.219C102.911 115.097 102.712 115.219 102.59 115.471L101.559 117.656L100.52 116.663C100.397 116.541 100.199 116.663 100.076 116.915C100.015 117.018 99.9829 117.135 99.9829 117.255C99.9829 117.375 100.015 117.492 100.076 117.595L101.115 118.596L100.084 120.796C100.023 120.899 99.9905 121.016 99.9905 121.136C99.9905 121.256 100.023 121.373 100.084 121.476C100.115 121.501 100.155 121.515 100.195 121.515C100.235 121.515 100.274 121.501 100.306 121.476C100.403 121.41 100.48 121.317 100.527 121.209L101.566 119.016L102.598 120.009C102.629 120.035 102.668 120.048 102.708 120.048C102.749 120.048 102.788 120.035 102.819 120.009C102.919 119.945 102.996 119.852 103.041 119.742C103.102 119.637 103.134 119.519 103.134 119.398C103.134 119.277 103.102 119.158 103.041 119.054L102.002 118.091Z" fill="#455A64"/>
<path d="M75.231 144.442V140.782C75.2645 140.154 75.446 139.543 75.7606 138.999C76.0753 138.455 76.5143 137.992 77.0416 137.65L239.774 43.7314C240.774 43.1584 241.584 43.6244 241.584 44.778V48.4376C241.551 49.0665 241.369 49.6787 241.055 50.2243C240.74 50.7699 240.301 51.2336 239.774 51.5776L77.0416 145.489C76.0408 146.069 75.231 145.595 75.231 144.442Z" fill="white"/>
<path d="M237.329 51.7839C237.284 51.7918 237.237 51.7918 237.192 51.7839C237.107 51.743 237.039 51.6745 236.999 51.5898C236.959 51.5051 236.948 51.4092 236.97 51.3179L237.153 49.7899L236.389 49.2551C236.337 49.2164 236.295 49.1656 236.267 49.107C236.239 49.0484 236.226 48.9838 236.229 48.9189C236.226 48.8092 236.248 48.7002 236.294 48.6007C236.341 48.5011 236.41 48.4139 236.496 48.3459L237.604 47.4902C237.64 47.457 237.666 47.4148 237.68 47.368L238.154 45.84C238.179 45.7265 238.236 45.6226 238.319 45.5412C238.402 45.4598 238.506 45.4043 238.62 45.3816C238.692 45.3768 238.763 45.394 238.824 45.4309C238.886 45.4678 238.935 45.5225 238.964 45.5879L239.392 46.5047L240.354 46.1303C240.422 46.1035 240.496 46.0979 240.567 46.1143C240.638 46.1307 240.703 46.1682 240.752 46.222C240.817 46.3175 240.853 46.4308 240.853 46.5467C240.853 46.6626 240.817 46.7759 240.752 46.8714L239.988 48.3154C239.98 48.3583 239.98 48.4023 239.988 48.4452L240.171 49.7517C240.18 49.8587 240.166 49.9664 240.131 50.0678C240.095 50.1692 240.039 50.2619 239.965 50.34C239.92 50.3898 239.864 50.4287 239.802 50.4538C239.74 50.479 239.673 50.4897 239.606 50.4851L238.658 50.3629L237.726 51.6006C237.681 51.6623 237.621 51.7116 237.551 51.7437C237.482 51.7758 237.405 51.7896 237.329 51.7839ZM236.733 48.896L237.497 49.4308C237.56 49.4813 237.607 49.5477 237.636 49.6229C237.664 49.6981 237.671 49.7795 237.658 49.8586L237.505 51.1116L238.269 50.1031C238.313 50.037 238.373 49.9834 238.444 49.9473C238.515 49.9112 238.594 49.8938 238.674 49.8968L239.629 50.0191C239.629 50.0191 239.667 49.8892 239.629 49.8281L239.445 48.5216C239.431 48.3739 239.46 48.2252 239.529 48.0938L240.293 46.6575L239.415 46.9936C239.33 47.0295 239.234 47.0303 239.148 46.996C239.062 46.9617 238.993 46.895 238.956 46.8103L238.559 45.9699L238.078 47.4979C238.035 47.6378 237.953 47.7624 237.841 47.857L236.84 48.6897C236.782 48.744 236.744 48.8169 236.733 48.896Z" fill="#E0E0E0"/>
<g opacity="0.5">
<path d="M243.716 43.2882C243.578 43.2882 243.444 43.2427 243.335 43.1587C243.226 43.0748 243.147 42.9571 243.111 42.8239C243.076 42.6907 243.085 42.5495 243.137 42.4221C243.19 42.2947 243.284 42.1883 243.403 42.1193L248.499 39.1779C248.57 39.1351 248.649 39.1069 248.732 39.095C248.814 39.083 248.898 39.0876 248.978 39.1084C249.059 39.1293 249.134 39.1659 249.201 39.2163C249.267 39.2666 249.322 39.3296 249.364 39.4017C249.405 39.4737 249.432 39.5533 249.443 39.6358C249.453 39.7183 249.447 39.8021 249.425 39.8823C249.403 39.9624 249.365 40.0374 249.313 40.1027C249.262 40.168 249.198 40.2225 249.125 40.2628L244.029 43.2042C243.934 43.2576 243.826 43.2865 243.716 43.2882Z" fill="#455A64"/>
<path d="M243.716 46.2296C243.578 46.2296 243.444 46.1841 243.335 46.1001C243.226 46.0162 243.147 45.8985 243.111 45.7653C243.076 45.6321 243.085 45.4909 243.137 45.3635C243.19 45.2361 243.284 45.1297 243.403 45.0607L248.499 42.1193C248.57 42.0765 248.649 42.0483 248.732 42.0364C248.814 42.0244 248.898 42.029 248.978 42.0498C249.059 42.0707 249.134 42.1073 249.201 42.1577C249.267 42.208 249.322 42.271 249.364 42.3431C249.405 42.4151 249.432 42.4947 249.443 42.5772C249.453 42.6597 249.447 42.7435 249.425 42.8237C249.403 42.9038 249.365 42.9788 249.313 43.0441C249.262 43.1094 249.198 43.1639 249.125 43.2042L244.029 46.1456C243.934 46.199 243.826 46.2279 243.716 46.2296Z" fill="#455A64"/>
<path d="M243.716 49.171C243.578 49.171 243.444 49.1255 243.335 49.0415C243.226 48.9576 243.147 48.8399 243.111 48.7067C243.076 48.5735 243.085 48.4323 243.137 48.3049C243.19 48.1775 243.284 48.0711 243.403 48.0021L248.514 45.076C248.658 44.9963 248.827 44.9762 248.985 45.0201C249.144 45.064 249.278 45.1683 249.36 45.3106C249.443 45.4528 249.466 45.6217 249.424 45.7807C249.383 45.9398 249.281 46.0763 249.141 46.1609L244.045 49.1023C243.943 49.1529 243.83 49.1766 243.716 49.171Z" fill="#455A64"/>
</g>
<path d="M51.4709 150.455V162.22L48.0635 160.257V148.499L51.4709 150.455Z" fill="#E0E0E0"/>
<path d="M62.0063 163.87L240.859 60.6158C242.211 59.8518 243.304 60.4706 243.304 62.0292V98.1664C243.259 99.0158 243.015 99.8428 242.59 100.58C242.165 101.317 241.572 101.943 240.859 102.407L62.0063 205.669C60.654 206.433 59.5615 205.814 59.5615 204.255V168.118C59.607 167.268 59.8521 166.44 60.2768 165.702C60.7015 164.964 61.294 164.337 62.0063 163.87Z" fill="#FAFAFA"/>
<path d="M66.4759 181.855L66.4835 176.553L64.1533 177.882L68.745 169.929L73.3366 172.58L71.0752 173.886V179.204L66.4759 181.855Z" fill="#EC287C"/>
<path d="M64.9398 192.299C65.0763 192.215 65.1866 192.095 65.2582 191.952C65.3298 191.809 65.3598 191.648 65.3448 191.489V191.13C65.3448 190.519 65.1385 190.366 64.7183 190.572V189.808C64.9467 189.677 65.1242 189.472 65.2225 189.228C65.326 188.968 65.3754 188.69 65.3677 188.41V188.273C65.3677 187.883 65.2531 187.753 65.0315 187.883C64.8958 187.968 64.7975 188.102 64.7565 188.257C64.7144 188.409 64.6938 188.566 64.6954 188.723V188.884L64.1224 189.212V189.075C64.1203 188.688 64.1902 188.305 64.3286 187.944C64.4526 187.595 64.6891 187.296 65.001 187.096C65.0963 187.016 65.2187 186.977 65.3425 186.985C65.4664 186.994 65.5821 187.05 65.6656 187.142C65.8338 187.388 65.912 187.685 65.8872 187.982V188.234C65.8878 188.606 65.8151 188.975 65.6733 189.319C65.6133 189.466 65.5391 189.607 65.4517 189.739C65.5511 189.775 65.6401 189.835 65.7107 189.914C65.7814 189.993 65.8315 190.087 65.8566 190.19C65.9158 190.357 65.9418 190.533 65.933 190.71V191.183C65.9343 191.621 65.8322 192.053 65.6351 192.444C65.4888 192.76 65.2522 193.026 64.9551 193.208C64.8644 193.288 64.7476 193.332 64.6266 193.332C64.5056 193.332 64.3888 193.288 64.2981 193.208C64.1994 193.09 64.125 192.954 64.0791 192.807C64.0332 192.66 64.0168 192.505 64.0307 192.352V192.207L64.5884 191.817V192.024C64.5828 192.134 64.6182 192.243 64.6877 192.329C64.7256 192.358 64.7729 192.37 64.8199 192.365C64.8669 192.359 64.9099 192.335 64.9398 192.299Z" fill="#37474F"/>
<path d="M67.0563 186.851V188.135C67.1133 187.977 67.1959 187.83 67.3008 187.7C67.3578 187.633 67.4248 187.577 67.4994 187.531C67.7592 187.386 67.9425 187.409 68.0648 187.615C68.1931 187.906 68.2481 188.223 68.2252 188.54V189.831C68.227 190.261 68.133 190.687 67.9502 191.076C67.817 191.394 67.5871 191.661 67.2931 191.84C67.2001 191.914 67.082 191.949 66.9637 191.938C66.8454 191.927 66.7362 191.87 66.659 191.779C66.4717 191.533 66.3844 191.224 66.4145 190.916V190.778L66.9722 190.389V190.58C66.9722 190.817 67.0486 190.939 67.1632 190.954C67.1956 190.964 67.2302 190.964 67.2626 190.954C67.3857 190.871 67.484 190.756 67.5472 190.622C67.6104 190.487 67.6361 190.338 67.6216 190.19V188.708C67.6308 188.643 67.6246 188.576 67.6033 188.514C67.5821 188.452 67.5465 188.395 67.4994 188.349C67.476 188.332 67.448 188.323 67.4192 188.323C67.3904 188.323 67.3623 188.332 67.339 188.349C67.2232 188.423 67.1388 188.537 67.1021 188.67C67.0644 188.794 67.0439 188.922 67.041 189.052V189.212L66.4527 189.548V186.278L68.1717 185.293V186.202L67.0563 186.851Z" fill="#37474F"/>
<path d="M68.6304 190.129L69.2186 189.793V190.694L68.6304 191.031V190.129Z" fill="#37474F"/>
<path d="M70.777 185.285V185.14C70.7829 185.026 70.7564 184.912 70.7006 184.812C70.6471 184.743 70.5784 184.735 70.4867 184.812C70.3825 184.874 70.304 184.972 70.2651 185.087C70.2164 185.219 70.1905 185.358 70.1887 185.499V186.691C70.2873 186.475 70.4432 186.29 70.6395 186.156C70.8916 186.011 71.0902 186.034 71.2125 186.24C71.3513 186.522 71.412 186.836 71.3882 187.149V188.173C71.3803 188.56 71.2891 188.94 71.1208 189.289C71.0063 189.603 70.7916 189.872 70.5096 190.053C70.4163 190.128 70.2975 190.165 70.178 190.155C70.0585 190.145 69.9474 190.089 69.8678 189.999C69.6851 189.75 69.5983 189.444 69.6234 189.136V185.874C69.623 185.578 69.6694 185.284 69.7609 185.003C69.8457 184.726 69.9803 184.467 70.1582 184.239C70.2537 184.11 70.373 184.001 70.5096 183.918C70.6045 183.845 70.7235 183.811 70.8425 183.822C70.9615 183.834 71.0719 183.89 71.1514 183.979C71.3334 184.228 71.4202 184.534 71.3958 184.842V184.972L70.777 185.285ZM70.1887 188.746C70.1826 188.858 70.2092 188.97 70.2651 189.067C70.3186 189.143 70.3874 189.151 70.479 189.067C70.5851 189.003 70.664 188.903 70.7006 188.784C70.7502 188.655 70.776 188.518 70.777 188.379V187.272C70.7841 187.206 70.776 187.139 70.7535 187.077C70.731 187.015 70.6946 186.959 70.6471 186.913C70.6471 186.913 70.5554 186.913 70.4867 186.913C70.3733 186.988 70.2916 187.102 70.2575 187.233C70.2125 187.353 70.1892 187.48 70.1887 187.608V188.746Z" fill="#37474F"/>
<path d="M72.473 186.913V188.807L71.8848 189.143V183.161L72.473 182.818V184.957L73.1912 182.405L73.8177 182.046L73.0155 184.949L73.9552 187.944L73.2676 188.341L72.6488 186.271L72.473 186.913Z" fill="#37474F"/>
<path d="M77.9279 194.621C77.8854 194.621 77.8446 194.604 77.8145 194.574C77.7844 194.544 77.7675 194.503 77.7675 194.461V157.331C77.7623 157.307 77.7624 157.283 77.7678 157.259C77.7733 157.236 77.7839 157.214 77.799 157.195C77.814 157.177 77.833 157.161 77.8547 157.151C77.8764 157.141 77.9001 157.135 77.9241 157.135C77.9481 157.135 77.9719 157.141 77.9935 157.151C78.0152 157.161 78.0342 157.177 78.0493 157.195C78.0643 157.214 78.0749 157.236 78.0804 157.259C78.0858 157.283 78.0859 157.307 78.0807 157.331V194.461C78.0808 194.502 78.0649 194.542 78.0365 194.572C78.008 194.602 77.9691 194.619 77.9279 194.621Z" fill="#E0E0E0"/>
<path d="M86.3703 154.695C87.8524 153.831 89.0595 154.527 89.0595 156.223C89.0088 157.156 88.7389 158.065 88.2716 158.874C87.8044 159.684 87.153 160.372 86.3703 160.883C84.8423 161.739 83.6733 161.044 83.6733 159.355C83.7237 158.421 83.9943 157.511 84.463 156.702C84.9317 155.892 85.5852 155.204 86.3703 154.695Z" fill="#EC287C"/>
<path d="M91.6802 154.679C91.6802 155.443 92.3372 155.627 93.1547 155.161L140.744 127.657C141.14 127.431 141.478 127.118 141.733 126.74C141.987 126.362 142.151 125.931 142.211 125.479C142.211 124.715 141.554 124.532 140.744 124.998L93.1547 152.502C92.7565 152.725 92.4158 153.038 92.1598 153.416C91.9038 153.794 91.7396 154.227 91.6802 154.679Z" fill="#455A64"/>
<path d="M83.6733 168.592C83.6733 169.356 84.3304 169.539 85.1479 169.073L195.928 105.142C196.324 104.917 196.663 104.604 196.918 104.226C197.172 103.848 197.336 103.416 197.395 102.964C197.395 102.2 196.738 102.025 195.928 102.491L85.1479 166.414C84.75 166.638 84.4096 166.951 84.1537 167.329C83.8978 167.707 83.7333 168.139 83.6733 168.592Z" fill="#E0E0E0"/>
<path d="M83.6733 173.917C83.6733 174.681 84.3304 174.864 85.1479 174.398L195.928 110.467C196.324 110.244 196.663 109.932 196.918 109.555C197.172 109.179 197.336 108.748 197.395 108.297C197.395 107.533 196.738 107.35 195.928 107.816L85.1479 171.747C84.7506 171.97 84.4105 172.282 84.1546 172.658C83.8986 173.035 83.7339 173.466 83.6733 173.917Z" fill="#E0E0E0"/>
<path d="M83.6733 179.25C83.6733 180.014 84.3304 180.197 85.1479 179.723L195.928 115.799C196.324 115.574 196.662 115.26 196.916 114.883C197.171 114.505 197.334 114.073 197.395 113.622C197.395 112.858 196.738 112.675 195.928 113.141L85.1479 177.072C84.7496 177.295 84.409 177.609 84.153 177.987C83.897 178.365 83.7328 178.797 83.6733 179.25Z" fill="#E0E0E0"/>
<path d="M90.0908 183.085C90.0908 183.849 90.7479 184.025 91.5577 183.559L97.5322 180.121C97.9289 179.896 98.2684 179.582 98.5241 179.204C98.7799 178.827 98.945 178.395 99.0067 177.943C99.0067 177.179 98.342 176.996 97.5322 177.47L91.5577 180.908C91.1613 181.132 90.8224 181.446 90.5678 181.824C90.3133 182.201 90.15 182.633 90.0908 183.085Z" fill="#E0E0E0"/>
<path d="M108.603 172.282C108.603 173.046 109.267 173.229 110.077 172.763L116.052 169.318C116.447 169.094 116.785 168.782 117.04 168.405C117.294 168.029 117.458 167.598 117.518 167.148C117.518 166.384 116.861 166.201 116.052 166.667L110.077 170.105C109.68 170.33 109.341 170.643 109.085 171.021C108.829 171.399 108.664 171.83 108.603 172.282Z" fill="#E0E0E0"/>
<path d="M83.6733 187.944V185.133C83.6823 184.962 83.7321 184.796 83.8185 184.648C83.9049 184.501 84.0254 184.376 84.1699 184.284L87.8066 182.191C88.074 182.038 88.2955 182.191 88.2955 182.481V185.285C88.2862 185.455 88.2371 185.62 88.1521 185.768C88.0672 185.915 87.9488 186.04 87.8066 186.133L84.1699 188.227C83.8949 188.349 83.6733 188.219 83.6733 187.944Z" fill="#EBEBEB"/>
<path d="M85.3921 187.379L86.5839 186.691L85.988 188.41L85.3921 187.379Z" fill="#EBEBEB"/>
<path d="M103.805 173.504L104.286 173.94C102.674 176.369 103.239 177.5 104.653 178.05C104.187 177.531 104.324 175.995 105.203 174.765L105.684 175.193C105.776 175.277 106.013 175.139 106.066 174.964L106.884 172.397C106.884 172.274 106.846 172.213 106.716 172.251L104.034 173.13C103.851 173.191 103.713 173.428 103.805 173.504Z" fill="#EBEBEB"/>
<path d="M206.395 85.8278L236.703 68.3322C237.123 68.0877 237.467 68.2863 237.467 68.7753V98.7546C237.452 99.0214 237.375 99.281 237.242 99.513C237.109 99.745 236.925 99.9431 236.703 100.092L206.395 117.587C205.975 117.832 205.631 117.633 205.631 117.144V87.1648C205.644 86.8976 205.72 86.6373 205.853 86.405C205.986 86.1727 206.171 85.975 206.395 85.8278Z" fill="#EC287C"/>
<path opacity="0.8" d="M206.395 85.8278L236.703 68.3322C237.123 68.0877 237.467 68.2863 237.467 68.7753V98.7546C237.452 99.0214 237.375 99.281 237.242 99.513C237.109 99.745 236.925 99.9431 236.703 100.092L206.395 117.587C205.975 117.832 205.631 117.633 205.631 117.144V87.1648C205.644 86.8976 205.72 86.6373 205.853 86.405C205.986 86.1727 206.171 85.975 206.395 85.8278Z" fill="white"/>
<path d="M229.017 85.3388L223.959 94.3005L227.512 98.8845L215.761 88.7615L205.623 110.696V117.121C205.623 117.61 205.974 117.809 206.387 117.564L236.703 100.084C236.925 99.9355 237.109 99.7374 237.242 99.5054C237.374 99.2734 237.451 99.0138 237.467 98.747V93.0552L229.017 85.3388Z" fill="#EC287C"/>
<path d="M230.231 76.1173C231.492 75.3915 232.523 75.9798 232.523 77.4314C232.48 78.225 232.25 78.9972 231.852 79.6849C231.454 80.3727 230.898 80.9566 230.231 81.3889C228.971 82.1529 227.939 81.5264 227.939 80.0672C227.984 79.2749 228.214 78.5043 228.613 77.8179C229.011 77.1316 229.566 76.5489 230.231 76.1173Z" fill="#EC287C"/>
<path d="M61.991 253.388L240.836 150.126C242.188 149.362 243.288 149.981 243.288 151.539V187.677C243.242 188.527 242.996 189.354 242.57 190.091C242.144 190.828 241.55 191.453 240.836 191.917L61.991 295.179C60.6387 295.943 59.5386 295.324 59.5386 293.766V257.628C59.5843 256.778 59.8303 255.951 60.2565 255.214C60.6827 254.477 61.277 253.852 61.991 253.388Z" fill="#FAFAFA"/>
<path d="M66.4603 271.373V266.063L64.1377 267.392L68.7293 259.439L73.321 262.09L71.0519 263.397L71.0595 268.714L66.4603 271.373Z" fill="#455A64"/>
<path d="M64.0235 278.86C64.0109 278.352 64.1128 277.848 64.3215 277.385C64.4689 277.07 64.7052 276.804 65.0014 276.621C65.0985 276.549 65.2192 276.516 65.3396 276.529C65.4599 276.542 65.571 276.599 65.6508 276.69C65.8535 276.936 65.9522 277.251 65.9259 277.569C65.9207 278.002 65.8617 278.433 65.7501 278.852C65.6814 279.097 65.5362 279.548 65.2994 280.197C65.2383 280.373 65.1389 280.64 65.0167 281.014L64.9097 281.32C64.841 281.519 64.7875 281.671 64.7569 281.786C64.7515 281.819 64.7515 281.853 64.7569 281.885L65.9106 281.221V282.099L64.0464 283.177V282.351C64.0464 282.351 64.0923 282.199 64.1763 281.947L64.3062 281.565L64.459 281.137C64.5507 280.9 64.6882 280.518 64.8792 279.991C65.0384 279.571 65.1735 279.142 65.2841 278.707C65.3473 278.457 65.3832 278.201 65.391 277.943C65.4017 277.801 65.3669 277.659 65.2917 277.538C65.2766 277.517 65.2574 277.499 65.2352 277.486C65.2129 277.472 65.1882 277.463 65.1624 277.46C65.1367 277.456 65.1105 277.458 65.0854 277.465C65.0604 277.472 65.037 277.484 65.0167 277.5C64.9174 277.576 64.8349 277.671 64.7744 277.78C64.7139 277.889 64.6768 278.01 64.6653 278.134C64.6529 278.256 64.6529 278.379 64.6653 278.501V278.73L64.0846 279.059L64.0235 278.86Z" fill="#37474F"/>
<path d="M67.2321 280.472C67.3673 280.387 67.4766 280.267 67.5481 280.124C67.6195 279.981 67.6502 279.821 67.637 279.662V279.311C67.637 278.692 67.4231 278.547 67.0105 278.745V277.981C67.2364 277.849 67.4113 277.644 67.5071 277.401C67.6132 277.142 67.6652 276.863 67.6599 276.583V276.446C67.6599 276.056 67.5453 275.926 67.3238 276.056C67.188 276.142 67.0898 276.275 67.0487 276.43C67.0034 276.582 66.9828 276.739 66.9876 276.897V277.057L66.407 277.385V277.248C66.4035 276.851 66.4761 276.457 66.6209 276.087C66.7422 275.736 66.9793 275.437 67.2932 275.239C67.3885 275.159 67.5109 275.119 67.6348 275.128C67.7586 275.137 67.8744 275.193 67.9579 275.284C68.1261 275.531 68.2043 275.828 68.1795 276.125V276.377C68.1782 276.75 68.1029 277.119 67.9579 277.462C67.9005 277.609 67.8289 277.749 67.744 277.882C67.8427 277.919 67.931 277.98 68.0015 278.058C68.072 278.136 68.1225 278.231 68.1489 278.333C68.2016 278.501 68.2248 278.677 68.2177 278.852V279.326C68.2216 279.763 68.1221 280.195 67.9273 280.587C67.7797 280.915 67.5376 281.191 67.2321 281.381C67.1368 281.456 67.0174 281.494 66.8963 281.487C66.7753 281.48 66.661 281.428 66.5751 281.343C66.4749 281.226 66.3995 281.09 66.3536 280.943C66.3076 280.795 66.292 280.641 66.3077 280.487V280.342L66.8654 279.953V280.159C66.8619 280.27 66.9001 280.379 66.9723 280.464C67.064 280.526 67.1404 280.526 67.2321 280.472Z" fill="#37474F"/>
<path d="M68.6304 279.624L69.2186 279.288V280.189L68.6304 280.533V279.624Z" fill="#37474F"/>
<path d="M71.5259 277.492C71.5241 277.898 71.43 278.298 71.2509 278.661C71.1116 278.975 70.8831 279.241 70.5939 279.425H70.548C70.4527 279.5 70.3333 279.538 70.2123 279.531C70.0912 279.524 69.977 279.473 69.891 279.387C69.7929 279.27 69.7188 279.135 69.6729 278.99C69.627 278.844 69.6103 278.691 69.6236 278.539V277.989C69.6249 277.612 69.7056 277.24 69.8604 276.897C69.9222 276.745 70.0017 276.601 70.0973 276.469C69.9445 276.433 69.8222 276.295 69.7305 276.056C69.6848 275.884 69.6642 275.707 69.6694 275.529V275.208C69.6675 274.833 69.7429 274.461 69.891 274.116C70.0152 273.781 70.2461 273.496 70.548 273.306H70.5939C70.6892 273.226 70.8115 273.187 70.9354 273.195C71.0593 273.204 71.175 273.26 71.2585 273.352C71.4267 273.598 71.5049 273.895 71.4801 274.192V274.513C71.4812 274.876 71.4057 275.235 71.2585 275.567C71.2044 275.703 71.1325 275.832 71.0446 275.949C71.144 275.985 71.233 276.045 71.3036 276.124C71.3743 276.202 71.4244 276.297 71.4495 276.4C71.5087 276.566 71.5347 276.743 71.5259 276.919V277.492ZM70.9606 274.757C70.9606 274.352 70.8689 274.146 70.7085 274.131C70.6595 274.134 70.6122 274.15 70.5709 274.177C70.4637 274.238 70.3782 274.332 70.3265 274.444C70.2713 274.55 70.2326 274.663 70.2119 274.78C70.199 274.92 70.199 275.061 70.2119 275.2C70.2013 275.378 70.23 275.555 70.2959 275.72C70.357 275.835 70.4563 275.85 70.5939 275.773C70.7468 275.679 70.8565 275.528 70.8995 275.353C70.9538 275.16 70.9745 274.958 70.9606 274.757ZM70.9606 277.401C70.9606 277.049 70.9071 276.835 70.8001 276.782C70.6932 276.728 70.6855 276.782 70.5939 276.782C70.5045 276.844 70.4306 276.926 70.3776 277.022C70.3247 277.117 70.2941 277.223 70.2883 277.332C70.2522 277.505 70.2343 277.682 70.2348 277.859V278.096C70.2212 278.244 70.2649 278.392 70.357 278.509C70.3913 278.537 70.4346 278.553 70.4793 278.553C70.5239 278.553 70.5672 278.537 70.6015 278.509C70.7816 278.377 70.9024 278.179 70.9377 277.958C70.9497 277.86 70.9497 277.759 70.9377 277.661L70.9606 277.401Z" fill="#37474F"/>
<path d="M72.6259 276.324V278.218L72.0376 278.562V272.572L72.6259 272.236V274.368L73.3364 271.824L73.9629 271.465L73.1989 274.368L74.108 277.37L73.4204 277.768L72.8092 275.689L72.6259 276.324Z" fill="#37474F"/>
<path d="M77.9281 284.132C77.9074 284.132 77.8869 284.127 77.8678 284.119C77.8488 284.111 77.8316 284.099 77.8173 284.084C77.803 284.069 77.7919 284.051 77.7847 284.032C77.7775 284.013 77.7743 283.992 77.7753 283.971V246.841C77.7701 246.817 77.7702 246.793 77.7757 246.77C77.7811 246.746 77.7917 246.724 77.8068 246.706C77.8218 246.687 77.8409 246.672 77.8625 246.661C77.8842 246.651 77.9079 246.646 77.9319 246.646C77.9559 246.646 77.9797 246.651 78.0013 246.661C78.023 246.672 78.042 246.687 78.0571 246.706C78.0721 246.724 78.0827 246.746 78.0882 246.77C78.0936 246.793 78.0938 246.817 78.0885 246.841V283.971C78.0885 284.014 78.0716 284.055 78.0416 284.085C78.0115 284.115 77.9707 284.132 77.9281 284.132Z" fill="#E0E0E0"/>
<path d="M86.3319 244.205C87.8599 243.342 89.0288 244.037 89.0288 245.733C88.9784 246.667 88.7078 247.577 88.2391 248.387C87.7704 249.196 87.1169 249.884 86.3319 250.393C84.8497 251.257 83.6426 250.554 83.6426 248.865C83.6933 247.932 83.9633 247.024 84.4305 246.214C84.8977 245.404 85.5491 244.716 86.3319 244.205Z" fill="#EC287C"/>
<path d="M91.6802 244.19C91.6802 244.954 92.3372 245.137 93.1547 244.671L140.744 217.167C141.14 216.942 141.478 216.628 141.733 216.25C141.987 215.872 142.151 215.441 142.211 214.99C142.211 214.226 141.554 214.042 140.744 214.508L93.1547 242.012C92.7565 242.235 92.4158 242.549 92.1598 242.927C91.9038 243.305 91.7396 243.737 91.6802 244.19Z" fill="#455A64"/>
<path d="M83.6582 258.102C83.6582 258.866 84.3152 259.049 85.1251 258.583L195.905 194.652C196.302 194.427 196.64 194.114 196.895 193.736C197.149 193.358 197.313 192.926 197.372 192.475C197.372 191.711 196.715 191.535 195.905 192.001L85.1251 255.94C84.7298 256.162 84.3915 256.473 84.1369 256.848C83.8824 257.223 83.7185 257.653 83.6582 258.102Z" fill="#E0E0E0"/>
<path d="M83.6582 263.427C83.6582 264.191 84.3152 264.375 85.1251 263.909L195.905 199.977C196.301 199.754 196.64 199.442 196.895 199.065C197.149 198.689 197.313 198.258 197.372 197.807C197.372 197.043 196.715 196.86 195.905 197.326L85.1251 261.288C84.7333 261.509 84.3974 261.816 84.1431 262.187C83.8888 262.558 83.7229 262.982 83.6582 263.427Z" fill="#E0E0E0"/>
<path d="M83.6582 268.76C83.6582 269.524 84.3152 269.707 85.1251 269.234L195.905 205.31C196.301 205.084 196.639 204.77 196.893 204.393C197.148 204.015 197.312 203.584 197.372 203.132C197.372 202.368 196.715 202.185 195.905 202.659L85.1251 266.583C84.7286 266.807 84.3898 267.121 84.1352 267.498C83.8807 267.876 83.7174 268.308 83.6582 268.76Z" fill="#E0E0E0"/>
<path d="M90.0757 272.595C90.0757 273.359 90.7327 273.543 91.5426 273.069L97.517 269.631C97.9135 269.406 98.2523 269.093 98.5069 268.715C98.7615 268.337 98.9248 267.905 98.9839 267.453C98.9839 266.689 98.3269 266.506 97.517 266.98L91.5426 270.418C91.1461 270.642 90.8073 270.956 90.5527 271.334C90.2982 271.712 90.1349 272.143 90.0757 272.595Z" fill="#E0E0E0"/>
<path d="M108.587 261.792C108.587 262.556 109.244 262.74 110.062 262.274L116.036 258.828C116.433 258.605 116.772 258.293 117.026 257.916C117.281 257.54 117.444 257.109 117.503 256.658C117.503 255.894 116.846 255.711 116.036 256.177L110.062 259.615C109.664 259.838 109.324 260.152 109.068 260.53C108.812 260.907 108.647 261.34 108.587 261.792Z" fill="#E0E0E0"/>
<path d="M83.6582 277.424V274.612C83.6675 274.442 83.7167 274.277 83.8016 274.13C83.8865 273.983 84.0049 273.857 84.1472 273.764L87.7914 271.671C88.0588 271.518 88.2804 271.671 88.2804 271.961V274.773C88.2705 274.941 88.2211 275.105 88.1361 275.251C88.0512 275.397 87.9331 275.521 87.7914 275.613L84.1472 277.706C83.8798 277.859 83.6582 277.737 83.6582 277.424Z" fill="#EBEBEB"/>
<path d="M85.377 276.889L86.5688 276.201L85.9729 277.92L85.377 276.889Z" fill="#EBEBEB"/>
<path d="M103.79 263.015L104.271 263.45C102.659 265.88 103.224 267.01 104.638 267.56C104.172 267.041 104.309 265.505 105.188 264.275L105.669 264.703C105.761 264.787 105.998 264.65 106.051 264.474L106.861 261.907C106.861 261.785 106.823 261.723 106.701 261.762L104.011 262.64C103.835 262.701 103.698 262.931 103.79 263.015Z" fill="#EBEBEB"/>
<path d="M206.379 175.338L236.687 157.842C237.107 157.598 237.451 157.797 237.451 158.286V188.265C237.436 188.532 237.359 188.791 237.226 189.023C237.094 189.255 236.909 189.453 236.687 189.602L206.379 207.097C205.951 207.342 205.615 207.143 205.615 206.654V176.675C205.629 176.408 205.705 176.148 205.838 175.915C205.97 175.683 206.156 175.485 206.379 175.338Z" fill="#EC287C"/>
<path opacity="0.8" d="M206.379 175.338L236.687 157.842C237.107 157.598 237.451 157.797 237.451 158.286V188.265C237.436 188.532 237.359 188.791 237.226 189.023C237.094 189.255 236.909 189.453 236.687 189.602L206.379 207.097C205.951 207.342 205.615 207.143 205.615 206.654V176.675C205.629 176.408 205.705 176.148 205.838 175.915C205.97 175.683 206.156 175.485 206.379 175.338Z" fill="white"/>
<path d="M229.002 174.849L223.936 183.811L227.497 188.395L215.739 178.264L205.608 200.199V206.624C205.608 207.113 205.952 207.311 206.372 207.067L236.68 189.571C236.902 189.423 237.087 189.225 237.219 188.993C237.352 188.761 237.429 188.501 237.444 188.234V182.596L229.002 174.849Z" fill="#EC287C"/>
<path d="M230.216 165.628C231.477 164.902 232.508 165.49 232.508 166.942C232.465 167.735 232.235 168.507 231.837 169.195C231.438 169.883 230.883 170.467 230.216 170.899C228.956 171.625 227.924 171.037 227.924 169.577C227.969 168.785 228.199 168.014 228.598 167.328C228.996 166.642 229.55 166.059 230.216 165.628Z" fill="#EC287C"/>
<path d="M62.0063 211.628L240.859 108.373C242.211 107.609 243.304 108.221 243.304 109.787V139.911C243.258 140.761 243.013 141.587 242.588 142.324C242.163 143.06 241.571 143.687 240.859 144.152L62.0063 247.414C60.654 248.178 59.5615 247.567 59.5615 246V215.876C59.6058 215.025 59.8504 214.197 60.2752 213.459C60.7 212.721 61.2932 212.094 62.0063 211.628Z" fill="#FAFAFA"/>
<path d="M66.4759 225.403L66.4835 220.101L64.1533 221.43L68.745 213.469L73.3366 216.12L71.0752 217.434V222.752L66.4759 225.403Z" fill="#455A64"/>
<path d="M64.0386 232.921C64.0262 232.416 64.128 231.914 64.3366 231.454C64.4796 231.136 64.717 230.869 65.0165 230.69C65.113 230.604 65.2394 230.56 65.3682 230.567C65.497 230.574 65.6177 230.632 65.7041 230.728C65.9006 230.977 65.996 231.291 65.9715 231.607C65.9669 232.038 65.9079 232.466 65.7958 232.883C65.7347 233.135 65.5819 233.578 65.3451 234.227C65.2839 234.403 65.1846 234.678 65.0624 235.045L64.9554 235.35C64.8867 235.549 64.8332 235.702 64.8026 235.816C64.7992 235.849 64.7992 235.883 64.8026 235.916L65.9563 235.251V236.137L64.0921 237.214V236.382C64.0921 236.382 64.1379 236.229 64.222 235.984L64.3519 235.602L64.5047 235.175L64.9249 234.029C65.084 233.609 65.2192 233.18 65.3298 232.745C65.3921 232.495 65.4279 232.239 65.4367 231.981C65.4485 231.839 65.4136 231.697 65.3374 231.576C65.3202 231.557 65.299 231.541 65.2753 231.53C65.2516 231.52 65.2259 231.514 65.1999 231.514C65.1739 231.514 65.1482 231.52 65.1245 231.53C65.1007 231.541 65.0796 231.557 65.0624 231.576C64.9624 231.651 64.8794 231.746 64.8188 231.856C64.7583 231.965 64.7215 232.086 64.7109 232.21C64.6986 232.33 64.6986 232.45 64.7109 232.569V232.798L64.1303 233.135L64.0386 232.921Z" fill="#37474F"/>
<path d="M68.2481 233.425C68.2462 233.83 68.1522 234.23 67.9731 234.594C67.8357 234.909 67.6068 235.175 67.316 235.358H67.2702C67.1734 235.43 67.0538 235.465 66.9331 235.457C66.8125 235.449 66.699 235.397 66.6131 235.312C66.5151 235.195 66.4409 235.06 66.3951 234.915C66.3492 234.769 66.3324 234.616 66.3457 234.464V233.922C66.3471 233.542 66.4278 233.168 66.5826 232.821C66.6477 232.672 66.727 232.528 66.8194 232.394C66.6666 232.363 66.5444 232.225 66.4527 231.981C66.4074 231.812 66.3868 231.637 66.3916 231.461V231.133C66.3905 230.757 66.4659 230.386 66.6131 230.04C66.7393 229.707 66.9698 229.423 67.2702 229.231H67.316C67.4113 229.151 67.5337 229.111 67.6576 229.12C67.7814 229.128 67.8972 229.185 67.9807 229.276C68.1489 229.52 68.2272 229.814 68.2023 230.109V230.438C68.2049 230.799 68.1348 231.158 67.996 231.492C67.9359 231.625 67.8643 231.753 67.7821 231.874C67.879 231.913 67.9655 231.974 68.0345 232.052C68.1036 232.13 68.1532 232.224 68.1793 232.325C68.2378 232.494 68.2637 232.673 68.2557 232.852L68.2481 233.425ZM67.6827 230.728C67.6827 230.315 67.5911 230.109 67.4306 230.102C67.3818 230.098 67.3332 230.112 67.2931 230.14C67.1856 230.204 67.1003 230.3 67.0486 230.415C66.9916 230.516 66.9552 230.628 66.9417 230.743C66.9289 230.886 66.9289 231.029 66.9417 231.171C66.9315 231.346 66.9602 231.521 67.0257 231.683C67.0868 231.805 67.1861 231.821 67.3237 231.736C67.4784 231.642 67.5906 231.491 67.6369 231.316C67.6817 231.124 67.6972 230.925 67.6827 230.728ZM67.6827 233.371C67.6827 233.012 67.6293 232.806 67.5299 232.745C67.4306 232.684 67.4077 232.745 67.316 232.745C67.2322 232.798 67.1608 232.868 67.1068 232.951C67.0527 233.034 67.0172 233.128 67.0028 233.226C66.9696 233.4 66.9542 233.577 66.9569 233.753V234.044C66.9424 234.188 66.9834 234.333 67.0715 234.449C67.107 234.475 67.1498 234.489 67.1938 234.489C67.2378 234.489 67.2806 234.475 67.316 234.449C67.4966 234.314 67.6172 234.114 67.6522 233.891C67.6643 233.792 67.6643 233.692 67.6522 233.593L67.6827 233.371Z" fill="#37474F"/>
<path d="M68.6533 233.662L69.234 233.326V234.227L68.6533 234.563V233.662Z" fill="#37474F"/>
<path d="M69.6462 229.689C69.6328 229.181 69.7347 228.677 69.9441 228.214C70.0872 227.896 70.3246 227.629 70.6241 227.45C70.7224 227.378 70.8444 227.344 70.966 227.357C71.0876 227.37 71.2001 227.428 71.2811 227.519C71.4776 227.768 71.5731 228.082 71.5485 228.398C71.5439 228.829 71.4849 229.257 71.3728 229.674C71.3117 229.926 71.1589 230.369 70.9221 231.018C70.8609 231.194 70.7616 231.469 70.6394 231.836L70.5324 232.141C70.4637 232.34 70.4102 232.5 70.3796 232.607C70.3491 232.714 70.3796 232.699 70.3796 232.707L71.5333 232.05V232.928L69.6691 234.006V233.18C69.6691 233.18 69.7149 233.028 69.799 232.776L69.9289 232.394L70.0817 231.966C70.1733 231.729 70.3109 231.347 70.5019 230.82C70.661 230.4 70.7962 229.971 70.9068 229.536C70.9726 229.287 71.0085 229.03 71.0137 228.772C71.0255 228.63 70.9906 228.488 70.9144 228.367C70.9001 228.345 70.8812 228.326 70.859 228.312C70.8368 228.298 70.8117 228.289 70.7856 228.285C70.7595 228.282 70.733 228.284 70.7077 228.291C70.6825 228.299 70.6592 228.312 70.6394 228.329C70.5394 228.404 70.4564 228.499 70.3958 228.609C70.3353 228.718 70.2985 228.839 70.2879 228.963C70.2753 229.085 70.2753 229.208 70.2879 229.33V229.559L69.7073 229.888L69.6462 229.689Z" fill="#37474F"/>
<path d="M72.6259 230.369V232.256L72.0376 232.592V226.61L72.6259 226.266V228.436L73.344 225.884L73.9705 225.525L73.2065 228.428L74.108 231.408L73.4128 231.805L72.8016 229.735L72.6259 230.369Z" fill="#37474F"/>
<path d="M77.928 236.366C77.9073 236.367 77.8866 236.364 77.8672 236.357C77.8478 236.35 77.83 236.339 77.815 236.324C77.8 236.31 77.788 236.293 77.7799 236.274C77.7717 236.255 77.7676 236.234 77.7676 236.214V205.096C77.7676 205.053 77.7845 205.012 77.8146 204.982C77.8447 204.952 77.8855 204.935 77.928 204.935C77.9487 204.935 77.9693 204.94 77.9883 204.948C78.0074 204.956 78.0246 204.968 78.0389 204.983C78.0532 204.998 78.0642 205.016 78.0715 205.035C78.0787 205.054 78.0819 205.075 78.0808 205.096V236.214C78.0808 236.254 78.0647 236.293 78.0361 236.322C78.0074 236.35 77.9685 236.366 77.928 236.366Z" fill="#E0E0E0"/>
<path d="M86.3703 202.46C87.8524 201.604 89.0595 202.3 89.0595 203.988C89.0082 204.922 88.738 205.832 88.2709 206.642C87.8038 207.453 87.1528 208.143 86.3703 208.656C84.8423 209.512 83.6733 208.816 83.6733 207.128C83.7232 206.192 83.9934 205.282 84.4621 204.471C84.9308 203.659 85.5846 202.97 86.3703 202.46Z" fill="#EC287C"/>
<path d="M91.6802 202.46C91.6802 203.224 92.3372 203.407 93.1547 202.934L161.051 163.687C161.448 163.462 161.787 163.149 162.041 162.771C162.296 162.393 162.459 161.961 162.518 161.51C162.518 160.784 161.861 160.57 161.051 161.036L93.2082 200.267C92.7984 200.486 92.4464 200.799 92.1808 201.18C91.9152 201.561 91.7436 202 91.6802 202.46Z" fill="#455A64"/>
<path d="M83.6733 216.357C83.6733 217.083 84.3304 217.297 85.1479 216.831L233.937 130.98C234.333 130.756 234.672 130.442 234.927 130.064C235.181 129.686 235.345 129.255 235.404 128.803C235.404 128.039 234.747 127.863 233.937 128.329L85.1479 214.18C84.7496 214.403 84.409 214.716 84.153 215.094C83.897 215.472 83.7328 215.905 83.6733 216.357Z" fill="#E0E0E0"/>
<path d="M83.6733 221.682C83.6733 222.446 84.3304 222.63 85.1479 222.156L233.937 136.305C234.333 136.082 234.672 135.77 234.927 135.394C235.181 135.017 235.345 134.586 235.404 134.135C235.404 133.371 234.747 133.188 233.937 133.654L85.1479 219.505C84.75 219.729 84.4096 220.042 84.1537 220.42C83.8978 220.797 83.7333 221.23 83.6733 221.682Z" fill="#E0E0E0"/>
<path d="M90.0908 224.677C90.0908 225.441 90.7479 225.624 91.5577 225.158L97.5322 221.72C97.9289 221.495 98.2684 221.182 98.5241 220.804C98.7799 220.427 98.945 219.995 99.0067 219.543C99.0067 218.779 98.342 218.596 97.5322 219.069L91.5577 222.507C91.1622 222.731 90.8239 223.043 90.5694 223.42C90.3149 223.796 90.1511 224.227 90.0908 224.677Z" fill="#E0E0E0"/>
<path d="M108.603 213.92C108.603 214.684 109.267 214.867 110.077 214.394L116.052 210.956C116.448 210.731 116.787 210.418 117.041 210.04C117.296 209.662 117.459 209.23 117.518 208.778C117.518 208.014 116.861 207.839 116.052 208.305L110.077 211.743C109.68 211.968 109.341 212.281 109.085 212.659C108.829 213.036 108.664 213.468 108.603 213.92Z" fill="#E0E0E0"/>
<path d="M83.6733 229.506V226.702C83.6823 226.531 83.7321 226.365 83.8185 226.217C83.9049 226.07 84.0254 225.945 84.1699 225.854L87.8066 223.76C88.074 223.608 88.2955 223.76 88.2955 224.043V226.855C88.2862 227.024 88.2371 227.19 88.1521 227.337C88.0672 227.484 87.9488 227.609 87.8066 227.703L84.1699 229.796C83.8949 229.964 83.6733 229.819 83.6733 229.506Z" fill="#EBEBEB"/>
<path d="M85.3921 228.978L86.5839 228.291L85.988 230.01L85.3921 228.978Z" fill="#EBEBEB"/>
<path d="M103.805 215.104L104.286 215.532C102.674 217.969 103.239 219.1 104.653 219.65C104.187 219.13 104.324 217.595 105.203 216.365L105.684 216.793C105.776 216.877 106.013 216.739 106.066 216.563L106.884 213.996C106.884 213.874 106.846 213.805 106.716 213.851L104.034 214.73C103.851 214.791 103.713 215.02 103.805 215.104Z" fill="#EBEBEB"/>
<path d="M184.292 291.397C184.292 286.278 182.711 281.274 177.546 278.295C174.54 276.735 171.182 275.979 167.798 276.102H167.713C163.442 276.108 159.24 277.183 155.489 279.227C152.433 280.984 151.127 283.436 151.135 285.858V291.084C145.191 289.663 137.024 289.854 132.035 292.734C128.536 294.759 126.687 297.318 126.633 299.794V299.839V306.83C126.637 306.873 126.637 306.917 126.633 306.96V307.006C126.595 309.122 127.833 311.131 130.453 312.636C138.536 317.304 155.207 316.938 167.752 315.815L180.954 314.608L183.039 306.968C183.813 304.205 184.232 301.355 184.285 298.487V291.367L184.292 291.397Z" fill="#EC287C"/>
<path opacity="0.15" d="M180.961 307.464V314.615L167.767 315.83C155.214 316.961 138.544 317.358 130.468 312.659C127.856 311.131 126.648 309.137 126.648 307.029V306.983V306.853V299.977C126.648 302.04 127.886 304.019 130.468 305.493C138.544 310.161 155.214 309.794 167.767 308.664L180.961 307.464Z" fill="black"/>
<path opacity="0.3" d="M154.489 292.161C153.4 291.709 152.275 291.349 151.127 291.084V285.843C151.177 287.081 151.505 288.292 152.087 289.386C152.669 290.479 153.49 291.428 154.489 292.161Z" fill="black"/>
<path d="M177.546 278.295C174.54 276.735 171.182 275.979 167.798 276.102H167.714C163.442 276.108 159.24 277.183 155.49 279.227C149.477 282.688 150.21 288.845 154.481 292.215C148.705 289.747 138.04 289.327 132.042 292.795C128.543 294.82 126.694 297.379 126.641 299.855V299.901C126.603 302.009 127.84 304.026 130.461 305.531C138.544 310.199 155.215 309.833 167.759 308.709L180.961 307.502L183.047 299.862C184.995 292.612 185.652 282.963 177.546 278.295Z" fill="#EC287C"/>
<path opacity="0.3" d="M184.292 291.397V298.518C184.242 301.386 183.824 304.236 183.047 306.998L180.961 314.638V307.472L183.047 299.832C183.818 297.084 184.236 294.25 184.292 291.397Z" fill="black"/>
<path d="M258.607 257.506C258.588 257.075 258.451 256.658 258.211 256.3C257.972 255.941 257.638 255.656 257.247 255.474C256.229 254.905 255.14 254.476 254.007 254.198C255.688 253.228 255.169 250.982 253.87 250.241C252.762 249.583 251.523 249.176 250.241 249.049C251.677 247.773 251.081 246.168 249.523 245.275C248.65 244.806 247.693 244.515 246.707 244.418C245.721 244.321 244.725 244.42 243.777 244.709C244.045 244.113 244.236 242.738 242.204 241.569C240.936 240.927 239.529 240.609 238.109 240.645C236.986 240.642 235.882 240.926 234.9 241.47L222.935 248.346C221.279 246.707 219.316 245.409 217.16 244.526C215.432 243.794 213.642 243.219 211.812 242.807C210.877 242.578 209.916 242.475 208.954 242.501C205.486 242.585 202.842 244.228 202.842 244.954V252.097C202.842 252.148 202.856 252.198 202.883 252.242C202.91 252.285 202.949 252.32 202.995 252.342C204.034 252.945 210.268 255.932 211.017 256.971C211.766 258.01 214.295 265.452 214.394 265.788L236.84 278.784C236.84 278.784 254.038 268.852 256.628 267.324C258.003 266.56 258.63 265.551 258.622 264.65V257.506H258.607Z" fill="#EC287C"/>
<path opacity="0.2" d="M214.394 258.698V265.872C214.302 265.543 211.819 258.087 211.024 257.063V249.92C211.819 250.913 214.302 258.37 214.394 258.698Z" fill="black"/>
<path opacity="0.3" d="M236.825 271.617V278.784L214.401 265.841V258.698L236.825 271.617Z" fill="black"/>
<path d="M250.241 249.064C251.523 249.191 252.762 249.598 253.87 250.256C255.169 251.02 255.688 253.243 254.007 254.213C255.14 254.491 256.229 254.92 257.247 255.489C259.141 256.559 259.203 258.698 256.613 260.195L236.825 271.656L214.417 258.736C214.318 258.408 211.835 250.951 211.04 249.927C210.245 248.904 204.057 245.901 203.018 245.298C202.17 244.809 205.012 242.692 208.962 242.601C209.924 242.575 210.885 242.677 211.819 242.906C213.65 243.318 215.44 243.893 217.167 244.625C219.324 245.509 221.286 246.806 222.943 248.445L234.907 241.569C235.889 241.025 236.994 240.741 238.116 240.744C239.537 240.708 240.944 241.026 242.211 241.669C244.243 242.837 244.052 244.213 243.785 244.809C244.733 244.519 245.728 244.42 246.714 244.517C247.7 244.614 248.657 244.905 249.53 245.374C251.081 246.168 251.677 247.773 250.241 249.064Z" fill="#EC287C"/>
<path opacity="0.15" d="M258.614 257.506V264.642C258.614 265.551 257.995 266.529 256.62 267.324C254.03 268.852 236.833 278.784 236.833 278.784V271.617L256.62 260.157C257.988 259.386 258.614 258.408 258.614 257.506Z" fill="black"/>
<path opacity="0.15" d="M211.024 249.889V257.033C210.26 255.986 204.041 253.006 203.002 252.403C202.956 252.379 202.916 252.343 202.889 252.299C202.862 252.254 202.849 252.203 202.85 252.151V245.022C202.851 245.072 202.867 245.12 202.893 245.162C202.92 245.204 202.958 245.237 203.002 245.259C204.041 245.855 210.276 248.842 211.024 249.889Z" fill="black"/>
<path d="M235.434 275.651C235.413 275.477 235.347 275.312 235.243 275.171C235.138 275.03 234.999 274.919 234.838 274.849L211.407 261.326C211.034 261.119 210.619 261.001 210.193 260.982C209.767 260.964 209.343 261.045 208.954 261.219L202.582 264.902C202.465 264.96 202.365 265.048 202.291 265.156C202.218 265.265 202.173 265.39 202.162 265.521V272.664C202.184 272.838 202.25 273.003 202.355 273.143C202.459 273.284 202.598 273.395 202.758 273.466L226.19 286.989C226.562 287.197 226.978 287.315 227.404 287.332C227.83 287.349 228.255 287.266 228.642 287.088L235.014 283.413C235.131 283.355 235.232 283.267 235.305 283.159C235.379 283.051 235.423 282.925 235.434 282.795V275.651Z" fill="#EC287C"/>
<path opacity="0.15" d="M227.512 280.189V287.34C227.05 287.331 226.598 287.213 226.19 286.997L202.758 273.466C202.598 273.396 202.46 273.285 202.356 273.144C202.253 273.003 202.189 272.838 202.17 272.664V265.521C202.196 265.688 202.265 265.846 202.369 265.979C202.473 266.113 202.61 266.218 202.766 266.285L226.198 279.807C226.597 280.042 227.049 280.173 227.512 280.189Z" fill="black"/>
<path d="M202.582 264.902L208.954 261.219C209.343 261.045 209.767 260.964 210.193 260.982C210.619 261.001 211.034 261.119 211.407 261.326L234.838 274.849C235.564 275.269 235.641 275.903 235.014 276.262L228.642 279.945C228.255 280.122 227.83 280.206 227.404 280.189C226.978 280.171 226.562 280.054 226.19 279.846L202.758 266.315C202.032 265.872 201.956 265.261 202.582 264.902Z" fill="#EC287C"/>
<path opacity="0.3" d="M235.442 275.659V282.795C235.437 282.926 235.396 283.053 235.323 283.162C235.25 283.272 235.148 283.358 235.029 283.413L228.65 287.096C228.301 287.274 227.91 287.356 227.519 287.333V280.189C227.91 280.213 228.301 280.131 228.65 279.953L235.029 276.27C235.144 276.211 235.242 276.124 235.314 276.018C235.386 275.911 235.43 275.787 235.442 275.659Z" fill="black"/>
<path d="M314.004 122.515C314.004 122.515 309.855 122.362 306.41 127.863C304.064 131.614 295.867 145.687 295.867 145.687C295.867 145.687 279.922 142.058 279.059 141.309C278.195 140.561 278.218 138.605 278.081 137.589C277.859 135.893 278.6 134.22 278.7 133.562C278.883 132.424 277.065 132.798 276.163 134.517C275.498 135.786 275.453 137.069 274.88 137.214C274.095 136.919 273.344 136.54 272.641 136.084C271.655 135.381 269.868 134.22 268.515 134.754C268.293 134.846 268.096 134.988 267.94 135.17C267.783 135.352 267.671 135.568 267.614 135.801C267.567 136.488 267.396 137.161 267.11 137.787C266.894 138.056 266.714 138.351 266.575 138.666C266.445 139.094 266.636 139.43 266.575 139.873C266.521 140.461 265.872 140.851 265.811 141.439C265.742 141.867 265.979 142.28 265.979 142.715C265.979 142.99 265.872 143.258 265.88 143.533C265.91 143.803 265.999 144.063 266.14 144.295C266.281 144.527 266.471 144.726 266.697 144.877C268.108 145.959 269.717 146.753 271.434 147.215C272.885 147.704 274.803 147.979 276.446 148.376C278.088 148.774 296.89 156.895 299.366 154.84C301.841 152.785 314.409 134.051 314.409 134.051C317.266 126.411 314.004 122.515 314.004 122.515Z" fill="#B16668"/>
<path d="M321.285 120.934C321.285 120.934 316.701 120.383 313.76 121.239C310.818 122.095 308.603 123.333 306.425 126.855C303.53 131.568 298.724 139.659 298.724 139.659C300.885 142.933 304.223 145.25 308.045 146.13L316.892 132.523L321.285 120.934Z" fill="#EC287C"/>
<path d="M337.314 257.346H330.613V268.821H337.314V257.346Z" fill="#B16668"/>
<path d="M318.771 260.234L312.071 260.463L311.735 248.323L318.771 248.094V260.234Z" fill="#B16668"/>
<path d="M340.179 171.648C340.179 178.05 339.048 215.288 339.048 215.288C339.201 217.129 340.973 220.406 341.111 227.038C341.309 236.664 337.604 263.083 337.604 263.083C336.446 263.653 335.178 263.961 333.888 263.986C332.598 264.011 331.318 263.752 330.14 263.229C330.14 263.229 327.084 227.42 325.899 217.893C324.853 209.58 323.073 186.997 323.073 186.997L319.917 214.134C320.698 217.642 320.978 221.243 320.75 224.83C320.437 229.231 319.222 256.513 319.222 256.513C318.054 257.171 316.755 257.565 315.418 257.667C314.08 257.768 312.737 257.575 311.483 257.101C311.483 257.101 306.754 218.214 306.677 214.172C306.593 209.588 308.427 162.526 308.427 162.526L340.179 171.648Z" fill="#37474F"/>
<path d="M335.77 124.532C337.25 125.181 338.412 126.39 339.002 127.894C339.692 129.75 340.023 131.72 339.98 133.7V146.841L340.171 171.64C330.545 176.713 318.313 177.049 308.045 169.555C308.045 169.555 308.618 137.627 308.618 132.409C308.618 132.172 308.618 131.935 308.618 131.691C308.992 124.234 316.334 119.115 323.569 120.995L329.643 122.561L335.755 124.57L335.77 124.532Z" fill="#F0F0F0"/>
<path d="M330.613 265.513V264.55C329.971 264.833 328.482 270.517 325.823 272.954C323.707 274.88 320.826 277.11 320.093 279.257C319.359 281.404 324.111 282.733 326.083 282.382C328.375 281.977 332.355 280.357 333.356 278.86C334.357 277.363 334.823 275.155 335.648 274.054C336.473 272.954 338.337 271.762 338.773 270.456C339.009 269.761 338.727 268.233 338.391 266.942C338.054 265.65 337.741 264.451 337.336 264.558V265.322C336.382 266.075 335.197 266.474 333.982 266.453C332.989 266.453 330.605 266.262 330.613 265.513Z" fill="#263238"/>
<path d="M311.995 258.4C311.651 258.4 311.368 258.904 310.597 259.729C309.451 260.892 308.119 261.852 306.654 262.572C304.148 263.824 299.266 265.757 297.058 266.758C295.676 267.377 295.737 269.05 297.165 269.99C298.594 270.93 302.04 271.625 306.173 270.7C308.427 270.196 311.36 268.118 313.209 268.225C315.058 268.332 318.557 268.309 319.91 267.369C321.262 266.43 320.735 264.405 320.345 262.671C319.925 260.784 319.398 257.835 318.771 257.965V258.614C317.961 259.836 313.805 260.333 312.033 259.431L311.995 258.4Z" fill="#263238"/>
<path d="M323.072 186.997C319.607 185.918 316.42 184.093 313.736 181.649C313.736 181.649 315.539 185.018 320.895 188.158L320.184 211.842L323.072 186.997Z" fill="#263238"/>
<path d="M329.184 99.0526C329.222 100.408 328.987 101.757 328.494 103.02C328.001 104.283 327.26 105.434 326.314 106.406C325.369 107.378 324.238 108.15 322.989 108.678C321.74 109.205 320.398 109.477 319.042 109.477C317.687 109.477 316.345 109.205 315.096 108.678C313.846 108.15 312.716 107.378 311.77 106.406C310.825 105.434 310.084 104.283 309.591 103.02C309.098 101.757 308.863 100.408 308.9 99.0526C308.9 93.4525 313.736 92.3294 319.337 92.3294C324.937 92.3294 329.184 93.4525 329.184 99.0526Z" fill="#263238"/>
<path d="M334.479 106.693C334.479 106.693 332.989 113.714 332.386 114.867C331.988 115.579 331.331 116.11 330.552 116.35L330.652 111.414L334.479 106.693Z" fill="#263238"/>
<path d="M332.607 96.6307C333.13 96.5705 333.66 96.63 334.156 96.8047C334.652 96.9794 335.102 97.2648 335.472 97.6392C336.702 98.8998 336.015 102.834 334.479 106.693L331.667 107.013L332.607 96.6307Z" fill="#263238"/>
<path d="M330.812 107.021C331.377 107.357 332.187 106.257 332.882 105.539C333.578 104.821 335.847 103.82 336.985 106.211C338.123 108.603 335.984 111.857 334.189 112.423C331.133 113.385 330.644 111.414 330.644 111.414L330.544 122.836C325.372 128.787 316.303 125.288 320.376 122.24V118.855C319.002 119.073 317.608 119.145 316.219 119.069C313.927 118.718 312.529 116.93 311.842 114.485C310.734 110.543 310.314 107.365 311.253 99.6103C312.277 91.107 322.163 91.023 327.504 94.3846C332.844 97.7462 330.812 107.021 330.812 107.021Z" fill="#B16668"/>
<path d="M322.966 108.962H322.484C322.058 108.983 321.633 108.917 321.233 108.768C320.833 108.62 320.468 108.392 320.159 108.098C319.85 107.804 319.604 107.45 319.436 107.058C319.268 106.666 319.182 106.244 319.182 105.818C319.182 105.391 319.268 104.969 319.436 104.578C319.604 104.186 319.85 103.832 320.159 103.538C320.468 103.244 320.833 103.016 321.233 102.867C321.633 102.719 322.058 102.653 322.484 102.674H322.966C323.392 102.653 323.817 102.719 324.217 102.867C324.617 103.016 324.982 103.244 325.291 103.538C325.6 103.832 325.846 104.186 326.014 104.578C326.182 104.969 326.268 105.391 326.268 105.818C326.268 106.244 326.182 106.666 326.014 107.058C325.846 107.45 325.6 107.804 325.291 108.098C324.982 108.392 324.617 108.62 324.217 108.768C323.817 108.917 323.392 108.983 322.966 108.962ZM322.484 103.201C322.129 103.182 321.773 103.235 321.439 103.358C321.105 103.481 320.799 103.671 320.541 103.915C320.282 104.16 320.076 104.455 319.936 104.782C319.795 105.109 319.722 105.462 319.722 105.818C319.722 106.174 319.795 106.526 319.936 106.853C320.076 107.18 320.282 107.475 320.541 107.72C320.799 107.965 321.105 108.155 321.439 108.277C321.773 108.4 322.129 108.454 322.484 108.435H322.966C323.321 108.454 323.677 108.4 324.011 108.277C324.345 108.155 324.651 107.965 324.909 107.72C325.168 107.475 325.374 107.18 325.514 106.853C325.655 106.526 325.728 106.174 325.728 105.818C325.728 105.462 325.655 105.109 325.514 104.782C325.374 104.455 325.168 104.16 324.909 103.915C324.651 103.671 324.345 103.481 324.011 103.358C323.677 103.235 323.321 103.182 322.966 103.201H322.484Z" fill="#263238"/>
<path d="M313.378 108.962H312.889C312.463 108.983 312.037 108.917 311.637 108.768C311.238 108.62 310.872 108.392 310.563 108.098C310.255 107.804 310.009 107.45 309.841 107.058C309.673 106.666 309.586 106.244 309.586 105.818C309.586 105.391 309.673 104.969 309.841 104.578C310.009 104.186 310.255 103.832 310.563 103.538C310.872 103.244 311.238 103.016 311.637 102.867C312.037 102.719 312.463 102.653 312.889 102.674H313.378C313.804 102.653 314.229 102.719 314.629 102.867C315.029 103.016 315.394 103.244 315.703 103.538C316.012 103.832 316.258 104.186 316.426 104.578C316.594 104.969 316.68 105.391 316.68 105.818C316.68 106.244 316.594 106.666 316.426 107.058C316.258 107.45 316.012 107.804 315.703 108.098C315.394 108.392 315.029 108.62 314.629 108.768C314.229 108.917 313.804 108.983 313.378 108.962ZM312.889 103.201C312.219 103.237 311.589 103.529 311.128 104.016C310.667 104.502 310.41 105.147 310.41 105.818C310.41 106.488 310.667 107.133 311.128 107.62C311.589 108.107 312.219 108.398 312.889 108.435H313.378C314.047 108.398 314.677 108.107 315.139 107.62C315.6 107.133 315.857 106.488 315.857 105.818C315.857 105.147 315.6 104.502 315.139 104.016C314.677 103.529 314.047 103.237 313.378 103.201H312.889Z" fill="#263238"/>
<path d="M319.352 105.195C319.159 104.934 318.908 104.721 318.619 104.574C318.33 104.427 318.011 104.349 317.686 104.347C317.419 104.317 317.149 104.351 316.897 104.446C316.646 104.542 316.421 104.697 316.242 104.897L315.814 104.576C316.046 104.304 316.34 104.092 316.671 103.959C317.003 103.826 317.362 103.776 317.717 103.812C318.127 103.816 318.531 103.917 318.893 104.109C319.256 104.3 319.568 104.576 319.803 104.912L319.352 105.195Z" fill="#263238"/>
<path d="M332.516 105.172H325.823V105.699H332.516V105.172Z" fill="#263238"/>
<path d="M330.812 107.968C331.095 107.968 332.18 106.181 332.882 105.539C333.853 104.653 332.6 96.6307 332.6 96.6307C333.723 94.2318 331.645 91.4737 329.475 90.6562C327.812 90.1457 326.059 89.9946 324.333 90.2131C322.775 90.3303 321.224 90.5034 319.68 90.7326C317.818 91.0971 315.935 91.3522 314.042 91.4966C312.528 91.5781 311.013 91.3654 309.58 90.8702C309.48 90.832 309.37 90.8226 309.265 90.843C309.159 90.8634 309.061 90.9128 308.981 90.9858C308.902 91.0587 308.845 91.1523 308.816 91.256C308.786 91.3597 308.787 91.4695 308.816 91.573C308.943 91.9759 309.12 92.361 309.344 92.719C309.753 93.4384 310.268 94.0924 310.872 94.6596C311.547 95.2585 312.279 95.7907 313.057 96.2487C317.228 98.7012 322.5 98.4108 327.145 97.7767C328.191 97.6316 328.421 98.6477 328.986 101.421C329.46 103.82 329.865 107.953 330.812 107.968Z" fill="#263238"/>
<path d="M332.6 97.2572L336.015 95.4236C335.906 95.1937 335.752 94.9882 335.562 94.8196C335.371 94.651 335.148 94.5229 334.907 94.4429C334.666 94.3629 334.41 94.3327 334.157 94.3542C333.904 94.3757 333.657 94.4484 333.433 94.5679C332.975 94.8233 332.633 95.2451 332.478 95.7459C332.323 96.2466 332.367 96.7878 332.6 97.2572Z" fill="#263238"/>
<path d="M320.391 118.855C320.391 118.855 325.456 117.832 327.229 116.892C328.27 116.35 329.122 115.506 329.674 114.47C329.409 115.507 328.935 116.479 328.283 117.327C326.992 118.985 320.391 120.2 320.391 120.2V118.855Z" fill="#9A4A4D"/>
<path d="M321.644 105.753C321.641 105.888 321.665 106.023 321.714 106.149C321.763 106.276 321.836 106.391 321.93 106.489C322.023 106.587 322.135 106.665 322.259 106.72C322.383 106.775 322.517 106.804 322.652 106.807C322.927 106.799 323.188 106.683 323.378 106.485C323.568 106.286 323.673 106.02 323.669 105.745C323.681 105.605 323.664 105.464 323.618 105.33C323.573 105.197 323.5 105.074 323.405 104.971C323.31 104.867 323.194 104.784 323.065 104.727C322.936 104.67 322.797 104.641 322.656 104.641C322.515 104.641 322.376 104.67 322.247 104.727C322.118 104.784 322.002 104.867 321.907 104.971C321.812 105.074 321.74 105.197 321.694 105.33C321.649 105.464 321.632 105.605 321.644 105.745V105.753Z" fill="#263238"/>
<path d="M323.241 101.551L325.41 102.75C325.566 102.453 325.6 102.107 325.506 101.786C325.412 101.464 325.197 101.191 324.906 101.024C324.763 100.946 324.605 100.898 324.443 100.883C324.281 100.867 324.117 100.885 323.962 100.934C323.806 100.983 323.662 101.063 323.538 101.169C323.415 101.275 323.313 101.405 323.241 101.551Z" fill="#263238"/>
<path d="M320.88 112.759L318.588 113.63C318.638 113.785 318.72 113.928 318.827 114.052C318.934 114.175 319.065 114.275 319.212 114.346C319.359 114.418 319.519 114.459 319.682 114.467C319.845 114.475 320.008 114.45 320.162 114.394C320.469 114.266 320.715 114.025 320.849 113.72C320.983 113.416 320.994 113.071 320.88 112.759Z" fill="#9A4A4D"/>
<path d="M312.308 102.445L314.287 100.917C314.195 100.782 314.076 100.668 313.939 100.58C313.801 100.493 313.646 100.436 313.485 100.41C313.324 100.385 313.16 100.394 313.002 100.435C312.844 100.476 312.696 100.549 312.568 100.649C312.3 100.857 312.124 101.16 312.075 101.495C312.027 101.829 312.11 102.17 312.308 102.445Z" fill="#263238"/>
<path d="M313.171 105.432C313.171 105.701 313.278 105.96 313.469 106.15C313.66 106.341 313.918 106.448 314.188 106.448C314.457 106.448 314.715 106.341 314.906 106.15C315.097 105.96 315.204 105.701 315.204 105.432C315.207 105.296 315.183 105.161 315.133 105.035C315.084 104.909 315.009 104.793 314.915 104.696C314.82 104.599 314.707 104.521 314.582 104.468C314.457 104.414 314.323 104.386 314.188 104.385C313.915 104.391 313.655 104.504 313.465 104.7C313.275 104.896 313.169 105.159 313.171 105.432Z" fill="#263238"/>
<path d="M318.191 104.653L318.068 110.803L314.432 110.001L318.191 104.653Z" fill="#9A4A4D"/>
<path d="M350.088 158.805C347.956 133.983 343.624 125.915 336.504 124.899C334.044 127.061 333.448 134.64 336.022 139.697C336.022 139.697 341.554 155.291 341.867 160.952C342.017 166.385 341.641 171.819 340.744 177.179C340.606 177.909 340.206 178.564 339.621 179.02C338.093 180.258 338.162 181.511 337.054 182.978C336.183 184.124 335.365 184.506 335.526 184.789C335.757 185.131 336.109 185.374 336.511 185.467C336.914 185.561 337.337 185.499 337.695 185.293C338.393 184.941 339.036 184.491 339.605 183.956C339.138 185.454 338.462 186.879 337.596 188.188C335.572 191.344 335.663 193.124 340.423 192.627C343.403 192.322 345.572 190.213 347.07 183.406C347.498 181.442 348.514 177.852 348.942 175.346C350.149 168.126 350.431 162.801 350.088 158.805Z" fill="#B16668"/>
<path d="M334.479 124.127C334.479 124.127 339.667 124.494 342.287 127.565C344.908 130.636 347.406 135.969 349.163 146.077C349.163 146.077 345.878 150.73 337.313 149.484C337.313 149.484 333.593 136.939 333.257 131.714C332.898 126.06 334.479 124.127 334.479 124.127Z" fill="#EC287C"/>
</svg>
