<svg width="396" height="373" viewBox="0 0 396 373" fill="none" xmlns="http://www.w3.org/2000/svg">
<path d="M264.987 94.3655C264.987 94.3655 223.7 71.3291 176.331 88.8355C128.961 106.342 98.7704 151.877 73.3709 188.146C47.9715 224.415 51.8364 266.356 81.6315 290.246C111.427 314.136 138.434 290.957 184.853 297.482C231.272 304.008 242.574 312.698 285.35 293.177C328.126 273.656 345.542 213.387 323.096 162.827C300.651 112.267 264.987 94.3655 264.987 94.3655Z" fill="#EC287C"/>
<path opacity="0.8" d="M264.987 94.3655C264.987 94.3655 223.7 71.3291 176.331 88.8355C128.961 106.342 98.7704 151.877 73.3709 188.146C47.9715 224.415 51.8364 266.356 81.6315 290.246C111.427 314.136 138.434 290.957 184.853 297.482C231.272 304.008 242.574 312.698 285.35 293.177C328.126 273.656 345.542 213.387 323.096 162.827C300.651 112.267 264.987 94.3655 264.987 94.3655Z" fill="white"/>
<path d="M335.547 338.554C335.547 341.651 273.842 344.163 197.739 344.163C121.635 344.163 59.9307 341.651 59.9307 338.554C59.9307 335.458 121.627 332.938 197.739 332.938C273.85 332.938 335.547 335.45 335.547 338.554Z" fill="#EC287C"/>
<path opacity="0.5" d="M335.547 338.554C335.547 341.651 273.842 344.163 197.739 344.163C121.635 344.163 59.9307 341.651 59.9307 338.554C59.9307 335.458 121.627 332.938 197.739 332.938C273.85 332.938 335.547 335.45 335.547 338.554Z" fill="white"/>
<path d="M316.729 281.951C314.812 284.167 313.517 286.848 312.975 289.725L305.451 293.935V274.035L305.593 274.241L317.592 265.479C319.105 265.716 324.926 266.38 330.264 263.528C336.378 260.218 340.877 248.85 340.877 248.85C340.877 248.85 326.201 247.199 321.227 253.337C318.5 256.524 317.047 260.603 317.149 264.792L305.451 273.34V258.646C307.64 257.629 309.576 256.138 311.117 254.283C312.658 252.427 313.766 250.253 314.361 247.918C316.491 239.647 305.126 223.349 305.126 223.349C305.126 223.349 293.286 240.121 295.622 248.629C297.626 255.834 303.019 258.109 304.627 258.646V290.523L296.208 283.515C296.398 281.84 296.549 276.587 291.86 271.318C286.173 264.942 271.022 265.416 271.022 265.416C271.022 265.416 277.414 278.167 282.902 282.425C287.654 286.138 294.228 284.621 295.804 284.179L304.69 291.565V301.251H291.456L296.842 334.826H312.998L318.384 301.251H305.451V294.844L313.719 290.222C315.731 290.775 321.354 291.929 326.676 289.274C333.305 285.98 338.746 278.87 338.746 278.87C338.746 278.87 322.883 274.865 316.729 281.951Z" fill="#EC287C"/>
<path opacity="0.5" d="M316.729 281.951C314.812 284.167 313.517 286.848 312.975 289.725L305.451 293.935V274.035L305.593 274.241L317.592 265.479C319.105 265.716 324.926 266.38 330.264 263.528C336.378 260.218 340.877 248.85 340.877 248.85C340.877 248.85 326.201 247.199 321.227 253.337C318.5 256.524 317.047 260.603 317.149 264.792L305.451 273.34V258.646C307.64 257.629 309.576 256.138 311.117 254.283C312.658 252.427 313.766 250.253 314.361 247.918C316.491 239.647 305.126 223.349 305.126 223.349C305.126 223.349 293.286 240.121 295.622 248.629C297.626 255.834 303.019 258.109 304.627 258.646V290.523L296.208 283.515C296.398 281.84 296.549 276.587 291.86 271.318C286.173 264.942 271.022 265.416 271.022 265.416C271.022 265.416 277.414 278.167 282.902 282.425C287.654 286.138 294.228 284.621 295.804 284.179L304.69 291.565V301.251H291.456L296.842 334.826H312.998L318.384 301.251H305.451V294.844L313.719 290.222C315.731 290.775 321.354 291.929 326.676 289.274C333.305 285.98 338.746 278.87 338.746 278.87C338.746 278.87 322.883 274.865 316.729 281.951Z" fill="white"/>
<path d="M283.916 91.6479H102.683C97.5826 91.6479 93.4481 95.772 93.4481 100.859V214.785C93.4481 219.873 97.5826 223.997 102.683 223.997H283.916C289.016 223.997 293.151 219.873 293.151 214.785V100.859C293.151 95.772 289.016 91.6479 283.916 91.6479Z" fill="#EC287C" stroke="#263238" stroke-miterlimit="10" stroke-linecap="round"/>
<path opacity="0.7" d="M283.916 91.6479H102.683C97.5826 91.6479 93.4481 95.772 93.4481 100.859V214.785C93.4481 219.873 97.5826 223.997 102.683 223.997H283.916C289.016 223.997 293.151 219.873 293.151 214.785V100.859C293.151 95.772 289.016 91.6479 283.916 91.6479Z" fill="#EC287C" stroke="#263238" stroke-miterlimit="10" stroke-linecap="round"/>
<path d="M177.677 165.639H154.313V178.714H177.677V165.639Z" fill="white"/>
<path d="M177.677 181.076H154.313V194.15H177.677V181.076Z" fill="white"/>
<path d="M203.417 165.639H180.053V178.714H203.417V165.639Z" fill="white"/>
<path d="M229.165 150.195H205.801V163.269H229.165V150.195Z" fill="white"/>
<path d="M229.165 134.75H205.801V147.825H229.165V134.75Z" fill="white"/>
<path d="M229.165 106.208H205.801V116.936H229.165V106.208Z" fill="#263238"/>
<path d="M203.417 106.208H180.053V116.936H203.417V106.208Z" fill="#263238"/>
<path d="M203.417 181.076H180.053V194.15H203.417V181.076Z" fill="white"/>
<path d="M203.417 119.306H180.053V132.38H203.417V119.306Z" fill="white"/>
<path d="M203.417 134.75H180.053V147.825H203.417V134.75Z" fill="white"/>
<path d="M203.417 150.195H180.053V163.269H203.417V150.195Z" fill="white"/>
<path d="M229.165 181.076H205.801V194.15H229.165V181.076Z" fill="white"/>
<path d="M126.189 119.306H101.281V132.38H126.189V119.306Z" fill="white"/>
<path d="M126.189 150.195H101.281V163.269H126.189V150.195Z" fill="white"/>
<path d="M126.189 165.639H101.281V178.714H126.189V165.639Z" fill="white"/>
<path d="M126.189 134.75H101.281V147.825H126.189V134.75Z" fill="white"/>
<path d="M282.198 106.208H257.289V116.936H282.198V106.208Z" fill="#263238"/>
<path d="M126.189 181.076H101.281V194.15H126.189V181.076Z" fill="white"/>
<path d="M254.905 119.306H231.541V132.38H254.905V119.306Z" fill="white"/>
<path d="M229.165 165.639H205.801V178.714H229.165V165.639Z" fill="white"/>
<path d="M254.905 165.639H231.541V178.714H254.905V165.639Z" fill="white"/>
<path d="M254.905 134.75H231.541V147.825H254.905V134.75Z" fill="white"/>
<path d="M254.905 150.195H231.541V163.269H254.905V150.195Z" fill="white"/>
<path d="M254.905 181.076H231.541V194.15H254.905V181.076Z" fill="white"/>
<path d="M229.165 119.306H205.801V132.38H229.165V119.306Z" fill="white"/>
<path d="M282.198 181.076H257.289V194.15H282.198V181.076Z" fill="white"/>
<path d="M254.905 106.208H231.541V116.936H254.905V106.208Z" fill="#263238"/>
<path d="M282.198 165.639H257.289V178.714H282.198V165.639Z" fill="white"/>
<path d="M254.905 196.52H231.541V210.338H254.905V196.52Z" fill="white"/>
<path d="M282.198 150.195H257.289V163.269H282.198V150.195Z" fill="white"/>
<path d="M203.417 196.52H180.053V210.338H203.417V196.52Z" fill="white"/>
<path d="M229.165 196.52H205.801V210.338H229.165V196.52Z" fill="white"/>
<path d="M282.198 134.75H257.289V147.825H282.198V134.75Z" fill="white"/>
<path d="M282.198 196.52H257.289V210.338H282.198V196.52Z" fill="white"/>
<path d="M126.189 196.52H101.281V210.338H126.189V196.52Z" fill="white"/>
<path d="M282.198 119.306H257.289V132.38H282.198V119.306Z" fill="white"/>
<path d="M126.189 106.208H101.281V116.936H126.189V106.208Z" fill="#263238"/>
<path d="M151.929 106.208H128.565V116.936H151.929V106.208Z" fill="#263238"/>
<path d="M151.929 165.639H128.565V178.714H151.929V165.639Z" fill="white"/>
<path d="M177.677 106.208H154.313V116.936H177.677V106.208Z" fill="#263238"/>
<path d="M177.677 134.75H154.313V147.825H177.677V134.75Z" fill="white"/>
<path d="M151.929 181.076H128.565V194.15H151.929V181.076Z" fill="white"/>
<path d="M177.677 119.306H154.313V132.38H177.677V119.306Z" fill="white"/>
<path d="M151.929 119.306H128.565V132.38H151.929V119.306Z" fill="white"/>
<path d="M177.677 150.195H154.313V163.269H177.677V150.195Z" fill="white"/>
<path d="M151.929 150.195H128.565V163.269H151.929V150.195Z" fill="white"/>
<path d="M151.929 196.52H128.565V210.338H151.929V196.52Z" fill="white"/>
<path d="M151.929 134.75H128.565V147.825H151.929V134.75Z" fill="white"/>
<path d="M177.677 196.52H154.313V210.338H177.677V196.52Z" fill="white"/>
<path d="M112.274 98.9949C114.133 98.9949 115.64 97.4917 115.64 95.6374C115.64 93.7831 114.133 92.2799 112.274 92.2799C110.415 92.2799 108.908 93.7831 108.908 95.6374C108.908 97.4917 110.415 98.9949 112.274 98.9949Z" fill="white" stroke="#263238" stroke-miterlimit="10" stroke-linecap="round"/>
<path d="M127.037 95.6374C127.038 94.9711 126.842 94.3194 126.472 93.7647C126.101 93.2101 125.575 92.7775 124.958 92.5218C124.341 92.2661 123.662 92.1988 123.007 92.3284C122.351 92.458 121.75 92.7787 121.277 93.2498C120.805 93.7209 120.483 94.3213 120.354 94.9749C120.224 95.6284 120.291 96.3058 120.547 96.921C120.804 97.5363 121.237 98.0618 121.793 98.431C122.35 98.8002 123.003 98.9965 123.671 98.9949C124.564 98.9949 125.42 98.6412 126.051 98.0115C126.682 97.3819 127.037 96.5279 127.037 95.6374Z" fill="white" stroke="#263238" stroke-miterlimit="10" stroke-linecap="round"/>
<path d="M112.337 97.8257C111.869 97.8257 111.42 97.6401 111.088 97.3097C110.757 96.9793 110.571 96.5312 110.571 96.064V84.1508C110.57 83.9188 110.615 83.6889 110.703 83.4742C110.792 83.2596 110.922 83.0644 111.086 82.9C111.25 82.7356 111.445 82.6051 111.66 82.5161C111.874 82.427 112.105 82.3812 112.337 82.3812C112.808 82.3812 113.259 82.5676 113.592 82.8995C113.925 83.2314 114.111 83.6815 114.111 84.1508V96.064C114.111 96.296 114.065 96.5258 113.976 96.74C113.887 96.9543 113.756 97.1488 113.591 97.3125C113.426 97.4762 113.231 97.6058 113.016 97.6939C112.8 97.7819 112.57 97.8267 112.337 97.8257Z" fill="white" stroke="#263238" stroke-miterlimit="10" stroke-linecap="round"/>
<path d="M123.837 97.8257C123.369 97.8257 122.92 97.6401 122.588 97.3097C122.257 96.9793 122.071 96.5312 122.071 96.064V84.1508C122.07 83.9188 122.115 83.6889 122.203 83.4742C122.292 83.2596 122.421 83.0644 122.586 82.9C122.75 82.7356 122.945 82.6051 123.16 82.5161C123.374 82.427 123.605 82.3812 123.837 82.3812C124.308 82.3812 124.759 82.5676 125.092 82.8995C125.424 83.2314 125.611 83.6815 125.611 84.1508V96.064C125.611 96.296 125.565 96.5258 125.476 96.74C125.387 96.9543 125.256 97.1488 125.091 97.3125C124.926 97.4762 124.731 97.6058 124.516 97.6939C124.3 97.7819 124.07 97.8267 123.837 97.8257Z" fill="white" stroke="#263238" stroke-miterlimit="10" stroke-linecap="round"/>
<path d="M267.633 95.6374C267.634 94.9711 267.438 94.3194 267.067 93.7647C266.697 93.2101 266.17 92.7775 265.554 92.5218C264.937 92.2661 264.258 92.1988 263.603 92.3284C262.947 92.458 262.345 92.7787 261.873 93.2498C261.401 93.7209 261.079 94.3213 260.949 94.9749C260.819 95.6284 260.887 96.3058 261.143 96.921C261.4 97.5363 261.833 98.0618 262.389 98.431C262.945 98.8002 263.599 98.9965 264.267 98.9949C265.159 98.9949 266.016 98.6412 266.647 98.0115C267.278 97.3819 267.633 96.5279 267.633 95.6374Z" fill="white" stroke="#263238" stroke-miterlimit="10" stroke-linecap="round"/>
<path d="M275.656 98.9949C277.515 98.9949 279.022 97.4917 279.022 95.6374C279.022 93.7831 277.515 92.2799 275.656 92.2799C273.797 92.2799 272.29 93.7831 272.29 95.6374C272.29 97.4917 273.797 98.9949 275.656 98.9949Z" fill="white" stroke="#263238" stroke-miterlimit="10" stroke-linecap="round"/>
<path d="M264.322 97.8257C263.854 97.8257 263.404 97.6401 263.073 97.3097C262.742 96.9793 262.556 96.5312 262.556 96.064V84.1508C262.555 83.9188 262.6 83.6889 262.688 83.4742C262.776 83.2596 262.906 83.0644 263.07 82.9C263.235 82.7356 263.43 82.6051 263.644 82.5161C263.859 82.427 264.089 82.3812 264.322 82.3812C264.793 82.3812 265.244 82.5676 265.577 82.8995C265.909 83.2314 266.096 83.6815 266.096 84.1508V96.064C266.096 96.296 266.05 96.5258 265.961 96.74C265.872 96.9543 265.741 97.1488 265.576 97.3125C265.411 97.4762 265.216 97.6058 265 97.6939C264.785 97.7819 264.555 97.8267 264.322 97.8257Z" fill="white" stroke="#263238" stroke-miterlimit="10" stroke-linecap="round"/>
<path d="M275.83 97.8257C275.595 97.8299 275.362 97.7874 275.144 97.7008C274.926 97.6141 274.728 97.485 274.56 97.321C274.393 97.157 274.26 96.9614 274.169 96.7456C274.079 96.5297 274.032 96.298 274.032 96.064V84.1508C274.032 83.6815 274.219 83.2314 274.552 82.8995C274.884 82.5676 275.336 82.3812 275.806 82.3812C276.039 82.3812 276.269 82.427 276.484 82.5161C276.699 82.6051 276.894 82.7356 277.058 82.9C277.222 83.0644 277.352 83.2596 277.44 83.4742C277.528 83.6889 277.573 83.9188 277.572 84.1508V96.064C277.572 96.5272 277.389 96.9717 277.063 97.3014C276.737 97.6311 276.294 97.8195 275.83 97.8257Z" fill="white" stroke="#263238" stroke-miterlimit="10" stroke-linecap="round"/>
<path d="M188.274 98.9949C190.133 98.9949 191.64 97.4917 191.64 95.6374C191.64 93.7831 190.133 92.2799 188.274 92.2799C186.415 92.2799 184.908 93.7831 184.908 95.6374C184.908 97.4917 186.415 98.9949 188.274 98.9949Z" fill="white" stroke="#263238" stroke-miterlimit="10" stroke-linecap="round"/>
<path d="M199.663 98.9949C201.522 98.9949 203.029 97.4917 203.029 95.6374C203.029 93.7831 201.522 92.2799 199.663 92.2799C197.804 92.2799 196.297 93.7831 196.297 95.6374C196.297 97.4917 197.804 98.9949 199.663 98.9949Z" fill="white" stroke="#263238" stroke-miterlimit="10" stroke-linecap="round"/>
<path d="M188.33 97.8257C187.861 97.8257 187.412 97.6401 187.081 97.3097C186.75 96.9793 186.564 96.5312 186.564 96.064V84.1508C186.563 83.9188 186.607 83.6889 186.696 83.4742C186.784 83.2596 186.914 83.0644 187.078 82.9C187.242 82.7356 187.437 82.6051 187.652 82.5161C187.867 82.427 188.097 82.3812 188.33 82.3812C188.8 82.3812 189.252 82.5676 189.584 82.8995C189.917 83.2314 190.104 83.6815 190.104 84.1508V96.064C190.104 96.296 190.058 96.5258 189.969 96.74C189.879 96.9543 189.749 97.1488 189.584 97.3125C189.419 97.4762 189.223 97.6058 189.008 97.6939C188.793 97.7819 188.562 97.8267 188.33 97.8257Z" fill="white" stroke="#263238" stroke-miterlimit="10" stroke-linecap="round"/>
<path d="M199.83 97.8257C199.361 97.8257 198.912 97.6401 198.581 97.3097C198.249 96.9793 198.063 96.5312 198.063 96.064V84.1508C198.062 83.9188 198.107 83.6889 198.196 83.4742C198.284 83.2596 198.414 83.0644 198.578 82.9C198.742 82.7356 198.937 82.6051 199.152 82.5161C199.367 82.427 199.597 82.3812 199.83 82.3812C200.063 82.3812 200.293 82.427 200.508 82.5159C200.724 82.6048 200.919 82.7352 201.084 82.8995C201.249 83.0638 201.379 83.2589 201.469 83.4736C201.558 83.6883 201.604 83.9184 201.604 84.1508V96.064C201.604 96.296 201.558 96.5258 201.468 96.74C201.379 96.9543 201.248 97.1488 201.084 97.3125C200.919 97.4762 200.723 97.6058 200.508 97.6939C200.293 97.7819 200.062 97.8267 199.83 97.8257Z" fill="white" stroke="#263238" stroke-miterlimit="10" stroke-linecap="round"/>
<path d="M117.454 135.888L105.669 146.253" stroke="#263238" stroke-width="2" stroke-linecap="round" stroke-linejoin="round"/>
<path d="M109.296 135.888L117.454 145.557" stroke="#263238" stroke-width="2" stroke-linecap="round" stroke-linejoin="round"/>
<path d="M247.888 121.146L236.103 131.503" stroke="#263238" stroke-width="2" stroke-linecap="round" stroke-linejoin="round"/>
<path d="M239.73 121.146L247.888 130.816" stroke="#263238" stroke-width="2" stroke-linecap="round" stroke-linejoin="round"/>
<path d="M170.66 121.146L158.867 131.503" stroke="#263238" stroke-width="2" stroke-linecap="round" stroke-linejoin="round"/>
<path d="M162.495 121.146L170.66 130.816" stroke="#263238" stroke-width="2" stroke-linecap="round" stroke-linejoin="round"/>
<path d="M274.848 120.854L263.055 131.219" stroke="#263238" stroke-width="2" stroke-linecap="round" stroke-linejoin="round"/>
<path d="M266.682 120.854L274.848 130.524" stroke="#263238" stroke-width="2" stroke-linecap="round" stroke-linejoin="round"/>
<path d="M231.098 243.462C231.098 243.462 228.65 257.161 228.278 265.045C227.906 272.929 229.783 278.554 230.535 286.438C231.288 294.322 236.174 324.532 236.174 326.973C236.311 329.254 235.647 331.511 234.297 333.356C232.793 335.418 227.898 337.306 228.278 338.041C228.658 338.776 230.908 339.921 234.86 338.61C238.812 337.298 239.002 335.979 240.507 335.979C242.011 335.979 245.211 335.039 244.641 332.819C244.071 330.599 241.283 325.883 241.473 317.619C241.845 298.478 240.903 265.479 240.903 265.479L246.922 247.088L231.098 243.462Z" fill="white" stroke="#263238" stroke-linecap="round" stroke-linejoin="round"/>
<path d="M234.503 333.048L234.297 333.356C232.793 335.418 227.898 337.306 228.278 338.041C228.658 338.776 230.908 339.921 234.86 338.61C238.812 337.298 239.002 335.979 240.507 335.979C242.011 335.979 245.211 335.039 244.641 332.819C244.467 332.108 244.063 331.152 243.603 329.92C241.797 331.293 239.879 332.514 237.869 333.57C236.974 333.901 235.644 333.53 234.503 333.048Z" fill="#263238" stroke="#263238" stroke-linecap="round" stroke-linejoin="round"/>
<path d="M247.785 162.566C247.785 162.566 246.898 159.548 246.288 156.862C245.678 154.176 250.248 153.015 255.262 152.517C260.275 152.02 267.363 155.748 269.454 161.673C271.545 167.598 269.787 189.529 270.001 194.316C270.215 199.104 270.69 212.368 265.819 213.197C260.948 214.027 255.824 214.351 251.563 206.024C247.302 197.697 251.975 175.799 252.482 171.398C252.989 166.998 248.039 163.206 248.039 163.206L247.785 162.566Z" fill="#263238" stroke="#263238" stroke-linecap="round" stroke-linejoin="round"/>
<path d="M258.493 156.341C258.493 156.341 258.16 161.365 261.518 164.043C264.877 166.722 269.232 173.081 269.232 178.105" stroke="white" stroke-width="0.5" stroke-linecap="round" stroke-linejoin="round"/>
<path d="M264.876 170.071C264.876 170.071 267.252 178.761 265.209 186.14" stroke="white" stroke-width="0.5" stroke-linecap="round" stroke-linejoin="round"/>
<path d="M239.034 245.816C239.034 245.816 235.074 263.67 238.725 279.099C239.723 283.318 255.111 321.159 256.323 327.21C257.535 333.262 257.535 338.713 259.966 340.83C262.398 342.947 263.926 342.038 262.691 335.079C261.861 331.192 260.53 327.429 258.731 323.884C258.731 323.884 254.177 294.836 253.567 288.484C252.957 282.133 249.322 274.564 249.322 274.564L255.087 249.751L239.034 245.816Z" fill="white" stroke="#263238" stroke-linecap="round" stroke-linejoin="round"/>
<path d="M261.906 331.8C261.613 333.38 260.98 334.747 259.657 334.486C259.038 334.368 258.467 334.07 258.016 333.631C257.566 333.191 257.255 332.628 257.123 332.013C257.717 336.011 258.2 339.305 259.966 340.838C262.39 342.955 263.926 342.046 262.691 335.086C262.492 333.977 262.23 332.88 261.906 331.8Z" fill="#263238" stroke="#263238" stroke-linecap="round" stroke-linejoin="round"/>
<path d="M256.933 330.22H256.861C256.861 330.362 256.901 330.504 256.925 330.639C256.92 330.499 256.923 330.359 256.933 330.22Z" fill="#263238" stroke="#263238" stroke-linecap="round" stroke-linejoin="round"/>
<path d="M244.522 184.615C242.624 185.069 240.967 186.22 239.881 187.838C238.297 190.453 223.542 201.521 222.132 202.722C220.722 203.923 220.92 209.966 224.508 209.966C228.096 209.966 240.245 200.715 240.245 200.715C240.245 200.715 243.873 196.283 245.084 192.262C246.296 188.241 247.144 185.018 244.522 184.615Z" fill="white" stroke="#263238" stroke-linecap="round" stroke-linejoin="round"/>
<path d="M248.553 174.361C247.144 174.361 245.75 177.663 245.75 177.663L244.419 177.861C245.615 176.447 247.144 174.361 247.144 174.361C248.347 172.346 247.936 169.329 247.144 169.534C246.352 169.739 241.093 171.746 240.285 172.749C239.477 173.753 237.054 181.803 236.254 182.608C235.454 183.414 222.132 200.312 220.722 203.938C219.313 207.565 223.138 211.989 226.369 209.777C229.601 207.565 232.42 200.715 233.64 195.92C234.86 191.125 239.897 182.032 239.897 182.032C239.897 182.032 241.069 181.084 242.273 180.025C243.588 179.695 244.884 179.291 246.154 178.817C246.946 178.414 249.179 175.593 249.179 175.593C249.179 175.593 249.963 174.361 248.553 174.361Z" fill="white" stroke="#263238" stroke-linecap="round" stroke-linejoin="round"/>
<path d="M245.164 167.851L241.077 174.313C240.859 174.659 240.774 175.072 240.84 175.475C240.906 175.878 241.117 176.243 241.433 176.502L243.294 178.026C243.475 178.174 243.685 178.282 243.91 178.344C244.136 178.406 244.371 178.42 244.603 178.386C244.834 178.351 245.055 178.269 245.252 178.145C245.45 178.021 245.619 177.856 245.75 177.663L250.082 171.256C250.323 170.898 250.416 170.462 250.344 170.037C250.272 169.613 250.039 169.232 249.694 168.973L247.587 167.393C247.401 167.256 247.188 167.158 246.962 167.106C246.737 167.055 246.502 167.05 246.275 167.093C246.047 167.136 245.831 167.226 245.64 167.356C245.448 167.487 245.286 167.655 245.164 167.851Z" fill="#263238" stroke="#263238" stroke-linecap="round" stroke-linejoin="round"/>
<path d="M259.158 170.79C259.158 170.79 257.978 178.335 257.645 181.218C257.313 184.102 257.4 184.726 259.831 185.002C262.263 185.279 266.278 186.511 267.854 190.224C269.43 193.937 260.275 205.179 257.558 207.604C254.842 210.029 253.63 213.3 254.232 215.86C254.834 218.419 261.938 226.698 261.629 235.096C261.32 243.494 251.143 267.976 251.143 267.976C251.143 267.976 237.576 262.493 227.779 264.326C227.779 264.326 232.404 231.889 235.153 223.341C237.901 214.793 240.697 210.164 240.475 208.331C240.253 206.498 236.832 201.15 237.663 196.631C238.495 192.112 241.417 188.154 242.78 185.697C244.142 183.24 247.064 183.272 248.126 183.391C249.187 183.509 250.692 183.841 251.444 182.695C252.197 181.55 252.87 175.641 252.87 175.641L259.158 170.79Z" fill="#EC287C" stroke="#263238" stroke-linecap="round" stroke-linejoin="round"/>
<path d="M243.397 203.544L249.432 207.896" stroke="#263238" stroke-linecap="round" stroke-linejoin="round"/>
<path d="M248.981 222.361C248.981 222.361 242.93 233.879 241.56 242.111" stroke="#263238" stroke-linecap="round" stroke-linejoin="round"/>
<path d="M241.837 234.156C241.837 234.156 240.182 241.266 239.358 247.586" stroke="#263238" stroke-linecap="round" stroke-linejoin="round"/>
<path d="M265.7 188.02C265.7 188.02 263.68 189.031 261.463 192.452C259.245 195.873 257.226 201.703 257.63 203.109C258.034 204.515 261.867 202.106 261.867 202.106C261.867 202.106 265.914 220.205 269.525 218.806C276.788 215.986 267.11 189.434 267.11 189.434C267.11 189.434 267.11 188.439 265.7 188.02Z" fill="white" stroke="#263238" stroke-linecap="round" stroke-linejoin="round"/>
<path d="M250.106 190.493C246.003 189.482 247.096 185.579 248.118 183.383H248.157C249.227 183.509 250.723 183.833 251.476 182.688C252.228 181.542 252.901 175.633 252.901 175.633L259.158 170.822C259.158 170.822 257.978 178.366 257.646 181.25C257.313 184.133 257.4 184.757 259.831 185.034C259.831 185.002 255.951 191.97 250.106 190.493Z" fill="white" stroke="#263238" stroke-linecap="round" stroke-linejoin="round"/>
<path d="M253.622 156.017C253.237 158.162 253.465 160.371 254.279 162.392C255.634 165.315 261.407 168.712 261.407 168.712C261.407 168.712 263.681 166.342 264.013 168.863C264.346 171.383 263.277 173.847 261.59 173.808C259.903 173.768 259.657 171.896 259.657 171.896C258.161 174.066 255.964 175.659 253.432 176.407C248.949 177.884 246.668 177.624 246.138 174.187C245.607 170.751 246.225 166.816 247.793 162.543C249.361 158.269 252.996 156.096 253.622 156.017Z" fill="white" stroke="#263238" stroke-linecap="round" stroke-linejoin="round"/>
<path d="M270.333 185.421L270.539 182.206C271.536 181.324 272.478 180.382 273.359 179.385C274.571 177.979 275.378 175.965 276.384 176.77C277.39 177.576 274.975 179.994 274.975 179.994L274.769 181.574L278.808 180.373C278.808 180.373 282.641 176.549 282.839 177.553C283.037 178.556 280.819 181.977 279.212 183.794C277.604 185.611 272.757 186.164 272.757 186.164C272.757 186.164 272.551 202.256 272.551 207.091C272.551 211.925 271.949 217.361 270.539 218.356C269.13 219.351 264.686 218.554 265.7 210.709C266.714 202.864 270.333 185.421 270.333 185.421Z" fill="white" stroke="#263238" stroke-linecap="round" stroke-linejoin="round"/>
<path d="M261.867 202.122L260.655 198.298" stroke="#263238" stroke-linecap="round" stroke-linejoin="round"/>
<path d="M151.589 154.469C151.589 154.469 155.224 159.067 155.596 160.078C155.859 160.814 156.076 161.566 156.246 162.329L158.622 164.083C158.696 164.137 158.759 164.205 158.807 164.284C158.854 164.363 158.884 164.45 158.896 164.541C158.908 164.633 158.901 164.725 158.876 164.813C158.85 164.902 158.807 164.984 158.748 165.055L156.951 167.259C156.951 167.259 158.622 172.789 158.535 173.579C158.447 174.369 152.642 176.336 152.642 176.336L152.104 180.57L141.095 180.428L141.055 172.583L136.66 162.313C136.66 162.313 140.596 154.903 151.589 154.469Z" fill="white" stroke="#263238" stroke-linecap="round" stroke-linejoin="round"/>
<path d="M149.688 169.945L151.169 169.787C151.32 170.444 151.605 171.064 152.005 171.607C152.406 172.151 152.914 172.607 153.498 172.947" fill="white"/>
<path d="M149.688 169.945L151.169 169.787C151.32 170.444 151.605 171.064 152.005 171.607C152.406 172.151 152.914 172.607 153.498 172.947" stroke="#263238" stroke-linecap="round" stroke-linejoin="round"/>
<path d="M138.996 154.729C138.996 154.729 134.838 154.927 134.862 160.67C134.885 166.414 140.715 171.73 141.031 172.576C141.348 173.421 144.469 173.026 146.662 172.212C147.889 171.813 148.947 171.015 149.664 169.945C149.664 169.945 147.565 166.895 147.993 165.995C148.421 165.094 150.67 165.955 150.67 165.955C151.168 165.673 151.617 165.313 152.001 164.889C152.381 164.36 154.416 162.076 153.006 160.876C151.597 159.675 149.403 158.948 150.377 157.431C151.351 155.914 154.836 154.437 153.814 151.174C152.793 147.912 150.512 148.014 148.611 149.081C146.71 150.147 146.187 146.711 142.489 148.662C138.79 150.614 137.752 153.465 138.996 154.729Z" fill="#263238" stroke="#263238" stroke-linecap="round" stroke-linejoin="round"/>
<path d="M143.859 165.979C143.78 166.587 143.78 167.203 143.859 167.812" stroke="white" stroke-width="0.5" stroke-linecap="round" stroke-linejoin="round"/>
<path d="M150.274 156.752C150.274 156.752 149.482 158.213 146.314 161.049C145.204 162.043 144.415 163.344 144.049 164.786" stroke="white" stroke-width="0.5" stroke-linecap="round" stroke-linejoin="round"/>
<path d="M151.019 159.651C151.019 159.651 147.795 164.012 146.1 165.307" stroke="white" stroke-width="0.5" stroke-linecap="round" stroke-linejoin="round"/>
<path d="M183.498 154.951C186.773 156.521 190.232 157.678 193.794 158.395C193.794 158.395 188.718 154.966 183.807 154.113C183.356 154.05 183.11 154.753 183.498 154.951Z" fill="#263238" stroke="#263238" stroke-linecap="round" stroke-linejoin="round"/>
<path d="M182.556 180.91L188.607 165.458C188.607 165.458 186.231 161.563 186.231 160.386C186.231 159.209 190.017 154.974 190.017 154.974C190.017 154.974 190.325 152.675 191.973 153.773C192.448 154.1 192.831 154.544 193.084 155.061C193.336 155.579 193.45 156.153 193.414 156.728C194.175 157.797 194.865 158.913 195.481 160.07C195.862 160.986 192.266 166.082 192.266 166.082C192.266 166.082 191.664 180.12 190.08 184.947C188.496 189.774 188.1 190.777 187.047 192.191C185.993 193.605 180.988 191.117 180.988 191.117L182.556 180.91Z" fill="white" stroke="#263238" stroke-linecap="round" stroke-linejoin="round"/>
<path d="M154.891 329.999L164.736 333.57C164.967 333.648 165.178 333.774 165.357 333.939C165.537 334.104 165.679 334.304 165.776 334.528C165.873 334.751 165.922 334.992 165.92 335.235C165.919 335.478 165.866 335.718 165.766 335.94C165.63 336.21 165.394 336.417 165.108 336.516C163.857 336.967 150.852 341.414 147.059 339.811C146.671 339.616 146.345 339.32 146.115 338.953C145.884 338.587 145.759 338.165 145.752 337.733C145.877 334.818 146.197 331.915 146.71 329.043C146.71 329.043 151.541 331.326 154.891 329.999Z" fill="#263238" stroke="#263238" stroke-linecap="round" stroke-linejoin="round"/>
<path d="M165.781 335.948C165.885 335.741 165.943 335.515 165.95 335.284C165.956 335.054 165.912 334.824 165.821 334.612C163.096 335.932 157.307 338.404 152.032 338.499C149.937 338.628 147.834 338.45 145.791 337.97C145.842 338.358 145.984 338.728 146.208 339.05C146.431 339.371 146.728 339.635 147.074 339.819C150.892 341.399 163.873 336.975 165.124 336.524C165.41 336.425 165.646 336.218 165.781 335.948Z" fill="white" stroke="#263238" stroke-linecap="round" stroke-linejoin="round"/>
<path d="M127.599 327.013C127.599 327.013 126.712 335.157 127.187 335.963C127.662 336.769 129.08 337.314 131.519 337.156C132.267 337.14 132.991 336.889 133.588 336.44C134.185 335.99 134.625 335.365 134.846 334.652C135.068 334.067 134.497 328.743 134.482 327.81C134.466 326.878 127.599 327.013 127.599 327.013Z" fill="#263238" stroke="#263238" stroke-linecap="round" stroke-linejoin="round"/>
<path d="M134.87 333.127C134.117 334.573 133.159 335.497 130.672 335.545C129.393 335.596 128.128 335.26 127.045 334.581C127.008 335.046 127.056 335.515 127.187 335.963C127.67 336.753 129.08 337.314 131.52 337.156C132.267 337.14 132.991 336.889 133.588 336.44C134.185 335.99 134.625 335.365 134.846 334.652C134.915 334.146 134.923 333.635 134.87 333.127Z" fill="white" stroke="#263238" stroke-linecap="round" stroke-linejoin="round"/>
<path d="M160.158 233.295C157.847 234.435 155.409 235.302 152.896 235.878L131.06 230.846C131.06 230.846 129.611 243.059 129.65 245.161C129.69 247.262 130.442 285.079 130.442 285.079L127.464 327.581C127.773 328.215 128.261 328.746 128.867 329.108C129.473 329.47 130.172 329.647 130.878 329.62C132.327 329.613 133.758 329.298 135.076 328.695L144.437 284.455L146.52 331.421C146.52 331.421 147.811 332.661 150.757 332.598C151.62 332.569 152.459 332.314 153.191 331.858C153.922 331.401 154.52 330.76 154.923 329.999C154.923 329.999 156.372 311.829 158.535 298.825C160.697 285.822 160.958 250.027 160.958 250.027L160.158 233.295Z" fill="white" stroke="#263238" stroke-linecap="round" stroke-linejoin="round"/>
<path d="M139.392 239.702C142.256 240.321 145.174 240.657 148.104 240.705" stroke="#263238" stroke-linecap="round" stroke-linejoin="round"/>
<path d="M131.298 237.356C131.298 237.356 132.311 238.698 134.996 238.698" stroke="#263238" stroke-linecap="round" stroke-linejoin="round"/>
<path d="M153.45 318.702C153.45 318.702 155.462 294.599 156.808 277.195C157.62 266.945 157.732 256.651 157.141 246.385C157.141 246.385 160.499 242.704 158.147 236.344" stroke="#263238" stroke-linecap="round" stroke-linejoin="round"/>
<path d="M153.45 321.38L152.444 329.082" stroke="#263238" stroke-linecap="round" stroke-linejoin="round"/>
<path d="M144.413 284.463L142.021 252.911L136.438 247.554" stroke="#263238" stroke-linecap="round" stroke-linejoin="round"/>
<path d="M132.715 215.978C132.831 215.619 132.826 215.232 132.702 214.876C132.578 214.519 132.341 214.213 132.026 214.003C129.603 212.368 123.726 209.002 121.849 213.434C121.301 215.164 120.919 216.941 120.709 218.743C120.186 222.29 120.376 246.306 120.4 248.763C120.4 248.896 120.384 249.029 120.352 249.158C120.146 250.098 119.283 254.206 119.885 256.655C120.558 259.444 121.849 261.593 124.043 262.185C126.237 262.778 127.433 260.25 127.092 258.701C126.752 257.153 127.567 255.952 127.227 254.404C126.95 253.156 125.762 249.893 125.31 248.684C125.201 248.386 125.174 248.064 125.231 247.752C125.849 244.592 129.31 226.872 129.571 226.019C129.833 225.166 131.86 218.735 132.715 215.978Z" fill="white" stroke="#263238" stroke-linecap="round" stroke-linejoin="round"/>
<path d="M123.386 257.184C123.386 257.184 126.181 259.136 126.506 260.937" stroke="#263238" stroke-linecap="round" stroke-linejoin="round"/>
<path d="M124.273 255.565C124.273 255.565 126.49 257.011 127.084 258.148" stroke="#263238" stroke-linecap="round" stroke-linejoin="round"/>
<path d="M124.677 253.93L125.469 255.02C125.469 255.02 125.865 259.365 127.1 258.717C128.336 258.069 127.607 252.8 127.607 252.8C127.607 252.8 126.981 251.512 125.049 248.439" fill="white"/>
<path d="M124.677 253.93L125.469 255.02C125.469 255.02 125.865 259.365 127.1 258.717C128.336 258.069 127.607 252.8 127.607 252.8C127.607 252.8 126.981 251.512 125.049 248.439" stroke="#263238" stroke-linecap="round" stroke-linejoin="round"/>
<path d="M124.534 249.387C124.961 250.944 124.923 252.592 124.423 254.127C123.71 255.464 122.917 256.757 122.047 257.998C123.208 259.106 124.296 260.288 125.302 261.537" stroke="#263238" stroke-linecap="round" stroke-linejoin="round"/>
<path d="M125.928 187.475L118.745 213.806C118.745 213.806 124.756 218.664 132.209 218.546L137.016 193.55C137.016 193.55 131.646 181.518 125.928 187.475Z" fill="#263238" stroke="#263238" stroke-linecap="round" stroke-linejoin="round"/>
<path d="M137.808 178.84C137.808 178.84 127.259 184.07 126.269 186.44C125.477 188.415 127.9 202.398 127.948 204.855C127.995 207.312 130.102 228.421 130.672 232.505C131.242 236.589 144.928 238.327 150.139 236.755C155.351 235.183 160.19 234.583 160.158 233.271C160.127 231.96 159.43 220.852 159.715 218.727C160 216.602 162.209 200.66 162.209 200.66L182.097 196.552C182.097 196.552 183.015 195.999 183.039 192.412C183.042 189.027 182.868 185.644 182.516 182.277C179.94 182.893 177.277 183.059 174.644 182.767C169.844 182.34 164.158 181.052 163.144 181.337C162.13 181.621 155.224 180.183 152.951 179.899C149.791 179.472 141.768 176.802 137.808 178.84Z" fill="#263238" stroke="#263238" stroke-linecap="round" stroke-linejoin="round"/>
<path d="M128.953 217.274L126.189 194.15" stroke="white" stroke-width="0.5" stroke-linecap="round" stroke-linejoin="round"/>
<path d="M126.942 204.215L125.595 201.205" stroke="white" stroke-width="0.5" stroke-linecap="round" stroke-linejoin="round"/>
<path d="M162.209 200.62L154.456 201.869" stroke="white" stroke-width="0.5" stroke-linecap="round" stroke-linejoin="round"/>
<path d="M160.499 201.205L154.796 206.561" stroke="white" stroke-width="0.5" stroke-linecap="round" stroke-linejoin="round"/>
<path d="M177.947 183.462C177.947 183.462 172.577 191.496 159.493 194.522" stroke="white" stroke-width="0.5" stroke-linecap="round" stroke-linejoin="round"/>
</svg>
