<svg width="409" height="381" viewBox="0 0 409 381" fill="none" xmlns="http://www.w3.org/2000/svg">
<path d="M150.259 319.02C152.173 319.02 154.128 319.02 156.124 319.02C161.097 318.922 165.686 318.603 169.973 318.112V224.68H150.259V319.02Z" fill="#EC287C"/>
<path d="M186.725 314.93C193.553 313.095 200.16 310.522 206.431 307.257V224.639H186.725V314.93Z" fill="#EC287C"/>
<path d="M223.183 297.114C229.727 292.885 235.764 289.204 242.897 287.363V224.68H223.183V297.114Z" fill="#EC287C"/>
<path d="M259.65 286.488C266.701 287.306 273.131 289.179 279.364 291.2V224.68H259.65V286.488Z" fill="#EC287C"/>
<path d="M56.8514 254.463C57.9966 257.599 59.2372 260.664 60.5733 263.658V224.68H50.1602C51.1562 234.845 53.4037 244.849 56.8514 254.463Z" fill="#EC287C"/>
<path d="M77.3257 290.218C82.9911 296.587 89.6482 301.998 97.0395 306.243V224.68H77.3257V290.218Z" fill="#EC287C"/>
<path d="M113.792 313.58C120.219 315.61 126.817 317.047 133.506 317.875V224.68H113.792V313.58Z" fill="#EC287C"/>
<path d="M296.116 296.255C302.561 297.866 309.26 298.188 315.83 297.204V224.68H296.116V296.255Z" fill="#EC287C"/>
<path d="M343.986 115.035C338.447 103.877 331.619 93.4056 323.642 83.8368C290.145 44.172 222.496 56.5402 196.451 77.0147C170.406 97.4892 169.154 126.029 146.815 133.457C124.475 140.884 107.109 126.635 77.3258 144.631C57.1702 156.811 48.6958 185.76 49.5138 214.741H363.102C363.258 212.377 363.389 210.062 363.479 207.821C364.997 175.736 358.287 143.796 343.986 115.035ZM79.0108 175.314L75.2562 173.342L71.5016 175.314L72.2214 171.134L69.1785 168.173L73.3748 167.559L75.2562 163.755L77.1376 167.559L81.334 168.173L78.291 171.134L79.0108 175.314ZM164.729 183.567L159.314 190.594L157.056 182.005L148.737 179.019L156.173 174.226L156.443 165.391L163.289 170.978L171.78 168.508L168.582 176.753L173.555 184.058L164.729 183.567ZM206.611 129.015L205.907 134.119L202.283 130.455L197.212 131.354L199.592 126.79L197.138 122.242L202.226 123.06L205.801 119.346L206.619 124.434L211.249 126.692L206.611 129.015ZM225.768 207.698L221.678 205.539L217.588 207.698L218.406 203.126L215.077 199.854L219.674 199.183L221.727 195.028L223.781 199.183L228.378 199.854L225.048 203.126L225.768 207.698ZM282.726 73.3092L280.574 72.1803L278.423 73.3092L278.832 70.9124L277.098 69.2192L279.503 68.8674L280.574 66.6915L281.646 68.8674L284.051 69.2192L282.317 70.9124L282.726 73.3092ZM346.53 186.627L341.106 183.772L335.667 186.627L336.705 180.574L332.305 176.279L338.382 175.396L341.106 169.89L343.83 175.396L349.908 176.279L345.507 180.574L346.53 186.627Z" fill="#EC287C"/>
<path d="M332.583 291.404C333.523 290.914 334.472 290.39 335.437 289.826C342.758 285.564 348.223 277.899 352.296 268.484V224.68H332.583V291.404Z" fill="#EC287C"/>
<g opacity="0.7">
<path d="M150.259 319.02C152.173 319.02 154.128 319.02 156.124 319.02C161.097 318.922 165.686 318.603 169.973 318.112V224.68H150.259V319.02Z" fill="white"/>
<path d="M186.725 314.93C193.553 313.095 200.16 310.522 206.431 307.257V224.639H186.725V314.93Z" fill="white"/>
<path d="M223.183 297.114C229.727 292.885 235.764 289.204 242.897 287.363V224.68H223.183V297.114Z" fill="white"/>
<path d="M259.65 286.488C266.701 287.306 273.131 289.179 279.364 291.2V224.68H259.65V286.488Z" fill="white"/>
<path d="M56.8514 254.463C57.9966 257.599 59.2372 260.664 60.5733 263.658V224.68H50.1602C51.1562 234.845 53.4037 244.849 56.8514 254.463Z" fill="white"/>
<path d="M77.3257 290.218C82.9911 296.587 89.6482 301.998 97.0395 306.243V224.68H77.3257V290.218Z" fill="white"/>
<path d="M113.792 313.58C120.219 315.61 126.817 317.047 133.506 317.875V224.68H113.792V313.58Z" fill="white"/>
<path d="M296.116 296.255C302.561 297.866 309.26 298.188 315.83 297.204V224.68H296.116V296.255Z" fill="white"/>
<path d="M343.986 115.035C338.447 103.877 331.619 93.4056 323.642 83.8368C290.145 44.172 222.496 56.5402 196.451 77.0147C170.406 97.4892 169.154 126.029 146.815 133.457C124.475 140.884 107.109 126.635 77.3258 144.631C57.1702 156.811 48.6958 185.76 49.5138 214.741H363.102C363.258 212.377 363.389 210.062 363.479 207.821C364.997 175.736 358.287 143.796 343.986 115.035ZM79.0108 175.314L75.2562 173.342L71.5016 175.314L72.2214 171.134L69.1785 168.173L73.3748 167.559L75.2562 163.755L77.1376 167.559L81.334 168.173L78.291 171.134L79.0108 175.314ZM164.729 183.567L159.314 190.594L157.056 182.005L148.737 179.019L156.173 174.226L156.443 165.391L163.289 170.978L171.78 168.508L168.582 176.753L173.555 184.058L164.729 183.567ZM206.611 129.015L205.907 134.119L202.283 130.455L197.212 131.354L199.592 126.79L197.138 122.242L202.226 123.06L205.801 119.346L206.619 124.434L211.249 126.692L206.611 129.015ZM225.768 207.698L221.678 205.539L217.588 207.698L218.406 203.126L215.077 199.854L219.674 199.183L221.727 195.028L223.781 199.183L228.378 199.854L225.048 203.126L225.768 207.698ZM282.726 73.3092L280.574 72.1803L278.423 73.3092L278.832 70.9124L277.098 69.2192L279.503 68.8674L280.574 66.6915L281.646 68.8674L284.051 69.2192L282.317 70.9124L282.726 73.3092ZM346.53 186.627L341.106 183.772L335.667 186.627L336.705 180.574L332.305 176.279L338.382 175.396L341.106 169.89L343.83 175.396L349.908 176.279L345.507 180.574L346.53 186.627Z" fill="white"/>
<path d="M332.583 291.404C333.523 290.914 334.472 290.39 335.437 289.826C342.758 285.564 348.223 277.899 352.296 268.484V224.68H332.583V291.404Z" fill="white"/>
</g>
<path d="M274.316 350.628C299.159 350.628 319.298 347.573 319.298 343.805C319.298 340.038 299.159 336.983 274.316 336.983C249.474 336.983 229.334 340.038 229.334 343.805C229.334 347.573 249.474 350.628 274.316 350.628Z" fill="#EC287C"/>
<path opacity="0.5" d="M274.316 350.628C299.159 350.628 319.298 347.573 319.298 343.805C319.298 340.038 299.159 336.983 274.316 336.983C249.474 336.983 229.334 340.038 229.334 343.805C229.334 347.573 249.474 350.628 274.316 350.628Z" fill="white"/>
<path d="M137.203 340.705C155.879 340.705 171.019 337.651 171.019 333.883C171.019 330.115 155.879 327.061 137.203 327.061C118.527 327.061 103.387 330.115 103.387 333.883C103.387 337.651 118.527 340.705 137.203 340.705Z" fill="#EC287C"/>
<path opacity="0.5" d="M137.203 340.705C155.879 340.705 171.019 337.651 171.019 333.883C171.019 330.115 155.879 327.061 137.203 327.061C118.527 327.061 103.387 330.115 103.387 333.883C103.387 337.651 118.527 340.705 137.203 340.705Z" fill="white"/>
<path d="M120.762 316.165L137.98 309C136.778 307.028 135.576 307.961 134.038 304.77C133.22 303.134 133.94 300.5 132.909 298.39C132.091 296.664 129.547 295.568 128.565 293.588C127.674 291.805 128.32 289.147 127.355 287.224C126.389 285.302 123.911 284.353 122.946 282.48C121.98 280.607 122.61 277.973 121.637 276.132C120.663 274.292 118.119 273.277 117.146 271.461C116.173 269.646 116.688 266.922 115.69 265.147C114.692 263.371 112.066 262.341 111.06 260.631C109.931 258.717 110.348 256.009 109.31 254.382C108.042 252.402 105.4 251.682 104.328 250.292C102.316 247.674 101.236 244.795 100.238 244.991C99.24 245.187 100.107 248.083 100.655 251.535C100.933 253.253 99.6408 255.625 100.213 257.924C100.671 259.772 102.929 261.31 103.551 263.421C104.099 265.31 103.003 267.805 103.649 269.842C104.295 271.879 106.569 273.179 107.232 275.167C107.894 277.155 106.856 279.633 107.526 281.588C108.197 283.543 110.553 284.909 111.232 286.832C111.911 288.754 110.954 291.347 111.641 293.245C112.328 295.143 114.741 296.582 115.42 298.439C116.181 300.492 115.24 303.044 115.911 304.836C116.729 307.012 119.126 308.337 119.755 309.981C121.121 313.572 119.199 313.507 120.328 316.386L120.762 316.165Z" fill="#2E353A"/>
<path d="M102.217 250.791L127.821 312.296" stroke="white" stroke-width="0.360849" stroke-miterlimit="10"/>
<path d="M107.592 256.124L105.792 259.707L102.226 257.605" stroke="white" stroke-width="0.360849" stroke-miterlimit="10"/>
<path d="M112.041 266.823L110.25 270.414L106.684 268.312" stroke="white" stroke-width="0.360849" stroke-miterlimit="10"/>
<path d="M116.238 276.893L114.447 280.484L110.872 278.382" stroke="white" stroke-width="0.360849" stroke-miterlimit="10"/>
<path d="M121.228 288.869L119.428 292.46L115.862 290.357" stroke="white" stroke-width="0.360849" stroke-miterlimit="10"/>
<path d="M126.267 300.975L124.475 304.566L120.909 302.464" stroke="white" stroke-width="0.360849" stroke-miterlimit="10"/>
<path d="M118.815 311.413L146.905 310.521C146.258 307.102 144.074 307.773 143.633 302.464C143.404 299.781 145.776 296.386 145.449 292.869C145.179 289.973 142.226 287.093 141.899 283.781C141.604 280.795 143.935 277.392 143.6 274.169C143.273 271.126 140.279 268.288 139.927 265.13C139.575 261.973 141.858 258.586 141.481 255.486C141.105 252.386 138.054 249.588 137.645 246.488C137.236 243.388 139.428 239.846 138.97 236.819C138.496 233.613 135.371 230.921 134.88 227.968C134.316 224.696 136.352 221.081 135.755 218.251C135.027 214.774 131.665 212.345 130.929 209.792C129.506 205.032 129.514 200.394 128.001 200.14C126.487 199.886 126.16 204.418 125.105 209.531C124.573 212.099 121.473 214.782 121.064 218.3C120.729 221.146 123.085 224.516 122.823 227.813C122.586 230.774 119.714 233.703 119.551 236.909C119.379 239.936 121.89 243.183 121.751 246.341C121.612 249.498 118.839 252.418 118.741 255.535C118.643 258.652 121.195 261.825 121.154 264.901C121.113 267.977 118.348 271.118 118.299 274.153C118.25 277.359 120.884 280.509 120.851 283.486C120.851 286.758 118.136 289.883 118.127 292.77C118.127 296.263 120.778 299.404 120.786 302.071C120.786 307.846 118.119 306.734 118.168 311.388L118.815 311.413Z" fill="#2E353A"/>
<path d="M127.641 209.416L130.839 309.736" stroke="white" stroke-width="0.543628" stroke-miterlimit="10"/>
<path d="M132.361 219.797L127.911 223.887L124.009 219.02" stroke="white" stroke-width="0.543628" stroke-miterlimit="10"/>
<path d="M132.917 237.253L128.467 241.351L124.565 236.484" stroke="white" stroke-width="0.543628" stroke-miterlimit="10"/>
<path d="M133.441 253.678L128.991 257.768L125.089 252.901" stroke="white" stroke-width="0.543628" stroke-miterlimit="10"/>
<path d="M134.062 273.212L129.612 277.31L125.719 272.443" stroke="white" stroke-width="0.543628" stroke-miterlimit="10"/>
<path d="M134.692 292.959L130.242 297.057L126.34 292.19" stroke="white" stroke-width="0.543628" stroke-miterlimit="10"/>
<path d="M135.731 248.312C137.17 249.302 141.048 249.948 141.056 249.948C141.064 249.948 140.712 247.265 140.672 247.093C140.164 245.155 138.054 241.711 135.821 241.588C135.449 241.577 135.078 241.644 134.734 241.785C134.39 241.926 134.079 242.138 133.822 242.408C133.565 242.677 133.367 242.997 133.242 243.348C133.118 243.699 133.068 244.072 133.097 244.443C133.162 246.038 134.496 247.461 135.731 248.312Z" fill="#2E353A"/>
<path d="M174.611 256.729C174.611 256.729 175.813 254.275 175.87 254.136C176.517 252.247 176.688 248.206 174.864 246.864C174.56 246.65 174.214 246.502 173.849 246.431C173.484 246.359 173.108 246.365 172.745 246.448C172.382 246.532 172.041 246.69 171.744 246.914C171.447 247.138 171.2 247.422 171.02 247.748C170.202 249.106 170.529 251.02 171.085 252.41C171.78 254.038 174.611 256.729 174.611 256.729Z" fill="#2E353A"/>
<path d="M188.852 244.975C186.709 244.32 183.527 246.807 182.382 248.451C182.284 248.59 180.983 250.987 181.024 250.995H181.073C180.566 251.38 180.034 251.813 179.437 252.279C178.382 253.163 177.187 254.177 175.969 255.363C174.641 256.626 173.387 257.964 172.214 259.371C170.895 260.944 169.718 262.63 168.697 264.41V264.476C168.836 263.838 169.155 262.022 169.163 261.891C169.286 259.895 168.345 255.96 166.267 255.142C165.916 255.015 165.542 254.962 165.169 254.989C164.797 255.016 164.434 255.121 164.105 255.298C163.776 255.475 163.488 255.72 163.26 256.016C163.032 256.311 162.869 256.652 162.782 257.016C162.357 258.537 163.183 260.288 164.083 261.49C165.106 262.832 168.32 264.566 168.582 264.705C167.587 266.554 166.715 268.467 165.973 270.431C165.539 271.568 165.155 272.721 164.737 273.891C164.836 273.335 164.926 272.828 164.926 272.762C165.048 270.766 164.108 266.832 162.038 266.014C161.688 265.887 161.315 265.836 160.944 265.863C160.573 265.89 160.212 265.994 159.884 266.17C159.556 266.346 159.268 266.589 159.041 266.884C158.813 267.178 158.65 267.517 158.562 267.879C158.128 269.4 158.954 271.151 159.854 272.353C160.754 273.556 163.486 275.093 164.214 275.486L163.772 276.836C163.077 278.987 162.398 281.147 161.67 283.241C161.408 283.977 161.13 284.697 160.852 285.408C160.934 284.918 161.007 284.492 161.016 284.435C161.138 282.431 160.198 278.504 158.12 277.686C157.77 277.559 157.397 277.506 157.025 277.532C156.654 277.559 156.292 277.664 155.963 277.84C155.635 278.016 155.348 278.259 155.12 278.554C154.893 278.849 154.73 279.189 154.643 279.552C154.218 281.073 155.036 282.824 155.944 284.026C156.852 285.228 159.314 286.619 160.165 287.093C159.862 287.813 159.551 288.55 159.224 289.237C158.987 289.703 158.791 290.169 158.529 290.627C158.267 291.085 158.03 291.535 157.784 291.977C157.277 292.795 156.754 293.695 156.238 294.513C155.887 295.077 155.543 295.609 155.191 296.149C155.453 295.413 155.944 293.973 156.009 293.85C156.318 292.118 156.177 290.335 155.6 288.672C155.648 288.479 155.675 288.282 155.682 288.083C155.707 287.712 155.653 287.34 155.524 286.99C155.395 286.641 155.194 286.323 154.933 286.057C154.673 285.791 154.36 285.582 154.014 285.445C153.668 285.308 153.297 285.245 152.926 285.261C150.692 285.417 148.615 288.885 148.14 290.824C148.14 290.938 147.944 292.214 147.846 293.024C147.846 292.541 147.846 292.075 147.797 291.576C147.797 290.595 147.682 289.613 147.617 288.558C147.559 288.051 147.51 287.535 147.453 287.02C147.396 286.505 147.306 285.965 147.232 285.433C147.036 284.198 146.774 282.979 146.48 281.719C147.347 281.719 150.398 281.507 151.739 280.836C153.081 280.165 154.594 278.946 154.889 277.392C154.969 277.029 154.972 276.652 154.897 276.288C154.822 275.923 154.672 275.578 154.455 275.276C154.238 274.973 153.96 274.72 153.639 274.532C153.317 274.344 152.96 274.226 152.59 274.185C150.357 273.997 147.788 277.114 147.02 278.954C146.97 279.077 146.57 280.459 146.357 281.228C146.177 280.484 146.005 279.74 145.801 278.987C145.204 276.836 144.533 274.668 143.87 272.5L143.281 270.513C143.584 270.513 147.224 270.374 148.729 269.621C150.063 268.958 151.584 267.731 151.87 266.177C151.952 265.814 151.956 265.438 151.882 265.074C151.809 264.709 151.659 264.364 151.443 264.061C151.226 263.759 150.949 263.505 150.628 263.317C150.307 263.129 149.95 263.011 149.58 262.971C147.347 262.783 144.77 265.899 144.001 267.748C143.944 267.887 143.363 269.883 143.24 270.398C142.815 268.934 142.422 267.478 142.046 266.022C141.558 264.06 141.2 262.068 140.975 260.059C141.114 260.059 144.909 259.936 146.455 259.167C147.788 258.504 149.31 257.277 149.596 255.723C149.678 255.36 149.682 254.984 149.608 254.62C149.535 254.255 149.385 253.91 149.169 253.607C148.952 253.305 148.675 253.051 148.354 252.863C148.033 252.675 147.676 252.557 147.306 252.517C145.073 252.328 142.496 255.445 141.727 257.286C141.678 257.408 141.236 258.922 141.04 259.658H140.917C140.737 257.63 140.737 255.591 140.917 253.564C141.007 252.451 141.154 251.388 141.318 250.357C142.03 250.406 145.277 250.603 146.741 250.063C148.206 249.523 149.784 248.5 150.242 246.987C150.363 246.634 150.408 246.26 150.374 245.889C150.34 245.519 150.229 245.159 150.046 244.834C149.864 244.509 149.616 244.226 149.317 244.004C149.018 243.781 148.676 243.624 148.312 243.543C146.112 243.11 143.216 245.924 142.251 247.674C142.193 247.772 141.768 248.795 141.433 249.547C141.514 249.089 141.588 248.607 141.678 248.165C142.005 246.529 142.406 244.999 142.774 243.674C142.987 242.921 143.191 242.243 143.396 241.613C144.116 241.294 147.011 239.977 148.042 238.864C149.073 237.752 150.022 236.075 149.735 234.512C149.678 234.148 149.546 233.799 149.346 233.489C149.147 233.178 148.885 232.913 148.577 232.709C148.269 232.506 147.922 232.369 147.558 232.308C147.194 232.247 146.821 232.262 146.463 232.353C144.32 232.983 143.044 236.811 142.987 238.815C142.987 238.987 143.224 241.694 143.265 241.678C143.06 242.283 142.84 242.93 142.627 243.649C142.226 244.966 141.809 246.463 141.433 248.132C141.02 249.917 140.714 251.726 140.516 253.547C140.278 255.586 140.226 257.642 140.361 259.69C140.357 259.715 140.357 259.74 140.361 259.764C140.116 259.159 139.388 257.474 139.314 257.351C138.324 255.617 135.371 252.844 133.187 253.31C132.826 253.398 132.486 253.562 132.192 253.789C131.897 254.017 131.654 254.304 131.477 254.632C131.301 254.959 131.195 255.321 131.167 255.692C131.139 256.063 131.189 256.436 131.314 256.787C131.797 258.292 133.457 259.314 134.864 259.805C136.459 260.361 140.099 260.034 140.386 260.001C140.569 262.085 140.894 264.154 141.359 266.194C141.613 267.38 141.915 268.574 142.234 269.76C142.005 269.237 141.801 268.778 141.768 268.713C140.77 266.979 137.825 264.214 135.633 264.68C135.271 264.767 134.931 264.93 134.636 265.157C134.34 265.385 134.096 265.672 133.92 266C133.743 266.328 133.637 266.69 133.61 267.061C133.582 267.433 133.633 267.806 133.76 268.157C134.242 269.662 135.903 270.676 137.318 271.175C138.733 271.674 141.858 271.453 142.676 271.388C142.807 271.838 142.921 272.296 143.052 272.746C143.666 274.93 144.287 277.106 144.827 279.249C145.024 280.01 145.179 280.762 145.343 281.515C145.146 281.057 144.975 280.697 144.942 280.607C143.944 278.873 140.999 276.108 138.807 276.574C138.445 276.662 138.106 276.826 137.812 277.053C137.517 277.281 137.274 277.568 137.097 277.896C136.92 278.223 136.815 278.584 136.786 278.956C136.758 279.327 136.808 279.7 136.934 280.05C137.416 281.556 139.077 282.578 140.492 283.069C141.907 283.56 144.729 283.372 145.703 283.29C145.85 284.067 145.997 284.844 146.095 285.605C146.161 286.12 146.251 286.619 146.283 287.143C146.316 287.666 146.365 288.173 146.406 288.689C146.455 289.67 146.504 290.684 146.521 291.642C146.521 292.312 146.521 292.95 146.521 293.588C146.341 292.836 145.956 291.363 145.907 291.241C145.187 289.376 142.692 286.194 140.459 286.333C140.088 286.365 139.729 286.475 139.403 286.655C139.077 286.835 138.793 287.081 138.569 287.378C138.345 287.675 138.185 288.016 138.101 288.378C138.016 288.74 138.009 289.117 138.079 289.482C138.332 291.044 139.813 292.304 141.138 293.008C142.586 293.777 146.095 294.014 146.529 294.038C146.529 295.102 146.529 296.132 146.529 297.106C146.48 300.165 146.332 302.75 146.193 304.664L147.674 304.959C147.772 302.995 147.87 300.304 147.862 297.114C147.862 296.034 147.862 294.889 147.797 293.703C148.903 293.497 149.996 293.224 151.069 292.885C151.96 294.325 154.57 296.312 154.905 296.566C154.324 297.458 153.752 298.316 153.204 299.118C151.486 301.613 149.932 303.666 148.778 305.188L150.414 305.498C151.502 304.01 152.868 302.104 154.316 299.854C154.913 298.954 155.527 297.981 156.148 296.975C156.549 297.139 159.797 298.488 161.441 298.439C162.938 298.39 164.827 297.916 165.744 296.623C165.968 296.327 166.128 295.988 166.213 295.626C166.298 295.265 166.306 294.89 166.237 294.525C166.167 294.16 166.022 293.814 165.81 293.509C165.598 293.204 165.325 292.947 165.007 292.754C163.052 291.65 159.412 293.4 157.94 294.75C157.85 294.832 157.007 295.805 156.484 296.386C156.737 295.969 156.983 295.568 157.236 295.143C157.752 294.325 158.234 293.449 158.758 292.533L159.47 291.159C159.723 290.709 159.928 290.194 160.157 289.711C160.672 288.574 161.138 287.396 161.58 286.202C162.324 286.652 164.966 288.19 166.488 288.37C168.009 288.55 169.915 288.37 171.011 287.233C171.28 286.974 171.49 286.663 171.63 286.318C171.769 285.973 171.835 285.602 171.822 285.23C171.809 284.858 171.717 284.493 171.554 284.159C171.39 283.825 171.158 283.528 170.872 283.29C169.114 281.899 165.245 283.077 163.584 284.198C163.486 284.263 162.382 285.196 161.784 285.719C162.046 284.999 162.308 284.288 162.553 283.543C163.24 281.417 163.879 279.241 164.525 277.073C164.721 276.41 164.926 275.748 165.13 275.093C165.392 275.249 168.492 277.147 170.161 277.351C171.65 277.531 173.588 277.351 174.684 276.214C174.952 275.956 175.163 275.644 175.303 275.299C175.442 274.954 175.508 274.584 175.495 274.212C175.481 273.84 175.39 273.475 175.227 273.14C175.063 272.806 174.831 272.51 174.545 272.271C172.787 270.881 168.917 272.059 167.257 273.179C167.134 273.261 165.547 274.611 165.163 274.971C165.605 273.515 166.063 272.067 166.578 270.66C167.253 268.756 168.051 266.898 168.966 265.097C169.089 265.171 172.32 267.167 174.03 267.371C175.519 267.56 177.457 267.371 178.553 266.234C178.822 265.976 179.032 265.665 179.172 265.32C179.311 264.975 179.377 264.604 179.364 264.232C179.351 263.86 179.259 263.495 179.096 263.161C178.932 262.826 178.7 262.53 178.414 262.292C176.656 260.909 172.787 262.087 171.126 263.2C171.02 263.273 169.809 264.296 169.245 264.836L169.146 264.754C170.12 262.967 171.251 261.269 172.525 259.682C173.212 258.807 173.924 257.997 174.627 257.228C175.191 257.654 177.793 259.609 179.314 259.969C180.836 260.329 182.717 260.337 183.936 259.331C184.23 259.103 184.473 258.816 184.649 258.488C184.825 258.16 184.93 257.798 184.957 257.427C184.984 257.056 184.932 256.683 184.806 256.333C184.679 255.983 184.48 255.664 184.222 255.396C182.627 253.825 178.66 254.578 176.86 255.494C176.762 255.551 175.838 256.165 175.175 256.631C175.494 256.288 175.821 255.928 176.14 255.609C177.335 254.406 178.496 253.367 179.535 252.468C180.124 251.952 180.672 251.502 181.171 251.093C181.948 251.224 185.081 251.731 186.562 251.363C188.042 250.995 189.76 250.128 190.374 248.672C190.542 248.333 190.636 247.962 190.649 247.584C190.662 247.205 190.595 246.829 190.451 246.479C190.307 246.129 190.089 245.813 189.814 245.554C189.538 245.295 189.21 245.097 188.852 244.975Z" fill="#2E353A"/>
<path d="M168.615 304.329H107.731V312.386H168.615V304.329Z" fill="#2E353A"/>
<path d="M159.044 335.552H117.293L112.074 311.494H164.263L159.044 335.552Z" fill="#2E353A"/>
<path d="M108.246 182.414L107.632 240.443C107.632 240.443 105.178 241.678 98.3727 241.678C91.5669 241.678 89.1129 240.443 89.1129 240.443L91.5669 216.983C91.5669 216.983 82.937 215.134 82.937 212.68C82.937 210.226 102.07 142.332 102.07 142.332C102.07 142.332 111.951 159.567 108.246 182.414Z" fill="#EC287C" stroke="#2E353A" stroke-miterlimit="10"/>
<path d="M91.5752 216.974L99.5752 180.001" stroke="#2E353A" stroke-miterlimit="10"/>
<path d="M94.6675 142.283C94.6675 142.283 105.776 157.097 107.011 163.273C108.246 169.449 108.246 182.414 108.246 182.414C111.869 173.327 114.156 163.764 115.036 154.021C116.271 138.586 103.927 130.561 103.927 130.561L94.6675 142.283Z" fill="#2E353A" stroke="#2E353A" stroke-miterlimit="10"/>
<path d="M303.413 182.414L304.027 240.443C304.027 240.443 306.481 241.678 313.286 241.678C320.092 241.678 322.546 240.443 322.546 240.443L320.092 216.983C320.092 216.983 328.722 215.134 328.722 212.68C328.722 210.226 309.581 142.332 309.581 142.332C309.581 142.332 299.708 159.567 303.413 182.414Z" fill="#EC287C" stroke="#2E353A" stroke-miterlimit="10"/>
<path d="M320.076 216.974L312.656 173.98" stroke="#2E353A" stroke-miterlimit="10"/>
<path d="M316.992 142.283C316.992 142.283 305.875 157.097 304.64 163.273C303.405 169.449 303.413 182.406 303.413 182.406C299.785 173.32 297.496 163.756 296.615 154.013C295.38 138.577 307.732 130.553 307.732 130.553L316.992 142.283Z" fill="#2E353A" stroke="#2E353A" stroke-miterlimit="10"/>
<path d="M316.902 142.283C283.253 122.383 244.877 111.884 205.784 111.884C166.692 111.884 128.316 122.383 94.6674 142.283L75.1826 109.334C73.7838 106.994 75.1008 103.608 78.1683 101.923C117.166 80.122 161.099 68.6758 205.776 68.6758C250.454 68.6758 294.387 80.122 333.384 101.923C336.444 103.632 337.769 106.994 336.37 109.334L316.902 142.283Z" fill="#EC287C"/>
<path d="M316.902 142.283C283.253 122.383 244.877 111.884 205.784 111.884C166.692 111.884 128.316 122.383 94.6674 142.283L75.1826 109.334C73.7838 106.994 75.1008 103.608 78.1683 101.923C117.166 80.122 161.099 68.6758 205.776 68.6758C250.454 68.6758 294.387 80.122 333.384 101.923C336.444 103.632 337.769 106.994 336.37 109.334L316.902 142.283Z" stroke="#2E353A" stroke-miterlimit="10"/>
<path d="M129.811 124.563C129.059 124.803 128.389 124.819 127.801 124.608C127.24 124.389 126.695 123.935 126.167 123.245L109.544 101.373C108.953 100.58 108.768 99.8113 108.989 99.0655C109.238 98.3108 109.878 97.7686 110.907 97.4388C111.658 97.1982 112.301 97.1919 112.834 97.4199C113.358 97.6201 113.866 98.0558 114.357 98.7268L129.008 118.608L127.338 119.142L128.06 94.3839C128.097 93.5435 128.267 92.8757 128.568 92.3803C128.87 91.8849 129.354 91.5302 130.022 91.3163C130.69 91.1025 131.277 91.114 131.782 91.3509C132.287 91.5879 132.804 92.0513 133.332 92.7413L148.039 112.512L146.579 112.98L147.078 88.2464C147.097 87.4428 147.257 86.7933 147.558 86.2979C147.86 85.8025 148.372 85.439 149.096 85.2073C149.986 84.9221 150.738 85.0187 151.351 85.4972C151.965 85.9756 152.261 86.709 152.24 87.6974L151.348 115.226C151.31 116.066 151.126 116.738 150.797 117.243C150.468 117.747 149.927 118.12 149.176 118.36C148.425 118.601 147.769 118.612 147.208 118.392C146.647 118.173 146.102 117.719 145.575 117.029L131.682 98.6537L132.642 98.3463L131.94 121.442C131.903 122.282 131.719 122.954 131.39 123.459C131.088 123.954 130.562 124.322 129.811 124.563Z" fill="#2E353A"/>
<path d="M157.637 116.186C156.692 116.388 155.91 116.301 155.29 115.925C154.693 115.514 154.293 114.836 154.091 113.891L148.854 89.4536C148.652 88.5087 148.742 87.7408 149.124 87.1497C149.529 86.5239 150.204 86.1098 151.149 85.9073L166.481 82.6218C167.197 82.4684 167.781 82.5379 168.233 82.8304C168.714 83.1167 169.028 83.6034 169.175 84.2906C169.328 85.0064 169.247 85.6077 168.933 86.0944C168.64 86.5464 168.136 86.8491 167.42 87.0025L154.45 89.7818L156.235 98.1138L168.261 95.5369C169.005 95.3774 169.603 95.4438 170.055 95.7363C170.507 96.0287 170.81 96.5329 170.963 97.2487C171.117 97.9645 171.047 98.5484 170.755 99.0003C170.462 99.4523 169.944 99.7581 169.199 99.9176L157.174 102.494L159.061 111.299L172.031 108.519C172.747 108.366 173.331 108.436 173.783 108.728C174.263 109.014 174.58 109.515 174.734 110.231C174.887 110.947 174.803 111.534 174.482 111.992C174.19 112.444 173.685 112.747 172.97 112.9L157.637 116.186Z" fill="#2E353A"/>
<path d="M177.856 112.448C176.959 112.565 176.233 112.411 175.676 111.984C175.116 111.527 174.777 110.851 174.66 109.954L171.372 84.9206C171.251 83.995 171.391 83.2704 171.793 82.7469C172.22 82.1906 172.882 81.8536 173.779 81.7359C174.675 81.6181 175.387 81.7747 175.915 82.2057C176.467 82.6039 176.804 83.2658 176.926 84.1913L179.968 107.36L192.55 105.707C193.331 105.605 193.951 105.73 194.409 106.081C194.896 106.429 195.189 106.979 195.287 107.731C195.386 108.483 195.247 109.105 194.87 109.596C194.518 110.054 193.952 110.334 193.171 110.437L177.856 112.448Z" fill="#2E353A"/>
<path d="M208.721 110.24C205.509 110.355 202.727 109.812 200.374 108.609C198.05 107.377 196.232 105.6 194.921 103.279C193.609 100.929 192.895 98.1333 192.779 94.8924C192.692 92.469 192.965 90.2812 193.597 88.3291C194.227 86.3477 195.175 84.6474 196.44 83.2281C197.704 81.7796 199.271 80.6564 201.143 79.8585C203.043 79.0304 205.19 78.5735 207.584 78.4878C209.19 78.4303 210.774 78.5783 212.336 78.9316C213.898 79.285 215.277 79.8204 216.472 80.5377C217.099 80.8953 217.524 81.3478 217.748 81.8953C217.972 82.4135 218.034 82.9375 217.936 83.4673C217.837 83.9678 217.604 84.4 217.237 84.764C216.899 85.1269 216.454 85.3475 215.901 85.4258C215.377 85.4738 214.786 85.3049 214.129 84.9191C213.203 84.3676 212.21 83.9792 211.149 83.754C210.089 83.5289 209.018 83.4356 207.938 83.4743C205.865 83.5485 204.128 84.0346 202.728 84.9325C201.328 85.8305 200.291 87.0954 199.619 88.7274C198.946 90.3594 198.652 92.3434 198.735 94.6792C198.818 96.9858 199.254 98.9436 200.042 100.553C200.83 102.161 201.955 103.364 203.416 104.159C204.877 104.955 206.644 105.315 208.717 105.241C209.827 105.201 210.917 105.031 211.988 104.729C213.058 104.399 214.064 103.924 215.007 103.306C215.635 102.903 216.199 102.722 216.697 102.763C217.224 102.773 217.668 102.933 218.03 103.241C218.392 103.55 218.64 103.95 218.775 104.443C218.908 104.906 218.897 105.403 218.74 105.935C218.583 106.437 218.248 106.888 217.736 107.286C216.599 108.175 215.221 108.882 213.602 109.408C212.012 109.903 210.385 110.181 208.721 110.24Z" fill="#2E353A"/>
<path d="M230.921 111.223C227.941 110.955 225.385 110.062 223.254 108.545C221.152 107.03 219.594 105.034 218.58 102.558C217.568 100.051 217.207 97.1913 217.496 93.9775C217.715 91.5526 218.261 89.4075 219.136 87.5423C220.013 85.6479 221.156 84.072 222.566 82.8145C224.007 81.5305 225.666 80.6048 227.543 80.0374C229.452 79.4434 231.531 79.2477 233.781 79.4501C236.79 79.721 239.346 80.6137 241.448 82.1283C243.553 83.6136 245.112 85.5948 246.126 88.0717C247.14 90.5487 247.503 93.3941 247.213 96.6079C246.995 99.0328 246.447 101.193 245.57 103.087C244.693 104.981 243.533 106.571 242.093 107.855C240.681 109.141 239.02 110.082 237.111 110.676C235.234 111.243 233.171 111.425 230.921 111.223ZM231.355 106.402C233.254 106.573 234.9 106.28 236.294 105.521C237.717 104.766 238.854 103.587 239.705 101.985C240.585 100.385 241.129 98.4313 241.337 96.1232C241.653 92.6172 241.108 89.8291 239.704 87.7588C238.329 85.6912 236.21 84.5285 233.347 84.2708C231.477 84.1025 229.831 84.3962 228.408 85.1517C226.988 85.878 225.837 87.041 224.957 88.6406C224.109 90.2136 223.579 92.1687 223.369 94.5061C223.056 97.9828 223.6 100.771 225.002 102.87C226.403 104.97 228.521 106.147 231.355 106.402Z" fill="#2E353A"/>
<path d="M245.976 113.266C245.181 113.074 244.625 112.699 244.309 112.142C243.993 111.584 243.931 110.908 244.123 110.113L250.307 84.5107C250.506 83.6871 250.884 83.1172 251.442 82.801C252.006 82.4563 252.685 82.3801 253.481 82.5721C254.191 82.7436 254.71 83.0194 255.039 83.3994C255.403 83.7579 255.677 84.3049 255.86 85.0405L261.679 107.05L260.316 106.721L275.541 89.7945C276.039 89.2236 276.518 88.8584 276.978 88.6989C277.444 88.5109 278.032 88.5027 278.742 88.6742C279.537 88.8663 280.093 89.241 280.409 89.7983C280.732 90.3271 280.794 91.0034 280.595 91.827L274.411 117.429C274.219 118.224 273.855 118.798 273.319 119.149C272.812 119.508 272.146 119.587 271.323 119.388C270.528 119.196 269.972 118.822 269.656 118.264C269.339 117.707 269.277 117.031 269.469 116.236L274.234 96.512L275.171 96.7384L262.284 110.893C261.883 111.307 261.499 111.59 261.132 111.742C260.765 111.894 260.311 111.904 259.772 111.774C259.232 111.644 258.819 111.424 258.534 111.114C258.255 110.776 258.042 110.349 257.896 109.833L252.817 91.2935L253.839 91.5405L249.064 111.307C248.872 112.102 248.508 112.675 247.973 113.027C247.465 113.385 246.8 113.465 245.976 113.266Z" fill="#2E353A"/>
<path d="M278.405 121.896C277.505 121.548 276.9 121.048 276.589 120.395C276.316 119.725 276.353 118.941 276.701 118.041L285.702 94.7866C286.051 93.8874 286.546 93.2959 287.188 93.012C287.869 92.7114 288.658 92.7351 289.557 93.0831L304.148 98.7307C304.829 98.9944 305.278 99.3719 305.495 99.8632C305.74 100.365 305.735 100.943 305.482 101.597C305.218 102.278 304.822 102.735 304.293 102.969C303.802 103.186 303.215 103.163 302.534 102.899L290.192 98.1219L287.123 106.051L298.566 110.48C299.275 110.754 299.737 111.137 299.954 111.628C300.172 112.12 300.148 112.706 299.885 113.387C299.621 114.068 299.243 114.517 298.752 114.734C298.261 114.952 297.661 114.923 296.953 114.649L285.509 110.219L282.266 118.598L294.609 123.375C295.29 123.639 295.739 124.016 295.956 124.508C296.2 125.009 296.191 125.601 295.927 126.282C295.663 126.963 295.272 127.407 294.754 127.614C294.262 127.831 293.676 127.808 292.995 127.544L278.405 121.896Z" fill="#2E353A"/>
<path d="M276.631 180.451C276.631 180.451 266.226 172.762 261.228 168.999C256.23 165.236 247.666 154.438 245.523 149.694C244.462 147.252 243.272 144.868 241.956 142.553C241.956 142.553 242.946 137.784 242.946 136.606C242.946 135.428 241.989 133.874 241.384 132.876C241.081 132.377 238.93 129.522 238.93 131.698C238.93 133.399 239.952 134.25 239.952 135.273C238.575 134.512 237.441 133.378 236.68 132.001C235.486 129.792 234.979 128.933 234.292 129.449C233.073 130.365 234.635 132.721 234.635 132.721C234.635 132.721 234.292 129.449 232.59 129.988C231.609 130.283 232.934 133.056 233.613 134.25C234.292 135.444 233.269 133.432 233.441 135.444C233.564 136.941 235.273 140.622 236.852 142.43C237.425 143.093 238.758 142.888 238.897 143.117C239.404 143.935 244.86 156.582 248.607 162.888C252.353 169.195 254.578 171.068 257.645 174.136C260.713 177.203 264.803 182.488 268.378 185.04C271.952 187.592 273.834 186.578 275.879 184.868C277.924 183.158 278.226 182.185 276.631 180.451Z" fill="white" stroke="#2E353A" stroke-linecap="round" stroke-linejoin="round"/>
<path d="M239.895 135.264C239.895 135.264 238.357 138.168 239.077 139.354" stroke="#2E353A" stroke-linecap="round" stroke-linejoin="round"/>
<path d="M234.611 132.712L235.977 135.264" stroke="#2E353A" stroke-linecap="round" stroke-linejoin="round"/>
<path d="M236.14 141.064C234.966 139.574 233.939 137.975 233.073 136.287C232.394 134.586 232.909 130.839 233.932 131.518C234.954 132.197 234.611 135.952 234.611 135.952L236.656 138.332" fill="white"/>
<path d="M236.14 141.064C234.966 139.574 233.939 137.975 233.073 136.287C232.394 134.586 232.909 130.839 233.932 131.518C234.954 132.197 234.611 135.952 234.611 135.952L236.656 138.332" stroke="#2E353A" stroke-linecap="round" stroke-linejoin="round"/>
<path d="M278.832 159.199C278.832 159.199 273.605 157.293 274.554 150.635C275.503 143.976 281.212 147.305 281.212 147.305C281.212 147.305 275.486 139.69 287.159 138.029C298.832 136.369 307.388 146.831 310.243 158.479C313.098 170.128 295.012 171.322 297.629 180.132C300.247 188.942 310.48 198.946 308.811 211.06C307.143 223.175 290.496 229.874 282.881 223.429C275.265 216.983 272.173 207.019 276.484 197.956C280.795 188.893 283.143 178.209 284.329 173.416C285.515 168.623 278.832 159.199 278.832 159.199Z" fill="#2E353A" stroke="#2E353A" stroke-linecap="round" stroke-linejoin="round"/>
<path d="M297.547 168.099C290.39 165.236 286.709 153.579 286.709 147.035C286.709 140.491 295.911 143.763 295.911 143.763C295.911 143.763 286.913 145.399 291.412 154.193C295.911 162.986 303.887 165.645 307.977 162.986" stroke="white" stroke-width="0.75" stroke-linecap="round" stroke-linejoin="round"/>
<path d="M296.116 174.439C296.116 174.439 289.777 176.484 291.617 184.459C293.458 192.435 307.568 202.455 303.478 212.68C299.388 222.905 292.231 226.995 283.642 223.928" stroke="white" stroke-width="0.75" stroke-linecap="round" stroke-linejoin="round"/>
<path d="M293.048 176.074C293.048 176.074 286.095 178.937 285.277 189.162C284.459 199.387 292.844 208.181 288.958 213.293C285.073 218.406 278.733 217.792 276.688 214.725" stroke="white" stroke-width="0.75" stroke-linecap="round" stroke-linejoin="round"/>
<path d="M277.171 170.381C277.171 170.381 277.883 172.999 275.535 177.048C273.188 181.097 271.969 182.038 271.969 182.038L280.533 181.326L286.006 171.33C286.006 171.33 277.646 172.05 277.171 170.381Z" fill="white" stroke="#2E353A" stroke-linecap="round" stroke-linejoin="round"/>
<path d="M285.736 148.254C285.736 148.254 277.409 155.87 275.74 162.528C274.071 169.187 276.214 173.473 279.315 173.473C282.415 173.473 288.828 170.856 288.828 170.856C288.828 170.856 290.734 172.492 292.632 171.575C293.175 171.313 293.638 170.909 293.973 170.407C294.308 169.906 294.503 169.323 294.538 168.721C294.538 168.721 281.45 155.87 285.736 148.254Z" fill="white" stroke="#2E353A" stroke-linecap="round" stroke-linejoin="round"/>
<path d="M282.21 159.682C281.638 160.41 280.951 160.819 280.664 160.598C280.378 160.377 280.607 159.608 281.18 158.88C281.752 158.152 282.439 157.743 282.717 157.964C282.996 158.185 282.775 158.954 282.21 159.682Z" fill="#2E353A"/>
<path d="M286.169 163.829C285.605 164.565 284.91 164.974 284.623 164.753C284.337 164.533 284.574 163.764 285.139 163.036C285.703 162.308 286.398 161.89 286.685 162.111C286.971 162.332 286.734 163.101 286.169 163.829Z" fill="#2E353A"/>
<path d="M281.834 161.236C280.863 161.578 279.928 162.017 279.044 162.545C278.3 163.101 279.601 163.845 279.601 163.845" stroke="#2E353A" stroke-width="0.75" stroke-linecap="round" stroke-linejoin="round"/>
<path d="M277.368 165.702C277.501 166.307 277.828 166.852 278.299 167.255C278.77 167.658 279.359 167.897 279.977 167.935C281.146 168.11 282.338 167.845 283.323 167.191" stroke="#2E353A" stroke-width="0.75" stroke-linecap="round" stroke-linejoin="round"/>
<path d="M282.022 154.913C282.614 154.82 283.218 154.964 283.704 155.313C284.191 155.662 284.521 156.188 284.623 156.778" stroke="#2E353A" stroke-width="0.75" stroke-linecap="round" stroke-linejoin="round"/>
<path d="M286.3 159.567C286.3 159.567 289.458 160.68 288.533 163.101" stroke="#2E353A" stroke-width="0.75" stroke-linecap="round" stroke-linejoin="round"/>
<path d="M255.085 333.081C255.085 333.081 250.684 336.018 249.212 336.746C247.74 337.474 241.515 338.578 241.327 340.231C241.138 341.883 244.443 342.799 248.116 342.799C251.789 342.799 256.181 342.799 258.382 343.167C260.582 343.535 262.055 344.263 262.971 341.883C263.887 339.503 262.415 333.261 262.415 333.261C262.415 333.261 258.57 334.734 255.085 333.081Z" fill="#EC287C" stroke="#2E353A" stroke-linecap="round" stroke-linejoin="round"/>
<path d="M256.729 267.797C256.729 267.797 254.169 279.715 254.169 283.568C254.169 287.421 255.633 312.361 256.001 319.323C256.179 323.928 255.872 328.54 255.085 333.081C255.085 333.081 258.202 334.546 259.486 334.546C260.77 334.546 262.414 333.261 262.414 333.261C262.414 333.261 266.087 317.122 266.087 308.509C266.087 299.895 266.815 294.938 266.087 289.433C265.359 283.928 262.815 273.85 263.699 270.177C264.582 266.504 259.486 262.292 256.729 267.797Z" fill="#2E353A" stroke="#2E353A" stroke-linecap="round" stroke-linejoin="round"/>
<path d="M256.705 215.134C256.705 215.134 253.58 236.287 253.58 251.985C253.58 267.682 260.247 286.488 261.907 289.106C263.568 291.723 278.087 317.891 281.417 323.364C283.772 327.513 285.723 331.879 287.241 336.402C288.402 336.76 289.597 336.998 290.807 337.114C292.002 337.114 293.662 335.691 293.662 335.691C293.662 335.691 285.94 305.515 282.848 297.67C279.756 289.826 273.359 283.633 271.699 280.574C270.038 277.515 269.318 265.58 269.318 265.58C269.318 265.58 279.069 250.12 280.77 241.793C282.472 233.465 277.883 224.132 275.977 220.86C274.731 218.63 273.619 216.327 272.648 213.964C272.648 213.964 262.66 219.87 256.705 215.134Z" fill="#2E353A" stroke="#2E353A" stroke-linecap="round" stroke-linejoin="round"/>
<path d="M274.791 206.545C274.791 206.545 280.738 188.23 282.153 183.944C283.568 179.657 281.433 177.997 275.012 178.708C268.59 179.42 257.408 184.434 256.934 189.891C256.459 195.347 258.57 198.455 258.57 201.073C258.57 203.69 254.807 215.134 257.67 217.49C260.533 219.846 269.564 219.126 272.181 215.854C274.799 212.582 274.791 206.545 274.791 206.545Z" fill="#EC287C" stroke="#2E353A" stroke-linecap="round" stroke-linejoin="round"/>
<path d="M276.631 180.451C276.976 183.444 276.239 186.461 274.554 188.958C271.699 193.473 265.278 191.813 265.752 186.815C266.226 181.817 272.28 177.67 276.631 180.451Z" fill="white" stroke="#2E353A" stroke-linecap="round" stroke-linejoin="round"/>
<path d="M272.574 187.535C273.348 187.411 274.085 187.117 274.73 186.672C275.376 186.228 275.914 185.645 276.306 184.967C276.698 184.288 276.933 183.53 276.995 182.749C277.057 181.968 276.944 181.183 276.664 180.451C276.487 179.946 276.179 179.497 275.773 179.15C275.366 178.802 274.875 178.568 274.349 178.471C270.259 177.76 252.459 179.183 247.936 178.708C243.412 178.234 226.292 167.764 221.76 163.723C217.228 159.682 215.576 157.539 215.576 155.87C215.576 154.201 214.382 150.397 213.433 149.211C212.484 148.025 210.815 145.637 210.815 145.637C210.815 145.637 209.179 145.637 209.392 146.594C209.779 147.662 210.255 148.697 210.815 149.686C210.815 149.686 206.054 146.831 204.868 145.596C204.749 145.431 204.597 145.294 204.421 145.191C204.246 145.089 204.051 145.025 203.849 145.003C203.647 144.98 203.443 145 203.25 145.062C203.056 145.123 202.877 145.224 202.725 145.359L205.343 148.213C205.343 148.213 205.105 150.119 206.979 153.211C208.396 155.323 210.167 157.175 212.214 158.684C212.214 158.684 221.727 169.866 228.868 176.05C236.01 182.234 242.66 186.046 248.615 186.995C253.866 187.878 262.063 189.457 272.574 187.535Z" fill="white" stroke="#2E353A" stroke-linecap="round" stroke-linejoin="round"/>
<path d="M287.274 336.403C287.274 336.403 283.511 340.419 280.942 342.063C278.374 343.707 275.069 344.82 275.625 346.284C276.182 347.748 282.987 347.568 286.259 347.38C289.531 347.192 296.157 344.108 297.262 343.347C298.366 342.587 293.695 335.691 293.695 335.691C293.695 335.691 290.12 337.703 287.274 336.403Z" fill="#EC287C" stroke="#2E353A" stroke-linecap="round" stroke-linejoin="round"/>
<path d="M286.3 347.38C289.572 347.2 296.198 344.108 297.302 343.347C297.605 343.143 297.458 342.456 297.098 341.58C293.373 343.427 289.44 344.822 285.384 345.736C280.018 346.881 276.975 346.341 275.609 345.908C275.605 346.036 275.624 346.163 275.666 346.284C276.173 347.748 282.955 347.568 286.3 347.38Z" fill="#2E353A" stroke="#2E353A" stroke-linecap="round" stroke-linejoin="round"/>
<path d="M262.971 341.924C263.134 341.438 263.225 340.931 263.241 340.419C261.785 341.597 260.73 341.041 258.382 341.188C255.445 341.376 254.349 341.376 248.296 341.376C245.926 341.434 243.567 341.043 241.343 340.223C241.347 340.239 241.347 340.256 241.343 340.272C241.163 341.908 244.46 342.84 248.132 342.84C251.805 342.84 256.198 342.84 258.398 343.208C260.599 343.576 262.055 344.264 262.971 341.924Z" fill="#2E353A" stroke="#2E353A" stroke-linecap="round" stroke-linejoin="round"/>
<path d="M269.318 265.547C269.318 265.547 269.997 254.226 271.249 251.985C272.5 249.744 275.478 246.758 277.466 245.016" stroke="white" stroke-width="0.75" stroke-linecap="round" stroke-linejoin="round"/>
</svg>
