<svg width="410" height="397" viewBox="0 0 410 397" fill="none" xmlns="http://www.w3.org/2000/svg">
<path d="M345.327 106.823C345.327 106.823 324.72 64.9656 279.284 58.7651C233.848 52.5647 202.081 82.798 168.633 98.2991C151.11 106.414 131.102 103.264 112.504 107.191C53.0376 119.755 30.6352 198.471 55.4074 243.24C76.8504 281.989 114.595 302.136 172.061 306.791C229.526 311.445 269.846 316.869 321.301 278.889C372.756 240.909 369.344 161.849 345.327 106.823Z" fill="#EC287C"/>
<path opacity="0.7" d="M345.327 106.823C345.327 106.823 324.72 64.9656 279.284 58.7651C233.848 52.5647 202.081 82.798 168.633 98.2991C151.11 106.414 131.102 103.264 112.504 107.191C53.0376 119.755 30.6352 198.471 55.4074 243.24C76.8504 281.989 114.595 302.136 172.061 306.791C229.526 311.445 269.846 316.869 321.301 278.889C372.756 240.909 369.344 161.849 345.327 106.823Z" fill="white"/>
<path d="M203.384 367.536C283.751 367.536 348.902 353.337 348.902 335.822C348.902 318.307 283.751 304.108 203.384 304.108C123.017 304.108 57.8672 318.307 57.8672 335.822C57.8672 353.337 123.017 367.536 203.384 367.536Z" fill="#EC287C"/>
<path opacity="0.5" d="M203.517 367.428C283.884 367.428 349.034 353.229 349.034 335.714C349.034 318.199 283.884 304 203.517 304C123.15 304 58 318.199 58 335.714C58 353.229 123.15 367.428 203.517 367.428Z" fill="white"/>
<path d="M317.922 239.862L313.551 237.956C313.876 238.757 314.337 239.495 314.912 240.14C315.56 240.886 316.111 241.711 316.552 242.594C316.552 242.594 312.452 239.592 309.722 239.044C307.827 238.704 305.907 238.523 303.982 238.504L308.082 240.41L304.802 241.228L305.622 242.324H299.882L303.711 245.048L302.071 247.232L300.431 249.956L304.802 248.598L303.711 251.322L305.901 250.234L304.531 252.688H301.76L305.31 254.594H302.85L303.941 255.412L302.301 256.778L305.86 257.326L303.621 258.889L309.14 258.144L307.229 260.868L311.87 259.78V261.146H337.577L338.307 258.889L339.217 257.866L341.956 255.96L338.947 255.69L340.316 254.872L339.217 253.776L341.136 252.41L339.767 250.504L341.685 246.684L337.585 246.136L338.405 244.23V240.68L334.576 240.41L335.125 236.59L332.116 237.408L330.476 237.686L328.287 235.502L327.467 239.322L324.187 236.32L322.547 235.224L321.997 238.496L319.267 237.948L317.922 239.862Z" fill="#EC287C"/>
<path opacity="0.4" d="M317.922 239.862L313.551 237.956C313.876 238.757 314.337 239.495 314.912 240.14C315.56 240.886 316.111 241.711 316.552 242.594C316.552 242.594 312.452 239.592 309.722 239.044C307.827 238.704 305.907 238.523 303.982 238.504L308.082 240.41L304.802 241.228L305.622 242.324H299.882L303.711 245.048L302.071 247.232L300.431 249.956L304.802 248.598L303.711 251.322L305.901 250.234L304.531 252.688H301.76L305.31 254.594H302.85L303.941 255.412L302.301 256.778L305.86 257.326L303.621 258.889L309.14 258.144L307.229 260.868L311.87 259.78V261.146H337.577L338.307 258.889L339.217 257.866L341.956 255.96L338.947 255.69L340.316 254.872L339.217 253.776L341.136 252.41L339.767 250.504L341.685 246.684L337.585 246.136L338.405 244.23V240.68L334.576 240.41L335.125 236.59L332.116 237.408L330.476 237.686L328.287 235.502L327.467 239.322L324.187 236.32L322.547 235.224L321.997 238.496L319.267 237.948L317.922 239.862Z" fill="white"/>
<path opacity="0.2" d="M313.551 261.147H337.61L338.2 259.322L337.61 259.241L338.43 257.335V253.785L334.601 253.515L335.15 249.695L332.141 250.513L330.501 250.791L328.311 248.607L327.491 252.427L324.211 249.425L322.571 248.328L322.022 251.6L319.291 251.052L317.922 252.958L313.551 251.052C313.876 251.853 314.337 252.592 314.912 253.236C315.56 253.983 316.111 254.807 316.552 255.69C316.552 255.69 312.452 252.688 309.722 252.14C308.197 251.858 306.654 251.686 305.105 251.625L304.892 252.026L308.082 253.506L304.802 254.324L305.31 254.594H304.958L305.581 255.412H303.941L302.301 256.762L305.86 257.31L303.621 258.872L309.14 258.128L307.229 260.852L311.87 259.764V261.13L313.551 261.147Z" fill="#263238"/>
<path d="M327.31 312.64H313.944C312.831 312.636 311.748 312.271 310.861 311.599C309.973 310.928 309.329 309.987 309.024 308.918C304.949 294.67 303.088 279.883 303.506 265.073L303.678 258.889H338.364L338.536 264.615C338.987 279.345 337.184 294.058 333.19 308.247C332.824 309.518 332.051 310.635 330.99 311.428C329.928 312.221 328.636 312.647 327.31 312.64Z" fill="#263238" stroke="#263238" stroke-linecap="round" stroke-linejoin="round"/>
<path d="M336.389 83.8286H236.3V227.142H336.389V83.8286Z" stroke="#263238" stroke-linecap="round" stroke-linejoin="round"/>
<path d="M331.182 89.4892H241.507V221.482H331.182V89.4892Z" stroke="#263238" stroke-linecap="round" stroke-linejoin="round"/>
<path d="M289.165 89.4892H283.523V221.482H289.165V89.4892Z" stroke="#263238" stroke-linecap="round" stroke-linejoin="round"/>
<path d="M103.722 299.339H205.033L205.033 88.9657H103.722L103.722 299.339Z" stroke="#263238" stroke-miterlimit="10"/>
<path d="M208.723 83.8286V304.108H202.639V90.2581H104.805V304.108H98.0479V83.8286H208.723Z" stroke="#263238" stroke-miterlimit="10"/>
<path d="M116.104 290.66H192.635L192.635 98.9371H116.104L116.104 290.66Z" stroke="#263238" stroke-miterlimit="10"/>
<path d="M124.582 277.22H184.155V217.359H124.582V277.22Z" stroke="#263238" stroke-miterlimit="10"/>
<path d="M184.155 113.252H161.548V208.246H184.155V113.252Z" stroke="#263238" stroke-linecap="round" stroke-linejoin="round"/>
<path d="M147.198 113.252H124.591V208.246H147.198V113.252Z" stroke="#263238" stroke-linecap="round" stroke-linejoin="round"/>
<path d="M106.412 184.426H114.316V181.49H106.412V184.426Z" fill="#263238" stroke="#263238" stroke-linecap="round" stroke-linejoin="round"/>
<path d="M106.412 225.67H114.316V222.733H106.412V225.67Z" fill="#263238" stroke="#263238" stroke-linecap="round" stroke-linejoin="round"/>
<path d="M115.457 236.009C115.802 236.009 116.134 235.872 116.378 235.628C116.623 235.384 116.76 235.054 116.76 234.709V173.113C116.765 172.94 116.734 172.767 116.671 172.606C116.607 172.444 116.512 172.297 116.39 172.172C116.269 172.048 116.124 171.949 115.963 171.882C115.803 171.815 115.631 171.78 115.457 171.78C115.111 171.78 114.779 171.917 114.535 172.161C114.29 172.405 114.153 172.736 114.153 173.081V234.676C114.148 234.85 114.179 235.022 114.242 235.184C114.306 235.345 114.401 235.493 114.523 235.617C114.644 235.741 114.79 235.84 114.95 235.907C115.11 235.975 115.283 236.009 115.457 236.009Z" fill="#263238" stroke="#263238" stroke-linecap="round" stroke-linejoin="round"/>
<path d="M106.855 209.719H111.086V201.653H106.855V209.719Z" stroke="#263238" stroke-linecap="round" stroke-linejoin="round"/>
<path d="M92.791 326.848H214.807L200.728 305.245H106.87L92.791 326.848Z" stroke="#263238" stroke-miterlimit="10"/>
<path d="M350.034 304.108H203.196" stroke="#263238" stroke-linecap="round" stroke-linejoin="round"/>
<path d="M98.8675 304.108H49.0361" stroke="#263238" stroke-linecap="round" stroke-linejoin="round"/>
<path d="M226.255 272.868H152.028V335.814H226.255V272.868Z" fill="#EC287C" stroke="#263238" stroke-linecap="round" stroke-linejoin="round"/>
<path d="M195.693 272.868H182.59V283.993H195.693V272.868Z" fill="white" stroke="#263238" stroke-width="0.5" stroke-linecap="round" stroke-linejoin="round"/>
<path d="M195.693 324.689H182.59V335.814H195.693V324.689Z" fill="white" stroke="#263238" stroke-width="0.5" stroke-linecap="round" stroke-linejoin="round"/>
<path d="M226.255 272.868L238.096 269.596V324.779L226.255 335.814V272.868Z" fill="#EC287C" stroke="#263238" stroke-linecap="round" stroke-linejoin="round"/>
<path d="M238.096 269.596H161.016L152.028 272.868H226.255L238.096 269.596Z" fill="#EC287C" stroke="#263238" stroke-linecap="round" stroke-linejoin="round"/>
<path d="M157.629 270.799H234.93" stroke="#263238" stroke-width="0.5" stroke-linecap="round" stroke-linejoin="round"/>
<path d="M195.693 272.868L206.813 269.637H191.511L182.59 272.868H195.693Z" fill="white" stroke="#263238" stroke-width="0.5" stroke-linecap="round" stroke-linejoin="round"/>
<path d="M190.986 244.05C190.986 244.05 189.83 268.304 187.854 274.316C185.878 280.329 184.393 324.501 184.303 326.668C184.213 328.836 190.183 335.486 192.88 336.811C195.578 338.137 194.422 338.636 191.601 339.036C188.78 339.437 185.443 339.225 183.869 336.975C182.294 334.726 178.949 334.3 178.949 334.3L178.809 339.445L177.866 339.503L176.735 333.163C176.396 331.718 176.549 330.201 177.169 328.852C178.194 326.398 176.931 324.345 176.39 316.083C175.849 307.822 173.2 294.627 173.66 288.173C174.119 281.719 177.358 272.631 177.005 267.281C176.653 261.932 176.423 248.222 176.423 248.222L190.986 244.05Z" fill="white"/>
<mask id="mask0_32_4040" style="mask-type:luminance" maskUnits="userSpaceOnUse" x="173" y="244" width="22" height="96">
<path d="M190.986 244.05C190.986 244.05 189.83 268.304 187.854 274.316C185.878 280.329 184.393 324.501 184.303 326.668C184.213 328.836 190.183 335.486 192.88 336.811C195.578 338.137 194.422 338.636 191.601 339.036C188.78 339.437 185.443 339.225 183.869 336.975C182.294 334.726 178.949 334.3 178.949 334.3L178.809 339.445L177.866 339.503L176.735 333.163C176.396 331.718 176.549 330.201 177.169 328.852C178.194 326.398 176.931 324.345 176.39 316.083C175.849 307.822 173.2 294.627 173.66 288.173C174.119 281.719 177.358 272.631 177.005 267.281C176.653 261.932 176.423 248.222 176.423 248.222L190.986 244.05Z" fill="white"/>
</mask>
<g mask="url(#mask0_32_4040)">
<path d="M182.942 275.592C184.582 275.012 186.55 274.349 187.985 273.883C189.879 267.232 190.986 244.05 190.986 244.05L176.423 248.214C176.423 248.214 176.652 261.948 177.005 267.273C177.358 272.598 174.127 281.719 173.659 288.165C173.192 294.611 175.849 307.797 176.39 316.075C176.931 324.353 178.194 326.423 177.169 328.844C177.032 329.154 176.919 329.474 176.833 329.801C177.46 329.289 177.977 328.654 178.35 327.936C179.58 325.294 180.392 311.413 178.866 302.775C177.341 294.136 180.137 276.599 180.137 276.599L182.942 275.592Z" fill="#EC287C"/>
<path opacity="0.5" d="M182.942 275.592C184.582 275.012 186.55 274.349 187.985 273.883C189.879 267.232 190.986 244.05 190.986 244.05L176.423 248.214C176.423 248.214 176.652 261.948 177.005 267.273C177.358 272.598 174.127 281.719 173.659 288.165C173.192 294.611 175.849 307.797 176.39 316.075C176.931 324.353 178.194 326.423 177.169 328.844C177.032 329.154 176.919 329.474 176.833 329.801C177.46 329.289 177.977 328.654 178.35 327.936C179.58 325.294 180.392 311.413 178.866 302.775C177.341 294.136 180.137 276.599 180.137 276.599L182.942 275.592Z" fill="white"/>
</g>
<path d="M190.986 244.05C190.986 244.05 189.83 268.304 187.854 274.316C185.878 280.329 184.393 324.501 184.303 326.668C184.213 328.836 190.183 335.486 192.88 336.811C195.578 338.137 194.422 338.636 191.601 339.036C188.78 339.437 185.443 339.225 183.869 336.975C182.294 334.726 178.949 334.3 178.949 334.3L178.809 339.445L177.866 339.503L176.735 333.163C176.396 331.718 176.549 330.201 177.169 328.852C178.194 326.398 176.931 324.345 176.39 316.083C175.849 307.822 173.2 294.627 173.66 288.173C174.119 281.719 177.358 272.631 177.005 267.281C176.653 261.932 176.423 248.222 176.423 248.222L190.986 244.05Z" stroke="#263238" stroke-linecap="round" stroke-linejoin="round"/>
<path d="M176.735 333.147C176.483 332.067 176.514 330.94 176.825 329.875C178.465 332.018 182.828 334.783 186.165 335.764C187.984 336.337 189.908 336.502 191.799 336.247C192.2 336.476 192.569 336.672 192.881 336.828C195.579 338.145 194.423 338.652 191.602 339.053C188.781 339.454 185.444 339.241 183.869 336.991C182.295 334.742 178.949 334.317 178.949 334.317L178.81 339.462L177.867 339.519L176.735 333.147Z" fill="#263238" stroke="#263238" stroke-linecap="round" stroke-linejoin="round"/>
<path d="M180.949 243.044C180.949 243.044 179.695 268.893 177.546 275.429C175.398 281.965 173.528 329.826 173.446 332.157C173.364 334.488 179.646 343.069 182.573 344.501C185.5 345.932 184.213 346.48 181.187 346.955C178.161 347.429 174.496 347.159 172.79 344.713C171.425 342.989 169.758 341.526 167.87 340.394L167.723 345.981L166.698 346.047L165.476 339.151C165.104 337.584 165.265 335.937 165.935 334.472C167.05 331.846 165.738 329.433 165.115 320.46C164.492 311.486 160.433 295.102 160.941 288.132C161.45 281.163 164.943 273.556 164.558 267.772C164.172 261.989 161.72 244.868 161.72 244.868L180.949 243.044Z" fill="white"/>
<mask id="mask1_32_4040" style="mask-type:luminance" maskUnits="userSpaceOnUse" x="160" y="243" width="25" height="105">
<path d="M180.949 243.044C180.949 243.044 179.695 268.893 177.546 275.429C175.398 281.965 173.528 329.826 173.446 332.157C173.364 334.488 179.646 343.069 182.573 344.501C185.5 345.932 184.213 346.48 181.187 346.955C178.161 347.429 174.496 347.159 172.79 344.713C171.425 342.989 169.758 341.526 167.87 340.394L167.723 345.981L166.698 346.047L165.476 339.151C165.104 337.584 165.265 335.937 165.935 334.472C167.05 331.846 165.738 329.433 165.115 320.46C164.492 311.486 160.433 295.102 160.941 288.132C161.45 281.163 164.943 273.556 164.558 267.772C164.172 261.989 161.72 244.868 161.72 244.868L180.949 243.044Z" fill="white"/>
</mask>
<g mask="url(#mask1_32_4040)">
<path d="M177.292 276.378C177.374 276.01 177.465 275.682 177.547 275.429C178.244 273.294 178.85 269.114 179.351 264.443L177.333 257.081C177.333 257.081 167.731 256.541 163.393 256.983C163.926 261.179 164.427 265.416 164.582 267.772C164.968 273.556 161.466 281.13 160.966 288.132C160.466 295.134 164.55 311.494 165.14 320.46C165.73 329.425 167.042 331.846 165.96 334.472C165.399 335.758 165.198 337.171 165.378 338.562C166.009 334.636 167.223 331.331 167.223 326.415C167.223 320.574 165.435 304.566 164.673 296.149C163.91 287.732 167.223 277.098 167.223 277.098C169.601 277.239 171.987 277.154 174.349 276.844C175.338 276.742 176.32 276.586 177.292 276.378Z" fill="#EC287C"/>
<path opacity="0.5" d="M177.292 276.378C177.374 276.01 177.465 275.682 177.547 275.429C178.244 273.294 178.85 269.114 179.351 264.443L177.333 257.081C177.333 257.081 167.731 256.541 163.393 256.983C163.926 261.179 164.427 265.416 164.582 267.772C164.968 273.556 161.466 281.13 160.966 288.132C160.466 295.134 164.55 311.494 165.14 320.46C165.73 329.425 167.042 331.846 165.96 334.472C165.399 335.758 165.198 337.171 165.378 338.562C166.009 334.636 167.223 331.331 167.223 326.415C167.223 320.574 165.435 304.566 164.673 296.149C163.91 287.732 167.223 277.098 167.223 277.098C169.601 277.239 171.987 277.154 174.349 276.844C175.338 276.742 176.32 276.586 177.292 276.378Z" fill="white"/>
</g>
<path d="M180.949 243.044C180.949 243.044 179.695 268.893 177.546 275.429C175.398 281.965 173.528 329.826 173.446 332.157C173.364 334.488 179.646 343.069 182.573 344.501C185.5 345.932 184.213 346.48 181.187 346.955C178.161 347.429 174.496 347.159 172.79 344.713C171.425 342.989 169.758 341.526 167.87 340.394L167.723 345.981L166.698 346.047L165.476 339.151C165.104 337.584 165.265 335.937 165.935 334.472C167.05 331.846 165.738 329.433 165.115 320.46C164.492 311.486 160.433 295.102 160.941 288.132C161.45 281.163 164.943 273.556 164.558 267.772C164.172 261.989 161.72 244.868 161.72 244.868L180.949 243.044Z" stroke="#263238" stroke-linecap="round" stroke-linejoin="round"/>
<path d="M165.428 339.11C165.141 337.929 165.172 336.693 165.518 335.527C167.273 337.859 171.627 342.268 175.251 343.347C177.226 343.971 179.316 344.15 181.368 343.871C181.811 344.116 182.188 344.337 182.549 344.501C185.477 345.932 184.189 346.48 181.163 346.955C178.138 347.429 174.472 347.159 172.767 344.713C171.402 342.989 169.735 341.526 167.847 340.394L167.699 345.981L166.674 346.047L165.428 339.11Z" fill="#263238" stroke="#263238" stroke-linecap="round" stroke-linejoin="round"/>
<path d="M203.828 150.7C203.828 150.7 206.558 154.79 211.257 149.923C215.956 145.056 211.257 137.048 204.213 130.798C197.169 124.549 185.829 121.8 179.375 132.557C172.922 143.314 173.898 149.923 170.355 155.584C166.813 161.244 151.791 176.459 145.96 189.727C140.13 202.995 145.14 218.414 160.63 220.95C176.12 223.486 186.05 202.807 185.271 193.637C184.492 184.467 189.97 164.95 192.709 160.263C195.447 155.575 203.828 150.7 203.828 150.7Z" fill="#263238" stroke="#263238" stroke-linecap="round" stroke-linejoin="round"/>
<path d="M205.091 136.982C205.091 136.982 199.892 139.952 189.117 141.8C178.343 143.649 171.651 152.148 171.651 152.148" stroke="white" stroke-linecap="round" stroke-linejoin="round"/>
<path d="M152.701 217.784C152.701 217.784 143.041 212.23 149.733 198.88C158.753 180.884 187.256 150.324 187.256 150.324" stroke="white" stroke-linecap="round" stroke-linejoin="round"/>
<path d="M224.016 235.584C223.196 233.482 219.719 229.923 219.153 229.138C218.587 228.353 208.444 203.78 208.444 203.78C208.444 203.78 207.714 189.113 207.46 181.792C207.288 176.582 206.968 170.111 205.869 167.723C205.684 167.207 205.442 166.713 205.148 166.25V166.185C203.139 163.068 198.858 160.974 195.258 160.083C190.584 158.913 187.919 159.584 187.919 159.584C187.919 159.584 179.719 160.402 172.905 164.074C166.091 167.747 166.066 176.05 167.067 182.07C168.067 188.091 170.904 200.533 170.904 201.032C170.904 201.531 161.729 210.52 157.063 221.662C152.397 232.803 159.064 268.656 159.064 268.656C159.064 268.656 163.401 271.486 175.742 271.486C188.083 271.486 194.922 266.357 194.922 266.357C194.922 266.357 199.26 233.31 198.424 220.835C198.08 214.534 197.412 208.255 196.423 202.021C196.423 202.021 196.948 201.285 197.677 200.156C198.018 203.205 199.152 206.113 200.966 208.59C203.196 211.412 216.013 229.572 216.013 229.572C216.323 230.815 216.534 232.082 216.644 233.359C216.808 235.347 218.653 237.539 218.653 237.539C218.653 237.539 218.153 241.744 218.653 242.038C219.153 242.332 219.858 240.443 219.858 240.443C219.858 240.443 219.227 242.995 220.391 242.897C221.556 242.799 221.654 241.964 221.654 241.964C221.654 241.964 221.326 244.157 222.146 243.928C222.742 243.669 223.235 243.22 223.548 242.652C223.548 242.652 224.729 244.893 225.106 243.363C225.484 241.834 224.852 237.703 224.016 235.584Z" fill="white" stroke="#263238" stroke-linecap="round" stroke-linejoin="round"/>
<path d="M208.444 203.821C208.444 203.821 207.714 189.154 207.46 181.833C207.288 176.623 206.968 170.152 205.869 167.764C205.684 167.248 205.442 166.754 205.148 166.291V166.226C203.139 163.109 198.858 161.015 195.258 160.123C190.584 158.954 187.919 159.625 187.919 159.625C187.919 159.625 179.719 160.443 172.905 164.115C166.091 167.788 166.066 176.091 167.067 182.111C168.067 188.132 170.904 200.574 170.904 201.073C170.904 201.572 161.729 210.561 157.063 221.703C152.397 232.844 159.064 268.697 159.064 268.697C159.064 268.697 163.401 271.527 175.742 271.527C188.083 271.527 194.922 266.398 194.922 266.398C194.922 266.398 199.26 233.351 198.424 220.876C198.08 214.575 197.412 208.295 196.423 202.062C196.423 202.062 196.948 201.326 197.677 200.197C198.025 203.232 199.158 206.124 200.966 208.59C201.523 209.293 202.729 210.946 204.246 213.032C206.054 211.276 208.294 210.026 210.74 209.408L208.444 203.821Z" fill="white"/>
<mask id="mask2_32_4040" style="mask-type:luminance" maskUnits="userSpaceOnUse" x="155" y="159" width="56" height="113">
<path d="M208.444 203.821C208.444 203.821 207.714 189.154 207.46 181.833C207.288 176.623 206.968 170.152 205.869 167.764C205.684 167.248 205.442 166.754 205.148 166.291V166.226C203.139 163.109 198.858 161.015 195.258 160.123C190.584 158.954 187.919 159.625 187.919 159.625C187.919 159.625 179.719 160.443 172.905 164.115C166.091 167.788 166.066 176.091 167.067 182.111C168.067 188.132 170.904 200.574 170.904 201.073C170.904 201.572 161.729 210.561 157.063 221.703C152.397 232.844 159.064 268.697 159.064 268.697C159.064 268.697 163.401 271.527 175.742 271.527C188.083 271.527 194.922 266.398 194.922 266.398C194.922 266.398 199.26 233.351 198.424 220.876C198.08 214.575 197.412 208.295 196.423 202.062C196.423 202.062 196.948 201.326 197.677 200.197C198.025 203.232 199.158 206.124 200.966 208.59C201.523 209.293 202.729 210.946 204.246 213.032C206.054 211.276 208.294 210.026 210.74 209.408L208.444 203.821Z" fill="white"/>
</mask>
<g mask="url(#mask2_32_4040)">
<path d="M183.893 165.318L191.585 159.502C190.35 159.358 189.101 159.399 187.878 159.625C187.878 159.625 179.678 160.443 172.864 164.115C166.05 167.788 166.025 176.091 167.026 182.111C168.026 188.132 170.863 200.574 170.863 201.073C170.863 201.572 161.688 210.561 157.022 221.703C152.356 232.844 159.023 268.697 159.023 268.697C159.023 268.697 161.31 270.185 167.272 270.995C165.845 262.504 161.532 235.666 162.663 227.224C164 217.13 176.218 205.203 176.218 201.228C176.218 197.253 170.371 177.375 172.233 172.598C174.094 167.821 183.893 165.318 183.893 165.318Z" fill="#EC287C"/>
<path opacity="0.5" d="M183.893 165.318L191.585 159.502C190.35 159.358 189.101 159.399 187.878 159.625C187.878 159.625 179.678 160.443 172.864 164.115C166.05 167.788 166.025 176.091 167.026 182.111C168.026 188.132 170.863 200.574 170.863 201.073C170.863 201.572 161.688 210.561 157.022 221.703C152.356 232.844 159.023 268.697 159.023 268.697C159.023 268.697 161.31 270.185 167.272 270.995C165.845 262.504 161.532 235.666 162.663 227.224C164 217.13 176.218 205.203 176.218 201.228C176.218 197.253 170.371 177.375 172.233 172.598C174.094 167.821 183.893 165.318 183.893 165.318Z" fill="white"/>
<path d="M192.167 228.418C192.167 228.418 189.428 244.042 183.549 251.854" stroke="#263238" stroke-linecap="round" stroke-linejoin="round"/>
</g>
<path d="M208.444 203.821C208.444 203.821 207.714 189.154 207.46 181.833C207.288 176.623 206.968 170.152 205.869 167.764C205.684 167.248 205.442 166.754 205.148 166.291V166.226C203.139 163.109 198.858 161.015 195.258 160.123C190.584 158.954 187.919 159.625 187.919 159.625C187.919 159.625 179.719 160.443 172.905 164.115C166.091 167.788 166.066 176.091 167.067 182.111C168.067 188.132 170.904 200.574 170.904 201.073C170.904 201.572 161.729 210.561 157.063 221.703C152.397 232.844 159.064 268.697 159.064 268.697C159.064 268.697 163.401 271.527 175.742 271.527C188.083 271.527 194.922 266.398 194.922 266.398C194.922 266.398 199.26 233.351 198.424 220.876C198.08 214.575 197.412 208.295 196.423 202.062C196.423 202.062 196.948 201.326 197.677 200.197C198.025 203.232 199.158 206.124 200.966 208.59C201.523 209.293 202.729 210.946 204.246 213.032C206.054 211.276 208.294 210.026 210.74 209.408L208.444 203.821Z" stroke="#263238" stroke-linecap="round" stroke-linejoin="round"/>
<path d="M219.884 240.435L220.261 238.3" stroke="#263238" stroke-linecap="round" stroke-linejoin="round"/>
<path d="M221.679 241.956L221.867 239.519" stroke="#263238" stroke-linecap="round" stroke-linejoin="round"/>
<path d="M223.573 242.643L223.508 239.805" stroke="#263238" stroke-linecap="round" stroke-linejoin="round"/>
<path d="M218.694 233.858C218.734 234.357 218.878 234.841 219.115 235.282C219.352 235.723 219.678 236.11 220.072 236.418L221.294 237.155C221.294 237.155 222.196 242.063 223.467 241.318C224.738 240.574 224.065 236.263 222.54 233.883" fill="white"/>
<path d="M218.694 233.858C218.734 234.357 218.878 234.841 219.115 235.282C219.352 235.723 219.678 236.11 220.072 236.418L221.294 237.155C221.294 237.155 222.196 242.063 223.467 241.318C224.738 240.574 224.065 236.263 222.54 233.883" stroke="#263238" stroke-linecap="round" stroke-linejoin="round"/>
<path d="M187.206 152.631C187.206 152.631 187.378 157.13 185.878 159.453C184.377 161.776 183.877 162.782 183.877 166.275C183.877 169.768 189.502 182.635 192.167 181.154C194.832 179.674 193.045 170.937 193.381 167.944C193.717 164.95 193.717 163.445 193.717 163.445C193.717 163.445 188.879 150.512 187.206 152.631Z" fill="white"/>
<mask id="mask3_32_4040" style="mask-type:luminance" maskUnits="userSpaceOnUse" x="183" y="152" width="11" height="30">
<path d="M187.206 152.631C187.206 152.631 187.378 157.13 185.878 159.453C184.377 161.776 183.877 162.782 183.877 166.275C183.877 169.768 189.502 182.635 192.167 181.154C194.832 179.674 193.045 170.937 193.381 167.944C193.717 164.95 193.717 163.445 193.717 163.445C193.717 163.445 188.879 150.512 187.206 152.631Z" fill="white"/>
</mask>
<g mask="url(#mask3_32_4040)">
<path d="M183.894 165.318L193.668 164.696C193.668 163.878 193.717 163.445 193.717 163.445C193.717 163.445 188.879 150.471 187.206 152.631C187.206 152.631 187.379 157.13 185.878 159.453C184.5 161.555 183.984 162.578 183.894 165.318Z" fill="#EC287C"/>
<path opacity="0.5" d="M183.894 165.318L193.668 164.696C193.668 163.878 193.717 163.445 193.717 163.445C193.717 163.445 188.879 150.471 187.206 152.631C187.206 152.631 187.379 157.13 185.878 159.453C184.5 161.555 183.984 162.578 183.894 165.318Z" fill="white"/>
</g>
<path d="M187.206 152.631C187.206 152.631 187.378 157.13 185.878 159.453C184.377 161.776 183.877 162.782 183.877 166.275C183.877 169.768 189.502 182.635 192.167 181.154C194.832 179.674 193.045 170.937 193.381 167.944C193.717 164.95 193.717 163.445 193.717 163.445C193.717 163.445 188.879 150.512 187.206 152.631Z" stroke="#263238" stroke-linecap="round" stroke-linejoin="round"/>
<path d="M217.522 185.105L223.803 195.919L225.443 196.737L225.107 194.905L218.784 184.328C218.685 184.167 218.53 184.048 218.348 183.995C218.166 183.943 217.971 183.959 217.8 184.042C217.71 184.091 217.63 184.158 217.566 184.239C217.502 184.32 217.456 184.413 217.43 184.513C217.404 184.613 217.398 184.717 217.414 184.819C217.43 184.921 217.467 185.018 217.522 185.105Z" fill="white" stroke="#263238" stroke-linecap="round" stroke-linejoin="round"/>
<path d="M171.528 165.449C171.528 165.449 165.017 167.649 166.124 175.633C166.681 179.616 168.198 189.907 169.699 195.895C171.2 201.882 173.701 209.866 176.038 210.201C178.375 210.537 214.725 197.056 214.725 197.056C214.725 197.056 220.736 197.727 222.236 196.893C223.712 195.866 224.914 194.496 225.738 192.901C226.238 191.903 220.9 190.733 219.563 190.733C218.227 190.733 213.2 193.563 212.38 193.866C211.56 194.169 183.188 197.858 182.524 197.858C181.86 197.858 180.006 181.555 178.522 176.23C176.521 169.072 174.012 167.575 174.012 167.575" fill="white"/>
<mask id="mask4_32_4040" style="mask-type:luminance" maskUnits="userSpaceOnUse" x="165" y="165" width="61" height="46">
<path d="M171.528 165.449C171.528 165.449 165.017 167.649 166.124 175.633C166.681 179.616 168.198 189.907 169.699 195.895C171.2 201.882 173.701 209.866 176.038 210.201C178.375 210.537 214.725 197.056 214.725 197.056C214.725 197.056 220.736 197.727 222.236 196.893C223.712 195.866 224.914 194.496 225.738 192.901C226.238 191.903 220.9 190.733 219.563 190.733C218.227 190.733 213.2 193.563 212.38 193.866C211.56 194.169 183.188 197.858 182.524 197.858C181.86 197.858 180.006 181.555 178.522 176.23C176.521 169.072 174.012 167.575 174.012 167.575" fill="white"/>
</mask>
<g mask="url(#mask4_32_4040)">
<path d="M179.671 205.997C175.423 205.179 177.547 202.021 178.605 200.173C179.662 198.324 174.66 202.046 174.66 201.228C174.66 200.41 170.946 182.946 170.675 177.375C170.616 175.762 171.007 174.165 171.805 172.761C172.603 171.357 173.776 170.202 175.193 169.424L174.882 168.361C174.643 168.075 174.368 167.822 174.062 167.608L171.602 165.449C171.602 165.449 165.091 167.649 166.198 175.633C166.756 179.616 168.273 189.907 169.773 195.895C171.274 201.882 173.775 209.866 176.112 210.201C177.194 210.357 185.673 207.51 194.422 204.426C189.027 205.4 182.147 206.463 179.671 205.997Z" fill="#EC287C"/>
<path opacity="0.5" d="M179.671 205.997C175.423 205.179 177.547 202.021 178.605 200.173C179.662 198.324 174.66 202.046 174.66 201.228C174.66 200.41 170.946 182.946 170.675 177.375C170.616 175.762 171.007 174.165 171.805 172.761C172.603 171.357 173.776 170.202 175.193 169.424L174.882 168.361C174.643 168.075 174.368 167.822 174.062 167.608L171.602 165.449C171.602 165.449 165.091 167.649 166.198 175.633C166.756 179.616 168.273 189.907 169.773 195.895C171.274 201.882 173.775 209.866 176.112 210.201C177.194 210.357 185.673 207.51 194.422 204.426C189.027 205.4 182.147 206.463 179.671 205.997Z" fill="white"/>
</g>
<path d="M171.528 165.449C171.528 165.449 165.017 167.649 166.124 175.633C166.681 179.616 168.198 189.907 169.699 195.895C171.2 201.882 173.701 209.866 176.038 210.201C178.375 210.537 214.725 197.056 214.725 197.056C214.725 197.056 220.736 197.727 222.236 196.893C223.712 195.866 224.914 194.496 225.738 192.901C226.238 191.903 220.9 190.733 219.563 190.733C218.227 190.733 213.2 193.563 212.38 193.866C211.56 194.169 183.188 197.858 182.524 197.858C181.86 197.858 180.006 181.555 178.522 176.23C176.521 169.072 174.012 167.575 174.012 167.575" stroke="#263238" stroke-linecap="round" stroke-linejoin="round"/>
<path d="M219.564 190.733C218.235 190.733 213.225 193.563 212.397 193.899C211.897 194.095 201.737 195.461 193.356 196.549C193.028 198.627 193.004 201.792 195.16 204.14C204.918 200.696 214.726 197.056 214.726 197.056C214.726 197.056 220.736 197.727 222.237 196.893C223.712 195.866 224.914 194.496 225.738 192.901C226.238 191.903 220.9 190.733 219.564 190.733Z" fill="white" stroke="#263238" stroke-linecap="round" stroke-linejoin="round"/>
<path d="M197.768 195.674C200.246 193.481 201.895 190.507 202.442 187.248C202.895 183.095 203.087 178.918 203.016 174.741" stroke="#263238" stroke-linecap="round" stroke-linejoin="round"/>
<path d="M187.436 147.371C187.436 147.371 187.1 143.739 184.976 144.729C182.852 145.719 182.827 150.177 183.984 151.33C184.635 152.002 185.51 152.412 186.444 152.483C186.578 154.683 187.2 156.826 188.264 158.757C189.904 161.391 192.725 166.676 196.038 165.686C199.35 164.696 205.295 156.115 206.624 151.993C207.573 148.532 208.237 145 208.608 141.432C208.608 141.432 201.327 144.704 196.202 145.391C193.221 145.761 190.285 146.424 187.436 147.371Z" fill="white"/>
<mask id="mask5_32_4040" style="mask-type:luminance" maskUnits="userSpaceOnUse" x="183" y="141" width="26" height="25">
<path d="M187.436 147.371C187.436 147.371 187.1 143.739 184.976 144.729C182.852 145.719 182.827 150.177 183.984 151.33C184.635 152.002 185.51 152.412 186.444 152.483C186.578 154.683 187.2 156.826 188.264 158.757C189.904 161.391 192.725 166.676 196.038 165.686C199.35 164.696 205.295 156.115 206.624 151.993C207.573 148.532 208.237 145 208.608 141.432C208.608 141.432 201.327 144.704 196.202 145.391C193.221 145.761 190.285 146.424 187.436 147.371Z" fill="white"/>
</mask>
<g mask="url(#mask5_32_4040)">
<path d="M187.436 147.371C187.436 147.371 187.1 143.739 184.976 144.729C182.852 145.719 182.827 150.177 183.984 151.33C184.635 152.002 185.51 152.412 186.444 152.483C186.578 154.683 187.2 156.826 188.264 158.757C189.281 160.393 190.724 162.995 192.471 164.541C190.207 161.727 189.297 154.913 190.011 151.714C190.724 148.516 191.651 148.721 196.48 147.567C201.31 146.414 208.633 141.432 208.633 141.432C208.633 141.432 201.351 144.704 196.226 145.391C193.238 145.76 190.293 146.423 187.436 147.371Z" fill="#EC287C"/>
<path opacity="0.5" d="M187.436 147.371C187.436 147.371 187.1 143.739 184.976 144.729C182.852 145.719 182.827 150.177 183.984 151.33C184.635 152.002 185.51 152.412 186.444 152.483C186.578 154.683 187.2 156.826 188.264 158.757C189.281 160.393 190.724 162.995 192.471 164.541C190.207 161.727 189.297 154.913 190.011 151.714C190.724 148.516 191.651 148.721 196.48 147.567C201.31 146.414 208.633 141.432 208.633 141.432C208.633 141.432 201.351 144.704 196.226 145.391C193.238 145.76 190.293 146.423 187.436 147.371Z" fill="white"/>
</g>
<path d="M187.436 147.371C187.436 147.371 187.1 143.739 184.976 144.729C182.852 145.719 182.827 150.177 183.984 151.33C184.635 152.002 185.51 152.412 186.444 152.483C186.578 154.683 187.2 156.826 188.264 158.757C189.904 161.391 192.725 166.676 196.038 165.686C199.35 164.696 205.295 156.115 206.624 151.993C207.573 148.532 208.237 145 208.608 141.432C208.608 141.432 201.327 144.704 196.202 145.391C193.221 145.761 190.285 146.424 187.436 147.371Z" stroke="#263238" stroke-linecap="round" stroke-linejoin="round"/>
<path d="M198.269 157.653C198.269 157.653 200.819 158.676 201.434 158.267C202.049 157.858 201.434 156.868 201.729 155.036C201.796 154.524 201.967 154.031 202.232 153.588C202.498 153.145 202.851 152.761 203.271 152.459" stroke="#263238" stroke-linecap="round" stroke-linejoin="round"/>
<path d="M197.497 151.96L197.112 153.236C196.733 153.414 196.302 153.447 195.9 153.33C195.498 153.212 195.153 152.952 194.931 152.598" stroke="#263238" stroke-linecap="round" stroke-linejoin="round"/>
<path d="M204.672 154.34L204.287 155.624C203.907 155.8 203.475 155.831 203.074 155.712C202.672 155.593 202.328 155.332 202.105 154.978" stroke="#263238" stroke-linecap="round" stroke-linejoin="round"/>
<path d="M194.931 159.126C195.268 159.553 195.696 159.902 196.183 160.146C196.671 160.391 197.206 160.525 197.751 160.541" stroke="#263238" stroke-linecap="round" stroke-linejoin="round"/>
<path d="M199.678 150.038C199.162 149.354 198.476 148.817 197.688 148.48C196.899 148.143 196.037 148.017 195.185 148.115" stroke="#263238" stroke-linecap="round" stroke-linejoin="round"/>
<path d="M204.041 152.091C204.449 151.996 204.877 152.047 205.251 152.233C205.625 152.42 205.922 152.731 206.091 153.113" stroke="#263238" stroke-linecap="round" stroke-linejoin="round"/>
<path d="M233.478 198.43C233.478 198.43 232.658 216.974 232.658 217.792C232.658 218.61 231.297 240.697 232.117 245.326C232.937 249.956 234.298 255.421 235.118 257.057C235.938 258.693 238.128 260.05 238.128 258.144C238.128 256.238 238.398 249.146 237.857 247.241C237.184 245.394 236.362 243.604 235.397 241.891C235.397 241.891 239.497 224.336 240.588 219.428C241.678 214.52 244.138 197.064 244.138 195.158C244.138 193.252 233.478 194.07 233.478 194.07V198.43Z" fill="white"/>
<mask id="mask6_32_4040" style="mask-type:luminance" maskUnits="userSpaceOnUse" x="231" y="193" width="14" height="67">
<path d="M233.478 198.43C233.478 198.43 232.658 216.974 232.658 217.792C232.658 218.61 231.297 240.697 232.117 245.326C232.937 249.956 234.298 255.421 235.118 257.057C235.938 258.693 238.128 260.05 238.128 258.144C238.128 256.238 238.398 249.146 237.857 247.241C237.184 245.394 236.362 243.604 235.397 241.891C235.397 241.891 239.497 224.336 240.588 219.428C241.678 214.52 244.138 197.064 244.138 195.158C244.138 193.252 233.478 194.07 233.478 194.07V198.43Z" fill="white"/>
</mask>
<g mask="url(#mask6_32_4040)">
<path d="M233.478 198.43C233.478 198.43 232.658 216.974 232.658 217.792C232.658 218.61 231.297 240.697 232.117 245.326C232.937 249.956 234.298 255.421 235.118 257.057C235.938 258.693 238.128 260.05 238.128 258.144C238.128 256.238 238.398 249.146 237.857 247.241C237.184 245.394 236.362 243.604 235.397 241.891C235.397 241.891 239.497 224.336 240.588 219.428C241.678 214.52 244.138 197.064 244.138 195.158C244.138 193.252 233.478 194.07 233.478 194.07V198.43Z" fill="#EC287C"/>
<path opacity="0.5" d="M233.478 198.43C233.478 198.43 232.658 216.974 232.658 217.792C232.658 218.61 231.297 240.697 232.117 245.326C232.937 249.956 234.298 255.421 235.118 257.057C235.938 258.693 238.128 260.05 238.128 258.144C238.128 256.238 238.398 249.146 237.857 247.241C237.184 245.394 236.362 243.604 235.397 241.891C235.397 241.891 239.497 224.336 240.588 219.428C241.678 214.52 244.138 197.064 244.138 195.158C244.138 193.252 233.478 194.07 233.478 194.07V198.43Z" fill="white"/>
</g>
<path d="M233.478 198.43C233.478 198.43 232.658 216.974 232.658 217.792C232.658 218.61 231.297 240.697 232.117 245.326C232.937 249.956 234.298 255.421 235.118 257.057C235.938 258.693 238.128 260.05 238.128 258.144C238.128 256.238 238.398 249.146 237.857 247.241C237.184 245.394 236.362 243.604 235.397 241.891C235.397 241.891 239.497 224.336 240.588 219.428C241.678 214.52 244.138 197.064 244.138 195.158C244.138 193.252 233.478 194.07 233.478 194.07V198.43Z" stroke="#263238" stroke-linecap="round" stroke-linejoin="round"/>
<path d="M235.562 250.12C235.562 250.12 237.079 253.645 237.579 254.823C238.079 256.001 240.277 257.506 240.277 256.165C240.277 254.823 238.637 251.805 238.637 251.805C238.682 249.812 238.216 247.842 237.284 246.079" stroke="#263238" stroke-linecap="round" stroke-linejoin="round"/>
<path d="M242.072 131.444C242.072 131.444 240.309 132.5 244.196 133.555C248.082 134.61 255.676 134.258 256.389 133.555C257.102 132.851 256.389 131.796 253.56 131.101C250.731 130.406 243.663 130.561 242.072 131.444Z" fill="#263238" stroke="#263238" stroke-linecap="round" stroke-linejoin="round"/>
<path d="M246.353 334.153C246.353 334.153 238.636 336.607 235.602 338.554C232.568 340.501 235.602 341.302 239.702 341.302C243.802 341.302 247.837 339.928 249.493 339.789C251.15 339.65 254.454 339.511 253.487 335.388C252.519 331.265 246.353 334.153 246.353 334.153Z" fill="white" stroke="#263238" stroke-linecap="round" stroke-linejoin="round"/>
<path d="M272.239 339.241C272.239 339.241 264.105 347.069 263.416 349.687C262.727 352.304 267.516 352.018 271.272 349.27C275.028 346.521 277.471 342.538 277.889 340.615C278.308 338.693 274.74 336.901 272.239 339.241Z" fill="white" stroke="#263238" stroke-linecap="round" stroke-linejoin="round"/>
<path d="M241.572 160.622C241.572 160.622 238.128 163.526 237.578 165.44C237.029 167.355 229.928 197.064 229.928 197.064L246.877 203.608L250.698 169.252C250.698 169.252 249.386 157.449 241.572 160.622Z" fill="white"/>
<mask id="mask7_32_4040" style="mask-type:luminance" maskUnits="userSpaceOnUse" x="229" y="160" width="22" height="44">
<path d="M241.572 160.622C241.572 160.622 238.128 163.526 237.578 165.44C237.029 167.355 229.928 197.064 229.928 197.064L246.877 203.608L250.698 169.252C250.698 169.252 249.386 157.449 241.572 160.622Z" fill="white"/>
</mask>
<g mask="url(#mask7_32_4040)">
<path d="M241.572 160.622C241.572 160.622 238.128 163.526 237.578 165.44C237.029 167.355 229.928 197.064 229.928 197.064L246.877 203.608L250.698 169.252C250.698 169.252 249.386 157.449 241.572 160.622Z" fill="#EC287C"/>
<path opacity="0.5" d="M241.572 160.622C241.572 160.622 238.128 163.526 237.578 165.44C237.029 167.355 229.928 197.064 229.928 197.064L246.877 203.608L250.698 169.252C250.698 169.252 249.386 157.449 241.572 160.622Z" fill="white"/>
</g>
<path d="M241.572 160.622C241.572 160.622 238.128 163.526 237.578 165.44C237.029 167.355 229.928 197.064 229.928 197.064L246.877 203.608L250.698 169.252C250.698 169.252 249.386 157.449 241.572 160.622Z" stroke="#263238" stroke-linecap="round" stroke-linejoin="round"/>
<path d="M241.678 215.608C241.678 215.608 239.218 233.874 238.677 245.605C238.136 257.335 239.218 273.138 239.767 281.318C240.317 289.498 246.188 328.46 246.188 329.114C246.188 329.769 244.876 331.077 244.876 331.953C244.994 332.916 245.214 333.865 245.532 334.783C246.945 335.036 248.335 335.403 249.689 335.879C251.096 336.419 252.653 336.419 254.06 335.879C254.06 335.879 254.06 326.93 255.159 322.57C256.258 318.21 259.177 270.145 259.177 270.145V264.419C259.177 264.419 263.277 292.5 264.638 301.498C265.999 310.496 269.558 327.126 270.378 329.58C270.868 330.981 271.055 332.47 270.927 333.949V336.942L271.747 340.762C271.747 340.762 272.838 342.668 274.757 342.668C276.129 342.562 277.447 342.093 278.578 341.311C278.578 341.311 280.497 325.49 281.038 320.582C281.579 315.674 281.858 296.321 281.317 294.406C280.816 291.974 280.449 289.517 280.218 287.044C280.218 287.044 282.407 254.324 281.317 246.692C280.226 239.06 279.677 219.429 279.677 219.429C279.677 219.429 255.618 225.154 241.678 215.608Z" fill="#263238" stroke="#263238" stroke-linecap="round" stroke-linejoin="round"/>
<path d="M259.177 264.419L256.438 243.42L252.617 239.609" stroke="white" stroke-linecap="round" stroke-linejoin="round"/>
<path d="M258.381 155.42C258.381 155.42 248.541 156.197 241.571 160.655C240.12 161.588 241.047 192.974 241.047 199.608C241.047 206.242 239.989 215.33 240.169 216.557C240.35 217.784 246.647 222.283 257.324 223.543C268 224.803 279.915 221.964 280.612 220.394C281.309 218.823 280.964 216.557 280.964 215.854C280.964 215.15 292.739 176.394 291.837 172.025C290.935 167.657 290.099 162.782 282.194 159.052C277.094 156.655 269.935 154.864 266.253 154.864C263.621 154.911 260.994 155.096 258.381 155.42Z" fill="white"/>
<mask id="mask8_32_4040" style="mask-type:luminance" maskUnits="userSpaceOnUse" x="240" y="154" width="52" height="70">
<path d="M258.381 155.42C258.381 155.42 248.541 156.197 241.571 160.655C240.12 161.588 241.047 192.974 241.047 199.608C241.047 206.242 239.989 215.33 240.169 216.557C240.35 217.784 246.647 222.283 257.324 223.543C268 224.803 279.915 221.964 280.612 220.394C281.309 218.823 280.964 216.557 280.964 215.854C280.964 215.15 292.739 176.394 291.837 172.025C290.935 167.657 290.099 162.782 282.194 159.052C277.094 156.655 269.935 154.864 266.253 154.864C263.621 154.911 260.994 155.096 258.381 155.42Z" fill="white"/>
</mask>
<g mask="url(#mask8_32_4040)">
<path d="M263.162 217.735C251.018 217.179 244.245 212.672 243.392 211.543C242.539 210.414 243.958 174.07 243.958 170.692C243.958 167.314 256.389 162.234 256.389 162.234L258.447 155.379H258.381C258.381 155.379 248.541 156.156 241.571 160.614C240.12 161.547 241.047 192.933 241.047 199.567C241.047 206.201 239.989 215.289 240.169 216.516C240.35 217.743 246.647 222.242 257.324 223.502C268 224.762 279.915 221.923 280.612 220.353C281.309 218.782 280.964 216.516 280.964 215.813C280.964 215.698 281.276 214.57 281.784 212.737C278.135 212.615 273.117 218.201 263.162 217.735Z" fill="#EC287C"/>
<path opacity="0.5" d="M263.162 217.735C251.018 217.179 244.245 212.672 243.392 211.543C242.539 210.414 243.958 174.07 243.958 170.692C243.958 167.314 256.389 162.234 256.389 162.234L258.447 155.379H258.381C258.381 155.379 248.541 156.156 241.571 160.614C240.12 161.547 241.047 192.933 241.047 199.567C241.047 206.201 239.989 215.289 240.169 216.516C240.35 217.743 246.647 222.242 257.324 223.502C268 224.762 279.915 221.923 280.612 220.353C281.309 218.782 280.964 216.516 280.964 215.813C280.964 215.698 281.276 214.57 281.784 212.737C278.135 212.615 273.117 218.201 263.162 217.735Z" fill="white"/>
</g>
<path d="M258.381 155.42C258.381 155.42 248.541 156.197 241.571 160.655C240.12 161.588 241.047 192.974 241.047 199.608C241.047 206.242 239.989 215.33 240.169 216.557C240.35 217.784 246.647 222.283 257.324 223.543C268 224.803 279.915 221.964 280.612 220.394C281.309 218.823 280.964 216.557 280.964 215.854C280.964 215.15 292.739 176.394 291.837 172.025C290.935 167.657 290.099 162.782 282.194 159.052C277.094 156.655 269.935 154.864 266.253 154.864C263.621 154.911 260.994 155.096 258.381 155.42Z" stroke="#263238" stroke-linecap="round" stroke-linejoin="round"/>
<path d="M256.241 167.297C256.241 167.297 255.372 164.843 253.781 164.843C252.393 164.983 251.035 165.336 249.755 165.89C249.755 165.89 252.035 159.428 255.364 155.06C258.693 150.692 267.795 149.334 270.066 151.739C272.216 154.157 273.454 157.246 273.568 160.475C273.568 163.093 265.515 169.032 264.99 169.211C264.466 169.391 263.416 166.937 261.136 166.937C259.721 166.946 258.312 167.121 256.938 167.461L256.241 167.297Z" fill="white" stroke="#263238" stroke-linecap="round" stroke-linejoin="round"/>
<path d="M256.422 150.7C256.422 150.7 254.667 165.727 256.242 167.297C257.816 168.868 260.973 164.148 263.622 162.054C266.27 159.96 269.755 154.692 270.1 151.747C270.313 149.485 270.373 147.211 270.28 144.941C270.28 144.941 264.852 152.451 262.08 152.451C260.079 152.336 258.137 151.735 256.422 150.7Z" fill="white"/>
<mask id="mask9_32_4040" style="mask-type:luminance" maskUnits="userSpaceOnUse" x="255" y="144" width="16" height="24">
<path d="M256.422 150.7C256.422 150.7 254.667 165.727 256.242 167.297C257.816 168.868 260.973 164.148 263.622 162.054C266.27 159.96 269.755 154.692 270.1 151.747C270.313 149.485 270.373 147.211 270.28 144.941C270.28 144.941 264.852 152.451 262.08 152.451C260.079 152.336 258.137 151.735 256.422 150.7Z" fill="white"/>
</mask>
<g mask="url(#mask9_32_4040)">
<path d="M262.023 152.451C260.042 152.327 258.12 151.726 256.422 150.7C256.422 150.7 254.667 165.727 256.242 167.297C256.392 167.44 256.579 167.537 256.783 167.575C257.997 163.78 259.3 159.093 259.3 159.093L264.844 154.708L269.231 147.567L268.878 146.749C267.074 148.941 263.942 152.451 262.023 152.451Z" fill="#EC287C"/>
<path opacity="0.5" d="M262.023 152.451C260.042 152.327 258.12 151.726 256.422 150.7C256.422 150.7 254.667 165.727 256.242 167.297C256.392 167.44 256.579 167.537 256.783 167.575C257.997 163.78 259.3 159.093 259.3 159.093L264.844 154.708L269.231 147.567L268.878 146.749C267.074 148.941 263.942 152.451 262.023 152.451Z" fill="white"/>
</g>
<path d="M256.422 150.7C256.422 150.7 254.667 165.727 256.242 167.297C257.816 168.868 260.973 164.148 263.622 162.054C266.27 159.96 269.755 154.692 270.1 151.747C270.313 149.485 270.373 147.211 270.28 144.941C270.28 144.941 264.852 152.451 262.08 152.451C260.079 152.336 258.137 151.735 256.422 150.7Z" stroke="#263238" stroke-linecap="round" stroke-linejoin="round"/>
<path d="M251.797 131.796C251.797 131.796 251.444 142.193 252.855 146.25C254.265 150.307 257.98 156.475 262.933 155.068C267.885 153.661 271.592 143.616 271.592 143.616C271.592 143.616 276.184 141.498 277.069 138.324C277.575 136.23 277.516 134.04 276.897 131.976C276.897 131.976 267.172 128.982 262.047 129.334C258.767 129.605 255.547 130.378 252.502 131.624L251.797 131.796Z" fill="white"/>
<mask id="mask10_32_4040" style="mask-type:luminance" maskUnits="userSpaceOnUse" x="251" y="129" width="27" height="27">
<path d="M251.797 131.796C251.797 131.796 251.444 142.193 252.855 146.25C254.265 150.307 257.98 156.475 262.933 155.068C267.885 153.661 271.592 143.616 271.592 143.616C271.592 143.616 276.184 141.498 277.069 138.324C277.575 136.23 277.516 134.04 276.897 131.976C276.897 131.976 267.172 128.982 262.047 129.334C258.767 129.605 255.547 130.378 252.502 131.624L251.797 131.796Z" fill="white"/>
</mask>
<g mask="url(#mask10_32_4040)">
<path d="M277.266 133.637C277.266 133.408 277.192 133.195 277.151 132.999C276.889 132.671 276.528 132.181 276.126 131.739C273.732 131.052 266.286 129.031 262.047 129.285C258.767 129.556 255.547 130.329 252.502 131.575L251.797 131.755C251.797 131.755 251.444 142.152 252.855 146.209C254.265 150.267 257.98 156.434 262.933 155.027C264.609 154.394 266.055 153.271 267.082 151.804C267.27 151.305 267.385 150.986 267.385 150.986C267.385 150.986 261.145 155.6 258.833 151.453C257.431 148.754 256.793 145.725 256.988 142.692C254.216 141.539 253.757 141.768 255.831 140.622C257.906 139.477 257.685 138.087 257.685 138.087C264.384 138.087 273.158 135.551 273.158 135.551L277.266 133.637Z" fill="#EC287C"/>
<path opacity="0.5" d="M277.266 133.637C277.266 133.408 277.192 133.195 277.151 132.999C276.889 132.671 276.528 132.181 276.126 131.739C273.732 131.052 266.286 129.031 262.047 129.285C258.767 129.556 255.547 130.329 252.502 131.575L251.797 131.755C251.797 131.755 251.444 142.152 252.855 146.209C254.265 150.267 257.98 156.434 262.933 155.027C264.609 154.394 266.055 153.271 267.082 151.804C267.27 151.305 267.385 150.986 267.385 150.986C267.385 150.986 261.145 155.6 258.833 151.453C257.431 148.754 256.793 145.725 256.988 142.692C254.216 141.539 253.757 141.768 255.831 140.622C257.906 139.477 257.685 138.087 257.685 138.087C264.384 138.087 273.158 135.551 273.158 135.551L277.266 133.637Z" fill="white"/>
</g>
<path d="M251.797 131.796C251.797 131.796 251.444 142.193 252.855 146.25C254.265 150.307 257.98 156.475 262.933 155.068C267.885 153.661 271.592 143.616 271.592 143.616C271.592 143.616 276.184 141.498 277.069 138.324C277.575 136.23 277.516 134.04 276.897 131.976C276.897 131.976 267.172 128.982 262.047 129.334C258.767 129.605 255.547 130.378 252.502 131.624L251.797 131.796Z" stroke="#263238" stroke-linecap="round" stroke-linejoin="round"/>
<path d="M258.415 136.737C258.219 137.729 257.862 138.682 257.357 139.559C256.471 141.146 254.348 141.498 255.061 142.381C255.774 143.265 258.948 143.616 258.948 143.616" stroke="#263238" stroke-linecap="round" stroke-linejoin="round"/>
<path d="M263.326 138.119C263.326 138.995 263.006 139.706 262.621 139.706C262.235 139.706 261.907 138.995 261.907 138.119C261.907 137.244 262.227 136.532 262.621 136.532C263.014 136.532 263.326 137.244 263.326 138.119Z" fill="#263238"/>
<path d="M256.249 137.424C256.249 138.307 255.938 139.011 255.544 139.011C255.15 139.011 254.839 138.307 254.839 137.424C254.839 136.541 255.15 135.837 255.544 135.837C255.938 135.837 256.249 136.516 256.249 137.424Z" fill="#263238"/>
<path d="M258.16 146.25C258.16 146.25 261.514 147.134 263.818 145.015" stroke="#263238" stroke-linecap="round" stroke-linejoin="round"/>
<path d="M261.694 133.604C261.694 133.604 263.334 131.968 264.589 134.872" stroke="#263238" stroke-linecap="round" stroke-linejoin="round"/>
<path d="M256.389 133.555C256.389 133.555 253.552 133.424 253.191 135.052" stroke="#263238" stroke-linecap="round" stroke-linejoin="round"/>
<path d="M270.887 130.561C270.887 130.561 269.296 136.729 271.772 137.105C274.249 137.481 275.307 131.641 275.307 131.641L270.887 130.561Z" fill="#263238" stroke="#263238" stroke-linecap="round" stroke-linejoin="round"/>
<path d="M251.97 130.062C251.97 130.062 252.331 122.659 252.683 119.485C253.036 116.311 259.243 113.669 265.41 113.841C271.576 114.013 277.193 119.281 277.898 121.399C278.603 123.518 277.898 131.698 277.898 131.698L277.619 135.125C277.619 135.125 269.469 131.853 262.228 131.477C254.987 131.101 252.503 131.649 252.503 131.649L251.97 130.062Z" fill="#263238" stroke="#263238" stroke-linecap="round" stroke-linejoin="round"/>
<path d="M257.463 121.874L254.708 121.399L254.609 122.021L256.192 122.275L256.085 123.518L257.25 123.87L257.356 124.876L258.832 125.375L257.463 121.874Z" fill="white"/>
<path d="M261.055 122.168L263.802 122.136L263.909 122.774H262.326L262.433 124.033L261.268 124.189L261.162 125.187L259.686 125.44L261.055 122.168Z" fill="white"/>
<path d="M267.32 131.968C264.776 132.623 262.165 132.98 259.538 133.031C255.651 133.031 248.058 131.264 245.598 131.264C244.414 131.238 243.23 131.298 242.056 131.444C245.418 130.201 248.921 129.377 252.486 128.99C257.98 128.426 265.762 131.085 267.32 131.968Z" fill="white" stroke="#263238" stroke-linecap="round" stroke-linejoin="round"/>
<path d="M245.778 197.58C245.778 197.58 243.818 194.357 243.506 194.25C243.195 194.144 240.595 192.811 240.169 192.672C239.743 192.533 238.734 192.418 239.013 193.334C239.292 194.25 241.153 195.33 241.153 195.33L241.883 197.326L245.778 197.58Z" fill="white" stroke="#263238" stroke-linecap="round" stroke-linejoin="round"/>
<path d="M256.242 167.297L253.708 183.436L256.373 183.845L257.808 174.643" stroke="#263238" stroke-linecap="round" stroke-linejoin="round"/>
<path d="M250.221 181L236.74 211.045L211 212.092L225.006 181.875L250.221 181Z" fill="#263238" stroke="#263238" stroke-linecap="round" stroke-linejoin="round"/>
<path d="M239.85 181.694L241.277 179.109L238.103 179.248L236.758 181.94L234.249 182.046L232.675 185.367H240.727L242.654 181.694H239.85Z" fill="white" stroke="#263238" stroke-linecap="round" stroke-linejoin="round"/>
<path d="M247.82 198.136C247.82 198.136 242.727 195.764 242.08 195.764L232.559 195.657C232.07 196.087 231.728 196.659 231.584 197.293C231.477 198.152 230.936 199.666 231.477 200.426C232.018 201.187 237.643 204.206 239.915 205.392C242.186 206.578 248.935 205.604 248.935 205.604C248.935 205.604 265.056 212.623 270.468 215.322C275.88 218.022 280.529 219.535 282.809 219.535C285.089 219.535 288 206.251 288 206.251L275.773 202.979L274.798 206.251C274.798 206.251 267.655 204.312 258.996 202.692C251.173 201.228 247.82 198.136 247.82 198.136Z" fill="white" stroke="#263238" stroke-linecap="round" stroke-linejoin="round"/>
<path d="M231.912 196.844C231.912 196.844 239.702 198.357 240.891 198.57" stroke="#263238" stroke-linecap="round" stroke-linejoin="round"/>
<path d="M231.371 198.357C231.371 198.357 239.374 201.056 239.809 201.163" stroke="#263238" stroke-linecap="round" stroke-linejoin="round"/>
<path d="M232.125 200.516C232.125 200.516 238.078 203.109 238.947 203.216" stroke="#263238" stroke-linecap="round" stroke-linejoin="round"/>
<path d="M275.627 174.97L272.347 204.909C272.347 204.909 278.743 207.682 282.843 208.385C285.181 208.798 287.552 209.004 289.927 208.999C289.927 208.999 293.027 184.868 292.83 178.569C292.633 172.271 291.781 166.389 288.361 165.481" fill="white"/>
<mask id="mask11_32_4040" style="mask-type:luminance" maskUnits="userSpaceOnUse" x="272" y="165" width="21" height="44">
<path d="M275.627 174.97L272.347 204.909C272.347 204.909 278.743 207.682 282.843 208.385C285.181 208.798 287.552 209.004 289.927 208.999C289.927 208.999 293.027 184.868 292.83 178.569C292.633 172.271 291.781 166.389 288.361 165.481" fill="white"/>
</mask>
<g mask="url(#mask11_32_4040)">
<path d="M280.957 203.682C280.137 203.404 284.065 178.324 281.244 172.974C280.834 172.214 280.424 171.829 280.006 171.723L277.833 173.359C276.25 175.935 275.028 180.59 275.028 180.59V180.68L272.322 204.909C272.322 204.909 275.938 206.48 279.473 207.551C279.694 207.24 279.825 207.036 279.825 207.036C279.825 207.036 284.065 205.907 286.328 205.621C288.591 205.334 281.81 203.936 280.957 203.682Z" fill="#EC287C"/>
<path opacity="0.5" d="M280.957 203.682C280.137 203.404 284.065 178.324 281.244 172.974C280.834 172.214 280.424 171.829 280.006 171.723L277.833 173.359C276.25 175.935 275.028 180.59 275.028 180.59V180.68L272.322 204.909C272.322 204.909 275.938 206.48 279.473 207.551C279.694 207.24 279.825 207.036 279.825 207.036C279.825 207.036 284.065 205.907 286.328 205.621C288.591 205.334 281.81 203.936 280.957 203.682Z" fill="white"/>
</g>
<path d="M275.627 174.97L272.347 204.909C272.347 204.909 278.743 207.682 282.843 208.385C285.181 208.798 287.552 209.004 289.927 208.999C289.927 208.999 293.027 184.868 292.83 178.569C292.633 172.271 291.781 166.389 288.361 165.481" stroke="#263238" stroke-linecap="round" stroke-linejoin="round"/>
</svg>
