<svg width="443" height="406" viewBox="0 0 443 406" fill="none" xmlns="http://www.w3.org/2000/svg">
<path d="M85.5255 346.231C160.835 385.569 282.882 385.569 358.174 346.231C433.467 306.893 433.484 243.136 358.174 203.798C282.864 164.459 160.818 164.468 85.5255 203.798C10.2332 243.127 10.242 306.902 85.5255 346.231Z" fill="#F5F5F5"/>
<path d="M63.1895 283.52H66.3614C67.8152 278.666 68.7682 273.675 69.2054 268.626C69.8965 259.279 65.3691 244.97 57.0761 240.177C48.7831 235.384 44.2911 241.311 47.0732 246.379C49.8552 251.447 59.2379 265.862 59.362 278.266L63.1895 283.52Z" fill="#EC287C"/>
<path d="M62.4271 283.52H63.3131C64.1788 277.399 64.1788 271.186 63.3131 265.065C61.8778 252.935 57.8908 247.3 54.1873 243.384C54.1063 243.298 53.9944 243.248 53.8765 243.245C53.7585 243.242 53.644 243.285 53.5583 243.366C53.4725 243.448 53.4224 243.559 53.4191 243.677C53.4158 243.795 53.4595 243.91 53.5405 243.996C57.1466 247.796 61.0272 253.29 62.4005 265.162C63.2782 271.249 63.2872 277.43 62.4271 283.52Z" fill="white"/>
<path d="M63.4461 283.52C61.8159 275.83 54.4089 266.686 47.4184 265.109C39.3115 263.337 35.3688 267.616 36.5295 271.311C37.6901 275.006 44.0959 276.724 50.3156 279.622C52.4099 280.591 54.3243 281.909 55.9772 283.52H63.4461Z" fill="#EC287C"/>
<path d="M60.4961 283.52H61.4441C58.0153 274.899 50.2185 268.75 43.8393 268.183C43.7815 268.177 43.7231 268.183 43.6676 268.2C43.612 268.217 43.5604 268.244 43.5158 268.282C43.4712 268.319 43.4345 268.364 43.4079 268.416C43.3812 268.468 43.3653 268.524 43.3608 268.582C43.3534 268.64 43.3581 268.699 43.3745 268.755C43.3908 268.811 43.4186 268.863 43.456 268.908C43.4934 268.953 43.5397 268.99 43.5919 269.016C43.6441 269.042 43.7012 269.057 43.7595 269.06C49.7843 269.601 57.147 275.378 60.4961 283.52Z" fill="white"/>
<path d="M349.456 202.46L356.092 205.942L356.65 201.786C353.363 192.519 356.065 182.011 359.618 177.634C363.171 173.257 362.489 170.041 361.204 168.606C359.919 167.17 355.046 166.081 350.226 171.716C345.407 177.351 344.299 184.191 345.105 191.092C345.619 195.407 347.887 199.837 349.456 202.46Z" fill="#EC287C"/>
<path opacity="0.2" d="M349.456 202.46L356.092 205.942L356.65 201.786C353.363 192.519 356.065 182.011 359.618 177.634C363.171 173.257 362.489 170.041 361.204 168.606C359.919 167.17 355.046 166.081 350.226 171.716C345.407 177.351 344.299 184.191 345.105 191.092C345.619 195.407 347.887 199.837 349.456 202.46Z" fill="black"/>
<path d="M352.193 203.895L353.504 204.586C353.492 204.561 353.477 204.538 353.46 204.515C351.582 202.283 349.154 191.349 350.173 184.944C351.431 177.032 355.489 171.866 358.962 169.678C359.005 169.652 359.042 169.617 359.071 169.577C359.1 169.536 359.12 169.49 359.131 169.441C359.141 169.392 359.142 169.342 359.133 169.293C359.124 169.243 359.105 169.197 359.077 169.155C359.021 169.07 358.934 169.011 358.835 168.989C358.736 168.968 358.632 168.986 358.546 169.04C355.002 171.317 350.714 176.66 349.411 184.828C348.472 190.791 350.35 200.236 352.193 203.895Z" fill="white"/>
<path d="M356.225 186.645C358.165 191.403 358.156 193.733 354.993 194.22C352.14 194.645 348.676 198.11 351.892 203.736L370.711 213.606C370.758 212.554 371.018 211.523 371.475 210.574C371.932 209.625 372.576 208.779 373.369 208.086C376.461 204.994 379.314 202.664 378.871 199.226C378.428 195.788 375.442 192.475 374.946 189.48C374.45 186.485 375.974 184.775 379.225 181.417C382.477 178.059 385.427 172.85 381.086 170.475C376.745 168.101 371.774 172.168 369.701 174.905C367.628 177.643 365.732 178.848 361.647 178.618C357.563 178.387 354.285 181.887 356.225 186.645Z" fill="#EC287C"/>
<path d="M361.55 208.804C361.461 194.202 371.925 177.103 377.746 173.647C377.832 173.592 377.894 173.507 377.918 173.408C377.943 173.309 377.929 173.204 377.879 173.116C377.826 173.03 377.742 172.969 377.644 172.944C377.547 172.919 377.444 172.933 377.356 172.983C371.456 176.527 360.903 193.635 360.788 208.423L361.55 208.804Z" fill="white"/>
<path d="M364.349 193.626C364.269 193.645 364.185 193.635 364.111 193.6C364.037 193.565 363.977 193.505 363.942 193.432C362.251 190.278 360.829 186.988 359.689 183.597C359.674 183.549 359.668 183.499 359.672 183.449C359.677 183.399 359.691 183.351 359.714 183.306C359.737 183.262 359.768 183.222 359.807 183.19C359.845 183.158 359.889 183.134 359.937 183.118C359.985 183.103 360.035 183.098 360.085 183.102C360.134 183.106 360.183 183.12 360.227 183.143C360.272 183.166 360.311 183.198 360.344 183.236C360.376 183.275 360.4 183.319 360.415 183.367C361.545 186.711 362.949 189.956 364.615 193.068C364.662 193.159 364.672 193.264 364.642 193.362C364.612 193.46 364.545 193.542 364.455 193.591L364.349 193.626Z" fill="white"/>
<path d="M361.834 202.575C361.761 202.588 361.686 202.581 361.617 202.555C361.549 202.528 361.488 202.483 361.444 202.424C361.385 202.34 361.363 202.235 361.381 202.134C361.399 202.033 361.457 201.943 361.541 201.884C365.357 199.213 369.986 197.959 374.627 198.34C374.728 198.353 374.82 198.405 374.883 198.486C374.945 198.567 374.973 198.669 374.96 198.77C374.947 198.871 374.894 198.962 374.814 199.025C374.733 199.087 374.631 199.115 374.53 199.102C370.085 198.764 365.659 199.955 361.984 202.478C361.941 202.52 361.89 202.553 361.834 202.575Z" fill="white"/>
<path d="M250.641 113.381L229.049 100.915L207.466 113.381L229.049 125.847L250.641 113.381Z" fill="#F5F5F5"/>
<path d="M229.049 150.788L250.641 138.322V113.381L229.049 125.847V150.788Z" fill="#EBEBEB"/>
<path d="M233.213 142.513C233.099 142.515 232.986 142.488 232.885 142.433C232.747 142.333 232.638 142.198 232.566 142.043C232.495 141.888 232.464 141.718 232.478 141.547V138.889V138.694H232.611L234.684 137.481V140.431C234.681 140.811 234.587 141.185 234.409 141.521C234.232 141.857 233.977 142.146 233.665 142.362C233.531 142.453 233.375 142.505 233.213 142.513ZM232.814 139.084V141.53C232.8 141.643 232.814 141.759 232.856 141.866C232.897 141.973 232.965 142.067 233.054 142.141C233.125 142.173 233.204 142.185 233.282 142.176C233.36 142.166 233.434 142.136 233.497 142.088C233.762 141.903 233.98 141.658 234.134 141.373C234.288 141.089 234.373 140.772 234.383 140.449V140.236H233.612L233.461 139.199L232.814 139.084ZM233.877 139.899H234.356V138.083L233.116 138.801L233.727 138.916L233.877 139.899Z" fill="white"/>
<path d="M233.586 144.622C233.541 144.622 233.498 144.604 233.467 144.572C233.435 144.541 233.417 144.498 233.417 144.453V142.238C233.416 142.216 233.419 142.194 233.427 142.173C233.435 142.152 233.448 142.132 233.464 142.117C233.48 142.101 233.499 142.088 233.52 142.08C233.541 142.072 233.563 142.069 233.586 142.07C233.63 142.07 233.673 142.088 233.705 142.119C233.736 142.151 233.754 142.194 233.754 142.238V144.418C233.758 144.443 233.756 144.468 233.75 144.492C233.743 144.516 233.731 144.538 233.715 144.558C233.699 144.577 233.68 144.592 233.657 144.604C233.635 144.615 233.611 144.621 233.586 144.622Z" fill="white"/>
<path d="M232.62 145.18C232.59 145.18 232.561 145.171 232.536 145.156C232.511 145.14 232.491 145.118 232.478 145.091C232.466 145.073 232.458 145.053 232.454 145.031C232.451 145.009 232.452 144.987 232.458 144.966C232.464 144.945 232.474 144.926 232.488 144.909C232.503 144.892 232.52 144.879 232.54 144.87L234.463 143.754C234.482 143.742 234.503 143.735 234.525 143.732C234.547 143.729 234.569 143.731 234.591 143.737C234.612 143.742 234.632 143.752 234.65 143.766C234.667 143.779 234.682 143.796 234.693 143.816C234.713 143.855 234.718 143.9 234.707 143.943C234.695 143.985 234.668 144.022 234.631 144.046L232.7 145.153L232.62 145.18Z" fill="white"/>
<path d="M239.495 141.352C239.435 141.371 239.37 141.371 239.309 141.352C239.245 141.309 239.193 141.249 239.158 141.179C239.124 141.109 239.109 141.031 239.114 140.954V140.502C239.113 140.48 239.116 140.459 239.124 140.438C239.131 140.418 239.143 140.399 239.158 140.383C239.173 140.368 239.191 140.355 239.211 140.346C239.231 140.338 239.252 140.334 239.274 140.334C239.296 140.332 239.319 140.336 239.34 140.344C239.361 140.352 239.38 140.364 239.396 140.38C239.412 140.396 239.424 140.415 239.432 140.436C239.44 140.457 239.443 140.479 239.442 140.502V140.874C239.442 140.945 239.442 140.98 239.442 140.98C239.442 140.98 239.495 140.98 239.548 140.98C239.652 140.887 239.733 140.771 239.787 140.643C239.84 140.514 239.865 140.375 239.859 140.236V137.33C239.859 137.308 239.863 137.287 239.872 137.267C239.88 137.247 239.893 137.229 239.908 137.214C239.924 137.199 239.943 137.187 239.963 137.18C239.984 137.173 240.005 137.169 240.027 137.171C240.069 137.171 240.11 137.187 240.14 137.217C240.17 137.247 240.186 137.288 240.186 137.33V140.289C240.193 140.486 240.154 140.683 240.073 140.862C239.991 141.042 239.869 141.201 239.717 141.326C239.645 141.349 239.57 141.358 239.495 141.352Z" fill="white"/>
<path d="M237.741 138.774V138.491C237.783 137.753 237.996 137.035 238.366 136.395C238.735 135.755 239.25 135.21 239.868 134.805C240.089 134.619 240.362 134.505 240.65 134.48C240.938 134.454 241.227 134.518 241.477 134.662C241.728 134.806 241.928 135.024 242.05 135.285C242.173 135.547 242.212 135.84 242.162 136.125V136.222L237.741 138.774ZM240.86 134.84C240.567 134.85 240.282 134.938 240.036 135.097C239.51 135.444 239.064 135.9 238.728 136.433C238.391 136.966 238.173 137.565 238.087 138.189L241.826 136.036C241.84 135.827 241.8 135.618 241.71 135.429C241.62 135.24 241.483 135.077 241.312 134.956C241.174 134.877 241.018 134.838 240.86 134.84Z" fill="white"/>
<path d="M245.422 137.95C245.379 137.95 245.338 137.934 245.306 137.904C245.275 137.874 245.256 137.834 245.254 137.791V132.138C245.254 132.093 245.272 132.051 245.303 132.019C245.335 131.987 245.378 131.97 245.422 131.97C245.467 131.97 245.51 131.987 245.541 132.019C245.573 132.051 245.591 132.093 245.591 132.138V137.791C245.588 137.834 245.57 137.874 245.538 137.904C245.507 137.934 245.465 137.95 245.422 137.95Z" fill="white"/>
<path d="M244.971 133.423H244.909C244.889 133.414 244.87 133.401 244.855 133.386C244.839 133.37 244.827 133.351 244.819 133.33C244.81 133.31 244.806 133.288 244.807 133.266C244.807 133.243 244.812 133.222 244.82 133.201L245.414 131.837L246.07 132.599C246.084 132.615 246.094 132.634 246.101 132.654C246.108 132.675 246.11 132.696 246.108 132.718C246.107 132.739 246.101 132.76 246.091 132.779C246.082 132.798 246.068 132.815 246.052 132.829C246.036 132.843 246.017 132.854 245.996 132.86C245.976 132.867 245.954 132.87 245.933 132.868C245.912 132.866 245.891 132.86 245.872 132.851C245.853 132.841 245.836 132.828 245.822 132.811L245.503 132.457L245.122 133.343C245.107 133.369 245.085 133.391 245.058 133.405C245.031 133.419 245.001 133.425 244.971 133.423Z" fill="white"/>
<path d="M246.991 137.082C246.948 137.08 246.907 137.061 246.878 137.03C246.848 136.998 246.832 136.957 246.832 136.914V131.261C246.826 131.236 246.826 131.211 246.831 131.186C246.837 131.161 246.848 131.138 246.864 131.118C246.879 131.098 246.899 131.082 246.922 131.071C246.945 131.06 246.97 131.054 246.995 131.054C247.021 131.054 247.046 131.06 247.069 131.071C247.092 131.082 247.112 131.098 247.127 131.118C247.143 131.138 247.154 131.161 247.16 131.186C247.165 131.211 247.165 131.236 247.159 131.261V136.914C247.159 136.958 247.142 137.001 247.11 137.033C247.079 137.064 247.036 137.082 246.991 137.082Z" fill="white"/>
<path d="M246.503 132.546H246.441C246.421 132.537 246.402 132.524 246.387 132.508C246.371 132.493 246.359 132.474 246.351 132.453C246.343 132.433 246.339 132.411 246.339 132.389C246.339 132.366 246.344 132.344 246.353 132.324L246.946 130.96L247.602 131.722C247.631 131.753 247.647 131.794 247.647 131.837C247.647 131.88 247.631 131.921 247.602 131.952C247.569 131.982 247.527 131.998 247.482 131.998C247.438 131.998 247.395 131.982 247.363 131.952L247.053 131.589L246.672 132.475C246.653 132.501 246.628 132.522 246.598 132.535C246.568 132.548 246.535 132.551 246.503 132.546Z" fill="white"/>
<path d="M229.049 150.788L207.457 138.322L207.466 113.381L229.049 125.847V150.788Z" fill="#E0E0E0"/>
<path d="M219.427 120.292L241.001 107.817L238.564 106.409L216.981 118.883L219.427 120.292Z" fill="white"/>
<path d="M210.736 127.681L218.471 132.111C218.916 132.405 219.286 132.797 219.552 133.259C219.818 133.72 219.973 134.238 220.003 134.769V139.536C220.003 140.52 219.312 140.918 218.471 140.422L210.736 135.992C210.291 135.7 209.92 135.307 209.654 134.845C209.388 134.384 209.233 133.866 209.203 133.334V128.567C209.203 127.584 209.894 127.194 210.736 127.681Z" fill="#EC287C"/>
<path d="M210.142 128.869L210.434 129.046V134.335L210.142 134.167V128.869Z" fill="#EC287C"/>
<path d="M211.338 129.56L211.843 129.861V135.15L211.338 134.858V129.56Z" fill="#EC287C"/>
<path d="M212.534 130.251L212.827 130.419V135.717L212.534 135.549V130.251Z" fill="#EC287C"/>
<path d="M213.429 130.765L214.022 131.11V136.409L213.429 136.054V130.765Z" fill="#EC287C"/>
<path d="M214.917 131.633L215.218 131.801V137.1L214.917 136.922V131.633Z" fill="#EC287C"/>
<path d="M215.786 132.12L216.406 132.492V137.782L215.777 137.41L215.786 132.12Z" fill="#EC287C"/>
<path d="M217.31 133.015L217.602 133.184V138.473L217.31 138.305V133.015Z" fill="#EC287C"/>
<path d="M217.992 133.396L218.143 133.485V138.774L217.992 138.694V133.396Z" fill="#EC287C"/>
<path d="M216.77 132.723L216.911 132.811V138.101L216.77 138.021V132.723Z" fill="#EC287C"/>
<path d="M214.359 131.314L214.501 131.394V136.692L214.359 136.603V131.314Z" fill="#EC287C"/>
<path d="M213.039 130.552L213.19 130.641V135.939L213.039 135.85V130.552Z" fill="#EC287C"/>
<path d="M212.091 130.029L212.241 130.118V135.416L212.091 135.328V130.029Z" fill="#EC287C"/>
<path d="M210.807 129.25L210.957 129.338V134.637L210.807 134.548V129.25Z" fill="#EC287C"/>
<path d="M218.506 133.697L218.798 133.866V139.164L218.506 138.996V133.697Z" fill="#EC287C"/>
<path d="M221.855 109.226L196.657 94.6868L171.468 109.226L196.657 123.774L221.855 109.226Z" fill="#F5F5F5"/>
<path d="M185.856 117.537L211.054 102.997L208.609 101.589L183.42 116.128L185.856 117.537Z" fill="white"/>
<path d="M196.657 169.483L221.855 154.944V109.226L196.657 123.774V169.483Z" fill="#EBEBEB"/>
<path d="M200.822 161.252C200.706 161.254 200.592 161.223 200.494 161.163C200.354 161.065 200.243 160.931 200.171 160.775C200.1 160.62 200.07 160.448 200.086 160.277V157.619V157.424H200.228L202.292 156.211V159.161C202.288 159.541 202.193 159.914 202.016 160.25C201.839 160.586 201.584 160.875 201.273 161.093C201.14 161.186 200.984 161.241 200.822 161.252ZM200.423 157.823V160.269C200.408 160.382 200.422 160.498 200.464 160.605C200.506 160.712 200.574 160.806 200.662 160.88C200.734 160.912 200.813 160.924 200.891 160.915C200.969 160.905 201.043 160.875 201.105 160.827C201.37 160.642 201.589 160.397 201.743 160.112C201.896 159.828 201.982 159.511 201.991 159.188V158.975H201.22L201.07 157.938L200.423 157.823ZM201.486 158.638H202.009V156.822L200.768 157.549L201.38 157.655L201.486 158.638Z" fill="white"/>
<path d="M201.194 163.325C201.149 163.325 201.106 163.307 201.075 163.276C201.043 163.244 201.025 163.202 201.025 163.157V160.933C201.025 160.911 201.03 160.89 201.038 160.87C201.047 160.85 201.059 160.832 201.075 160.817C201.091 160.802 201.11 160.791 201.13 160.783C201.15 160.776 201.172 160.772 201.194 160.774C201.237 160.774 201.278 160.79 201.31 160.82C201.341 160.849 201.36 160.89 201.362 160.933V163.157C201.36 163.201 201.341 163.242 201.31 163.274C201.279 163.305 201.238 163.323 201.194 163.325Z" fill="white"/>
<path d="M200.237 163.91C200.208 163.911 200.18 163.904 200.155 163.89C200.13 163.876 200.109 163.855 200.095 163.83C200.075 163.791 200.07 163.746 200.081 163.703C200.093 163.66 200.12 163.624 200.157 163.6L202.079 162.492C202.099 162.481 202.12 162.474 202.142 162.471C202.164 162.468 202.186 162.47 202.208 162.476C202.229 162.481 202.249 162.491 202.267 162.505C202.284 162.518 202.299 162.535 202.31 162.554C202.321 162.573 202.328 162.593 202.331 162.615C202.333 162.636 202.332 162.658 202.326 162.678C202.32 162.699 202.31 162.718 202.297 162.735C202.283 162.752 202.267 162.766 202.248 162.776L200.316 163.892C200.292 163.906 200.264 163.913 200.237 163.91Z" fill="white"/>
<path d="M207.103 160.056C207.038 160.056 206.974 160.041 206.917 160.012C206.852 159.968 206.8 159.908 206.766 159.838C206.731 159.768 206.716 159.691 206.722 159.613V159.152C206.722 159.13 206.726 159.109 206.735 159.089C206.743 159.069 206.756 159.051 206.772 159.036C206.787 159.021 206.806 159.01 206.826 159.002C206.847 158.995 206.868 158.991 206.89 158.993C206.911 158.993 206.932 158.997 206.951 159.005C206.971 159.013 206.988 159.025 207.003 159.039C207.018 159.054 207.029 159.072 207.037 159.091C207.045 159.11 207.05 159.131 207.05 159.152V159.613C207.05 159.675 207.05 159.71 207.05 159.719C207.05 159.728 207.103 159.719 207.156 159.719C207.259 159.624 207.341 159.507 207.394 159.377C207.448 159.247 207.472 159.107 207.466 158.966V156.016C207.466 155.971 207.484 155.928 207.515 155.897C207.547 155.865 207.59 155.847 207.634 155.847C207.678 155.85 207.72 155.868 207.751 155.899C207.782 155.93 207.801 155.972 207.803 156.016V158.966C207.811 159.164 207.772 159.362 207.689 159.542C207.606 159.723 207.481 159.88 207.324 160.003C207.255 160.037 207.18 160.055 207.103 160.056Z" fill="white"/>
<path d="M205.349 157.478V157.185C205.391 156.449 205.605 155.732 205.974 155.094C206.344 154.455 206.858 153.912 207.475 153.508C207.696 153.322 207.969 153.209 208.257 153.183C208.545 153.157 208.834 153.221 209.084 153.365C209.335 153.509 209.535 153.727 209.658 153.989C209.78 154.251 209.819 154.544 209.77 154.828V154.926L205.349 157.478ZM208.467 153.535C208.175 153.548 207.891 153.637 207.643 153.792C207.116 154.14 206.669 154.597 206.333 155.131C205.997 155.666 205.779 156.267 205.694 156.893L209.433 154.74C209.446 154.53 209.406 154.319 209.316 154.129C209.226 153.938 209.09 153.774 208.919 153.65C208.781 153.575 208.625 153.535 208.467 153.535Z" fill="white"/>
<path d="M213.066 156.654C213.021 156.654 212.978 156.636 212.947 156.604C212.915 156.573 212.897 156.53 212.897 156.485V150.833C212.897 150.788 212.915 150.745 212.947 150.714C212.978 150.682 213.021 150.664 213.066 150.664C213.11 150.664 213.153 150.682 213.185 150.714C213.216 150.745 213.234 150.788 213.234 150.833V156.485C213.234 156.53 213.216 156.573 213.185 156.604C213.153 156.636 213.11 156.654 213.066 156.654Z" fill="white"/>
<path d="M212.578 152.126H212.516C212.496 152.118 212.478 152.107 212.462 152.092C212.447 152.077 212.435 152.059 212.426 152.039C212.418 152.019 212.414 151.998 212.414 151.976C212.414 151.955 212.419 151.933 212.427 151.914L213.021 150.549L213.677 151.311C213.705 151.344 213.719 151.387 213.716 151.43C213.712 151.473 213.692 151.513 213.659 151.541C213.626 151.57 213.583 151.584 213.54 151.58C213.497 151.577 213.457 151.557 213.429 151.524L213.11 151.16L212.729 152.046C212.714 152.073 212.692 152.094 212.665 152.108C212.638 152.122 212.608 152.129 212.578 152.126Z" fill="white"/>
<path d="M214.598 155.777C214.556 155.777 214.515 155.76 214.485 155.73C214.456 155.7 214.439 155.659 214.439 155.617V149.964C214.438 149.943 214.441 149.921 214.448 149.901C214.456 149.88 214.467 149.862 214.482 149.846C214.497 149.83 214.515 149.818 214.535 149.809C214.555 149.8 214.576 149.796 214.598 149.796C214.621 149.795 214.643 149.798 214.664 149.806C214.685 149.814 214.704 149.827 214.72 149.842C214.736 149.858 214.748 149.877 214.756 149.898C214.764 149.919 214.768 149.942 214.767 149.964V155.617C214.767 155.639 214.762 155.66 214.754 155.68C214.745 155.7 214.733 155.718 214.717 155.733C214.701 155.748 214.682 155.76 214.662 155.767C214.642 155.775 214.62 155.778 214.598 155.777Z" fill="white"/>
<path d="M214.12 151.249H214.049C214.009 151.23 213.978 151.196 213.962 151.155C213.946 151.114 213.945 151.069 213.96 151.028L214.554 149.663L215.219 150.425C215.246 150.457 215.261 150.498 215.261 150.54C215.261 150.582 215.246 150.623 215.219 150.655C215.203 150.671 215.184 150.684 215.164 150.692C215.143 150.701 215.121 150.705 215.099 150.705C215.077 150.705 215.055 150.701 215.034 150.692C215.014 150.684 214.995 150.671 214.979 150.655L214.669 150.292L214.288 151.178C214.271 151.206 214.245 151.227 214.215 151.24C214.185 151.253 214.152 151.256 214.12 151.249Z" fill="white"/>
<path d="M196.657 169.483L171.468 154.944V109.226L196.657 123.774V169.483Z" fill="#E0E0E0"/>
<path d="M176.589 145.437L184.315 149.867C184.762 150.158 185.135 150.551 185.402 151.012C185.67 151.474 185.826 151.992 185.857 152.525V157.3C185.857 158.275 185.166 158.674 184.315 158.186L176.589 153.756C176.143 153.465 175.771 153.073 175.505 152.611C175.238 152.149 175.085 151.631 175.057 151.098V146.332C175.057 145.304 175.748 144.95 176.589 145.437Z" fill="#F5F5F5"/>
<path d="M175.995 146.624L176.287 146.801V152.091L175.995 151.922V146.624Z" fill="#E0E0E0"/>
<path d="M177.191 147.315L177.696 147.616V152.915L177.191 152.613V147.315Z" fill="#E0E0E0"/>
<path d="M178.379 148.006L178.68 148.175L178.671 153.473L178.379 153.305V148.006Z" fill="#E0E0E0"/>
<path d="M179.282 148.52L179.867 148.866V154.164L179.282 153.81V148.52Z" fill="#E0E0E0"/>
<path d="M180.771 149.388L181.064 149.557V154.855L180.771 154.678V149.388Z" fill="#E0E0E0"/>
<path d="M181.631 149.876L182.26 150.248V155.537L181.631 155.165V149.876Z" fill="#E0E0E0"/>
<path d="M183.163 150.762L183.455 150.939V156.228L183.163 156.06V150.762Z" fill="#E0E0E0"/>
<path d="M183.846 151.152L183.996 151.24V156.538L183.846 156.45V151.152Z" fill="#E0E0E0"/>
<path d="M182.623 150.478L182.765 150.567V155.856L182.623 155.777V150.478Z" fill="#E0E0E0"/>
<path d="M180.213 149.07L180.355 149.149V154.448L180.213 154.359V149.07Z" fill="#E0E0E0"/>
<path d="M178.893 148.308L179.034 148.396V153.694L178.893 153.606V148.308Z" fill="#E0E0E0"/>
<path d="M177.944 147.785L178.095 147.873V153.172L177.944 153.083V147.785Z" fill="#E0E0E0"/>
<path d="M176.66 147.005L176.811 147.094V152.392L176.66 152.303V147.005Z" fill="#E0E0E0"/>
<path d="M184.359 151.453L184.652 151.621V156.919L184.359 156.751V151.453Z" fill="#E0E0E0"/>
<path d="M183.42 122.029L185.856 123.438V117.537L183.42 116.128V122.029Z" fill="#F0F0F0"/>
<path d="M146.271 157.017L128.276 146.633L103.087 161.172L121.082 171.565L146.271 157.017Z" fill="#F5F5F5"/>
<path d="M121.081 213.118L146.27 198.579V157.017L121.081 171.565V213.118Z" fill="#EBEBEB"/>
<path d="M125.236 204.852C125.123 204.854 125.013 204.824 124.917 204.763C124.778 204.664 124.667 204.53 124.596 204.375C124.524 204.219 124.495 204.048 124.51 203.877V201.219V201.025H124.643L126.716 199.811V202.761C126.711 203.141 126.617 203.514 126.44 203.85C126.262 204.186 126.008 204.475 125.697 204.693C125.56 204.785 125.401 204.84 125.236 204.852ZM124.846 201.423V203.869C124.83 203.983 124.843 204.099 124.885 204.206C124.927 204.313 124.996 204.407 125.086 204.48C125.158 204.509 125.236 204.519 125.314 204.509C125.391 204.5 125.465 204.472 125.529 204.427C125.794 204.242 126.012 203.997 126.166 203.712C126.32 203.428 126.405 203.111 126.415 202.788V202.575H125.644L125.493 201.538L124.846 201.423ZM125.91 202.238H126.388V200.413L125.148 201.14L125.759 201.246L125.91 202.238Z" fill="white"/>
<path d="M125.618 206.961C125.573 206.961 125.53 206.943 125.499 206.911C125.467 206.88 125.449 206.837 125.449 206.792V204.569C125.449 204.547 125.454 204.525 125.462 204.505C125.471 204.485 125.483 204.467 125.499 204.453C125.515 204.438 125.533 204.426 125.554 204.419C125.574 204.411 125.596 204.408 125.618 204.409C125.66 204.409 125.7 204.426 125.73 204.456C125.76 204.486 125.777 204.526 125.777 204.569V206.792C125.777 206.836 125.761 206.877 125.731 206.908C125.701 206.94 125.661 206.958 125.618 206.961Z" fill="white"/>
<path d="M124.652 207.51C124.623 207.512 124.594 207.505 124.569 207.491C124.544 207.477 124.524 207.456 124.51 207.43C124.497 207.412 124.489 207.391 124.484 207.369C124.48 207.348 124.481 207.325 124.486 207.303C124.491 207.282 124.5 207.261 124.513 207.243C124.527 207.226 124.544 207.211 124.563 207.2L126.495 206.092C126.514 206.081 126.535 206.074 126.557 206.071C126.579 206.068 126.601 206.07 126.623 206.076C126.644 206.081 126.664 206.091 126.682 206.105C126.699 206.118 126.714 206.135 126.725 206.154C126.736 206.173 126.743 206.194 126.746 206.215C126.749 206.236 126.747 206.258 126.741 206.278C126.735 206.299 126.726 206.318 126.712 206.335C126.699 206.352 126.682 206.366 126.663 206.376L124.732 207.492C124.707 207.506 124.68 207.513 124.652 207.51Z" fill="white"/>
<path d="M131.528 203.691C131.463 203.692 131.399 203.676 131.342 203.647C131.277 203.604 131.225 203.544 131.191 203.474C131.156 203.404 131.141 203.326 131.147 203.248V202.788C131.147 202.745 131.163 202.705 131.193 202.675C131.223 202.645 131.264 202.628 131.306 202.628C131.328 202.627 131.349 202.63 131.37 202.638C131.39 202.645 131.409 202.657 131.425 202.672C131.44 202.687 131.453 202.705 131.461 202.725C131.47 202.744 131.474 202.766 131.474 202.788V203.248C131.474 203.31 131.474 203.346 131.474 203.355C131.474 203.364 131.528 203.355 131.581 203.355C131.682 203.258 131.762 203.141 131.816 203.011C131.869 202.881 131.895 202.742 131.891 202.602V199.651C131.885 199.627 131.885 199.601 131.89 199.576C131.896 199.551 131.907 199.528 131.923 199.508C131.939 199.488 131.959 199.472 131.981 199.461C132.004 199.45 132.029 199.445 132.055 199.445C132.08 199.445 132.105 199.45 132.128 199.461C132.151 199.472 132.171 199.488 132.187 199.508C132.202 199.528 132.213 199.551 132.219 199.576C132.225 199.601 132.224 199.627 132.219 199.651V202.602C132.226 202.799 132.187 202.995 132.106 203.175C132.024 203.355 131.902 203.514 131.749 203.638C131.68 203.673 131.604 203.691 131.528 203.691Z" fill="white"/>
<path d="M129.772 201.122V200.83C129.814 200.093 130.029 199.377 130.398 198.738C130.767 198.099 131.281 197.556 131.899 197.153C132.119 196.965 132.392 196.849 132.68 196.823C132.968 196.796 133.258 196.86 133.509 197.005C133.759 197.149 133.959 197.368 134.08 197.631C134.201 197.894 134.238 198.188 134.185 198.473V198.57L129.772 201.122ZM132.891 197.179C132.599 197.193 132.315 197.281 132.067 197.436C131.54 197.784 131.093 198.241 130.757 198.776C130.421 199.311 130.203 199.911 130.118 200.537L133.857 198.375C133.869 198.167 133.829 197.958 133.739 197.769C133.649 197.58 133.513 197.417 133.343 197.294C133.208 197.217 133.056 197.175 132.9 197.17L132.891 197.179Z" fill="white"/>
<path d="M137.49 200.289C137.445 200.289 137.402 200.271 137.371 200.24C137.339 200.208 137.321 200.165 137.321 200.121V194.468C137.321 194.424 137.339 194.381 137.371 194.349C137.402 194.318 137.445 194.3 137.49 194.3C137.534 194.3 137.577 194.318 137.609 194.349C137.64 194.381 137.658 194.424 137.658 194.468V200.121C137.658 200.165 137.64 200.208 137.609 200.24C137.577 200.271 137.534 200.289 137.49 200.289Z" fill="white"/>
<path d="M137.003 195.806H136.941C136.921 195.798 136.902 195.786 136.887 195.771C136.872 195.756 136.859 195.738 136.851 195.719C136.843 195.699 136.839 195.677 136.839 195.656C136.839 195.634 136.844 195.613 136.852 195.593L137.446 194.229L138.101 194.991C138.13 195.024 138.144 195.067 138.14 195.11C138.137 195.153 138.117 195.193 138.084 195.221C138.067 195.235 138.049 195.246 138.028 195.252C138.008 195.259 137.986 195.262 137.965 195.26C137.922 195.257 137.882 195.236 137.853 195.204L137.534 194.84L137.153 195.726C137.138 195.752 137.116 195.774 137.09 195.788C137.063 195.802 137.033 195.808 137.003 195.806Z" fill="white"/>
<path d="M139.023 199.412C138.98 199.412 138.938 199.396 138.907 199.366C138.875 199.336 138.857 199.296 138.854 199.253V193.6C138.854 193.555 138.872 193.512 138.904 193.481C138.935 193.449 138.978 193.432 139.023 193.432C139.045 193.43 139.068 193.434 139.089 193.442C139.11 193.45 139.129 193.462 139.145 193.478C139.161 193.494 139.173 193.513 139.181 193.534C139.189 193.555 139.192 193.577 139.191 193.6V199.253C139.191 199.274 139.187 199.296 139.178 199.316C139.17 199.336 139.157 199.354 139.141 199.369C139.126 199.384 139.107 199.395 139.087 199.403C139.066 199.41 139.045 199.413 139.023 199.412Z" fill="white"/>
<path d="M138.535 194.92C138.515 194.927 138.493 194.927 138.473 194.92C138.453 194.912 138.435 194.9 138.419 194.885C138.404 194.87 138.392 194.852 138.383 194.833C138.375 194.813 138.371 194.791 138.371 194.77C138.371 194.748 138.376 194.727 138.384 194.707L138.978 193.343L139.634 194.105C139.663 194.136 139.679 194.177 139.679 194.22C139.679 194.263 139.663 194.304 139.634 194.335C139.618 194.351 139.599 194.364 139.579 194.372C139.558 194.381 139.536 194.385 139.514 194.385C139.492 194.385 139.47 194.381 139.449 194.372C139.429 194.364 139.41 194.351 139.394 194.335L139.084 193.972L138.703 194.858C138.684 194.883 138.658 194.902 138.628 194.913C138.598 194.924 138.566 194.927 138.535 194.92Z" fill="white"/>
<path d="M121.082 213.118L103.087 202.735V161.172L121.082 171.565V213.118Z" fill="#E0E0E0"/>
<path d="M111.441 171.902L113.878 173.31V167.41L111.441 166.001V171.902Z" fill="#F5F5F5"/>
<path d="M113.878 167.41L139.076 152.862L136.63 151.453L111.441 166.001L113.878 167.41Z" fill="white"/>
<path d="M113.878 192.342L81.4947 173.647L49.1025 192.342L81.4947 211.045L113.878 192.342Z" fill="#F5F5F5"/>
<path d="M81.4951 235.977L113.878 217.283V192.342L81.4951 211.045V235.977Z" fill="#EBEBEB"/>
<path d="M85.6498 227.702C85.5377 227.7 85.428 227.669 85.3309 227.613C85.1924 227.513 85.0821 227.379 85.0107 227.224C84.9393 227.069 84.9092 226.898 84.9233 226.727V224.069V223.874H85.0562L87.1294 222.652V225.611C87.1237 225.989 87.0284 226.361 86.8512 226.695C86.6741 227.029 86.4203 227.317 86.1105 227.534C85.9742 227.629 85.8154 227.687 85.6498 227.702ZM85.2511 224.273V226.719C85.2354 226.831 85.2491 226.946 85.2911 227.051C85.333 227.157 85.4017 227.25 85.4903 227.321C85.5629 227.354 85.6429 227.368 85.7222 227.36C85.8016 227.352 85.8775 227.323 85.9422 227.277C86.2065 227.091 86.4241 226.846 86.5779 226.561C86.7316 226.277 86.8173 225.961 86.8282 225.638V225.416H86.0308L85.8802 224.379L85.2511 224.273ZM86.3143 225.088H86.8282V223.272L85.5967 223.999L86.208 224.105L86.3143 225.088Z" fill="white"/>
<path d="M86.0223 229.811C86.0014 229.811 85.9806 229.807 85.9613 229.799C85.9419 229.791 85.9243 229.779 85.9095 229.764C85.8947 229.749 85.883 229.732 85.875 229.712C85.8669 229.693 85.8628 229.672 85.8628 229.651V227.427C85.857 227.403 85.8569 227.377 85.8625 227.352C85.868 227.327 85.8791 227.304 85.8948 227.284C85.9106 227.265 85.9306 227.248 85.9535 227.237C85.9763 227.226 86.0014 227.221 86.0267 227.221C86.0521 227.221 86.0771 227.226 86.1 227.237C86.1228 227.248 86.1429 227.265 86.1586 227.284C86.1744 227.304 86.1855 227.327 86.191 227.352C86.1966 227.377 86.1964 227.403 86.1906 227.427V229.651C86.1907 229.673 86.1863 229.694 86.1777 229.714C86.1692 229.734 86.1566 229.752 86.1408 229.767C86.1251 229.782 86.1064 229.794 86.0861 229.801C86.0657 229.809 86.044 229.812 86.0223 229.811Z" fill="white"/>
<path d="M85.0562 230.36C85.0208 230.358 84.9869 230.344 84.9595 230.322C84.9321 230.299 84.9126 230.268 84.9037 230.234C84.8949 230.2 84.8972 230.163 84.9102 230.13C84.9233 230.097 84.9465 230.069 84.9765 230.05L86.908 228.942C86.9255 228.93 86.9456 228.921 86.9668 228.917C86.988 228.913 87.0099 228.913 87.0309 228.918C87.0519 228.923 87.0716 228.933 87.0886 228.946C87.1056 228.96 87.1195 228.976 87.1295 228.996C87.1422 229.014 87.151 229.035 87.1552 229.056C87.1594 229.078 87.159 229.101 87.154 229.123C87.149 229.144 87.1395 229.165 87.1261 229.182C87.1127 229.2 87.0958 229.215 87.0763 229.226L85.1448 230.36H85.0562Z" fill="white"/>
<path d="M91.9321 226.55C91.8737 226.563 91.8132 226.563 91.7549 226.55C91.6872 226.507 91.6325 226.446 91.5966 226.375C91.5607 226.303 91.545 226.223 91.5511 226.143V225.691C91.5511 225.646 91.5688 225.603 91.6004 225.572C91.632 225.54 91.6748 225.522 91.7194 225.522C91.7641 225.522 91.8069 225.54 91.8385 225.572C91.87 225.603 91.8878 225.646 91.8878 225.691V226.143C91.8756 226.18 91.8756 226.22 91.8878 226.258C91.8878 226.258 91.9409 226.258 92.003 226.258C92.1029 226.16 92.1814 226.043 92.2333 225.913C92.2851 225.783 92.3093 225.644 92.3042 225.505V222.554C92.3063 222.51 92.3248 222.469 92.3559 222.438C92.387 222.407 92.4286 222.388 92.4725 222.386C92.5172 222.386 92.56 222.404 92.5916 222.435C92.6231 222.467 92.6409 222.51 92.6409 222.554V225.505C92.6482 225.702 92.6096 225.898 92.5281 226.078C92.4466 226.258 92.3245 226.417 92.1713 226.541C92.0934 226.563 92.0114 226.566 91.9321 226.55Z" fill="white"/>
<path d="M90.1865 223.972V223.68C90.225 222.942 90.4378 222.224 90.8074 221.585C91.1771 220.946 91.693 220.404 92.3129 220.003C92.533 219.815 92.8059 219.699 93.0942 219.673C93.3825 219.646 93.6719 219.71 93.9226 219.854C94.1733 219.999 94.373 220.218 94.4941 220.481C94.6152 220.744 94.6518 221.038 94.5988 221.323V221.42L90.1865 223.972ZM93.3052 220.029C93.0106 220.044 92.7243 220.133 92.4724 220.286C91.9468 220.635 91.5018 221.092 91.1672 221.627C90.8326 222.162 90.616 222.762 90.5321 223.387L94.2621 221.225C94.2764 221.017 94.2376 220.809 94.1492 220.62C94.0609 220.431 93.926 220.267 93.7571 220.144C93.6195 220.066 93.4634 220.027 93.3052 220.029Z" fill="white"/>
<path d="M97.9032 223.148C97.8808 223.149 97.8583 223.146 97.8373 223.138C97.8163 223.13 97.7972 223.117 97.7813 223.102C97.7655 223.086 97.7531 223.067 97.7451 223.046C97.7371 223.025 97.7336 223.002 97.7349 222.98V217.327C97.7291 217.302 97.729 217.277 97.7345 217.252C97.7401 217.227 97.7511 217.204 97.7669 217.184C97.7827 217.164 97.8027 217.148 97.8256 217.137C97.8484 217.126 97.8734 217.12 97.8988 217.12C97.9242 217.12 97.9492 217.126 97.9721 217.137C97.9949 217.148 98.0149 217.164 98.0307 217.184C98.0465 217.204 98.0575 217.227 98.0631 217.252C98.0686 217.277 98.0685 217.302 98.0627 217.327V222.98C98.0639 223.001 98.0607 223.023 98.0532 223.043C98.0457 223.064 98.0342 223.082 98.0193 223.098C98.0043 223.114 97.9863 223.126 97.9664 223.135C97.9464 223.144 97.9249 223.148 97.9032 223.148Z" fill="white"/>
<path d="M97.46 218.62H97.3891C97.3687 218.612 97.3502 218.599 97.335 218.583C97.3197 218.567 97.3079 218.548 97.3004 218.527C97.2929 218.506 97.2899 218.484 97.2914 218.462C97.2929 218.44 97.2991 218.419 97.3094 218.399L97.8941 217.035L98.5586 217.797C98.588 217.831 98.6026 217.875 98.5993 217.92C98.596 217.965 98.575 218.006 98.5409 218.036C98.5068 218.065 98.4625 218.08 98.4176 218.076C98.3728 218.073 98.3311 218.052 98.3017 218.018L97.9916 217.655L97.6106 218.541C97.5949 218.566 97.5726 218.587 97.5461 218.601C97.5197 218.615 97.4899 218.622 97.46 218.62Z" fill="white"/>
<path d="M99.4359 222.271C99.3913 222.271 99.3485 222.253 99.3169 222.222C99.2853 222.19 99.2676 222.147 99.2676 222.102V216.45C99.2676 216.405 99.2853 216.362 99.3169 216.331C99.3485 216.299 99.3913 216.281 99.4359 216.281C99.4806 216.281 99.5234 216.299 99.555 216.331C99.5865 216.362 99.6043 216.405 99.6043 216.45V222.102C99.6043 222.147 99.5865 222.19 99.555 222.222C99.5234 222.253 99.4806 222.271 99.4359 222.271Z" fill="white"/>
<path d="M98.9491 217.743H98.8871C98.867 217.736 98.8487 217.724 98.8333 217.709C98.8179 217.694 98.8057 217.676 98.7974 217.656C98.7891 217.636 98.785 217.615 98.7852 217.593C98.7853 217.572 98.7899 217.55 98.7985 217.531L99.3921 216.157L100.048 216.919C100.064 216.935 100.076 216.954 100.085 216.974C100.093 216.995 100.098 217.017 100.098 217.039C100.098 217.061 100.093 217.083 100.085 217.104C100.076 217.124 100.064 217.143 100.048 217.159C100.033 217.174 100.015 217.187 99.9952 217.195C99.9754 217.203 99.9541 217.208 99.9326 217.208C99.9111 217.208 99.8898 217.203 99.87 217.195C99.8502 217.187 99.8323 217.174 99.8174 217.159L99.4985 216.795L99.1175 217.681C99.0989 217.707 99.0729 217.727 99.0429 217.738C99.0128 217.749 98.9802 217.751 98.9491 217.743Z" fill="white"/>
<path d="M81.4947 235.977L49.1025 217.283V192.342L81.4947 211.045V235.977Z" fill="#E0E0E0"/>
<path d="M64.0762 206.89L66.5127 208.299V202.398L64.0762 200.989V206.89Z" fill="#F5F5F5"/>
<path d="M66.5127 202.398L98.9048 183.703L96.4683 182.286L64.0762 200.989L66.5127 202.398Z" fill="white"/>
<path d="M54.232 207.776L61.9579 212.206C62.4049 212.497 62.7772 212.89 63.045 213.351C63.3127 213.813 63.4684 214.331 63.4996 214.864V219.639C63.4996 220.614 62.8085 221.013 61.9579 220.525L54.232 216.095C53.7852 215.804 53.4135 215.412 53.1471 214.95C52.8807 214.488 52.7273 213.97 52.6992 213.437V208.671C52.6992 207.678 53.3903 207.324 54.232 207.776Z" fill="#F5F5F5"/>
<path d="M53.6387 208.963L53.9311 209.131V214.43L53.6387 214.261V208.963Z" fill="#E0E0E0"/>
<path d="M54.8262 209.654L55.3401 209.955V215.245L54.8262 214.952V209.654Z" fill="#E0E0E0"/>
<path d="M56.0225 210.345L56.3237 210.514L56.3148 215.812L56.0225 215.644V210.345Z" fill="#E0E0E0"/>
<path d="M56.9258 210.859L57.5194 211.205L57.5105 216.503L56.9258 216.149V210.859Z" fill="#E0E0E0"/>
<path d="M58.4141 211.727L58.7064 211.896V217.194L58.4141 217.017V211.727Z" fill="#E0E0E0"/>
<path d="M59.2734 212.215L59.9025 212.587V217.876L59.2734 217.504V212.215Z" fill="#E0E0E0"/>
<path d="M60.8066 213.11L61.099 213.278V218.567L60.8066 218.399V213.11Z" fill="#E0E0E0"/>
<path d="M61.4893 213.491L61.6399 213.579V218.869L61.4893 218.789V213.491Z" fill="#E0E0E0"/>
<path d="M60.2666 212.817L60.4084 212.897V218.195L60.2666 218.115V212.817Z" fill="#E0E0E0"/>
<path d="M57.8564 211.408L57.9982 211.488V216.786L57.8564 216.698V211.408Z" fill="#E0E0E0"/>
<path d="M56.5361 210.647L56.6868 210.735V216.025L56.5361 215.945V210.647Z" fill="#E0E0E0"/>
<path d="M55.5879 210.124L55.7385 210.212V215.511L55.5879 215.422V210.124Z" fill="#E0E0E0"/>
<path d="M54.3037 209.344L54.4543 209.433V214.722L54.3037 214.642V209.344Z" fill="#E0E0E0"/>
<path d="M62.0029 213.792L62.2953 213.969V219.258L62.0029 219.09V213.792Z" fill="#E0E0E0"/>
<path d="M106.684 142.478L81.4947 127.93L56.2969 142.478L81.4947 157.017L106.684 142.478Z" fill="#F5F5F5"/>
<path d="M81.4951 206.89L106.684 192.342V142.478L81.4951 157.017V206.89Z" fill="#EBEBEB"/>
<path d="M85.6498 198.615C85.5385 198.616 85.4287 198.588 85.3309 198.535C85.1924 198.435 85.0821 198.301 85.0107 198.145C84.9393 197.99 84.9092 197.819 84.9233 197.649V194.991V194.796H85.0562L87.1294 193.582V196.533C87.1244 196.912 87.0294 197.285 86.8523 197.621C86.6752 197.957 86.421 198.246 86.1105 198.464C85.9728 198.554 85.8139 198.606 85.6498 198.615ZM85.2511 195.186V197.64C85.2371 197.752 85.2516 197.867 85.2935 197.972C85.3353 198.077 85.403 198.17 85.4903 198.243C85.5629 198.276 85.6429 198.289 85.7222 198.281C85.8016 198.273 85.8775 198.245 85.9422 198.198C86.2067 198.01 86.4243 197.764 86.578 197.478C86.7317 197.192 86.8173 196.875 86.8282 196.55V196.338H86.0308L85.8802 195.301L85.2511 195.186ZM86.3143 196.001H86.8282V194.185L85.5967 194.911L86.208 195.017L86.3143 196.001Z" fill="white"/>
<path d="M86.022 200.723C86.0003 200.723 85.9788 200.719 85.9589 200.71C85.9389 200.702 85.9209 200.689 85.906 200.673C85.8911 200.658 85.8795 200.639 85.872 200.619C85.8646 200.598 85.8613 200.577 85.8626 200.555V198.34C85.8613 198.318 85.8646 198.297 85.872 198.276C85.8795 198.256 85.8911 198.237 85.906 198.221C85.9209 198.206 85.9389 198.193 85.9589 198.185C85.9788 198.176 86.0003 198.172 86.022 198.172C86.0445 198.17 86.0669 198.174 86.0879 198.182C86.1089 198.19 86.128 198.202 86.1439 198.218C86.1598 198.234 86.1722 198.253 86.1802 198.274C86.1882 198.295 86.1917 198.318 86.1904 198.34V200.555C86.1917 200.577 86.1882 200.6 86.1802 200.621C86.1722 200.642 86.1598 200.661 86.1439 200.677C86.128 200.693 86.1089 200.705 86.0879 200.713C86.0669 200.721 86.0445 200.725 86.022 200.723Z" fill="white"/>
<path d="M85.0562 201.281C85.0208 201.279 84.9869 201.266 84.9595 201.243C84.9321 201.221 84.9126 201.19 84.9037 201.155C84.8949 201.121 84.8972 201.085 84.9102 201.052C84.9233 201.019 84.9465 200.99 84.9765 200.971L86.908 199.855C86.9468 199.833 86.9928 199.827 87.036 199.838C87.0792 199.85 87.116 199.878 87.1383 199.917C87.1607 199.956 87.1667 200.002 87.155 200.045C87.1434 200.088 87.1151 200.125 87.0763 200.147L85.1448 201.255C85.1188 201.273 85.0878 201.282 85.0562 201.281Z" fill="white"/>
<path d="M91.9322 197.463C91.8692 197.463 91.8075 197.444 91.755 197.41C91.6873 197.369 91.6324 197.31 91.5964 197.239C91.5604 197.169 91.5448 197.09 91.5512 197.011V196.559C91.5512 196.514 91.569 196.472 91.6005 196.44C91.6321 196.408 91.6749 196.391 91.7196 196.391C91.7642 196.391 91.807 196.408 91.8386 196.44C91.8702 196.472 91.8879 196.514 91.8879 196.559V197.011C91.8757 197.048 91.8757 197.089 91.8879 197.126C91.9256 197.137 91.9654 197.137 92.0031 197.126C92.1042 197.031 92.1835 196.916 92.2355 196.787C92.2876 196.659 92.311 196.52 92.3043 196.382V193.432C92.3043 193.387 92.3221 193.344 92.3536 193.312C92.3852 193.281 92.428 193.263 92.4727 193.263C92.4951 193.262 92.5176 193.265 92.5386 193.273C92.5596 193.281 92.5787 193.294 92.5946 193.31C92.6105 193.326 92.6228 193.345 92.6308 193.366C92.6388 193.387 92.6423 193.409 92.641 193.432V196.382C92.6483 196.579 92.6097 196.776 92.5282 196.955C92.4467 197.135 92.3246 197.294 92.1714 197.419C92.0964 197.452 92.0143 197.467 91.9322 197.463Z" fill="white"/>
<path d="M90.1865 194.92V194.636C90.2264 193.898 90.4398 193.18 90.8092 192.539C91.1787 191.899 91.6938 191.355 92.3129 190.951C92.5349 190.767 92.808 190.656 93.0953 190.632C93.3826 190.608 93.6702 190.673 93.9194 190.818C94.1686 190.963 94.3673 191.181 94.4888 191.442C94.6103 191.703 94.6487 191.996 94.5988 192.28V192.368L90.1865 194.92ZM93.3052 190.986C93.0106 191.001 92.7243 191.089 92.4724 191.243C91.9479 191.591 91.5035 192.047 91.1689 192.58C90.8343 193.113 90.6172 193.712 90.5321 194.335L94.2621 192.182C94.2781 191.974 94.2401 191.765 94.1516 191.575C94.0631 191.386 93.9272 191.223 93.7571 191.101C93.624 191.008 93.4676 190.953 93.3052 190.942V190.986Z" fill="white"/>
<path d="M97.9032 194.034C97.8586 194.034 97.8158 194.016 97.7842 193.985C97.7526 193.953 97.7349 193.91 97.7349 193.866V188.213C97.7291 188.188 97.729 188.163 97.7345 188.138C97.7401 188.113 97.7511 188.09 97.7669 188.07C97.7827 188.05 97.8027 188.034 97.8256 188.023C97.8484 188.012 97.8734 188.006 97.8988 188.006C97.9242 188.006 97.9492 188.012 97.9721 188.023C97.9949 188.034 98.0149 188.05 98.0307 188.07C98.0465 188.09 98.0575 188.113 98.0631 188.138C98.0686 188.163 98.0685 188.188 98.0627 188.213V193.866C98.0628 193.909 98.0463 193.95 98.0166 193.982C97.9869 194.013 97.9463 194.032 97.9032 194.034Z" fill="white"/>
<path d="M97.46 189.524H97.3891C97.3687 189.516 97.3502 189.503 97.335 189.487C97.3197 189.471 97.3079 189.452 97.3004 189.431C97.2929 189.41 97.2899 189.388 97.2914 189.366C97.2929 189.344 97.2991 189.322 97.3094 189.303L97.8941 187.938L98.5586 188.7C98.5879 188.731 98.6042 188.773 98.6042 188.815C98.6042 188.858 98.5879 188.899 98.5586 188.931C98.526 188.961 98.4833 188.977 98.439 188.977C98.3948 188.977 98.3521 188.961 98.3194 188.931L98.0093 188.567L97.6283 189.453C97.6109 189.481 97.5854 189.503 97.5553 189.515C97.5252 189.528 97.4919 189.531 97.46 189.524Z" fill="white"/>
<path d="M99.4359 193.148C99.392 193.146 99.3504 193.127 99.3193 193.096C99.2882 193.065 99.2697 193.024 99.2676 192.98V187.327C99.2676 187.282 99.2853 187.24 99.3169 187.208C99.3485 187.176 99.3913 187.159 99.4359 187.159C99.4806 187.159 99.5234 187.176 99.555 187.208C99.5865 187.24 99.6043 187.282 99.6043 187.327V192.98C99.6021 193.024 99.5837 193.065 99.5526 193.096C99.5214 193.127 99.4799 193.146 99.4359 193.148Z" fill="white"/>
<path d="M98.9485 188.656H98.8865C98.8661 188.647 98.8477 188.635 98.8322 188.619C98.8167 188.603 98.8045 188.584 98.7962 188.564C98.788 188.543 98.7839 188.521 98.7842 188.499C98.7845 188.477 98.7892 188.455 98.7979 188.434L99.3915 187.07L100.047 187.832C100.063 187.848 100.076 187.866 100.084 187.887C100.093 187.907 100.097 187.929 100.097 187.952C100.097 187.974 100.093 187.996 100.084 188.016C100.076 188.037 100.063 188.056 100.047 188.071C100.015 188.099 99.9742 188.114 99.932 188.114C99.8898 188.114 99.8489 188.099 99.8168 188.071L99.4979 187.708L99.1169 188.594C99.0975 188.619 99.0715 188.638 99.0417 188.649C99.0119 188.66 98.9796 188.663 98.9485 188.656Z" fill="white"/>
<path d="M81.4947 206.89L56.2969 192.342V142.478L81.4947 157.017V206.89Z" fill="#E0E0E0"/>
<path d="M68.249 155.271L70.6944 156.68V150.788L68.249 149.371V155.271Z" fill="#F5F5F5"/>
<path d="M70.6944 150.788L95.8834 136.24L93.4469 134.831L68.249 149.371L70.6944 150.788Z" fill="white"/>
<path d="M61.4264 182.835L69.1523 187.265C69.5996 187.555 69.9717 187.948 70.2382 188.41C70.5046 188.872 70.6578 189.39 70.6851 189.923V194.69C70.6851 195.664 70.0029 196.063 69.1523 195.576L61.4264 191.146C60.978 190.856 60.6045 190.464 60.3366 190.002C60.0686 189.54 59.9138 189.021 59.8848 188.488V183.721C59.8936 182.746 60.5759 182.348 61.4264 182.835Z" fill="#F5F5F5"/>
<path d="M60.8242 184.031L61.1166 184.199V189.498L60.8242 189.32V184.031Z" fill="#E0E0E0"/>
<path d="M62.0205 184.722L62.5255 185.015V190.313L62.0205 190.012V184.722Z" fill="#E0E0E0"/>
<path d="M63.2168 185.404L63.5092 185.582V190.871L63.2168 190.703V185.404Z" fill="#E0E0E0"/>
<path d="M64.1201 185.918L64.7049 186.273V191.562L64.1201 191.217V185.918Z" fill="#E0E0E0"/>
<path d="M65.6084 186.787L65.9008 186.955V192.253L65.6084 192.085V186.787Z" fill="#E0E0E0"/>
<path d="M66.4678 187.274L67.0968 187.646V192.944L66.4678 192.572V187.274Z" fill="#E0E0E0"/>
<path d="M68.001 188.169L68.2934 188.337V193.635L68.001 193.458V188.169Z" fill="#E0E0E0"/>
<path d="M68.6836 188.559L68.8254 188.638V193.937L68.6836 193.848V188.559Z" fill="#E0E0E0"/>
<path d="M67.4512 187.876L67.6018 187.965V193.263L67.4512 193.175V187.876Z" fill="#E0E0E0"/>
<path d="M65.042 186.468L65.1926 186.556V191.846L65.042 191.766V186.468Z" fill="#E0E0E0"/>
<path d="M63.7217 185.714L63.8723 185.794V191.092L63.7217 191.004V185.714Z" fill="#E0E0E0"/>
<path d="M62.7822 185.192L62.924 185.271V190.57L62.7822 190.481V185.192Z" fill="#E0E0E0"/>
<path d="M61.498 184.412L61.6398 184.492V189.79L61.498 189.701V184.412Z" fill="#E0E0E0"/>
<path d="M69.1885 188.86L69.4897 189.028V194.318L69.1885 194.149V188.86Z" fill="#E0E0E0"/>
<path d="M56.5354 279.755L153.233 335.573C154.422 336.176 155.737 336.49 157.07 336.49C158.403 336.49 159.717 336.176 160.906 335.573L372.775 213.305C374.893 212.082 374.893 210.097 372.775 208.875L276.077 153.057C274.89 152.449 273.575 152.132 272.241 152.132C270.907 152.132 269.592 152.449 268.405 153.057L56.5354 275.325C54.4179 276.547 54.4179 278.532 56.5354 279.755Z" fill="#455A64"/>
<path d="M108.801 305.67C110.449 306.502 112.27 306.935 114.117 306.935C115.963 306.935 117.784 306.502 119.433 305.67C122.383 303.969 122.383 301.24 119.433 299.512C117.785 298.676 115.964 298.241 114.117 298.241C112.269 298.241 110.448 298.676 108.801 299.512C105.85 301.24 105.85 303.987 108.801 305.67Z" fill="#263238"/>
<path d="M155.05 335.573L58.352 279.755C56.456 278.656 56.261 276.955 57.7584 275.732C56.8126 276.48 56.0351 277.419 55.4764 278.488C54.9176 279.556 54.5903 280.731 54.5156 281.934V285.54C54.5884 286.871 54.9736 288.166 55.6401 289.321C56.3066 290.475 57.2357 291.457 58.352 292.185L155.05 348.003C156.232 348.621 157.553 348.926 158.886 348.889V336.494C157.55 336.52 156.229 336.202 155.05 335.573Z" fill="#37474F"/>
<path d="M372.767 225.726C373.886 225 374.818 224.019 375.486 222.864C376.154 221.71 376.54 220.413 376.612 219.081V215.475C376.54 214.27 376.213 213.094 375.653 212.025C375.092 210.956 374.311 210.018 373.361 209.273C374.867 210.496 374.672 212.197 372.776 213.287L160.907 335.573C159.724 336.188 158.403 336.493 157.07 336.459V348.925C158.403 348.959 159.724 348.654 160.907 348.039L372.767 225.726Z" fill="#263238"/>
<path d="M169.164 324.01L76.6122 270.549C75.3363 269.814 75.3363 268.617 76.6122 267.891L255.513 164.574C256.227 164.212 257.016 164.023 257.817 164.023C258.617 164.023 259.407 164.212 260.12 164.574L352.707 218.027C353.974 218.762 353.974 219.949 352.707 220.685L173.735 324.01C173.026 324.367 172.243 324.553 171.45 324.553C170.656 324.553 169.873 324.367 169.164 324.01Z" fill="white"/>
<path d="M131.873 294.161L142.673 287.923L139.076 285.85L128.275 292.079L131.873 294.161Z" fill="#EC287C"/>
<path d="M261.441 219.356L272.241 213.118L268.635 211.045L257.844 217.283L261.441 219.356Z" fill="#EC287C"/>
<path d="M283.033 206.89L293.833 200.652L290.236 198.579L279.436 204.808L283.033 206.89Z" fill="#EC287C"/>
<path d="M317.693 185.05C318.113 185.26 318.575 185.369 319.044 185.369C319.513 185.369 319.976 185.26 320.395 185.05C320.558 184.994 320.699 184.889 320.799 184.75C320.899 184.61 320.953 184.442 320.953 184.27C320.953 184.098 320.899 183.931 320.799 183.791C320.699 183.651 320.558 183.546 320.395 183.491C319.977 183.277 319.514 183.165 319.044 183.165C318.575 183.165 318.111 183.277 317.693 183.491C317.531 183.546 317.389 183.651 317.289 183.791C317.189 183.931 317.136 184.098 317.136 184.27C317.136 184.442 317.189 184.61 317.289 184.75C317.389 184.889 317.531 184.994 317.693 185.05Z" fill="#263238"/>
<path d="M322.008 197.286C322.844 197.709 323.768 197.93 324.706 197.93C325.643 197.93 326.567 197.709 327.404 197.286C328.892 196.4 328.892 195.026 327.404 194.167C326.567 193.743 325.643 193.523 324.706 193.523C323.768 193.523 322.844 193.743 322.008 194.167C320.519 195.026 320.519 196.426 322.008 197.286Z" fill="#263238"/>
<path d="M318.198 191.863C319.191 191.287 319.137 190.331 318.083 189.719L300.363 179.468C299.793 179.162 299.158 178.997 298.511 178.984C297.864 178.972 297.223 179.113 296.642 179.397C295.65 179.973 295.703 180.93 296.757 181.541L314.53 191.792C315.094 192.089 315.719 192.25 316.356 192.262C316.993 192.274 317.623 192.138 318.198 191.863Z" fill="#263238"/>
<path d="M287.951 150.292L288.553 149.938C288.137 151.45 287.934 153.012 287.951 154.58V156.742C287.951 164.504 297.263 184.332 300.691 191.349C301.046 192.085 296.341 197.091 296.341 197.091L301.932 193.866C301.932 193.866 315.904 182.348 315.904 172.885V170.723C315.904 161.217 309.649 149.902 301.932 145.446C298.033 143.204 294.516 143.124 291.982 144.826L286.666 147.873L287.951 150.292ZM294.941 157.549C294.941 153.119 298.069 151.284 301.932 153.517C301.613 156.379 306.84 165.292 308.913 165.62C308.913 170.05 305.786 171.884 301.932 169.651C299.903 168.322 298.216 166.534 297.008 164.431C295.799 162.328 295.104 159.97 294.977 157.549H294.941Z" fill="#EC287C"/>
<path d="M282.2 160.207C282.36 169.704 296.784 197.091 296.784 197.091C296.784 197.091 310.57 185.378 310.419 175.88V173.718C310.26 164.22 303.819 153.003 296.022 148.68C288.225 144.356 282.041 148.538 282.2 158.045V160.207ZM289.2 160.898C289.129 156.468 292.23 154.58 296.119 156.742C298.175 158.035 299.897 159.794 301.146 161.877C302.394 163.96 303.134 166.307 303.305 168.73C303.385 173.16 300.284 175.047 296.385 172.885C294.332 171.59 292.611 169.83 291.363 167.748C290.115 165.666 289.374 163.319 289.2 160.898Z" fill="#EC287C"/>
<path opacity="0.1" d="M282.2 160.207C282.36 169.704 296.784 197.091 296.784 197.091C296.784 197.091 310.57 185.378 310.419 175.88V173.718C310.26 164.22 303.819 153.003 296.022 148.68C288.225 144.356 282.041 148.538 282.2 158.045V160.207ZM289.2 160.898C289.129 156.468 292.23 154.58 296.119 156.742C298.175 158.035 299.897 159.794 301.146 161.877C302.394 163.96 303.134 166.307 303.305 168.73C303.385 173.16 300.284 175.047 296.385 172.885C294.332 171.59 292.611 169.83 291.363 167.748C290.115 165.666 289.374 163.319 289.2 160.898Z" fill="black"/>
<path d="M147.076 286.878C156.033 292.034 177.031 288.287 193.981 278.496L240.54 251.624C257.489 241.834 263.957 229.731 254.982 224.583C246.006 219.436 224.991 223.201 208.024 232.983L161.553 259.819C144.613 269.601 138.127 281.748 147.076 286.878Z" fill="#F0F0F0"/>
<path d="M282.634 61.5947H282.678L290.342 57.1647H290.404C295.232 54.7194 301.683 55.3927 308.629 59.9113C322.592 68.8954 333.251 89.6278 332.445 106.205C332.037 114.471 328.901 120.142 324.054 122.64H324.01L316.337 127.07H316.284C311.455 129.524 304.996 128.842 298.041 124.332C284.087 115.339 273.428 94.6159 274.234 78.0389C274.66 69.7636 277.84 64.0932 282.634 61.5947Z" fill="#37474F"/>
<path d="M316.727 126.84L324.036 122.587H324.089C328.891 120.08 332.063 114.409 332.471 106.152C332.825 98.7624 330.903 90.5492 327.429 82.9207L319.757 87.3507C323.239 94.9792 325.161 103.192 324.798 110.591C324.417 118.653 321.369 124.262 316.727 126.84Z" fill="#263238"/>
<path d="M298.076 124.324C284.122 115.331 273.463 94.6071 274.269 78.03C275.076 61.453 287.063 55.2953 300.991 64.2793C314.919 73.2633 325.613 93.9957 324.807 110.573C324.001 127.15 312.031 133.308 298.076 124.324Z" fill="#455A64"/>
<path d="M309.772 123.154C318.003 123.553 319.34 114.294 319.518 110.307C320.226 95.688 310.427 76.639 298.121 68.7093C295.499 66.8725 292.447 65.7434 289.261 65.4311C281.039 65.0324 279.701 74.2911 279.515 78.2781C278.806 92.8971 288.596 111.946 300.912 119.92C303.534 121.757 306.585 122.886 309.772 123.198V123.154Z" fill="#FAFAFA"/>
<path d="M297.926 97.0436C298.023 97.0439 298.119 97.0258 298.209 96.9904C298.394 96.9303 298.555 96.811 298.665 96.6509C298.776 96.4908 298.83 96.2987 298.821 96.1044V74.991C298.821 74.7561 298.727 74.5307 298.561 74.3645C298.395 74.1984 298.17 74.105 297.935 74.105C297.7 74.105 297.474 74.1984 297.308 74.3645C297.142 74.5307 297.049 74.7561 297.049 74.991V93.535L287.188 80.8652C287.042 80.6772 286.827 80.5548 286.592 80.5249C286.356 80.495 286.117 80.5601 285.929 80.7057C285.741 80.8514 285.619 81.0658 285.589 81.3018C285.559 81.5377 285.624 81.7759 285.77 81.9639L297.244 96.698C297.324 96.8029 297.428 96.8884 297.546 96.9482C297.664 97.008 297.794 97.0406 297.926 97.0436Z" fill="#37474F"/>
<path d="M303.012 112.664C303.053 112.672 303.095 112.672 303.136 112.664C303.23 112.635 303.309 112.571 303.357 112.485C303.405 112.399 303.418 112.298 303.393 112.203L298.423 95.4665C298.394 95.3713 298.329 95.2913 298.242 95.2439C298.155 95.1966 298.053 95.1858 297.957 95.214C297.862 95.2422 297.782 95.307 297.735 95.3943C297.687 95.4815 297.677 95.584 297.705 95.6791L302.666 112.416C302.692 112.487 302.739 112.55 302.8 112.594C302.862 112.638 302.936 112.663 303.012 112.664Z" fill="#EC287C"/>
<path d="M298.21 91.9136C296.562 90.8593 295.153 91.5858 295.064 93.535C295.07 94.5982 295.326 95.6451 295.813 96.5904C296.299 97.5357 297.002 98.3528 297.864 98.9751C299.503 100.038 300.912 99.3117 301.01 97.3625C301.002 96.2985 300.745 95.2511 300.258 94.3047C299.772 93.3583 299.07 92.5393 298.21 91.9136Z" fill="#EC287C"/>
<path d="M153.472 281.695L164.264 275.457L160.666 273.384L149.875 279.613L153.472 281.695Z" fill="#EC287C"/>
<path d="M175.064 269.229L185.864 262.991L182.258 260.918L171.467 267.147L175.064 269.229Z" fill="#EC287C"/>
<path d="M170.625 266.686C170.625 271.896 166.975 278.204 162.465 280.862C160.064 282.253 157.902 282.297 156.414 281.252C155.814 280.78 155.321 280.186 154.968 279.51C154.615 278.833 154.41 278.089 154.367 277.327C154.67 277.185 154.966 277.029 155.253 276.857C159.763 274.261 163.413 267.926 163.413 262.681C163.418 262.293 163.394 261.905 163.342 261.521C164.018 261.163 164.761 260.95 165.524 260.895C166.286 260.84 167.052 260.945 167.772 261.202C169.544 261.946 170.625 263.869 170.625 266.686Z" fill="#263238"/>
<path d="M171.361 255.983L171.21 255.895C168.942 254.69 165.894 254.911 162.465 256.878C155.51 260.892 149.866 270.655 149.866 278.691C149.866 282.731 151.293 285.558 153.596 286.869C155.9 288.18 159.01 287.959 162.456 285.983C169.411 281.97 175.046 272.197 175.046 264.161C175.055 260.121 173.655 257.294 171.361 255.983ZM162.501 280.844C160.091 282.235 157.929 282.28 156.44 281.225C155.129 280.339 154.332 278.567 154.332 276.131C154.332 270.93 157.991 264.613 162.501 261.955C164.556 260.768 166.426 260.564 167.817 261.175C169.535 261.91 170.616 263.833 170.616 266.668C170.625 271.913 166.975 278.248 162.465 280.862L162.501 280.844Z" fill="#37474F"/>
<path d="M168.234 261.414L168.136 261.361C166.665 260.573 164.672 260.723 162.466 261.99C157.956 264.595 154.297 270.93 154.297 276.166C154.297 278.824 155.183 280.596 156.716 281.482C158.248 282.368 160.26 282.191 162.466 280.897C166.976 278.293 170.626 271.958 170.626 266.721C170.626 264.099 169.713 262.256 168.234 261.414ZM162.466 279.001C160.534 280.118 158.798 280.153 157.593 279.303C156.547 278.567 155.901 277.159 155.901 275.209C156.025 272.932 156.684 270.716 157.824 268.741C158.965 266.766 160.555 265.088 162.466 263.842C163.086 263.409 163.8 263.126 164.549 263.017C165.298 262.908 166.062 262.975 166.781 263.213C168.163 263.807 169.031 265.348 169.031 267.643C168.908 269.919 168.249 272.134 167.108 274.108C165.967 276.082 164.377 277.758 162.466 279.001Z" fill="#EC287C"/>
<path d="M196.656 256.754L207.456 250.525L203.859 248.443L193.059 254.681L196.656 256.754Z" fill="#EC287C"/>
<path d="M218.256 244.288L229.048 238.059L225.451 235.977L214.65 242.215L218.256 244.288Z" fill="#EC287C"/>
<path d="M239.848 231.822L250.64 225.593L247.043 223.511L236.242 229.749L239.848 231.822Z" fill="#EC287C"/>
<path d="M186.112 173.851C186.225 173.7 186.383 173.589 186.563 173.534C186.744 173.48 186.936 173.483 187.114 173.546C187.292 173.608 187.445 173.725 187.552 173.88C187.659 174.036 187.713 174.221 187.707 174.409C187.776 174.913 187.725 175.427 187.557 175.908C187.389 176.388 187.11 176.822 186.741 177.173C186.033 177.785 185.315 177.537 185.147 176.615C185.078 176.111 185.13 175.598 185.298 175.117C185.465 174.637 185.745 174.203 186.112 173.851Z" fill="#EC287C"/>
<path d="M194.423 177.767L187.202 173.594L185.616 177.413L192.864 181.595L194.423 177.767Z" fill="#EC287C"/>
<path d="M193.316 178.006C194.025 177.404 194.734 177.652 194.911 178.573C194.976 179.077 194.922 179.589 194.753 180.067C194.584 180.546 194.304 180.978 193.937 181.329C193.228 181.94 192.51 181.692 192.342 180.771C192.277 180.266 192.332 179.753 192.501 179.273C192.67 178.793 192.949 178.359 193.316 178.006Z" fill="#EC287C"/>
<path d="M248.815 212.95C248.815 213.127 248.815 213.287 248.815 213.464C248.815 213.818 248.815 214.182 248.815 214.545C247.379 213.934 245.51 214.137 243.454 215.325C238.945 217.929 235.285 224.264 235.285 229.501C235.285 231.928 236.083 233.683 237.394 234.595C237.026 234.857 236.644 235.099 236.251 235.322L235.835 235.534L234.586 240.239L227.356 236.208C225.07 234.887 223.661 232.07 223.661 228.048C223.661 220.012 229.296 210.248 236.251 206.225C239.689 204.241 242.799 204.037 245.111 205.339L252.199 209.309L252.35 209.397L248.815 212.95Z" fill="#455A64"/>
<path d="M252.341 209.317L252.19 209.229C249.922 208.024 246.874 208.245 243.446 210.212C236.491 214.226 230.847 223.99 230.847 232.026C230.847 236.066 232.273 238.892 234.577 240.203C236.88 241.515 239.99 241.293 243.437 239.317C250.392 235.304 256.027 225.531 256.027 217.495C256.053 213.455 254.627 210.629 252.341 209.317ZM243.481 234.179C241.071 235.57 238.909 235.614 237.421 234.56C236.11 233.674 235.312 231.902 235.312 229.465C235.312 224.264 238.971 217.947 243.481 215.289C245.537 214.102 247.406 213.898 248.841 214.509C250.56 215.245 251.641 217.167 251.641 220.003C251.623 225.248 247.955 231.583 243.446 234.179H243.481Z" fill="#37474F"/>
<path d="M251.623 220.038C251.623 225.248 247.973 231.556 243.463 234.214C241.062 235.605 238.9 235.649 237.412 234.604C236.812 234.132 236.319 233.539 235.966 232.862C235.613 232.185 235.408 231.441 235.365 230.679C235.668 230.537 235.964 230.381 236.251 230.209C240.761 227.613 244.411 221.279 244.411 216.033C244.416 215.645 244.392 215.257 244.34 214.873C245.016 214.515 245.759 214.302 246.522 214.247C247.285 214.192 248.05 214.297 248.77 214.554C250.525 215.298 251.623 217.203 251.623 220.038Z" fill="#263238"/>
<path d="M249.214 214.749L249.117 214.687C247.646 213.907 245.644 214.049 243.446 215.325C238.937 217.929 235.277 224.255 235.277 229.501C235.277 232.159 236.163 233.931 237.696 234.817C239.229 235.703 241.24 235.516 243.446 234.223C247.956 231.627 251.606 225.292 251.606 220.047C251.624 217.433 250.738 215.599 249.214 214.749ZM243.446 232.327C241.506 233.452 239.769 233.488 238.573 232.637C237.519 231.902 236.881 230.493 236.881 228.544C237.005 226.266 237.664 224.05 238.805 222.075C239.946 220.1 241.536 218.422 243.446 217.176C245.094 216.219 246.6 216.051 247.752 216.547C249.134 217.141 250.003 218.683 250.003 220.977C249.88 223.251 249.222 225.464 248.082 227.437C246.943 229.409 245.355 231.084 243.446 232.327Z" fill="#EC287C"/>
<path d="M236.242 222.687L256.62 210.921C258.986 209.548 251.304 201.53 245.59 200.989C242.443 200.609 239.252 200.911 236.233 201.875C236.233 201.875 240.584 207.448 239.839 210.611C239.095 213.774 236.242 222.687 236.242 222.687Z" fill="#EC287C"/>
<path d="M207.457 189.436C207.457 189.436 236.996 204.338 238.272 205.233C239.548 206.128 238.272 216.521 236.243 222.687C234.214 228.854 231.095 238.334 229.846 240.992C228.597 243.65 226.966 244.642 223.972 246.37L202.708 258.659L173.922 262.167L162.492 255.965L165.469 237.262C165.469 237.262 196.063 220.986 200.254 218.567C204.444 216.149 216.839 204.799 207.457 189.436Z" fill="#EC287C"/>
<path opacity="0.2" d="M207.457 189.436C207.457 189.436 236.996 204.338 238.272 205.233C239.548 206.128 238.272 216.521 236.243 222.687C234.214 228.854 231.095 238.334 229.846 240.992C228.597 243.65 226.966 244.642 223.972 246.37L202.708 258.659L173.922 262.167L162.492 255.965L165.469 237.262C165.469 237.262 196.063 220.986 200.254 218.567C204.444 216.149 216.839 204.799 207.457 189.436Z" fill="black"/>
<path d="M238.838 219.134C241.496 211.993 243.481 206.075 243.144 202.079C242.737 197.339 240.965 193.467 233.15 191.518C225.336 189.569 214.411 189.604 214.411 189.604L211.089 191.527C211.089 191.527 233.558 204.551 236.109 205.968C237.669 206.854 239.335 210.762 236.278 222.696L236.801 222.997C237.058 223.157 237.988 221.429 238.838 219.134Z" fill="#EC287C"/>
<path opacity="0.3" d="M238.838 219.134C241.496 211.993 243.481 206.075 243.144 202.079C242.737 197.339 240.965 193.467 233.15 191.518C225.336 189.569 214.411 189.604 214.411 189.604L211.089 191.527C211.089 191.527 233.558 204.551 236.109 205.968C237.669 206.854 239.335 210.762 236.278 222.696L236.801 222.997C237.058 223.157 237.988 221.429 238.838 219.134Z" fill="white"/>
<path d="M221.818 197.746L225.451 195.673C225.451 195.673 225.238 183.083 219.94 180.026C214.642 176.97 196.656 179.052 196.656 179.052L193.059 181.125L221.818 197.746Z" fill="#EC287C"/>
<path d="M210.035 182.906C208.307 183.907 208.307 185.52 210.035 186.512C211.004 187.005 212.075 187.262 213.163 187.262C214.25 187.262 215.321 187.005 216.29 186.512C218.009 185.52 218.009 183.898 216.29 182.906C215.32 182.417 214.249 182.162 213.163 182.162C212.076 182.162 211.005 182.417 210.035 182.906Z" fill="#F0F0F0"/>
<path d="M215.564 188.922C214.35 189.631 214.35 190.774 215.564 191.473C216.249 191.824 217.009 192.007 217.779 192.007C218.549 192.007 219.308 191.824 219.994 191.473C221.216 190.774 221.216 189.631 219.994 188.922C219.307 188.575 218.548 188.395 217.779 188.395C217.009 188.395 216.251 188.575 215.564 188.922Z" fill="#F0F0F0"/>
<path d="M201.645 181.302C200.422 182.002 200.422 183.145 201.645 183.854C202.331 184.2 203.09 184.381 203.86 184.381C204.629 184.381 205.388 184.2 206.075 183.854C207.297 183.145 207.297 182.002 206.075 181.302C205.389 180.951 204.63 180.769 203.86 180.769C203.089 180.769 202.33 180.951 201.645 181.302Z" fill="#F0F0F0"/>
<path d="M222.385 194.096C223.094 193.485 223.803 193.733 223.98 194.654C224.045 195.159 223.991 195.672 223.822 196.152C223.653 196.633 223.373 197.066 223.006 197.419C222.893 197.569 222.735 197.68 222.555 197.735C222.374 197.79 222.181 197.786 222.004 197.724C221.826 197.662 221.673 197.544 221.566 197.389C221.459 197.234 221.405 197.049 221.411 196.86C221.343 196.355 221.395 195.841 221.565 195.361C221.734 194.88 222.016 194.447 222.385 194.096Z" fill="#EC287C"/>
<path d="M230.652 198.012L223.422 193.839L221.845 197.658L229.083 201.831L230.652 198.012Z" fill="#EC287C"/>
<path d="M229.535 198.251C229.648 198.101 229.806 197.99 229.986 197.935C230.166 197.88 230.359 197.884 230.537 197.946C230.715 198.008 230.868 198.126 230.975 198.281C231.081 198.436 231.136 198.621 231.13 198.81C231.197 199.315 231.144 199.828 230.975 200.309C230.805 200.789 230.525 201.223 230.155 201.574C229.447 202.185 228.738 201.928 228.561 201.016C228.495 200.511 228.548 199.997 228.718 199.517C228.887 199.037 229.167 198.603 229.535 198.251Z" fill="#EC287C"/>
<path d="M229.535 198.251C229.648 198.101 229.806 197.99 229.986 197.935C230.166 197.88 230.359 197.884 230.537 197.946C230.715 198.008 230.868 198.126 230.975 198.281C231.081 198.436 231.136 198.621 231.13 198.81C231.197 199.315 231.144 199.828 230.975 200.309C230.805 200.789 230.525 201.223 230.155 201.574C229.447 202.185 228.738 201.928 228.561 201.016C228.495 200.511 228.548 199.997 228.718 199.517C228.887 199.037 229.167 198.603 229.535 198.251Z" fill="black"/>
<path d="M167.835 259.598C167.835 259.775 167.835 259.935 167.835 260.112C167.835 260.466 167.835 260.83 167.835 261.193C166.4 260.581 164.53 260.785 162.519 261.972C158.009 264.577 154.35 270.912 154.35 276.148C154.35 278.576 155.147 280.33 156.459 281.243C156.09 281.505 155.709 281.747 155.316 281.97L154.899 282.182L153.65 286.887L146.42 282.856C144.134 281.535 142.726 278.718 142.726 274.695C142.726 266.659 148.361 256.896 155.316 252.873C158.753 250.889 161.863 250.685 164.176 251.987L171.264 255.957L171.414 256.045L167.835 259.598Z" fill="#455A64"/>
<path d="M146.27 245.537L140.874 264.241L151.674 270.478L157.265 251.89L146.27 245.537Z" fill="#EC287C"/>
<path opacity="0.2" d="M146.27 245.537L140.874 264.241L151.674 270.478L157.265 251.89L146.27 245.537Z" fill="black"/>
<path d="M146.27 245.537C146.27 245.537 152.392 250.738 157.265 251.89C163.662 253.44 173.833 253.609 177.439 253.857C182.95 254.238 187.114 254.229 189.063 253.529C191.588 252.643 198.375 248.7 200.254 247.619C203.851 245.546 205.383 237.386 195.469 235.153C188.765 233.764 181.937 233.067 175.091 233.071L146.27 245.537Z" fill="#EC287C"/>
<path d="M207.324 243.145C207.016 243.916 206.808 244.723 206.704 245.546C206.418 246.402 206.351 247.316 206.509 248.204C207.184 249.321 208.247 250.15 209.495 250.534C210.394 250.734 211.324 250.747 212.228 250.572C213.132 250.396 213.99 250.037 214.749 249.515C216.583 248.417 217.965 247.088 220.57 246.343C222.432 245.949 224.185 245.154 225.709 244.013C227.153 242.853 229.084 239.645 226.32 238.901C223.556 238.157 217.549 240.779 212.073 241.019L207.324 243.145Z" fill="#37474F"/>
<path d="M207.323 239.725V243.818C207.491 244.278 207.782 244.683 208.165 244.988C208.548 245.293 209.008 245.486 209.494 245.546C209.939 245.611 210.393 245.562 210.814 245.404C211.478 245.151 212.053 244.709 212.468 244.133C212.884 243.556 213.122 242.871 213.153 242.162L213.313 239.725H207.323Z" fill="#FFA8A7"/>
<path d="M215.121 214.412C215.121 219.507 213.685 241.532 213.685 241.532C213.685 241.532 211.603 244.19 207.076 241.532L205.552 216.919L215.121 214.412Z" fill="#37474F"/>
<path d="M191.375 236.119L205.551 227.95C206.132 227.645 206.619 227.187 206.958 226.626C207.298 226.064 207.477 225.421 207.477 224.765C207.477 224.109 207.298 223.465 206.958 222.904C206.619 222.343 206.132 221.885 205.551 221.58L194.99 215.484C194.396 215.183 193.739 215.026 193.072 215.026C192.406 215.026 191.748 215.183 191.154 215.484L176.978 223.653C176.4 223.96 175.916 224.419 175.578 224.98C175.241 225.541 175.062 226.183 175.062 226.838C175.062 227.493 175.241 228.135 175.578 228.697C175.916 229.258 176.4 229.716 176.978 230.023L187.539 236.119C188.134 236.42 188.791 236.577 189.457 236.577C190.124 236.577 190.781 236.42 191.375 236.119Z" fill="#EC287C"/>
<path d="M191.375 236.119L205.551 227.95C206.132 227.645 206.619 227.187 206.958 226.626C207.298 226.064 207.477 225.421 207.477 224.765C207.477 224.109 207.298 223.465 206.958 222.904C206.619 222.343 206.132 221.885 205.551 221.58L194.99 215.484C194.396 215.183 193.739 215.026 193.072 215.026C192.406 215.026 191.748 215.183 191.154 215.484L176.978 223.653C176.4 223.96 175.916 224.419 175.578 224.98C175.241 225.541 175.062 226.183 175.062 226.838C175.062 227.493 175.241 228.135 175.578 228.697C175.916 229.258 176.4 229.716 176.978 230.023L187.539 236.119C188.134 236.42 188.791 236.577 189.457 236.577C190.124 236.577 190.781 236.42 191.375 236.119Z" fill="white"/>
<path d="M176.978 225.868L187.539 231.964C188.134 232.265 188.791 232.422 189.458 232.422C190.124 232.422 190.781 232.265 191.376 231.964L205.552 223.795C205.783 223.716 205.984 223.567 206.127 223.369C206.269 223.17 206.346 222.932 206.346 222.687C206.346 222.443 206.269 222.205 206.127 222.006C205.984 221.807 205.783 221.658 205.552 221.58L194.991 215.484C194.396 215.183 193.739 215.026 193.072 215.026C192.406 215.026 191.749 215.183 191.154 215.484L176.978 223.653C176.747 223.732 176.546 223.881 176.404 224.079C176.261 224.278 176.185 224.516 176.185 224.76C176.185 225.005 176.261 225.243 176.404 225.442C176.546 225.64 176.747 225.789 176.978 225.868Z" fill="#EC287C"/>
<path d="M185.616 171.645L183.818 179.061L176.092 179.53L177.757 169.253L185.616 171.645Z" fill="#FFA8A7"/>
<path d="M193.148 166.063C193.148 166.063 194.034 169.199 193.671 169.377C193.113 169.462 192.545 169.462 191.987 169.377L193.148 166.063Z" fill="#F28F8F"/>
<path d="M191.668 156.051C192.908 157.513 194.042 159.914 193.165 165.797C192.208 172.23 191.021 172.974 190.064 173.594C188.815 174.409 183.818 173.975 182.409 172.947C180.717 171.716 178.103 167.808 177.483 163.954C176.757 159.427 178.272 154.403 181.603 153.544C186.29 152.33 190.614 154.811 191.668 156.051Z" fill="#FFA8A7"/>
<path d="M176.979 171.335C178.175 172.575 180.629 172.912 182.171 173.195C183.712 173.479 188.452 173.789 189.852 170.413C191.252 167.038 190.295 164.61 192.014 163.795C193.733 162.98 195.452 162.448 195.904 162.023C196.355 161.598 196.364 156.042 191.748 153.163C187.132 150.283 180.062 149.619 175.41 155.458C171.884 159.967 173.328 167.525 176.979 171.335Z" fill="#455A64"/>
<path d="M181.63 173.24C182.826 173.346 186.609 172.752 187.752 171.193C188.895 169.634 189.356 166.843 189.524 165.381C189.54 164.805 189.751 164.252 190.123 163.812C190.495 163.372 191.006 163.073 191.571 162.962C192.714 162.599 195.239 161.358 195.239 161.358V160.667C196.053 160.616 196.87 160.616 197.684 160.667C198.216 160.765 197.923 161.553 196.577 162.235C195.23 162.918 191.535 164.238 190.968 164.69C190.401 165.142 190.135 167.046 189.684 169.075C189.232 171.104 187.832 174.134 181.63 173.24Z" fill="#37474F"/>
<path d="M192.262 181.63L196.692 179.087C197.117 177.802 196.435 177.156 195.23 177.235C194.025 177.315 194.397 176.146 193.662 175.818C192.696 175.375 192.147 175.623 191.713 175.419C191.278 175.215 191.092 174.701 190.525 174.639C187.991 174.4 186.264 178.015 186.264 178.015L192.262 181.63Z" fill="#F28F8F"/>
<path d="M162.19 214.164C162.19 214.164 181.762 204.462 185.173 202.894C188.584 201.326 193.936 199.049 196.78 199.049C197.891 199.141 198.932 199.63 199.712 200.428C200.491 201.225 200.957 202.277 201.024 203.39C201.061 205.099 200.963 206.809 200.731 208.502C195.354 210.266 189.859 211.649 184.287 212.64C176.145 214.058 162.19 214.164 162.19 214.164Z" fill="#37474F"/>
<path d="M164.318 208.556C164.318 212.578 163.937 216.76 165.611 219.701C167.286 222.643 176.358 229.447 184.899 228.021C190.481 227.082 207.049 219.453 207.049 219.453C207.049 219.453 215.085 216.503 215.121 214.403C215.174 211.311 214.961 206.952 207.953 207.138C201.565 207.306 182.72 211.24 182.72 211.24L164.318 208.556Z" fill="#455A64"/>
<path d="M169.784 176.686C172.814 173.523 174.861 173.257 176.314 173.647C179.653 174.603 182.886 175.897 185.962 177.51C185.962 177.51 184.793 188.833 190.33 192.094V209.743C190.33 209.743 190.162 211.657 187.752 213.561C185.626 215.236 180.815 216.928 175.073 216.45C168.251 215.883 164.317 208.556 164.317 208.556C164.317 208.556 164.14 194.123 165.106 188.39C166.24 181.701 168.739 177.785 169.784 176.686Z" fill="#455A64"/>
<path d="M190.33 192.953C190.33 192.953 186.981 190.295 185.962 186.84C185.962 186.84 186.361 192.262 190.33 195.009V192.953Z" fill="#37474F"/>
<path d="M221.331 201.281C222.922 201.347 224.486 200.862 225.761 199.908C225.761 199.908 227.302 196.913 229.199 197.17C229.199 197.17 229.535 195.895 228.756 195.478C227.976 195.062 227.639 195.177 227.32 194.734C227.001 194.291 226.966 193.467 225.548 193.467C224.963 193.467 225.043 193.051 223.626 192.882C222.208 192.714 220.808 195.983 219.771 195.983L221.331 201.281Z" fill="#FFA8A7"/>
<path d="M185.962 177.51C190.827 178.263 192.59 179.707 194.362 181.346C196.134 182.986 206.978 193.866 206.978 193.866L220.109 195.753C220.799 196.312 221.305 197.065 221.562 197.915C222.094 199.456 221.615 201.14 221.11 201.538C221.11 201.538 208.086 202.318 205.525 201.831C202.965 201.343 190.286 192.926 190.286 192.926C189.074 192.013 188.058 190.865 187.297 189.552C186.536 188.239 186.046 186.786 185.856 185.28C185.032 179.938 185.962 177.51 185.962 177.51Z" fill="#455A64"/>
<path d="M174.285 224.309L154.164 248.869C153.94 248.897 153.715 248.912 153.49 248.913C152.692 248.925 151.904 248.74 151.196 248.372L134.202 238.555L133.05 237.891C132.421 237.528 131.898 236.039 131.898 234.568V230.431C131.898 226.181 133.016 222.005 135.14 218.324C137.265 214.642 140.321 211.585 144.001 209.459L164.291 197.746L185.882 210.212L174.285 224.309Z" fill="#EC287C"/>
<g opacity="0.1">
<path d="M174.285 224.309L154.164 248.869C153.94 248.897 153.715 248.912 153.49 248.913C152.692 248.925 151.904 248.74 151.196 248.372L134.202 238.555L133.05 237.891C132.421 237.528 131.898 236.039 131.898 234.568V230.431C131.898 226.181 133.016 222.005 135.14 218.324C137.265 214.642 140.321 211.585 144.001 209.459L164.291 197.746L185.882 210.212L174.285 224.309Z" fill="black"/>
</g>
<path d="M167.347 232.779L185.856 210.221L164.264 197.755L143.983 209.459C141.36 210.978 139.046 212.977 137.161 215.351L167.347 232.779Z" fill="#EC287C"/>
<path d="M185.856 228.331C185.856 229.802 185.342 231.29 184.704 231.654L183.552 232.318L155.767 248.364C155.262 248.636 154.708 248.807 154.137 248.869C153.914 248.897 153.689 248.912 153.464 248.913V242.897C153.463 238.646 154.582 234.469 156.708 230.787C158.835 227.106 161.893 224.049 165.575 221.925L167.87 220.605L185.856 210.212V228.331Z" fill="#EC287C"/>
<g opacity="0.2">
<path d="M185.856 228.331C185.856 229.802 185.342 231.29 184.704 231.654L183.552 232.318L155.767 248.364C155.262 248.636 154.708 248.807 154.137 248.869C153.914 248.897 153.689 248.912 153.464 248.913V242.897C153.463 238.646 154.582 234.469 156.708 230.787C158.835 227.106 161.893 224.049 165.575 221.925L167.87 220.605L185.856 210.212V228.331Z" fill="black"/>
</g>
<path d="M191.819 258.721L202.69 258.685L218.248 249.701L203.009 260.714L191.535 260.874L191.819 258.721Z" fill="#E0E0E0"/>
<path d="M165.425 274.19C165.425 274.19 185.023 266.801 186.689 265.933C188.644 264.735 190.499 263.381 192.236 261.884C192.59 261.415 192.756 260.831 192.702 260.246C192.648 259.661 192.377 259.117 191.943 258.721C191.943 258.721 183.969 258.358 181.922 258.987C180.78 259.332 162.333 265.251 162.333 265.251L165.425 274.19Z" fill="#E0E0E0"/>
<path d="M164.548 265.933C162.927 264.542 161.296 265.118 160.898 267.209C160.745 268.362 160.867 269.536 161.254 270.633C161.64 271.731 162.28 272.722 163.121 273.526C164.743 274.917 166.373 274.35 166.772 272.25C166.923 271.096 166.801 269.923 166.415 268.826C166.028 267.728 165.389 266.737 164.548 265.933Z" fill="#455A64"/>
</svg>
