<svg width="389" height="389" viewBox="0 0 389 389" fill="none" xmlns="http://www.w3.org/2000/svg">
<path d="M323.601 195.34C251.839 153.904 135.854 153.904 64.5273 195.34C-6.79973 236.777 -6.37961 303.957 65.3909 345.432C137.161 386.907 253.146 386.876 324.465 345.432C395.784 303.988 395.38 236.777 323.601 195.34Z" fill="#F5F5F5"/>
<path d="M30.1942 265.57C35.2745 262.637 43.498 262.637 48.555 265.57C53.612 268.503 53.5809 273.272 48.4927 276.213C43.4046 279.154 35.1889 279.146 30.1319 276.213C25.0749 273.28 25.1061 268.511 30.1942 265.57Z" fill="#E0E0E0"/>
<path d="M293.734 308.967C279.52 300.767 256.561 300.767 242.44 308.967C228.32 317.167 228.397 330.479 242.604 338.679C256.81 346.879 279.784 346.887 293.897 338.679C308.01 330.471 307.94 317.175 293.734 308.967Z" fill="#E0E0E0"/>
<path d="M335.777 246.735C341.114 243.623 349.734 243.623 355.04 246.735C360.346 249.847 360.307 254.811 354.978 257.891C349.649 260.972 341.013 261.003 335.715 257.891C330.417 254.779 330.44 249.816 335.777 246.735Z" fill="#E0E0E0"/>
<path d="M236.629 192.501L226.087 186.424C224.468 185.49 222.631 184.997 220.761 184.997C218.892 184.997 217.055 185.49 215.436 186.424L156.954 220.322L151.796 217.35L109.465 242.121L114.35 244.93L45.124 284.904C44.5825 285.214 44.1326 285.662 43.8198 286.203C43.5069 286.743 43.3422 287.356 43.3422 287.981C43.3422 288.605 43.5069 289.218 43.8198 289.758C44.1326 290.299 44.5825 290.747 45.124 291.058L55.7748 297.196C57.3963 298.132 59.2357 298.625 61.108 298.625C62.9804 298.625 64.8197 298.132 66.4412 297.196L135.621 257.183L143.712 261.851C146.95 263.719 150.622 264.702 154.359 264.702C158.097 264.702 161.768 263.719 165.006 261.851L189.902 247.49C190.623 247.074 191.221 246.476 191.637 245.755C192.053 245.035 192.272 244.218 192.272 243.386C192.272 242.554 192.053 241.736 191.637 241.016C191.221 240.296 190.623 239.697 189.902 239.282L178.232 232.575L188.058 226.873L191.458 224.896L236.66 198.67C237.201 198.356 237.65 197.905 237.962 197.361C238.273 196.818 238.435 196.202 238.432 195.576C238.429 194.95 238.26 194.336 237.944 193.796C237.627 193.256 237.173 192.809 236.629 192.501Z" fill="#E0E0E0"/>
<path d="M295.827 86.8637L298.153 85.51L322.714 99.6385V102.323L295.827 86.8637Z" fill="#F5F5F5"/>
<path d="M295.827 86.8637L322.714 102.323V105.396L295.827 89.9446V86.8637Z" fill="#E0E0E0"/>
<path d="M325.258 103.777L327.585 102.424L352.146 116.552V119.236L325.258 103.777Z" fill="#F5F5F5"/>
<path d="M325.258 103.777L352.146 119.236V122.309L325.258 106.858V103.777Z" fill="#E0E0E0"/>
<path d="M224.056 45.5286L226.382 44.1748L250.944 58.3033V60.9874L224.056 45.5286Z" fill="#F5F5F5"/>
<path d="M224.056 45.5286L250.944 60.9874V64.0605L224.056 48.6094V45.5286Z" fill="#E0E0E0"/>
<path d="M253.488 62.4423L255.814 61.0963L280.376 75.217V77.9089L253.488 62.4423Z" fill="#F5F5F5"/>
<path d="M253.488 62.4423L280.376 77.9089V80.9742L253.488 65.5232V62.4423Z" fill="#E0E0E0"/>
<path d="M295.959 61.0497L298.285 59.6959L298.145 142.576L295.827 143.93L295.959 61.0497Z" fill="#F0F0F0"/>
<path d="M295.827 143.93L298.145 142.576L324.901 157.934L322.574 159.288L295.827 143.93Z" fill="#F5F5F5"/>
<path d="M293.306 56.4361L325.398 74.8747L325.251 163.901L293.143 145.486L293.306 56.4361ZM322.582 159.28L322.722 76.4074L295.959 61.0497L295.827 143.93L322.574 159.28" fill="#E0E0E0"/>
<path d="M293.298 56.4361L295.617 55.0824L327.717 73.5288L325.391 74.8747L293.298 56.4361Z" fill="#F5F5F5"/>
<path d="M325.391 74.8747L327.717 73.5288L327.561 162.548L325.243 163.901L325.391 74.8747Z" fill="#F0F0F0"/>
<path d="M325.391 77.9634L327.717 76.6174L327.585 159.49L325.258 160.844L325.391 77.9634Z" fill="#F0F0F0"/>
<path d="M325.258 160.844L327.585 159.49L354.332 174.848L352.006 176.201L325.258 160.844Z" fill="#F5F5F5"/>
<path d="M322.73 73.3498L354.83 91.804L354.675 180.823L322.574 162.369L322.73 73.3498ZM352.006 176.201L352.146 93.36L325.391 78.0023L325.258 160.883L352.006 176.24" fill="#E0E0E0"/>
<path d="M322.73 73.3498L325.056 71.9961L357.149 90.4425L354.83 91.7884L322.73 73.3498Z" fill="#F5F5F5"/>
<path d="M354.83 91.7884L357.149 90.4425L357.001 179.461L354.675 180.815L354.83 91.7884Z" fill="#F0F0F0"/>
<path d="M224.188 19.7145L226.515 18.3686L226.375 101.241L224.056 102.595L224.188 19.7145Z" fill="#F0F0F0"/>
<path d="M224.056 102.595L226.375 101.241L253.13 116.599L250.804 117.945L224.056 102.595Z" fill="#F5F5F5"/>
<path d="M221.528 15.101L253.628 33.5474L253.48 122.566L221.38 104.12L221.528 15.101ZM250.804 117.953L250.944 35.0722L224.188 19.7145L224.064 102.595L250.812 117.953" fill="#E0E0E0"/>
<path d="M221.528 15.101L223.846 13.7473L255.946 32.1936L253.62 33.5474L221.528 15.101Z" fill="#F5F5F5"/>
<path d="M253.62 33.5474L255.946 32.1936L255.791 121.212L253.472 122.566L253.62 33.5474Z" fill="#F0F0F0"/>
<path d="M253.62 36.6282L255.946 35.2823L255.814 118.155L253.488 119.509L253.62 36.6282Z" fill="#F0F0F0"/>
<path d="M253.488 119.509L255.814 118.155L282.562 133.513L280.236 134.866L253.488 119.509Z" fill="#F5F5F5"/>
<path d="M250.959 32.0147L283.06 50.4611L282.904 139.48L250.804 121.033L250.959 32.0147ZM280.236 134.866L280.376 51.986L253.628 36.6282L253.496 119.509L280.243 134.866" fill="#E0E0E0"/>
<path d="M250.959 32.0147L253.286 30.661L285.378 49.1074L283.06 50.4611L250.959 32.0147Z" fill="#F5F5F5"/>
<path d="M283.06 50.4611L285.378 49.1074L285.23 138.126L282.904 139.48L283.06 50.4611Z" fill="#F0F0F0"/>
<path d="M27.0277 248.672L39.3435 249.03L51.6592 248.672C52.1882 256.989 50.57 265.469 48.3294 269.608C47.8021 270.671 46.9526 271.539 45.902 272.09C42.2687 274.191 36.3948 274.191 32.7849 272.09C31.7138 271.533 30.8555 270.639 30.342 269.546C28.1014 265.384 26.4987 256.95 27.0277 248.672Z" fill="white"/>
<path d="M30.661 243.623C25.8374 246.416 25.8063 250.928 30.6065 253.737C35.4068 256.546 43.1946 256.53 48.0259 253.737C52.8573 250.944 52.8729 246.439 48.0804 243.623C43.2879 240.807 35.4846 240.838 30.661 243.623Z" fill="#EBEBEB"/>
<path d="M32.5671 244.735C28.8016 246.906 28.786 250.43 32.5671 252.609C36.3482 254.787 42.3932 254.779 46.151 252.609C49.9087 250.438 49.9398 246.906 46.1976 244.735C42.4555 242.565 36.3326 242.565 32.5671 244.735Z" fill="#E0E0E0"/>
<g opacity="0.15">
<path d="M32.5671 244.735C28.8016 246.906 28.786 250.43 32.5671 252.609C36.3482 254.787 42.3932 254.779 46.151 252.609C49.9087 250.438 49.9398 246.906 46.1976 244.735C42.4555 242.565 36.3326 242.565 32.5671 244.735Z" fill="black"/>
</g>
<path d="M19.0921 196.11C46.8512 205.198 47.1001 223.768 40.8761 236.994C39.3201 239.671 34.5199 241.11 30.3653 224.663L37.6552 225.597L29.1594 221.287L26.9188 214.728L33.9986 215.257L25.0127 211.476C23.3595 206.236 21.3822 201.105 19.0921 196.11Z" fill="#EC287C"/>
<path opacity="0.2" d="M19.0921 196.11C46.8512 205.198 47.1001 223.768 40.8761 236.994C39.3201 239.671 34.5199 241.11 30.3653 224.663L37.6552 225.597L29.1594 221.287L26.9188 214.728L33.9986 215.257L25.0127 211.476C23.3595 206.236 21.3822 201.105 19.0921 196.11Z" fill="black"/>
<path opacity="0.2" d="M19.0921 196.11C46.8512 205.198 47.1001 223.768 40.8761 236.994C39.3201 239.671 34.5199 241.11 30.3653 224.663L37.6552 225.597L29.1594 221.287L26.9188 214.728L33.9986 215.257L25.0127 211.476C23.3595 206.236 21.3822 201.105 19.0921 196.11Z" fill="white"/>
<path d="M26.9421 200.724C41.5763 211.834 42.8989 224.57 38.7677 237.866C40.2304 226.188 41.8097 214.347 26.9421 200.724Z" fill="white"/>
<path d="M66.13 214.969C38.7677 218.859 35.4457 236.076 39.0789 249.435C40.1059 252.189 44.3149 254.32 50.9201 239.694L43.9726 239.352L52.6006 236.753L55.7126 230.98L49.014 230.288L58.0155 228.265C60.4456 223.671 63.1555 219.231 66.13 214.969Z" fill="#EC287C"/>
<path opacity="0.2" d="M66.13 214.969C38.7677 218.859 35.4457 236.076 39.0789 249.435C40.1059 252.189 44.3149 254.32 50.9201 239.694L43.9726 239.352L52.6006 236.753L55.7126 230.98L49.014 230.288L58.0155 228.265C60.4456 223.671 63.1555 219.231 66.13 214.969Z" fill="white"/>
<path opacity="0.1" d="M66.13 214.969C38.7677 218.859 35.4457 236.076 39.0789 249.435C40.1059 252.189 44.3149 254.32 50.9201 239.694L43.9726 239.352L52.6006 236.753L55.7126 230.98L49.014 230.288L58.0155 228.265C60.4456 223.671 63.1555 219.231 66.13 214.969Z" fill="black"/>
<path d="M58.0232 217.996C42.541 225.908 39.1956 237.555 40.8372 250.625C41.4207 239.476 41.9186 228.187 58.0232 217.996Z" fill="white"/>
<path d="M11.0787 221.434C36.177 221.847 41.1017 236.994 39.3201 249.442C38.7055 252.041 35.15 254.429 27.5568 241.989L33.7808 240.9L25.7129 239.523L22.2275 234.668L28.1714 233.307L19.8312 232.482C17.1452 228.622 14.2221 224.932 11.0787 221.434Z" fill="#EC287C"/>
<path d="M18.672 223.286C33.5085 228.685 37.8341 238.846 37.8186 250.773C36.0759 240.76 34.3643 230.638 18.672 223.286Z" fill="white"/>
<path opacity="0.2" d="M11.0787 221.434C36.177 221.847 41.1017 236.994 39.3201 249.442C38.7055 252.041 35.15 254.429 27.5568 241.989L33.7808 240.9L25.7129 239.523L22.2275 234.668L28.1714 233.307L19.8312 232.482C17.1452 228.622 14.2221 224.932 11.0787 221.434Z" fill="white"/>
<path d="M332.455 229.004L345.378 229.386L358.292 229.004C358.852 237.733 357.149 246.618 354.799 250.967C354.244 252.086 353.348 252.998 352.239 253.574C348.427 255.775 342.266 255.775 338.484 253.574C337.36 252.991 336.46 252.052 335.925 250.905C333.591 246.533 331.903 237.687 332.455 229.004Z" fill="white"/>
<path d="M336.275 223.714C331.21 226.639 331.187 231.377 336.213 234.295C341.239 237.212 349.439 237.22 354.48 234.295C359.522 231.369 359.568 226.639 354.542 223.714C349.517 220.789 341.332 220.796 336.275 223.714Z" fill="#EBEBEB"/>
<path d="M338.274 224.881C334.322 227.16 334.307 230.856 338.228 233.135C342.149 235.415 348.528 235.415 352.481 233.135C356.433 230.856 356.448 227.16 352.527 224.881C348.606 222.601 342.219 222.601 338.274 224.881Z" fill="#E0E0E0"/>
<g opacity="0.15">
<path d="M338.274 224.881C334.322 227.16 334.307 230.856 338.228 233.135C342.149 235.415 348.528 235.415 352.481 233.135C356.433 230.856 356.448 227.16 352.527 224.881C348.606 222.601 342.219 222.601 338.274 224.881Z" fill="black"/>
</g>
<path d="M351.967 202.568C354.068 199.962 356.503 197.62 358.432 194.873C359.747 193.006 360.844 190.711 360.292 188.494C359.984 187.475 359.397 186.562 358.599 185.859C357.8 185.155 356.821 184.688 355.772 184.51C353.65 184.196 351.487 184.681 349.703 185.872C347.936 187.055 346.383 188.531 345.113 190.237C337.842 199.447 334.404 211.106 335.513 222.788C335.536 224.126 335.953 225.428 336.711 226.53C337.177 227.08 337.792 227.483 338.482 227.692C339.172 227.9 339.908 227.905 340.601 227.705C344.125 226.663 343.658 221.909 344.234 219.147C345.476 213.091 348.143 207.418 352.014 202.599L351.967 202.568Z" fill="#EC287C"/>
<path opacity="0.2" d="M351.967 202.568C354.068 199.962 356.503 197.62 358.432 194.873C359.747 193.006 360.844 190.711 360.292 188.494C359.984 187.475 359.397 186.562 358.599 185.859C357.8 185.155 356.821 184.688 355.772 184.51C353.65 184.196 351.487 184.681 349.703 185.872C347.936 187.055 346.383 188.531 345.113 190.237C337.842 199.447 334.404 211.106 335.513 222.788C335.536 224.126 335.953 225.428 336.711 226.53C337.177 227.08 337.792 227.483 338.482 227.692C339.172 227.9 339.908 227.905 340.601 227.705C344.125 226.663 343.658 221.909 344.234 219.147C345.476 213.091 348.143 207.418 352.014 202.599L351.967 202.568Z" fill="white"/>
<path d="M340.352 224.165C340.42 224.153 340.482 224.117 340.527 224.065C340.572 224.013 340.598 223.946 340.601 223.877C340.85 218.229 342.686 198.981 355.974 188.004C356.005 187.979 356.032 187.948 356.051 187.912C356.07 187.877 356.082 187.838 356.085 187.798C356.089 187.758 356.085 187.718 356.072 187.679C356.06 187.641 356.039 187.606 356.013 187.576C355.99 187.537 355.958 187.504 355.921 187.479C355.884 187.454 355.842 187.437 355.797 187.429C355.753 187.422 355.708 187.424 355.664 187.436C355.621 187.448 355.58 187.469 355.546 187.498C342.063 198.6 340.204 218.105 339.986 223.823C339.984 223.904 340.014 223.983 340.069 224.043C340.124 224.102 340.2 224.138 340.282 224.142L340.352 224.165Z" fill="#F0F0F0"/>
<path d="M338.43 224.78C338.71 226.015 339.236 227.182 339.976 228.21C340.717 229.238 341.657 230.106 342.74 230.763C344.773 231.724 347.033 232.101 349.268 231.852C351.532 231.602 353.757 231.08 355.896 230.296C356.962 229.938 358.145 229.456 358.23 228.133C358.248 227.785 358.187 227.437 358.052 227.115C357.918 226.793 357.713 226.506 357.452 226.274C357.235 226.064 357.006 225.867 356.767 225.682C356.655 225.6 356.571 225.484 356.526 225.352C356.482 225.219 356.48 225.076 356.52 224.943C356.56 224.809 356.64 224.691 356.75 224.604C356.86 224.518 356.994 224.468 357.133 224.461C357.765 224.418 358.393 224.34 359.016 224.227C360.475 223.994 361.846 223.373 362.984 222.43C363.841 221.702 364.495 220.763 364.882 219.707C365.091 219.282 365.178 218.808 365.132 218.337C365.087 217.865 364.911 217.416 364.625 217.039C364.202 216.696 363.694 216.476 363.155 216.401C362.678 216.302 362.203 216.217 361.731 216.144C361.595 216.123 361.47 216.057 361.375 215.958C361.279 215.859 361.219 215.731 361.203 215.594C361.187 215.457 361.217 215.319 361.287 215.201C361.357 215.082 361.464 214.99 361.591 214.938L363.591 214.098C364.18 213.919 364.715 213.595 365.147 213.156C365.407 212.752 365.577 212.295 365.643 211.818C365.708 211.341 365.669 210.855 365.528 210.395C365.287 209.142 364.851 207.928 364.555 206.691C364.205 205.455 364.16 204.152 364.423 202.895C360.664 202.487 356.863 202.75 353.196 203.673C352.092 203.902 351.047 204.36 350.131 205.019C348.886 206.014 348.575 207.516 348.692 209.142C348.698 209.209 348.681 209.276 348.643 209.332C348.605 209.388 348.549 209.428 348.484 209.447C348.42 209.465 348.35 209.461 348.289 209.433C348.227 209.406 348.177 209.358 348.147 209.298L346.864 206.964C346.67 206.629 346.359 206.378 345.991 206.26C345.623 206.142 345.224 206.166 344.872 206.326C343.748 206.896 342.752 207.69 341.947 208.66C341.499 209.17 341.158 209.764 340.942 210.408C340.727 211.052 340.643 211.733 340.694 212.41C340.821 214.241 341.105 216.057 341.542 217.84C341.564 217.939 341.556 218.043 341.52 218.138C341.483 218.233 341.419 218.315 341.335 218.373C341.252 218.431 341.153 218.463 341.052 218.466C340.95 218.468 340.85 218.439 340.764 218.385L340.71 218.338C340.364 218.071 339.93 217.946 339.496 217.988C338.368 218.128 338.08 219.272 338.002 220.252C337.96 221.773 338.103 223.294 338.43 224.78Z" fill="#EC287C"/>
<path opacity="0.2" d="M338.43 224.78C338.71 226.015 339.236 227.182 339.976 228.21C340.717 229.238 341.657 230.106 342.74 230.763C344.773 231.724 347.033 232.101 349.268 231.852C351.532 231.602 353.757 231.08 355.896 230.296C356.962 229.938 358.145 229.456 358.23 228.133C358.248 227.785 358.187 227.437 358.052 227.115C357.918 226.793 357.713 226.506 357.452 226.274C357.235 226.064 357.006 225.867 356.767 225.682C356.655 225.6 356.571 225.484 356.526 225.352C356.482 225.219 356.48 225.076 356.52 224.943C356.56 224.809 356.64 224.691 356.75 224.604C356.86 224.518 356.994 224.468 357.133 224.461C357.765 224.418 358.393 224.34 359.016 224.227C360.475 223.994 361.846 223.373 362.984 222.43C363.841 221.702 364.495 220.763 364.882 219.707C365.091 219.282 365.178 218.808 365.132 218.337C365.087 217.865 364.911 217.416 364.625 217.039C364.202 216.696 363.694 216.476 363.155 216.401C362.678 216.302 362.203 216.217 361.731 216.144C361.595 216.123 361.47 216.057 361.375 215.958C361.279 215.859 361.219 215.731 361.203 215.594C361.187 215.457 361.217 215.319 361.287 215.201C361.357 215.082 361.464 214.99 361.591 214.938L363.591 214.098C364.18 213.919 364.715 213.595 365.147 213.156C365.407 212.752 365.577 212.295 365.643 211.818C365.708 211.341 365.669 210.855 365.528 210.395C365.287 209.142 364.851 207.928 364.555 206.691C364.205 205.455 364.16 204.152 364.423 202.895C360.664 202.487 356.863 202.75 353.196 203.673C352.092 203.902 351.047 204.36 350.131 205.019C348.886 206.014 348.575 207.516 348.692 209.142C348.698 209.209 348.681 209.276 348.643 209.332C348.605 209.388 348.549 209.428 348.484 209.447C348.42 209.465 348.35 209.461 348.289 209.433C348.227 209.406 348.177 209.358 348.147 209.298L346.864 206.964C346.67 206.629 346.359 206.378 345.991 206.26C345.623 206.142 345.224 206.166 344.872 206.326C343.748 206.896 342.752 207.69 341.947 208.66C341.499 209.17 341.158 209.764 340.942 210.408C340.727 211.052 340.643 211.733 340.694 212.41C340.821 214.241 341.105 216.057 341.542 217.84C341.564 217.939 341.556 218.043 341.52 218.138C341.483 218.233 341.419 218.315 341.335 218.373C341.252 218.431 341.153 218.463 341.052 218.466C340.95 218.468 340.85 218.439 340.764 218.385L340.71 218.338C340.364 218.071 339.93 217.946 339.496 217.988C338.368 218.128 338.08 219.272 338.002 220.252C337.96 221.773 338.103 223.294 338.43 224.78Z" fill="black"/>
<path opacity="0.2" d="M338.43 224.78C338.71 226.015 339.236 227.182 339.976 228.21C340.717 229.238 341.657 230.106 342.74 230.763C344.773 231.724 347.033 232.101 349.268 231.852C351.532 231.602 353.757 231.08 355.896 230.296C356.962 229.938 358.145 229.456 358.23 228.133C358.248 227.785 358.187 227.437 358.052 227.115C357.918 226.793 357.713 226.506 357.452 226.274C357.235 226.064 357.006 225.867 356.767 225.682C356.655 225.6 356.571 225.484 356.526 225.352C356.482 225.219 356.48 225.076 356.52 224.943C356.56 224.809 356.64 224.691 356.75 224.604C356.86 224.518 356.994 224.468 357.133 224.461C357.765 224.418 358.393 224.34 359.016 224.227C360.475 223.994 361.846 223.373 362.984 222.43C363.841 221.702 364.495 220.763 364.882 219.707C365.091 219.282 365.178 218.808 365.132 218.337C365.087 217.865 364.911 217.416 364.625 217.039C364.202 216.696 363.694 216.476 363.155 216.401C362.678 216.302 362.203 216.217 361.731 216.144C361.595 216.123 361.47 216.057 361.375 215.958C361.279 215.859 361.219 215.731 361.203 215.594C361.187 215.457 361.217 215.319 361.287 215.201C361.357 215.082 361.464 214.99 361.591 214.938L363.591 214.098C364.18 213.919 364.715 213.595 365.147 213.156C365.407 212.752 365.577 212.295 365.643 211.818C365.708 211.341 365.669 210.855 365.528 210.395C365.287 209.142 364.851 207.928 364.555 206.691C364.205 205.455 364.16 204.152 364.423 202.895C360.664 202.487 356.863 202.75 353.196 203.673C352.092 203.902 351.047 204.36 350.131 205.019C348.886 206.014 348.575 207.516 348.692 209.142C348.698 209.209 348.681 209.276 348.643 209.332C348.605 209.388 348.549 209.428 348.484 209.447C348.42 209.465 348.35 209.461 348.289 209.433C348.227 209.406 348.177 209.358 348.147 209.298L346.864 206.964C346.67 206.629 346.359 206.378 345.991 206.26C345.623 206.142 345.224 206.166 344.872 206.326C343.748 206.896 342.752 207.69 341.947 208.66C341.499 209.17 341.158 209.764 340.942 210.408C340.727 211.052 340.643 211.733 340.694 212.41C340.821 214.241 341.105 216.057 341.542 217.84C341.564 217.939 341.556 218.043 341.52 218.138C341.483 218.233 341.419 218.315 341.335 218.373C341.252 218.431 341.153 218.463 341.052 218.466C340.95 218.468 340.85 218.439 340.764 218.385L340.71 218.338C340.364 218.071 339.93 217.946 339.496 217.988C338.368 218.128 338.08 219.272 338.002 220.252C337.96 221.773 338.103 223.294 338.43 224.78Z" fill="white"/>
<path d="M344.366 230.451C345.072 227.449 346.083 224.526 347.385 221.73C347.385 221.687 347.395 221.644 347.413 221.605C347.432 221.566 347.46 221.531 347.494 221.504C347.564 221.349 347.626 221.201 347.704 221.045C347.333 217.549 346.317 214.151 344.708 211.025C344.669 210.953 344.659 210.869 344.681 210.791C344.703 210.712 344.755 210.645 344.825 210.605C344.897 210.565 344.981 210.555 345.059 210.577C345.138 210.599 345.205 210.651 345.245 210.721C346.755 213.642 347.752 216.8 348.194 220.057C350.746 214.93 354.822 208.94 361.116 204.56C361.149 204.536 361.186 204.518 361.225 204.509C361.265 204.5 361.305 204.498 361.345 204.505C361.385 204.511 361.423 204.526 361.457 204.547C361.492 204.568 361.521 204.597 361.544 204.63C361.591 204.697 361.61 204.78 361.597 204.861C361.584 204.943 361.54 205.016 361.474 205.065C354.978 209.578 350.886 215.841 348.396 221.038C351.745 219.523 355.463 219.02 359.094 219.59C359.133 219.598 359.171 219.613 359.204 219.635C359.238 219.657 359.267 219.686 359.289 219.719C359.311 219.752 359.327 219.79 359.335 219.829C359.343 219.868 359.343 219.909 359.335 219.948C359.328 219.989 359.314 220.027 359.292 220.061C359.27 220.096 359.242 220.125 359.209 220.149C359.175 220.172 359.138 220.188 359.098 220.197C359.058 220.205 359.017 220.205 358.977 220.197C358.923 220.197 353.041 219.116 347.968 221.956C346.674 224.734 345.668 227.639 344.965 230.623C344.955 230.684 344.927 230.74 344.884 230.785C344.841 230.829 344.785 230.86 344.724 230.871H344.607C344.561 230.864 344.518 230.847 344.48 230.82C344.441 230.794 344.409 230.759 344.386 230.719C344.363 230.679 344.349 230.634 344.346 230.588C344.342 230.541 344.349 230.495 344.366 230.451Z" fill="#F0F0F0"/>
<path d="M181.274 241.024L160.999 252.624C158.087 254.299 154.786 255.18 151.426 255.18C148.066 255.18 144.765 254.299 141.853 252.624L126.814 243.926C125.938 243.421 125.21 242.695 124.703 241.819C124.196 240.944 123.929 239.951 123.928 238.939V228.67L120.816 230.49V239.406C120.815 240.588 121.127 241.749 121.718 242.772C122.31 243.795 123.16 244.644 124.184 245.233L142.078 255.534C144.947 257.18 148.197 258.046 151.504 258.046C154.811 258.046 158.061 257.18 160.929 255.534L181.352 243.864C182.742 243.071 183.848 241.863 184.517 240.409C185.185 238.955 185.381 237.329 185.078 235.757C184.873 236.862 184.426 237.908 183.768 238.818C183.11 239.729 182.258 240.483 181.274 241.024Z" fill="#EC287C"/>
<path opacity="0.1" d="M181.274 241.024L160.999 252.624C158.087 254.299 154.786 255.18 151.426 255.18C148.066 255.18 144.765 254.299 141.853 252.624L126.814 243.926C125.938 243.421 125.21 242.695 124.703 241.819C124.196 240.944 123.929 239.951 123.928 238.939V228.67L120.816 230.49V239.406C120.815 240.588 121.127 241.749 121.718 242.772C122.31 243.795 123.16 244.644 124.184 245.233L142.078 255.534C144.947 257.18 148.197 258.046 151.504 258.046C154.811 258.046 158.061 257.18 160.929 255.534L181.352 243.864C182.742 243.071 183.848 241.863 184.517 240.409C185.185 238.955 185.381 237.329 185.078 235.757C184.873 236.862 184.426 237.908 183.768 238.818C183.11 239.729 182.258 240.483 181.274 241.024Z" fill="black"/>
<path d="M126.814 243.926L141.861 252.593C144.773 254.268 148.074 255.149 151.434 255.149C154.793 255.149 158.094 254.268 161.007 252.593L181.274 241.024C182.242 240.476 183.078 239.721 183.722 238.813C184.366 237.906 184.802 236.868 185.001 235.773C184.807 234.704 184.386 233.69 183.766 232.799C183.146 231.907 182.341 231.16 181.406 230.607L164.773 220.633C163.777 220.034 162.953 219.187 162.38 218.176C161.808 217.165 161.506 216.022 161.505 214.86V206.948L123.904 228.685V238.955C123.911 239.966 124.183 240.958 124.694 241.83C125.204 242.703 125.936 243.426 126.814 243.926Z" fill="#EC287C"/>
<path opacity="0.4" d="M126.814 243.926C125.938 243.421 125.21 242.695 124.703 241.819C124.196 240.944 123.929 239.951 123.928 238.939V228.67L120.816 230.49V239.406C120.815 240.588 121.127 241.749 121.718 242.772C122.31 243.795 123.16 244.644 124.184 245.233L130.517 248.89V246.035L126.814 243.926Z" fill="black"/>
<path opacity="0.3" d="M126.814 243.926L130.478 246.035L169.736 223.605L164.78 220.633C163.785 220.034 162.96 219.187 162.388 218.176C161.815 217.165 161.514 216.022 161.513 214.86V206.948L123.912 228.685V238.955C123.918 239.965 124.189 240.956 124.698 241.829C125.207 242.701 125.937 243.425 126.814 243.926Z" fill="black"/>
<path d="M58.5445 265.726L58.2566 137.13C58.3633 135.139 58.938 133.201 59.9343 131.473C60.9306 129.745 62.3203 128.277 63.9905 127.187L223.846 35.1345C225.402 34.2242 226.857 34.1309 227.9 34.7144L221.878 31.2289C220.828 30.5598 219.342 30.6143 217.7 31.5635L57.8521 123.624C56.1826 124.712 54.7937 126.179 53.7987 127.906C52.8036 129.632 52.2305 131.569 52.126 133.559L52.3983 262.186C52.3983 263.905 52.9896 265.135 53.9543 265.773L54.2733 265.952L60.2094 269.414C59.1825 268.791 58.5523 267.523 58.5445 265.726Z" fill="#EC287C"/>
<path opacity="0.3" d="M221.878 31.2289C220.828 30.5598 219.342 30.6143 217.7 31.5635L57.8521 123.624C55.9593 124.817 54.4369 126.515 53.4564 128.526L59.6026 132.081C60.5853 130.076 62.104 128.382 63.9905 127.187L223.846 35.1345C225.402 34.2242 226.857 34.1309 227.9 34.7144L221.878 31.2289Z" fill="white"/>
<path opacity="0.2" d="M52.126 133.559L52.3983 262.186C52.3983 263.905 52.9896 265.135 53.9543 265.773L54.2733 265.952L60.2094 269.414C59.198 268.807 58.5678 267.539 58.5601 265.741L58.2722 137.146C58.3204 135.381 58.7813 133.651 59.6181 132.097L53.4719 128.541C52.6419 130.088 52.1812 131.805 52.126 133.559Z" fill="black"/>
<path d="M229.619 38.4254C229.619 36.6282 228.981 35.3679 227.97 34.761H227.931C226.888 34.1775 225.457 34.2709 223.877 35.1812L63.9905 127.187C62.3203 128.277 60.9306 129.745 59.9343 131.473C58.938 133.201 58.3633 135.139 58.2566 137.13L58.5445 265.726C58.5445 267.523 59.1825 268.791 60.1939 269.398L60.2872 269.445H60.3261C61.3686 269.989 62.769 269.888 64.3173 268.993L224.173 176.964C225.843 175.876 227.233 174.409 228.229 172.683C229.225 170.956 229.8 169.019 229.907 167.029L229.619 38.4254ZM221.333 172.047L64.2161 262.521L63.936 137.115C64.0428 136.125 64.3554 135.169 64.8539 134.307C65.3523 133.446 66.0255 132.698 66.8302 132.112L223.986 41.6386L224.266 167.044C224.153 168.037 223.834 168.994 223.328 169.856C222.823 170.717 222.144 171.464 221.333 172.047Z" fill="#EC287C"/>
<path d="M223.947 41.6386L219.878 43.9726L220.174 165.06C220.065 166.05 219.752 167.005 219.254 167.866C218.755 168.728 218.083 169.476 217.28 170.063L64.2083 258.187V262.521L221.364 172.047C222.168 171.46 222.84 170.712 223.338 169.85C223.836 168.989 224.15 168.033 224.258 167.044L223.947 41.6386Z" fill="#EC287C"/>
<path opacity="0.3" d="M223.947 41.6386L219.878 43.9726L220.174 165.06C220.065 166.05 219.752 167.005 219.254 167.866C218.755 168.728 218.083 169.476 217.28 170.063L64.2083 258.187V262.521L221.364 172.047C222.168 171.46 222.84 170.712 223.338 169.85C223.836 168.989 224.15 168.033 224.258 167.044L223.947 41.6386Z" fill="black"/>
<path d="M220.174 165.06L219.902 43.9803L66.8302 132.112C66.0255 132.698 65.3523 133.446 64.8539 134.307C64.3555 135.169 64.0428 136.125 63.9361 137.115L64.2083 258.187L217.257 170.063C218.064 169.478 218.741 168.731 219.243 167.87C219.746 167.008 220.063 166.051 220.174 165.06Z" fill="#263238"/>
<path d="M82.7636 272.222L82.468 150.675C82.5712 148.792 83.1184 146.959 84.0649 145.327C85.0113 143.695 86.3302 142.31 87.914 141.285L239.002 54.2811C240.495 53.4175 241.849 53.3319 242.837 53.8843L237.15 50.57C236.154 49.9398 234.754 49.9943 233.198 50.889L82.1101 137.916C80.5251 138.94 79.2051 140.324 78.2585 141.957C77.3119 143.589 76.7655 145.422 76.6641 147.307L76.9364 268.853C76.9364 270.487 77.4888 271.646 78.3835 272.246C78.4792 272.312 78.5808 272.369 78.6869 272.417L84.2963 275.684C83.3705 275.116 82.7714 273.926 82.7636 272.222Z" fill="#455A64"/>
<path opacity="0.2" d="M237.15 50.57C236.154 49.9398 234.754 49.9943 233.198 50.889L82.1101 137.916C80.3226 139.044 78.8841 140.647 77.9556 142.545L83.7673 145.906C84.6976 144.013 86.1326 142.414 87.914 141.285L239.002 54.2811C240.495 53.4175 241.849 53.3319 242.837 53.8843L237.15 50.57Z" fill="white"/>
<path opacity="0.1" d="M76.6875 147.307L76.9598 268.853C76.9598 270.487 77.5121 271.646 78.4068 272.246C78.5026 272.312 78.6041 272.369 78.7103 272.417L84.3196 275.684C83.3627 275.109 82.7636 273.918 82.7636 272.214L82.468 150.675C82.5151 149.008 82.9521 147.374 83.7439 145.906L77.9323 142.545C77.1508 144.013 76.7244 145.644 76.6875 147.307Z" fill="white"/>
<path d="M82.5069 157.724L82.7636 272.222C82.7636 273.926 83.3705 275.116 84.3196 275.692L84.4052 275.747C85.3855 276.26 86.7392 276.167 88.1785 275.319L239.313 188.33C240.897 187.305 242.216 185.92 243.162 184.288C244.108 182.656 244.656 180.824 244.759 178.94L244.502 64.2472L82.5069 157.724Z" fill="#455A64"/>
<path d="M90.3025 162.213L236.73 77.6989L236.955 178.94C236.748 179.969 236.2 180.898 235.399 181.577L90.5281 265.033L90.3025 162.213Z" fill="#455A64"/>
<path opacity="0.2" d="M82.5069 157.724L82.7636 272.222C82.7636 273.926 83.3705 275.116 84.3196 275.692L84.4052 275.747C85.3855 276.26 86.7392 276.167 88.1785 275.319L239.313 188.33C240.897 187.305 242.216 185.92 243.162 184.288C244.108 182.656 244.656 180.824 244.759 178.94L244.502 64.2472L82.5069 157.724Z" fill="white"/>
<path d="M238.208 71.8639C239.608 71.0859 240.752 71.7005 240.752 73.3187C240.707 74.1967 240.454 75.0514 240.014 75.8128C239.575 76.5741 238.961 77.2205 238.224 77.6989L108.71 152.566C107.317 153.344 106.174 152.729 106.166 151.119C106.211 150.24 106.463 149.384 106.903 148.621C107.342 147.858 107.956 147.21 108.694 146.731L238.208 71.8639Z" fill="#455A64"/>
<g opacity="0.8">
<path d="M238.208 71.8639C239.608 71.0859 240.752 71.7005 240.752 73.3187C240.707 74.1967 240.454 75.0514 240.014 75.8128C239.575 76.5741 238.961 77.2205 238.224 77.6989L108.71 152.566C107.317 153.344 106.174 152.729 106.166 151.119C106.211 150.24 106.463 149.384 106.903 148.621C107.342 147.858 107.956 147.21 108.694 146.731L238.208 71.8639Z" fill="white"/>
</g>
<path d="M89.6723 159.031C89.6991 159.018 89.7283 159.012 89.7579 159.012C89.7874 159.012 89.8167 159.018 89.8434 159.031C89.9524 159.085 89.9601 159.264 89.8434 159.436L89.0654 160.945L91.8273 159.35C91.9674 159.264 92.0841 159.35 92.0841 159.498C92.0785 159.585 92.0523 159.671 92.0077 159.746C91.9631 159.822 91.9013 159.886 91.8273 159.933L89.0654 161.528L89.8901 162.089C89.9913 162.151 89.9835 162.337 89.8901 162.509C89.8476 162.581 89.789 162.642 89.719 162.688C89.6916 162.707 89.659 162.717 89.6256 162.717C89.5922 162.717 89.5596 162.707 89.5322 162.688L88.2797 161.824C88.2576 161.807 88.2391 161.786 88.2252 161.762C88.2209 161.728 88.2209 161.694 88.2252 161.661C88.2215 161.627 88.2215 161.593 88.2252 161.559C88.2346 161.516 88.2504 161.474 88.2719 161.435L89.4856 159.202C89.5311 159.129 89.5957 159.07 89.6723 159.031Z" fill="#455A64"/>
<path d="M96.6432 155.009C96.6713 154.988 96.7054 154.977 96.7404 154.977C96.7754 154.977 96.8095 154.988 96.8377 155.009L98.0513 155.826L98.1058 155.888C98.1095 155.921 98.1095 155.955 98.1058 155.989C98.1091 156.025 98.1091 156.062 98.1058 156.098L98.0591 156.215L96.8454 158.447C96.8021 158.53 96.7377 158.6 96.6587 158.65C96.6313 158.665 96.6005 158.673 96.5693 158.673C96.538 158.673 96.5072 158.665 96.4798 158.65C96.3786 158.603 96.3709 158.416 96.4798 158.245L97.3045 156.736L94.5426 158.331C94.4025 158.416 94.2858 158.331 94.2858 158.191C94.289 158.101 94.314 158.014 94.3588 157.937C94.4036 157.86 94.4667 157.794 94.5426 157.747L97.3045 156.152L96.472 155.6C96.3786 155.53 96.3864 155.343 96.472 155.172C96.5135 155.103 96.5726 155.047 96.6432 155.009Z" fill="#455A64"/>
<path d="M101.747 152.06C101.998 151.897 102.297 151.826 102.595 151.858C102.606 151.777 102.634 151.699 102.677 151.629C102.72 151.56 102.777 151.5 102.844 151.453C102.984 151.375 103.093 151.453 103.085 151.617V152.27C103.076 152.354 103.05 152.435 103.007 152.508C102.964 152.58 102.905 152.642 102.836 152.69L102.284 153.04C102.151 153.118 102.035 153.04 102.035 152.908C102.034 152.831 102.05 152.755 102.083 152.685C102.115 152.615 102.162 152.553 102.221 152.504C102.059 152.51 101.901 152.558 101.762 152.644C101.45 152.845 101.191 153.118 101.005 153.44C100.82 153.762 100.714 154.124 100.697 154.495C100.697 155.172 101.179 155.444 101.77 155.102C102.206 154.823 102.538 154.407 102.712 153.92C102.751 153.802 102.831 153.703 102.937 153.639C102.975 153.626 103.016 153.626 103.054 153.639C103.178 153.639 103.225 153.795 103.163 153.982C102.903 154.702 102.414 155.317 101.77 155.732C100.899 156.23 100.214 155.826 100.214 154.822C100.232 154.273 100.381 153.736 100.647 153.256C100.914 152.776 101.291 152.366 101.747 152.06Z" fill="#455A64"/>
<g opacity="0.7">
<path d="M89.6723 159.031C89.6991 159.018 89.7283 159.012 89.7579 159.012C89.7874 159.012 89.8167 159.018 89.8434 159.031C89.9524 159.085 89.9601 159.264 89.8434 159.436L89.0654 160.945L91.8273 159.35C91.9674 159.264 92.0841 159.35 92.0841 159.498C92.0785 159.585 92.0523 159.671 92.0077 159.746C91.9631 159.822 91.9013 159.886 91.8273 159.933L89.0654 161.528L89.8901 162.089C89.9913 162.151 89.9835 162.337 89.8901 162.509C89.8476 162.581 89.789 162.642 89.719 162.688C89.6916 162.707 89.659 162.717 89.6256 162.717C89.5922 162.717 89.5596 162.707 89.5322 162.688L88.2797 161.824C88.2576 161.807 88.2391 161.786 88.2252 161.762C88.2209 161.728 88.2209 161.694 88.2252 161.661C88.2215 161.627 88.2215 161.593 88.2252 161.559C88.2346 161.516 88.2504 161.474 88.2719 161.435L89.4856 159.202C89.5311 159.129 89.5957 159.07 89.6723 159.031Z" fill="white"/>
<path d="M96.6432 155.009C96.6713 154.988 96.7054 154.977 96.7404 154.977C96.7754 154.977 96.8095 154.988 96.8377 155.009L98.0513 155.826L98.1058 155.888C98.1095 155.921 98.1095 155.955 98.1058 155.989C98.1091 156.025 98.1091 156.062 98.1058 156.098L98.0591 156.215L96.8454 158.447C96.8021 158.53 96.7377 158.6 96.6587 158.65C96.6313 158.665 96.6005 158.673 96.5693 158.673C96.538 158.673 96.5072 158.665 96.4798 158.65C96.3786 158.603 96.3709 158.416 96.4798 158.245L97.3045 156.736L94.5426 158.331C94.4025 158.416 94.2858 158.331 94.2858 158.191C94.289 158.101 94.314 158.014 94.3588 157.937C94.4036 157.86 94.4667 157.794 94.5426 157.747L97.3045 156.152L96.472 155.6C96.3786 155.53 96.3864 155.343 96.472 155.172C96.5135 155.103 96.5726 155.047 96.6432 155.009Z" fill="white"/>
<path d="M101.747 152.06C101.998 151.897 102.297 151.826 102.595 151.858C102.606 151.777 102.634 151.699 102.677 151.629C102.72 151.56 102.777 151.5 102.844 151.453C102.984 151.375 103.093 151.453 103.085 151.617V152.27C103.076 152.354 103.05 152.435 103.007 152.508C102.964 152.58 102.905 152.642 102.836 152.69L102.284 153.04C102.151 153.118 102.035 153.04 102.035 152.908C102.034 152.831 102.05 152.755 102.083 152.685C102.115 152.615 102.162 152.553 102.221 152.504C102.059 152.51 101.901 152.558 101.762 152.644C101.45 152.845 101.191 153.118 101.005 153.44C100.82 153.762 100.714 154.124 100.697 154.495C100.697 155.172 101.179 155.444 101.77 155.102C102.206 154.823 102.538 154.407 102.712 153.92C102.751 153.802 102.831 153.703 102.937 153.639C102.975 153.626 103.016 153.626 103.054 153.639C103.178 153.639 103.225 153.795 103.163 153.982C102.903 154.702 102.414 155.317 101.77 155.732C100.899 156.23 100.214 155.826 100.214 154.822C100.232 154.273 100.381 153.736 100.647 153.256C100.914 152.776 101.291 152.366 101.747 152.06Z" fill="white"/>
</g>
<path d="M244.463 57.3853C244.463 55.6892 243.856 54.4911 242.907 53.9232H242.868C241.88 53.3708 240.534 53.4564 239.033 54.32L87.914 141.285C86.3302 142.31 85.0113 143.695 84.0649 145.327C83.1184 146.959 82.5712 148.792 82.468 150.675V157.724L244.479 64.2472L244.463 57.3853Z" fill="#455A64"/>
<path opacity="0.3" d="M244.463 57.3853C244.463 55.6892 243.856 54.4911 242.907 53.9232H242.868C241.88 53.3708 240.534 53.4564 239.033 54.32L87.914 141.285C86.3302 142.31 85.0113 143.695 84.0649 145.327C83.1184 146.959 82.5712 148.792 82.468 150.675V157.724L244.479 64.2472L244.463 57.3853Z" fill="black"/>
<g opacity="0.5">
<path d="M89.6878 146.21C90.4658 145.735 91.1738 146.116 91.1738 147.058C91.1484 147.571 91.001 148.071 90.744 148.516C90.4869 148.961 90.1276 149.339 89.6956 149.617C88.8787 150.092 88.2096 149.711 88.2096 148.769C88.2363 148.256 88.3842 147.757 88.6411 147.312C88.8981 146.867 89.2568 146.489 89.6878 146.21Z" fill="white"/>
<path d="M93.7412 143.868C94.5581 143.401 95.2272 143.774 95.2272 144.716C95.1993 145.23 95.0509 145.73 94.7942 146.176C94.5374 146.622 94.1794 147.001 93.749 147.283C92.971 147.75 92.263 147.377 92.263 146.435C92.2879 145.921 92.4349 145.419 92.692 144.973C92.949 144.526 93.3087 144.148 93.7412 143.868Z" fill="white"/>
<path d="M97.7946 141.534C98.5726 141.059 99.2728 141.44 99.2806 142.382C99.2521 142.894 99.1034 143.393 98.8466 143.838C98.5899 144.282 98.2322 144.66 97.8024 144.941C96.9777 145.416 96.3164 145.035 96.3086 144.093C96.3368 143.58 96.4861 143.08 96.7444 142.635C97.0026 142.19 97.3625 141.813 97.7946 141.534Z" fill="white"/>
</g>
<path d="M89.6878 146.21C90.4658 145.735 91.1738 146.116 91.1738 147.058C91.1484 147.571 91.001 148.071 90.744 148.516C90.4869 148.961 90.1276 149.339 89.6956 149.617C88.8787 150.092 88.2096 149.711 88.2096 148.769C88.2363 148.256 88.3842 147.757 88.6411 147.312C88.8981 146.867 89.2568 146.489 89.6878 146.21Z" fill="#455A64"/>
<path d="M93.7412 143.868C94.5581 143.401 95.2272 143.774 95.2272 144.716C95.1993 145.23 95.0509 145.73 94.7942 146.176C94.5374 146.622 94.1794 147.001 93.749 147.283C92.971 147.75 92.263 147.377 92.263 146.435C92.2879 145.921 92.4349 145.419 92.692 144.973C92.949 144.526 93.3087 144.148 93.7412 143.868Z" fill="#455A64"/>
<path d="M97.7946 141.534C98.5726 141.059 99.2728 141.44 99.2806 142.382C99.2521 142.894 99.1034 143.393 98.8466 143.838C98.5899 144.282 98.2322 144.66 97.8024 144.941C96.9777 145.416 96.3164 145.035 96.3086 144.093C96.3368 143.58 96.4861 143.08 96.7444 142.635C97.0026 142.19 97.3625 141.813 97.7946 141.534Z" fill="#455A64"/>
<path d="M236.839 128.035L236.745 86.607C236.745 86.334 236.673 86.0658 236.536 85.8295C236.4 85.5932 236.203 85.397 235.967 85.2606C235.73 85.1242 235.462 85.0525 235.189 85.0526C234.916 85.0526 234.648 85.1245 234.411 85.261L171.23 121.648C170.639 121.989 170.148 122.481 169.806 123.072C169.465 123.663 169.285 124.334 169.285 125.017V166.492C169.285 166.765 169.357 167.033 169.494 167.269C169.631 167.506 169.827 167.702 170.064 167.838C170.3 167.975 170.568 168.046 170.841 168.046C171.114 168.046 171.383 167.974 171.619 167.838L234.894 131.396C235.484 131.056 235.974 130.566 236.316 129.976C236.657 129.386 236.837 128.717 236.839 128.035Z" fill="#37474F"/>
<path d="M162.641 126.596L92.263 167.122C91.6694 167.465 91.1769 167.958 90.8353 168.553C90.4938 169.147 90.3153 169.821 90.318 170.506L90.4114 211.927C90.4117 212.2 90.4838 212.468 90.6204 212.705C90.7571 212.941 90.9536 213.137 91.1901 213.274C91.4266 213.41 91.6948 213.482 91.9678 213.482C92.2408 213.482 92.509 213.41 92.7454 213.273L163.022 172.817C163.615 172.477 164.108 171.986 164.45 171.395C164.793 170.803 164.974 170.132 164.975 169.448V127.942C164.975 127.669 164.903 127.401 164.766 127.165C164.629 126.928 164.433 126.732 164.196 126.596C163.96 126.459 163.692 126.388 163.419 126.388C163.146 126.388 162.877 126.46 162.641 126.596Z" fill="#37474F"/>
<path opacity="0.1" d="M162.641 126.596L92.263 167.122C91.6694 167.465 91.1769 167.958 90.8353 168.553C90.4938 169.147 90.3153 169.821 90.318 170.506L90.4114 211.927C90.4117 212.2 90.4838 212.468 90.6204 212.705C90.7571 212.941 90.9536 213.137 91.1901 213.274C91.4266 213.41 91.6948 213.482 91.9678 213.482C92.2408 213.482 92.509 213.41 92.7454 213.273L163.022 172.817C163.615 172.477 164.108 171.986 164.45 171.395C164.793 170.803 164.974 170.132 164.975 169.448V127.942C164.975 127.669 164.903 127.401 164.766 127.165C164.629 126.928 164.433 126.732 164.196 126.596C163.96 126.459 163.692 126.388 163.419 126.388C163.146 126.388 162.877 126.46 162.641 126.596Z" fill="white"/>
<path d="M169.285 174.334V216.984C169.284 217.258 169.355 217.527 169.491 217.764C169.627 218.002 169.824 218.199 170.06 218.336C170.297 218.474 170.566 218.546 170.839 218.546C171.113 218.547 171.382 218.475 171.619 218.338L235.415 181.593C236.215 180.914 236.764 179.985 236.971 178.956L236.878 138.103C236.877 137.83 236.805 137.562 236.669 137.325C236.532 137.089 236.335 136.893 236.099 136.756C235.862 136.62 235.594 136.548 235.321 136.548C235.048 136.548 234.78 136.62 234.544 136.757L169.285 174.334Z" fill="#37474F"/>
<path opacity="0.1" d="M169.285 174.334V216.984C169.284 217.258 169.355 217.527 169.491 217.764C169.627 218.002 169.824 218.199 170.06 218.336C170.297 218.474 170.566 218.546 170.839 218.546C171.113 218.547 171.382 218.475 171.619 218.338L235.415 181.593C236.215 180.914 236.764 179.985 236.971 178.956L236.878 138.103C236.877 137.83 236.805 137.562 236.669 137.325C236.532 137.089 236.335 136.893 236.099 136.756C235.862 136.62 235.594 136.548 235.321 136.548C235.048 136.548 234.78 136.62 234.544 136.757L169.285 174.334Z" fill="white"/>
<path d="M90.4347 221.995L90.5203 262.349C90.5219 262.622 90.595 262.889 90.7323 263.124C90.8695 263.359 91.0661 263.554 91.3023 263.69C91.5386 263.825 91.8063 263.896 92.0786 263.896C92.351 263.896 92.6184 263.824 92.8543 263.688L163.022 223.286C163.616 222.945 164.109 222.453 164.452 221.86C164.795 221.267 164.975 220.594 164.975 219.909V179.508C164.976 179.234 164.905 178.965 164.769 178.728C164.633 178.49 164.436 178.293 164.2 178.156C163.963 178.018 163.694 177.946 163.42 177.946C163.147 177.945 162.878 178.017 162.641 178.154L92.3797 218.61C91.7861 218.953 91.2936 219.446 90.952 220.041C90.6105 220.635 90.432 221.309 90.4347 221.995Z" fill="#37474F"/>
<path d="M121.773 176.987L114.249 182.651C112.124 184.251 110.365 186.286 109.091 188.621C107.816 190.956 107.055 193.536 106.858 196.188L106.166 205.524L147.571 181.679L145.323 178.349C144.183 176.659 142.559 175.352 140.664 174.601C138.769 173.85 136.691 173.689 134.703 174.14L130.471 175.104L121.773 176.987Z" fill="white"/>
<path d="M117.229 165.963C117.46 165.405 117.89 164.954 118.435 164.695C118.55 164.635 118.673 164.59 118.801 164.563C119.166 164.502 119.54 164.531 119.891 164.647C120.242 164.764 120.56 164.964 120.816 165.232C121.319 165.778 121.659 166.454 121.796 167.184C121.927 167.912 122.008 168.648 122.037 169.386C122.145 170.696 122.348 171.996 122.644 173.276C122.799 173.971 123.104 174.624 123.537 175.189C123.969 175.755 124.519 176.22 125.149 176.552L125.235 176.598C127.063 177.506 129.055 178.035 131.093 178.154V180.379C132.703 182.573 133.155 186.774 128.899 185.522C124.643 184.269 121.897 181.437 121.897 178.652C121.897 177.477 121.835 175.968 121.811 174.622C121.773 172.802 121.734 171.284 121.734 171.284C121.332 171.731 120.776 172.009 120.178 172.062C119.908 172.117 119.63 172.117 119.361 172.062C118.97 171.938 118.608 171.736 118.296 171.469C117.985 171.202 117.73 170.874 117.548 170.506C117.188 169.779 116.989 168.983 116.965 168.172C116.878 167.425 116.968 166.668 117.229 165.963Z" fill="#8C5C5B"/>
<path d="M118.606 158.276C119.465 157.29 120.66 156.657 121.959 156.502L139.433 158.121C141.448 162.4 139.846 165.216 139.846 165.216C140.118 171.736 140.343 175.875 137.473 177.244C135.45 178.054 133.26 178.358 131.093 178.131C129.055 178.012 127.063 177.482 125.235 176.575L125.141 176.528C124.512 176.192 123.962 175.724 123.53 175.156C123.097 174.588 122.793 173.934 122.636 173.237C122.343 171.97 122.143 170.683 122.037 169.386C122.008 168.648 121.927 167.912 121.796 167.184C121.659 166.454 121.319 165.778 120.816 165.232C120.56 164.964 120.242 164.764 119.891 164.647C119.54 164.531 119.166 164.502 118.801 164.563C118.673 164.59 118.55 164.635 118.435 164.695C117.937 161.824 117.797 159.295 118.606 158.276Z" fill="#263238"/>
<path d="M125.009 158.774C125.311 159.99 125.233 161.269 124.783 162.439C124.325 163.595 123.953 164.783 123.671 165.994C123.441 167.21 123.61 168.468 124.153 169.581C124.426 170.133 124.816 170.619 125.298 171.004C125.779 171.388 126.339 171.662 126.938 171.806C128.813 172.203 130.65 171.113 132.532 170.748C134.34 170.426 136.203 170.754 137.792 171.673C137.926 171.754 138.078 171.799 138.234 171.803C138.39 171.807 138.545 171.772 138.684 171.699C138.822 171.626 138.939 171.519 139.024 171.388C139.109 171.257 139.159 171.106 139.169 170.95C139.394 167.2 139.386 161.326 138.834 158.564L125.009 158.774Z" fill="#8C5C5B"/>
<path d="M138.538 155.382L140.709 153.873C140.936 154.599 140.979 155.371 140.833 156.117C140.688 156.864 140.359 157.563 139.877 158.152C138.884 159.305 137.539 160.099 136.049 160.408C134.567 160.709 133.047 160.777 131.544 160.61C129.342 160.432 127.163 160.033 125.04 159.42C124.081 159.222 123.197 158.758 122.488 158.082C122.046 157.518 121.795 156.829 121.77 156.113C121.745 155.397 121.947 154.692 122.348 154.098C122.767 153.517 123.303 153.031 123.923 152.672C124.542 152.312 125.23 152.088 125.943 152.013C127.394 151.898 128.854 152.014 130.268 152.356C131.683 152.699 133.145 152.804 134.594 152.667C135.321 152.591 136.019 152.339 136.626 151.932C137.234 151.525 137.732 150.976 138.079 150.333C139.309 152.348 138.538 155.382 138.538 155.382Z" fill="#263238"/>
<path d="M133.054 165.426L136.243 169.285L133.318 170.32L133.054 165.426Z" fill="#F28F8F"/>
<path d="M133.054 165.426L136.243 169.285L133.318 170.32L133.054 165.426Z" fill="#7D4B4A"/>
<path d="M130.642 172.234L133.1 173.012C132.942 173.3 132.696 173.53 132.398 173.67C132.1 173.81 131.766 173.852 131.443 173.79C131.149 173.665 130.908 173.441 130.761 173.156C130.615 172.872 130.573 172.546 130.642 172.234Z" fill="#F28F8F"/>
<path d="M130.642 172.234L133.1 173.012C132.942 173.3 132.696 173.53 132.398 173.67C132.1 173.81 131.766 173.852 131.443 173.79C131.149 173.665 130.908 173.441 130.761 173.156C130.615 172.872 130.573 172.546 130.642 172.234Z" fill="#7D4B4A"/>
<path d="M132.26 173.712C132.01 173.798 131.741 173.814 131.482 173.759C131.259 173.668 131.066 173.515 130.928 173.318C130.79 173.12 130.712 172.887 130.704 172.646C131.058 172.585 131.421 172.661 131.721 172.859C132.02 173.057 132.232 173.362 132.314 173.712H132.26Z" fill="#F28F8F"/>
<path d="M128.72 166.274C128.731 166.446 128.793 166.61 128.897 166.747C129.001 166.884 129.143 166.986 129.306 167.042C129.468 167.098 129.644 167.105 129.81 167.062C129.976 167.018 130.126 166.926 130.24 166.798C130.355 166.67 130.428 166.51 130.452 166.34C130.477 166.17 130.45 165.997 130.375 165.842C130.301 165.687 130.182 165.557 130.035 165.469C129.887 165.382 129.716 165.339 129.545 165.348C129.43 165.354 129.317 165.383 129.213 165.433C129.109 165.483 129.016 165.553 128.939 165.639C128.862 165.725 128.803 165.826 128.766 165.935C128.728 166.044 128.713 166.159 128.72 166.274Z" fill="#263238"/>
<path d="M136.041 165.597C136.057 165.828 136.163 166.044 136.336 166.198C136.509 166.352 136.735 166.433 136.967 166.422C137.186 166.393 137.387 166.282 137.528 166.112C137.67 165.942 137.742 165.725 137.73 165.504C137.718 165.282 137.624 165.074 137.465 164.92C137.306 164.766 137.095 164.677 136.874 164.671C136.641 164.686 136.423 164.791 136.268 164.964C136.112 165.137 136.03 165.365 136.041 165.597Z" fill="#263238"/>
<path d="M136.71 162.065L138.717 163.302C138.789 163.059 138.785 162.799 138.704 162.558C138.623 162.317 138.47 162.107 138.266 161.956C138.022 161.828 137.747 161.771 137.473 161.79C137.198 161.809 136.934 161.905 136.71 162.065Z" fill="#263238"/>
<path d="M129.21 162.369L127.351 163.808C127.253 163.573 127.229 163.313 127.283 163.064C127.338 162.815 127.467 162.588 127.654 162.415C127.883 162.263 128.15 162.177 128.426 162.169C128.701 162.161 128.973 162.23 129.21 162.369Z" fill="#263238"/>
<path d="M124.06 176.458C123.573 175.833 123.226 175.112 123.041 174.342C123.494 175.276 124.232 176.042 125.149 176.528L125.235 176.575C127.063 177.482 129.055 178.012 131.093 178.131V179.632C129.902 179.546 128.726 179.314 127.592 178.94C126.204 178.462 124.98 177.602 124.06 176.458Z" fill="#7D4B4A"/>
<path d="M200.887 181.889L193.107 187.77C191.736 188.795 190.607 190.109 189.8 191.619C188.994 193.129 188.529 194.798 188.439 196.507L187.809 209.01L225.799 187.132L220.228 181.647C219.205 180.642 217.946 179.91 216.566 179.519C215.186 179.127 213.73 179.089 212.332 179.407L209.585 180.029L200.887 181.889Z" fill="#EC287C"/>
<path opacity="0.2" d="M200.887 181.889L193.107 187.77C191.736 188.795 190.607 190.109 189.8 191.619C188.994 193.129 188.529 194.798 188.439 196.507L187.809 209.01L225.799 187.132L220.228 181.647C219.205 180.642 217.946 179.91 216.566 179.519C215.186 179.127 213.73 179.089 212.332 179.407L209.585 180.029L200.887 181.889Z" fill="black"/>
<path d="M217.062 172.335C218.386 171.382 219.307 169.97 219.644 168.374C219.981 166.777 219.709 165.113 218.883 163.707C219.626 163.377 220.236 162.803 220.61 162.081C220.767 161.732 220.816 161.345 220.749 160.968C220.683 160.592 220.504 160.244 220.237 159.971C219.97 159.698 219.626 159.511 219.251 159.437C218.876 159.362 218.487 159.402 218.136 159.552C218.331 158.989 218.332 158.377 218.139 157.812C217.946 157.248 217.57 156.765 217.07 156.44C216.563 156.168 215.978 156.076 215.413 156.181C214.847 156.286 214.334 156.58 213.958 157.016C213.972 156.649 213.866 156.288 213.657 155.986C213.448 155.685 213.147 155.459 212.799 155.343C212.08 155.154 211.319 155.2 210.628 155.476C209.928 155.717 209.266 156.067 208.566 156.254C207.355 156.56 206.112 156.719 204.863 156.728C203.609 156.742 202.378 157.071 201.284 157.685C200.242 158.362 199.316 159.941 199.884 161.311C199.704 161.085 199.479 160.899 199.223 160.765C198.967 160.631 198.686 160.552 198.398 160.533C198.106 160.521 197.816 160.574 197.547 160.687C197.279 160.8 197.038 160.97 196.842 161.186C197.62 161.668 198.398 162.182 199.176 162.664C198.73 162.54 198.255 162.566 197.825 162.737C197.395 162.909 197.033 163.217 196.795 163.613C196.431 164.398 196.289 165.267 196.383 166.126C196.483 169.393 197.062 172.628 198.102 175.727C198.631 177.33 199.401 179.026 200.919 179.765L217.062 172.335Z" fill="#263238"/>
<path d="M208.815 180.045L208.473 183.873C208.455 184.169 208.531 184.463 208.691 184.713C208.903 185.114 208.983 185.571 208.922 186.02C208.861 186.47 208.66 186.888 208.348 187.218C207.855 187.584 207.259 187.786 206.645 187.794C205.477 187.856 204.31 187.672 203.218 187.252C202.127 186.832 201.137 186.187 200.312 185.359C200.146 185.183 200.016 184.977 199.931 184.751C199.845 184.525 199.805 184.285 199.814 184.044L200.063 174.334L208.815 180.045Z" fill="#FFA8A7"/>
<path d="M200.833 174.84L208.815 180.045L208.512 183.437C206.641 183.116 204.867 182.376 203.323 181.274C202.396 180.501 201.681 179.505 201.245 178.379C200.81 177.254 200.668 176.036 200.833 174.84Z" fill="#F28F8F"/>
<path d="M217.513 164.446C218.098 168.886 217.807 173.398 216.657 177.726C216.432 178.678 216.076 179.595 215.599 180.449C215.117 181.309 214.361 181.982 213.452 182.363C212.285 182.678 211.056 182.678 209.889 182.363C207.718 181.982 205.501 181.585 203.618 180.442C201.735 179.298 200.242 177.244 200.421 175.05C199.886 175.381 199.277 175.573 198.649 175.609C198.021 175.644 197.395 175.521 196.826 175.252C196.271 174.947 195.801 174.508 195.458 173.976C195.114 173.443 194.908 172.834 194.858 172.203C194.784 171.59 194.926 170.971 195.26 170.453C195.594 169.934 196.098 169.549 196.686 169.363C197.059 169.309 197.438 169.336 197.8 169.442C198.161 169.548 198.495 169.731 198.779 169.977C199.347 170.471 199.84 171.045 200.242 171.681C200.429 171.989 200.678 172.254 200.973 172.459C201.12 172.562 201.295 172.617 201.475 172.617C201.654 172.617 201.829 172.562 201.977 172.459C202.101 172.308 202.192 172.132 202.242 171.943C202.291 171.753 202.299 171.555 202.264 171.362L202.14 168.585C202.13 168.371 202.184 168.159 202.293 167.976C202.402 167.792 202.562 167.644 202.755 167.55C203.328 167.238 203.769 166.73 203.999 166.119C204.198 165.581 204.316 165.018 204.349 164.446C204.358 164.339 204.391 164.236 204.447 164.144C204.502 164.053 204.578 163.975 204.669 163.919C204.76 163.862 204.863 163.827 204.969 163.818C205.076 163.808 205.183 163.823 205.283 163.862C209.205 165.297 213.472 165.5 217.513 164.446Z" fill="#FFA8A7"/>
<path d="M211.398 171.183L213.903 175.392L210.924 175.952L211.398 171.183Z" fill="#F28F8F"/>
<path d="M208.045 177.384L210.309 178.489C210.115 178.744 209.843 178.929 209.534 179.016C209.225 179.103 208.896 179.087 208.597 178.971C208.337 178.811 208.139 178.565 208.039 178.276C207.938 177.987 207.94 177.672 208.045 177.384Z" fill="#F28F8F"/>
<path opacity="0.3" d="M208.045 177.384L210.309 178.489C210.115 178.744 209.843 178.929 209.534 179.016C209.225 179.103 208.896 179.087 208.597 178.971C208.337 178.811 208.139 178.565 208.039 178.276C207.938 177.987 207.94 177.672 208.045 177.384Z" fill="black"/>
<path d="M209.383 179.064C209.122 179.117 208.851 179.089 208.605 178.987C208.398 178.87 208.23 178.695 208.122 178.483C208.014 178.271 207.971 178.032 207.998 177.796C208.323 177.796 208.638 177.906 208.893 178.108C209.176 178.35 209.352 178.693 209.383 179.064Z" fill="#F28F8F"/>
<path d="M207.088 171.354C207.073 171.523 207.109 171.692 207.19 171.84C207.271 171.988 207.395 172.109 207.544 172.187C207.694 172.265 207.864 172.297 208.032 172.279C208.2 172.261 208.359 172.194 208.489 172.086C208.618 171.978 208.713 171.834 208.761 171.672C208.809 171.51 208.808 171.337 208.758 171.176C208.708 171.014 208.612 170.871 208.481 170.765C208.35 170.658 208.19 170.592 208.022 170.576C207.909 170.566 207.796 170.577 207.688 170.611C207.58 170.644 207.48 170.699 207.393 170.771C207.306 170.843 207.234 170.932 207.182 171.032C207.13 171.132 207.098 171.242 207.088 171.354Z" fill="#263238"/>
<path d="M214.261 171.798C214.247 171.966 214.282 172.134 214.363 172.282C214.444 172.43 214.567 172.551 214.716 172.629C214.866 172.707 215.035 172.74 215.203 172.722C215.37 172.705 215.529 172.638 215.659 172.531C215.789 172.423 215.884 172.28 215.933 172.119C215.982 171.957 215.982 171.785 215.933 171.624C215.884 171.462 215.789 171.319 215.659 171.211C215.529 171.104 215.37 171.037 215.203 171.02C215.089 171.008 214.975 171.019 214.866 171.052C214.758 171.085 214.656 171.139 214.569 171.211C214.481 171.284 214.409 171.373 214.356 171.474C214.303 171.574 214.271 171.685 214.261 171.798Z" fill="#263238"/>
<path d="M215.428 168.491L217.186 169.985C217.292 169.761 217.327 169.509 217.285 169.264C217.243 169.019 217.127 168.793 216.953 168.616C216.737 168.453 216.479 168.355 216.209 168.333C215.939 168.311 215.668 168.366 215.428 168.491Z" fill="#263238"/>
<path d="M208.154 167.651L206.131 168.772C206.073 168.529 206.09 168.275 206.18 168.043C206.271 167.81 206.43 167.611 206.637 167.472C206.881 167.357 207.153 167.312 207.421 167.344C207.689 167.376 207.943 167.482 208.154 167.651Z" fill="#263238"/>
<path d="M144.202 212.752C143.868 213.53 142.95 213.903 142.506 214.627C142.334 214.907 142.241 215.229 142.237 215.558C142.233 215.886 142.319 216.21 142.486 216.494C142.652 216.778 142.892 217.011 143.181 217.169C143.47 217.326 143.796 217.402 144.125 217.389C144.451 217.371 144.767 217.268 145.04 217.089C145.313 216.91 145.534 216.662 145.681 216.37C145.821 217.055 145.821 217.762 145.681 218.447C145.618 218.797 145.466 219.125 145.238 219.398C145.01 219.671 144.715 219.879 144.381 220.003C144.865 220.503 145.197 221.13 145.338 221.812C145.48 222.493 145.425 223.201 145.181 223.852C144.936 224.504 144.512 225.073 143.958 225.493C143.403 225.913 142.741 226.168 142.047 226.227C142.312 228.117 141.083 230.164 139.519 231.268C137.91 232.32 135.982 232.772 134.073 232.544C132.169 232.308 130.317 231.764 128.588 230.934C125.933 231.944 123.09 232.369 120.255 232.179C118.458 232.007 116.583 231.525 115.339 230.218C114.094 228.911 113.783 226.585 115.128 225.363C114.702 225.62 114.214 225.755 113.716 225.755C113.219 225.755 112.731 225.62 112.304 225.363C111.885 225.14 111.542 224.798 111.317 224.38C111.092 223.962 110.996 223.486 111.041 223.014C111.086 222.541 111.27 222.092 111.569 221.724C111.869 221.356 112.271 221.084 112.724 220.944C112.409 220.742 112.153 220.46 111.984 220.126C111.814 219.793 111.737 219.42 111.76 219.046C111.819 218.689 111.975 218.355 112.211 218.081C112.447 217.806 112.754 217.602 113.098 217.49C113.003 217.797 112.997 218.125 113.08 218.436C113.162 218.747 113.33 219.028 113.565 219.248C113.815 219.435 114.116 219.543 114.428 219.557C114.74 219.571 115.049 219.49 115.315 219.326C115.562 219.151 115.77 218.926 115.925 218.666C116.081 218.407 116.18 218.117 116.218 217.817C116.291 217.215 116.291 216.606 116.218 216.004C115.93 213.926 116.135 211.81 116.817 209.827C117.165 208.837 117.758 207.952 118.54 207.252C119.322 206.553 120.268 206.063 121.29 205.828C122.079 203.394 123.747 201.341 125.968 200.071C128.19 198.8 130.805 198.404 133.303 198.958C135.38 199.417 137.395 200.654 138.227 202.607C139.122 202.42 140.037 202.342 140.95 202.373C141.852 202.361 142.726 202.685 143.401 203.284C143.728 203.59 143.955 203.988 144.051 204.425C144.147 204.863 144.107 205.32 143.938 205.734C143.665 206.294 143.09 206.8 143.222 207.407C143.354 208.014 143.938 208.185 144.226 208.636C144.344 208.86 144.406 209.11 144.406 209.364C144.406 209.617 144.344 209.867 144.226 210.091C143.997 210.541 143.703 210.955 143.354 211.32C143.051 211.67 142.724 212.098 142.895 212.557C143.066 213.016 143.93 213.172 144.202 212.752Z" fill="#263238"/>
<path d="M136.15 233.937C135.436 234.431 134.572 234.662 133.707 234.59C131.587 234.587 129.497 234.094 127.599 233.149C125.702 232.205 124.048 230.834 122.768 229.144L125.196 228.934V221.139L133.645 224.399V228.911H135.808C136.254 229.46 136.604 230.081 136.842 230.747C137.053 231.288 137.099 231.879 136.976 232.446C136.853 233.013 136.566 233.532 136.15 233.937Z" fill="#F28F8F"/>
<path d="M125.818 221.364C128.347 226.281 129.918 226.382 133.668 226.81V224.383L125.818 221.364Z" fill="#D96E6E"/>
<path d="M141.129 210.013C141.861 213.718 141.906 217.526 141.261 221.248C141.013 222.64 140.608 224.126 139.503 225.013C138.142 226.11 136.189 225.947 134.454 225.729C132.55 225.576 130.677 225.154 128.891 224.476C128.003 224.129 127.198 223.599 126.528 222.921C125.858 222.243 125.338 221.432 125.001 220.54C124.523 220.798 123.973 220.891 123.437 220.804C122.901 220.716 122.408 220.454 122.037 220.057C121.313 219.236 120.924 218.172 120.948 217.078C120.889 216.589 120.957 216.093 121.145 215.638C121.333 215.183 121.635 214.784 122.022 214.479C122.318 214.321 122.646 214.232 122.981 214.218C123.317 214.205 123.651 214.267 123.959 214.401C124.576 214.669 125.128 215.067 125.577 215.568C125.799 215.827 126.062 216.048 126.355 216.222C126.501 216.31 126.667 216.356 126.837 216.356C127.007 216.356 127.174 216.31 127.32 216.222C127.471 216.077 127.587 215.899 127.659 215.702C127.73 215.505 127.755 215.294 127.732 215.086C127.703 213.369 128.092 211.67 128.868 210.138C129.739 208.667 131.498 207.602 133.147 208.045C133.859 208.37 134.605 208.612 135.372 208.769C135.999 208.736 136.605 208.537 137.13 208.193C137.496 207.946 137.918 207.797 138.358 207.76C138.797 207.723 139.239 207.799 139.64 207.982C140.041 208.165 140.389 208.448 140.65 208.803C140.911 209.159 141.076 209.576 141.129 210.013Z" fill="#F28F8F"/>
<path d="M135.8 214.619L138.048 218.4L135.372 218.898L135.8 214.619Z" fill="#F28F8F"/>
<path d="M135.8 214.619L138.048 218.4L135.372 218.898L135.8 214.619Z" fill="#D96E6E"/>
<path d="M132.789 220.174L134.827 221.162C134.651 221.394 134.403 221.563 134.123 221.641C133.842 221.72 133.543 221.705 133.271 221.598C133.04 221.452 132.865 221.231 132.777 220.972C132.689 220.712 132.693 220.431 132.789 220.174Z" fill="#F28F8F"/>
<path d="M132.789 220.174L134.827 221.162C134.651 221.394 134.403 221.563 134.123 221.641C133.842 221.72 133.543 221.705 133.271 221.598C133.04 221.452 132.865 221.231 132.777 220.972C132.689 220.712 132.693 220.431 132.789 220.174Z" fill="#D96E6E"/>
<path d="M133.987 221.73C133.75 221.782 133.502 221.757 133.279 221.66C133.094 221.556 132.943 221.399 132.846 221.209C132.749 221.02 132.71 220.806 132.735 220.594C133.05 220.585 133.356 220.699 133.589 220.91C133.823 221.122 133.965 221.416 133.987 221.73Z" fill="#F28F8F"/>
<path d="M133.987 221.73C133.75 221.782 133.502 221.757 133.279 221.66C133.094 221.556 132.943 221.399 132.846 221.209C132.749 221.02 132.71 220.806 132.735 220.594C133.05 220.585 133.356 220.699 133.589 220.91C133.823 221.122 133.965 221.416 133.987 221.73Z" fill="#C75555"/>
<path d="M131.925 214.767C131.909 214.921 131.939 215.076 132.011 215.212C132.083 215.349 132.194 215.461 132.33 215.535C132.466 215.608 132.621 215.639 132.775 215.624C132.929 215.609 133.075 215.548 133.194 215.45C133.313 215.352 133.4 215.22 133.445 215.072C133.489 214.924 133.488 214.766 133.442 214.618C133.396 214.471 133.307 214.34 133.187 214.243C133.066 214.147 132.92 214.088 132.766 214.074C132.563 214.057 132.361 214.12 132.204 214.249C132.047 214.379 131.947 214.564 131.925 214.767Z" fill="#263238"/>
<path d="M138.375 215.164C138.355 215.367 138.416 215.569 138.544 215.728C138.672 215.886 138.857 215.988 139.06 216.012C139.264 216.031 139.467 215.97 139.626 215.84C139.785 215.71 139.886 215.523 139.908 215.319C139.928 215.113 139.866 214.907 139.735 214.746C139.604 214.586 139.414 214.484 139.208 214.463C139.001 214.443 138.795 214.505 138.635 214.636C138.474 214.768 138.372 214.957 138.352 215.164H138.375Z" fill="#263238"/>
<path d="M139.425 212.192L140.981 213.538C141.077 213.335 141.108 213.107 141.071 212.886C141.033 212.665 140.929 212.461 140.771 212.301C140.577 212.164 140.35 212.082 140.113 212.063C139.877 212.044 139.639 212.088 139.425 212.192Z" fill="#263238"/>
<path d="M132.882 211.445L131.062 212.441C131.011 212.223 131.028 211.994 131.11 211.786C131.192 211.577 131.335 211.399 131.521 211.274C131.741 211.17 131.985 211.132 132.226 211.162C132.467 211.192 132.695 211.29 132.882 211.445Z" fill="#263238"/>
<path d="M137.932 228.911L138.608 237.344L144.327 234.046C143.152 230.988 141.246 228.911 137.932 228.911Z" fill="#F28F8F"/>
<path d="M137.932 228.911H135.831C136.278 229.46 136.628 230.081 136.866 230.747C137.076 231.288 137.123 231.879 137 232.446C136.877 233.013 136.589 233.532 136.173 233.937C135.459 234.431 134.596 234.662 133.73 234.59C131.611 234.587 129.52 234.094 127.623 233.149C125.725 232.205 124.072 230.834 122.792 229.144L115.572 229.767C115.572 229.767 115.735 244.984 115.696 247.178C115.66 248.25 115.74 249.322 115.938 250.376L142.662 234.987C141.453 232.7 139.852 230.644 137.932 228.911Z" fill="#EC287C"/>
<path opacity="0.6" d="M137.932 228.911H135.831C136.278 229.46 136.628 230.081 136.866 230.747C137.076 231.288 137.123 231.879 137 232.446C136.877 233.013 136.589 233.532 136.173 233.937C135.459 234.431 134.596 234.662 133.73 234.59C131.611 234.587 129.52 234.094 127.623 233.149C125.725 232.205 124.072 230.834 122.792 229.144L115.572 229.767C115.572 229.767 115.735 244.984 115.696 247.178C115.66 248.25 115.74 249.322 115.938 250.376L142.662 234.987C141.453 232.7 139.852 230.644 137.932 228.911Z" fill="white"/>
<path d="M115.572 229.79C108.648 232.124 110.266 238.029 113.798 244.346C114.677 245.902 115.735 247.863 116.832 249.886L124.286 245.591C121.609 239.033 117.937 230.988 115.572 229.79Z" fill="#F28F8F"/>
<path d="M214.611 137.115C215.492 138.607 216.252 140.168 216.883 141.783L219.653 140.227L217.124 135.294C216.656 134.381 215.9 133.648 214.973 133.208C214.047 132.768 213.001 132.645 211.997 132.859L211.118 133.046C212.502 134.197 213.683 135.572 214.611 137.115Z" fill="#455A64"/>
<path d="M195.62 145.167C195.438 144.691 195.159 144.259 194.802 143.896C194.445 143.533 194.016 143.248 193.543 143.059C193.028 142.911 192.487 142.882 191.959 142.972C191.431 143.062 190.93 143.27 190.493 143.58C190.152 143.805 189.837 144.065 189.552 144.358C188.413 146.2 187.81 148.323 187.809 150.489V158.518L196.935 153.266L196.282 148.123C196.196 147.113 195.973 146.118 195.62 145.167Z" fill="#455A64"/>
<path d="M214.611 137.115C213.686 135.561 212.505 134.175 211.118 133.015L205.05 134.322L198.826 136.897L192.998 140.787C191.594 141.715 190.41 142.939 189.529 144.373C189.813 144.081 190.129 143.82 190.47 143.595C190.907 143.285 191.408 143.078 191.935 142.987C192.463 142.897 193.005 142.927 193.52 143.074C193.993 143.263 194.421 143.549 194.779 143.911C195.136 144.274 195.415 144.707 195.597 145.183C195.951 146.136 196.173 147.133 196.258 148.147L196.912 153.289L216.86 141.798C216.237 140.179 215.485 138.613 214.611 137.115Z" fill="#455A64"/>
<path opacity="0.3" d="M214.611 137.115C215.492 138.607 216.252 140.168 216.883 141.783L219.653 140.227L217.124 135.294C216.656 134.381 215.9 133.648 214.973 133.208C214.047 132.768 213.001 132.645 211.997 132.859L211.118 133.046C212.502 134.197 213.683 135.572 214.611 137.115Z" fill="white"/>
<path opacity="0.3" d="M195.62 145.167C195.438 144.691 195.159 144.259 194.802 143.896C194.445 143.533 194.016 143.248 193.543 143.059C193.028 142.911 192.487 142.882 191.959 142.972C191.431 143.062 190.93 143.27 190.493 143.58C190.152 143.805 189.837 144.065 189.552 144.358C188.413 146.2 187.81 148.323 187.809 150.489V158.518L196.935 153.266L196.282 148.123C196.196 147.113 195.973 146.118 195.62 145.167Z" fill="white"/>
<path opacity="0.4" d="M214.611 137.115C213.686 135.561 212.505 134.175 211.118 133.015L205.05 134.322L198.826 136.897L192.998 140.787C191.594 141.715 190.41 142.939 189.529 144.373C189.813 144.081 190.129 143.82 190.47 143.595C190.907 143.285 191.408 143.078 191.935 142.987C192.463 142.897 193.005 142.927 193.52 143.074C193.993 143.263 194.421 143.549 194.779 143.911C195.136 144.274 195.415 144.707 195.597 145.183C195.951 146.136 196.173 147.133 196.258 148.147L196.912 153.289L216.86 141.798C216.237 140.179 215.485 138.613 214.611 137.115Z" fill="white"/>
<path d="M214.316 123.5C215.56 122.24 216.332 120.589 216.501 118.825C216.67 117.062 216.225 115.295 215.241 113.821C215.764 113.605 216.205 113.229 216.501 112.747C216.798 112.265 216.934 111.701 216.891 111.137C216.834 110.573 216.598 110.042 216.217 109.622C215.836 109.202 215.331 108.915 214.775 108.803C213.824 108.755 212.873 108.889 211.974 109.2C210.376 109.488 208.74 109.488 207.143 109.2C205.54 108.974 203.953 108.624 202.342 108.508C200.726 108.335 199.092 108.568 197.589 109.185C196.84 109.499 196.174 109.98 195.641 110.593C195.108 111.205 194.723 111.932 194.516 112.717C193.271 112.382 191.793 113.176 190.991 114.187C190.237 115.243 189.832 116.508 189.832 117.805C189.785 119.088 189.964 120.372 190.027 121.695C190.146 122.983 189.981 124.282 189.544 125.499C188.961 126.884 187.809 128.02 187.444 129.483C187.275 130.157 187.285 130.864 187.473 131.534C187.66 132.204 188.019 132.813 188.514 133.302C189.008 133.791 189.621 134.143 190.293 134.323C190.965 134.503 191.672 134.506 192.345 134.329C192.071 133.316 191.945 132.267 191.972 131.217C192.096 132.633 193.528 133.738 194.85 134.213C196.219 134.606 197.65 134.733 199.067 134.586L204.062 134.392L209.889 134.158C210.927 134.187 211.961 134.01 212.931 133.637C213.738 133.197 214.414 132.551 214.89 131.766C215.367 130.98 215.628 130.082 215.646 129.164C215.615 127.202 215.161 125.27 214.316 123.5Z" fill="#263238"/>
<path d="M207.181 131.614V136.928C207.181 136.928 211.53 139.705 209.694 141.176C206.248 143.946 198.849 136.897 198.849 136.897V128.051L207.181 131.614Z" fill="#FFA8A7"/>
<path d="M198.849 128.051C200.133 131.863 204.793 134.75 207.181 135.325V131.614L198.849 128.051Z" fill="#F28F8F"/>
<path d="M199.845 122.014C199.961 122.673 199.993 123.345 199.938 124.013C199.87 124.52 199.638 124.99 199.277 125.351C199.102 125.523 198.888 125.648 198.653 125.718C198.419 125.787 198.171 125.797 197.931 125.748C198.056 125.09 197.923 124.409 197.561 123.845C197.198 123.282 196.633 122.88 195.982 122.721C195.331 122.562 194.644 122.659 194.063 122.992C193.482 123.326 193.05 123.869 192.858 124.511C192.745 124.976 192.736 125.46 192.83 125.929C192.924 126.398 193.119 126.841 193.403 127.226C193.981 127.994 194.73 128.617 195.589 129.047C196.079 129.209 196.611 129.194 197.091 129.005C197.571 128.816 197.97 128.465 198.219 128.012C200.763 131.233 205.221 133.645 209.336 133.303C210.474 133.236 211.57 132.847 212.495 132.182C214.051 130.969 214.176 129.14 214.378 127.327C214.671 125.035 214.653 122.714 214.323 120.427C213.902 117.23 212.358 114.288 209.967 112.125C208.543 118.98 202.28 121.508 199.845 122.014Z" fill="#FFA8A7"/>
<path d="M208.488 121.228L211.328 124.729L208.683 125.639L208.488 121.228Z" fill="#F28F8F"/>
<path d="M206.263 127.343L208.473 128.043C208.331 128.305 208.107 128.512 207.836 128.634C207.565 128.757 207.261 128.787 206.971 128.72C206.712 128.608 206.5 128.409 206.371 128.158C206.242 127.907 206.204 127.619 206.263 127.343Z" fill="#F28F8F"/>
<path opacity="0.3" d="M206.263 127.343L208.473 128.043C208.331 128.305 208.107 128.512 207.836 128.634C207.565 128.757 207.261 128.787 206.971 128.72C206.712 128.608 206.5 128.409 206.371 128.158C206.242 127.907 206.204 127.619 206.263 127.343Z" fill="black"/>
<path d="M207.726 128.681C207.49 128.754 207.238 128.754 207.002 128.681C206.797 128.605 206.62 128.468 206.494 128.289C206.367 128.11 206.298 127.897 206.294 127.678C206.588 127.629 206.888 127.687 207.143 127.841C207.292 127.933 207.422 128.055 207.522 128.2C207.623 128.345 207.692 128.508 207.726 128.681Z" fill="#F28F8F"/>
<path d="M204.614 121.959C204.623 122.111 204.676 122.256 204.767 122.378C204.858 122.5 204.982 122.592 205.125 122.644C205.268 122.696 205.423 122.705 205.57 122.67C205.718 122.634 205.852 122.557 205.957 122.446C206.061 122.336 206.13 122.198 206.157 122.048C206.183 121.899 206.165 121.745 206.105 121.605C206.045 121.466 205.946 121.347 205.819 121.263C205.692 121.18 205.544 121.135 205.392 121.135C205.286 121.134 205.181 121.156 205.083 121.198C204.986 121.24 204.898 121.301 204.825 121.379C204.752 121.456 204.696 121.547 204.659 121.647C204.623 121.747 204.608 121.853 204.614 121.959Z" fill="#263238"/>
<path d="M211.18 121.407C211.189 121.558 211.243 121.704 211.334 121.826C211.424 121.947 211.549 122.04 211.692 122.092C211.834 122.143 211.989 122.152 212.137 122.117C212.284 122.082 212.419 122.005 212.523 121.894C212.627 121.784 212.697 121.645 212.723 121.496C212.749 121.346 212.732 121.192 212.672 121.053C212.612 120.913 212.512 120.794 212.385 120.711C212.259 120.627 212.11 120.583 211.958 120.582C211.852 120.582 211.747 120.604 211.649 120.646C211.552 120.688 211.464 120.749 211.391 120.826C211.318 120.904 211.262 120.995 211.226 121.095C211.189 121.195 211.174 121.301 211.18 121.407Z" fill="#263238"/>
<path d="M211.803 118.256L213.6 119.384C213.668 119.166 213.666 118.932 213.595 118.714C213.524 118.497 213.387 118.307 213.203 118.17C212.985 118.052 212.738 117.997 212.491 118.012C212.243 118.027 212.005 118.112 211.803 118.256Z" fill="#263238"/>
<path d="M205.05 118.443L203.361 119.734C203.273 119.522 203.252 119.288 203.303 119.063C203.353 118.839 203.471 118.636 203.642 118.482C203.849 118.344 204.091 118.267 204.34 118.26C204.589 118.254 204.835 118.317 205.05 118.443Z" fill="#263238"/>
<path d="M261.346 123.508C261.655 122.953 262.109 122.492 262.661 122.177L291.314 105.925C292.87 105.022 296.628 106.244 296.628 108.788V129.389C296.629 130.01 296.465 130.62 296.153 131.157C295.842 131.694 295.393 132.139 294.854 132.447L281.512 140.04L283.355 138.99L282.196 142.257C282.189 142.281 282.177 142.302 282.162 142.321C282.146 142.34 282.127 142.355 282.105 142.366C282.083 142.377 282.059 142.383 282.035 142.385C282.01 142.386 281.986 142.382 281.963 142.374C281.76 142.265 280.858 141.783 280.337 141.44L280.29 141.394L280.01 140.935L266.239 148.637C265.72 148.96 265.124 149.141 264.513 149.16C263.901 149.18 263.295 149.037 262.756 148.748C262.217 148.458 261.764 148.031 261.442 147.51C261.121 146.99 260.943 146.393 260.926 145.782V125.258C260.912 124.648 261.057 124.045 261.346 123.508Z" fill="#EC287C"/>
<path opacity="0.2" d="M280.251 141.409L280.298 141.456C280.819 141.798 281.722 142.281 281.924 142.39C281.9 142.386 281.877 142.377 281.857 142.363C281.837 142.35 281.82 142.332 281.807 142.312L280.695 140.499L280.912 140.375L279.932 140.935L280.251 141.409Z" fill="white"/>
<path opacity="0.4" d="M264.847 125.491C265.074 125.036 265.395 124.633 265.788 124.309C265.923 124.201 266.066 124.105 266.216 124.021L294.862 107.769C295.041 107.666 295.243 107.613 295.449 107.613C295.655 107.614 295.857 107.669 296.035 107.772C296.213 107.875 296.361 108.023 296.463 108.201C296.566 108.38 296.62 108.582 296.62 108.788C296.62 106.244 292.886 105.022 291.307 105.925L262.661 122.146C262.109 122.461 261.655 122.921 261.346 123.476L264.847 125.491Z" fill="white"/>
<path opacity="0.2" d="M264.45 147.633V127.071C264.442 126.931 264.442 126.791 264.45 126.651C264.508 126.246 264.634 125.854 264.823 125.491L261.322 123.508C261.025 124.032 260.867 124.624 260.863 125.227V145.797C260.881 146.409 261.059 147.005 261.38 147.526C261.701 148.047 262.155 148.474 262.694 148.763C263.233 149.053 263.839 149.195 264.45 149.176C265.062 149.156 265.658 148.976 266.177 148.652C266 148.75 265.8 148.799 265.598 148.796C265.396 148.792 265.198 148.737 265.024 148.634C264.85 148.531 264.705 148.385 264.605 148.209C264.504 148.034 264.451 147.835 264.45 147.633Z" fill="white"/>
<path d="M281.06 123.694L281.091 133.225L278.742 134.578L278.734 130.86L275.529 132.711L275.544 136.43L273.202 137.776L273.179 128.246L275.513 126.9L275.529 130.471L278.726 128.627L278.719 125.048L281.06 123.694Z" fill="white"/>
<path d="M283.752 123.484C282.927 123.959 282.375 123.679 282.367 122.901C282.401 122.453 282.544 122.02 282.784 121.64C283.025 121.26 283.354 120.945 283.744 120.722C284.569 120.248 285.121 120.489 285.121 121.267C285.097 121.722 284.959 122.163 284.72 122.551C284.481 122.938 284.148 123.259 283.752 123.484Z" fill="white"/>
<path d="M282.647 132.33L282.624 124.955L284.88 123.648L284.904 131.023L282.647 132.33Z" fill="white"/>
<path d="M288.303 125.577L286.514 126.619L286.055 120.808L288.731 119.267L288.303 125.577Z" fill="white"/>
<path d="M287.409 126.868C288.187 126.402 288.755 126.682 288.755 127.491C288.73 127.94 288.595 128.375 288.362 128.759C288.128 129.144 287.804 129.464 287.417 129.693C286.639 130.152 286.078 129.825 286.071 129.039C286.097 128.595 286.233 128.164 286.466 127.785C286.7 127.406 287.024 127.091 287.409 126.868Z" fill="white"/>
<path d="M288.132 210.527L293.306 220.579L288.638 228.491L293.866 236.761L301.763 224.507C302.289 223.675 302.63 222.739 302.764 221.764C302.898 220.788 302.822 219.795 302.541 218.851C301.194 214.073 299.477 209.406 297.406 204.894L288.132 210.527Z" fill="#FFA8A7"/>
<path opacity="0.2" d="M292.349 207.967L288.132 210.527L292.085 218.159L292.318 209.173C292.334 208.776 292.341 208.372 292.349 207.967Z" fill="black"/>
<path d="M283.97 191.1C289.961 189.988 293.384 191.987 298.449 205.532C296.379 210.2 287.611 211.881 287.611 211.881L283.97 191.1Z" fill="#EC287C"/>
<path opacity="0.2" d="M291.68 201.914C290.482 198.227 287.448 195.543 284.351 193.131L287.634 211.881C289.229 211.535 290.79 211.054 292.302 210.441C292.302 210.021 292.302 209.593 292.302 209.173C292.388 206.738 292.442 204.241 291.68 201.914Z" fill="black"/>
<path d="M274.766 333.062C274.276 334.089 272.72 335.038 271.024 335.318C269.306 335.465 267.575 335.355 265.889 334.991C263.351 334.635 260.779 334.57 258.226 334.797C256.645 335.005 255.052 335.117 253.457 335.131C251.85 335.15 250.28 334.654 248.976 333.715C248.075 333.007 247.475 331.984 247.295 330.852C247.217 331.59 247.331 332.336 247.625 333.018C247.92 333.699 248.385 334.293 248.976 334.742C250.281 335.68 251.85 336.178 253.457 336.166C255.052 336.145 256.644 336.031 258.226 335.824C260.78 335.6 263.35 335.666 265.889 336.018C267.593 336.259 269.445 336.742 271.141 336.462C272.837 336.182 274.393 335.232 274.883 334.205L274.766 333.062Z" fill="#263238"/>
<path d="M256.164 330.028C257.596 330.028 257.067 327.911 258.428 326.495C257.876 326.495 257.316 326.495 256.763 326.495C255.542 328.316 255.184 330.028 256.164 330.028Z" fill="white"/>
<path d="M259.136 329.919C260.576 329.919 260.194 327.398 261.61 325.928C261.284 326.036 260.957 326.13 260.63 326.208C260.35 326.27 260.062 326.317 259.782 326.355C258.522 328.145 258.156 329.919 259.136 329.919Z" fill="white"/>
<path d="M273.288 325.08C273.181 324.61 272.904 324.197 272.51 323.92L264.785 323.726C263.956 324.759 262.841 325.525 261.579 325.928C260.163 327.398 260.544 329.919 259.105 329.919C258.125 329.919 258.49 328.145 259.751 326.355C259.3 326.425 258.848 326.464 258.397 326.495C257.036 327.911 257.565 330.028 256.133 330.028C255.168 330.028 255.511 328.293 256.732 326.534H255.651C255.324 326.534 254.989 326.534 254.663 326.48C251.823 328.721 251.551 331.148 251.948 334.991C252.436 335.075 252.93 335.125 253.426 335.139C255.021 335.125 256.613 335.013 258.195 334.805C260.748 334.577 263.319 334.643 265.858 334.999C267.544 335.363 269.275 335.473 270.993 335.326C272.689 335.046 274.245 334.097 274.735 333.07L273.288 325.08Z" fill="#455A64"/>
<path d="M254.694 326.472C253.406 326.26 252.092 326.26 250.804 326.472C250.011 326.627 249.272 326.987 248.661 327.517C248.051 328.046 247.591 328.727 247.326 329.491C247.215 329.936 247.197 330.4 247.272 330.852C247.451 331.984 248.052 333.007 248.952 333.715C249.832 334.381 250.864 334.817 251.955 334.983C251.605 331.156 251.854 328.713 254.694 326.472Z" fill="white"/>
<path d="M264.598 321.524V325.243C264.598 325.656 264.762 326.051 265.054 326.343C265.345 326.635 265.741 326.799 266.154 326.799H270.044C270.695 326.799 271.321 326.546 271.788 326.093C272.256 325.64 272.529 325.022 272.549 324.372L272.642 321.547L264.598 321.524Z" fill="#FFA8A7"/>
<path d="M290.342 319.867C290.131 320.321 289.804 320.712 289.395 321C288.985 321.288 288.507 321.464 288.008 321.509C286.967 321.582 285.93 321.326 285.044 320.777C283.698 319.929 283.176 318.591 282.266 317.385C281.31 316.214 280.224 315.154 279.03 314.226C277.737 313.282 276.674 312.059 275.918 310.648C275.73 310.23 275.607 309.787 275.552 309.333C275.435 310.191 275.561 311.064 275.918 311.854C276.674 313.265 277.737 314.488 279.03 315.432C280.222 316.362 281.308 317.421 282.266 318.591C283.176 319.797 283.698 321.135 285.044 321.983C285.929 322.536 286.967 322.792 288.008 322.714C288.507 322.67 288.985 322.494 289.395 322.206C289.804 321.918 290.131 321.527 290.342 321.073C290.504 320.393 290.554 319.691 290.49 318.996C290.491 319.292 290.441 319.587 290.342 319.867Z" fill="#263238"/>
<path d="M281.566 311.698C281.43 311.882 281.364 312.108 281.379 312.336C281.403 312.444 281.454 312.545 281.527 312.628C281.601 312.711 281.694 312.774 281.799 312.81C281.952 312.849 282.112 312.849 282.264 312.81C282.416 312.77 282.556 312.693 282.671 312.585C282.893 312.366 283.093 312.126 283.27 311.869C283.788 311.213 284.477 310.713 285.261 310.422C285.644 310.279 286.045 310.19 286.452 310.157L285.479 309.278C284.872 309.311 284.275 309.456 283.721 309.706C282.814 310.132 282.062 310.828 281.566 311.698Z" fill="white"/>
<path d="M281.768 308.625C280.866 309.05 280.116 309.743 279.621 310.609C279.48 310.791 279.411 311.017 279.426 311.247C279.453 311.356 279.505 311.457 279.58 311.541C279.655 311.626 279.749 311.69 279.854 311.729C280.006 311.768 280.164 311.768 280.315 311.728C280.467 311.689 280.605 311.611 280.718 311.503C280.943 311.285 281.146 311.045 281.325 310.788C281.84 310.13 282.526 309.626 283.309 309.333C283.934 309.109 284.6 309.022 285.261 309.076L284.305 308.205C283.437 308.117 282.561 308.262 281.768 308.625Z" fill="white"/>
<path d="M283.698 307.66C282.82 306.802 281.791 306.114 280.664 305.63C279.983 305.331 279.233 305.227 278.497 305.328C277.761 305.43 277.068 305.733 276.493 306.205C276.109 306.617 275.826 307.113 275.667 307.653C275.508 308.193 275.476 308.763 275.575 309.317C275.63 309.771 275.753 310.215 275.941 310.632C276.189 311.179 276.511 311.69 276.898 312.149C277.264 308.866 280.158 307.31 283.698 307.66Z" fill="white"/>
<path d="M290.42 316.599C290.429 315.468 290.162 314.352 289.642 313.347L287.767 311.379L286.428 310.157C286.021 310.19 285.621 310.279 285.238 310.422C284.454 310.713 283.765 311.213 283.246 311.869C283.07 312.126 282.87 312.366 282.647 312.585C282.533 312.693 282.393 312.77 282.241 312.81C282.088 312.849 281.929 312.849 281.776 312.81C281.671 312.774 281.577 312.711 281.504 312.628C281.43 312.545 281.379 312.444 281.356 312.336C281.341 312.108 281.407 311.882 281.543 311.698C282.038 310.828 282.791 310.132 283.698 309.706C284.252 309.456 284.848 309.311 285.456 309.278L285.238 309.076C284.576 309.022 283.911 309.109 283.285 309.333C282.503 309.626 281.817 310.13 281.301 310.788C281.123 311.045 280.92 311.285 280.695 311.503C280.582 311.611 280.443 311.689 280.292 311.728C280.141 311.768 279.982 311.768 279.831 311.729C279.726 311.69 279.631 311.626 279.557 311.541C279.482 311.457 279.429 311.356 279.403 311.247C279.388 311.017 279.457 310.791 279.598 310.609C280.093 309.743 280.843 309.05 281.745 308.625C282.538 308.262 283.413 308.117 284.281 308.205L283.705 307.691C280.166 307.31 277.271 308.866 276.906 312.196C277.549 312.947 278.26 313.637 279.03 314.258C280.222 315.188 281.305 316.25 282.258 317.424C283.169 318.63 283.69 319.968 285.036 320.816C285.923 321.365 286.96 321.621 288 321.547C288.499 321.503 288.977 321.327 289.387 321.039C289.796 320.751 290.123 320.36 290.334 319.906C290.433 319.626 290.483 319.331 290.482 319.034C290.506 318.222 290.486 317.409 290.42 316.599Z" fill="#455A64"/>
<path d="M283.643 310.718L283.861 314.717C286.382 316.164 289.035 315.378 289.922 314.452L290.085 310.718H283.643Z" fill="#FFA8A7"/>
<path d="M288.638 224.36C288.422 223.93 288.292 223.462 288.257 222.983L288.047 219.552L263.61 221.108C263.291 222.819 262.964 224.92 262.637 227.332C271.372 229.604 280.641 228.545 288.638 224.36Z" fill="#FFA8A7"/>
<path d="M272.782 192.695L266.239 193.979C264.8 196.624 263.322 199.106 261.875 201.759C260.793 203.75 259.673 205.867 259.751 208.138C259.801 209.087 260.058 210.014 260.502 210.853C260.947 211.693 261.569 212.426 262.326 213.001C262.723 213.286 263.041 213.668 263.25 214.11C263.458 214.553 263.55 215.041 263.516 215.529L262.917 222.703C273.179 225.815 285.728 223.084 288.49 220.703C289.268 216.961 290.046 212.985 290.824 209.243C291.688 205.252 292.559 201.222 291.314 197.052C291.09 196.301 290.76 195.586 290.334 194.928C289.483 193.574 288.252 192.501 286.796 191.841C285.339 191.181 283.721 190.964 282.142 191.217L272.782 192.695Z" fill="#EC287C"/>
<path opacity="0.2" d="M262.046 201.448L261.883 201.751C260.793 203.743 259.673 205.859 259.751 208.131C259.801 209.079 260.058 210.006 260.502 210.846C260.947 211.685 261.569 212.418 262.326 212.993C262.723 213.278 263.041 213.66 263.25 214.103C263.458 214.545 263.55 215.034 263.516 215.522L263.314 217.918C265.368 213.888 268.13 208.029 269.297 203.712L262.046 201.448Z" fill="black"/>
<path d="M288.988 224.982C288.842 224.787 288.714 224.579 288.607 224.36C280.608 228.54 271.339 229.594 262.606 227.316C260.77 241.024 259.183 264.232 260.155 279.543C260.933 297.375 264.248 322.613 264.248 322.613C268.527 323.897 271.732 323.111 272.946 322.185C274.369 304.501 277.505 292.38 275.085 280.687C276.696 272.51 277.746 262.24 277.746 262.24L278.983 280.306L283.192 312.064C284.368 312.665 285.682 312.947 287.001 312.88C288.32 312.813 289.599 312.4 290.707 311.682C293.749 293.524 294.893 281.216 292.225 272.207C296.255 242.409 296.465 234.785 288.988 224.982Z" fill="#455A64"/>
<path opacity="0.3" d="M279.543 258.669L281.784 249.263C284.398 248.836 288.49 247.124 290.637 243.537C287.543 245.978 283.733 247.337 279.792 247.404L277.746 262.24L278.182 268.605L278.353 266.271C278.551 263.71 278.949 261.168 279.543 258.669Z" fill="black"/>
<path d="M264.816 175.12C263.843 173.269 263.399 171.185 263.532 169.098C263.614 168.06 263.943 167.055 264.492 166.17C265.042 165.285 265.796 164.544 266.691 164.01C267.606 163.51 268.664 163.335 269.691 163.515C270.719 163.694 271.655 164.217 272.347 164.998C274.008 164.086 275.886 163.64 277.781 163.709C279.675 163.778 281.516 164.358 283.107 165.389C284.698 166.42 285.98 167.863 286.817 169.564C287.653 171.265 288.014 173.161 287.86 175.05C287.72 177.213 286.926 179.345 287.175 181.5C287.315 182.768 287.813 184.051 287.487 185.281C287.322 185.791 287.054 186.261 286.699 186.663C286.345 187.065 285.911 187.389 285.425 187.615C284.483 188.113 282.274 187.98 281.231 188.198C278.042 191.092 274.043 190.011 271.491 187.42C268.939 184.829 264.816 175.12 264.816 175.12Z" fill="#37474F"/>
<path d="M264.154 177.999L262.163 181.461L264.341 182.262L264.154 177.999Z" fill="#FF9192"/>
<path d="M263.929 176.458C264.248 173.416 265.135 170.561 267.111 169.106C266.576 172.892 267.382 176.745 269.39 179.998C269.589 178.996 270.104 178.085 270.861 177.4C271.228 177.044 271.687 176.799 272.186 176.692C272.685 176.585 273.204 176.62 273.685 176.793C274.347 177.103 274.858 177.662 275.109 178.349C275.372 179.003 275.443 179.72 275.311 180.413C275.18 181.107 274.852 181.748 274.367 182.261C273.882 182.774 273.261 183.136 272.576 183.306C271.891 183.476 271.171 183.446 270.503 183.219C270.778 184.568 271.439 185.807 272.406 186.786C273.373 187.766 274.604 188.443 275.949 188.735C277.718 189.093 279.554 188.917 281.224 188.229L282.048 192.322C278.718 195.869 273.024 193.489 273.024 193.489L272.246 189.459C265.695 189.848 265.08 189.739 264.364 186.129C263.775 182.941 263.629 179.686 263.929 176.458Z" fill="#FFA8A7"/>
<path opacity="0.3" d="M278.431 172.047C279.357 169.409 281.209 167.198 283.643 165.823C285.037 166.908 286.147 168.314 286.881 169.92C287.616 171.526 287.951 173.286 287.86 175.05C287.72 177.213 286.926 179.345 287.175 181.5C287.315 182.768 287.813 184.051 287.487 185.281C287.322 185.791 287.054 186.261 286.699 186.663C286.345 187.065 285.911 187.389 285.425 187.615C284.483 188.113 282.274 187.98 281.231 188.198C281.091 188.323 280.951 188.432 280.811 188.541C279.699 186.428 278.83 184.197 278.221 181.889C277.322 178.659 277.395 175.236 278.431 172.047Z" fill="black"/>
<path d="M280.251 169.775C280.763 168.076 281.804 166.584 283.221 165.517C284.639 164.45 286.36 163.863 288.135 163.841C289.909 163.82 291.644 164.365 293.088 165.397C294.531 166.429 295.608 167.895 296.161 169.581C298.137 175.556 293.049 181.92 294.185 188.12C294.582 190.353 295.741 192.384 296.169 194.617C296.405 195.908 296.374 197.233 296.078 198.512C295.782 199.79 295.228 200.995 294.45 202.051C293.672 203.108 292.686 203.994 291.553 204.656C290.419 205.317 289.163 205.74 287.86 205.898C289.284 204.342 289.307 201.907 288.498 199.954C287.689 198.001 286.242 196.391 284.997 194.679C279.971 187.778 277.746 177.944 280.251 169.775Z" fill="#37474F"/>
<path d="M266.239 193.979C259.237 195.395 252.181 213.265 252.181 213.265L245.513 194.593L246.945 187.591C247.023 187.188 246.991 186.772 246.852 186.385L245.296 182.036C245.22 181.826 245.069 181.651 244.873 181.543C244.677 181.436 244.448 181.404 244.23 181.453C244.107 181.481 243.991 181.534 243.889 181.608C243.787 181.682 243.702 181.776 243.638 181.885C243.573 181.993 243.532 182.114 243.516 182.239C243.5 182.364 243.51 182.491 243.545 182.612L244.735 186.603L242.845 183.017C242.768 182.871 242.663 182.742 242.536 182.637C242.408 182.532 242.261 182.454 242.103 182.407C241.945 182.36 241.78 182.345 241.616 182.362C241.452 182.38 241.293 182.431 241.149 182.511L239.624 183.336C239.341 183.492 239.13 183.753 239.039 184.064C238.947 184.374 238.981 184.708 239.134 184.993L240.783 188.105C238.916 193.457 240.589 195.021 240.589 195.021L243.747 214.868C244.047 216.749 244.93 218.489 246.271 219.842C247.613 221.194 249.345 222.092 251.224 222.407C252.978 222.7 254.78 222.472 256.406 221.752C258.032 221.031 259.412 219.85 260.373 218.353C270.682 202.397 276.4 192.166 266.239 193.979Z" fill="#FFA8A7"/>
<path opacity="0.2" d="M251.123 217.062C251.35 215.777 251.704 214.519 252.181 213.304L251.403 211.033C250.876 211.941 250.575 212.964 250.526 214.013C250.477 215.063 250.682 216.108 251.123 217.062Z" fill="black"/>
<path d="M266.239 193.979C263.127 194.835 259.751 196.461 254.943 205.898C255.48 212.705 265.524 210.994 265.524 210.994C268.177 205.937 271.032 200.662 271.592 198.188C272.533 194.057 270.651 193.1 266.239 193.979Z" fill="#EC287C"/>
</svg>
